%TF.GenerationSoftware,KiCad,Pcbnew,10.0.5*%
%TF.CreationDate,2026-09-13T05:51:45+05:30*%
%TF.ProjectId,esp32-devboard,65737033-322d-4646-9576-626f6172642e,rev?*%
%TF.SameCoordinates,Original*%
%TF.FileFunction,Legend,Bot*%
%TF.FilePolarity,Positive*%
%FSLAX46Y46*%
G04 Gerber Fmt 4.6, Leading zero omitted, Abs format (unit mm)*
G04 Created by KiCad (PCBNEW 10.0.5) date 2026-09-13 05:51:45*
%MOMM*%
%LPD*%
G01*
G04 APERTURE LIST*
%ADD10C,0.000000*%
G04 APERTURE END LIST*
D10*
%TO.C,G\u002A\u002A\u002A*%
G36*
X165157526Y-90591666D02*
G01*
X165115051Y-90633999D01*
X165072576Y-90591666D01*
X165115051Y-90549333D01*
X165157526Y-90591666D01*
G37*
G36*
X147617659Y-94034537D02*
G01*
X148177603Y-94087254D01*
X148761910Y-94166646D01*
X149343489Y-94271562D01*
X149419079Y-94287224D01*
X149885085Y-94389231D01*
X150351256Y-94499374D01*
X150789917Y-94610193D01*
X151173394Y-94714229D01*
X151474014Y-94804024D01*
X151664103Y-94872117D01*
X151715986Y-94911050D01*
X151677169Y-94916726D01*
X151495442Y-94930214D01*
X151191607Y-94947895D01*
X150794706Y-94968128D01*
X150333780Y-94989268D01*
X149894637Y-95013779D01*
X148742337Y-95121946D01*
X147615385Y-95285948D01*
X147243360Y-95351847D01*
X146759967Y-95437891D01*
X146411416Y-95493040D01*
X146176940Y-95512331D01*
X146035771Y-95490801D01*
X145967144Y-95423487D01*
X145950292Y-95305425D01*
X145964448Y-95131653D01*
X145988847Y-94897206D01*
X145993458Y-94845955D01*
X146034379Y-94525154D01*
X146086300Y-94271198D01*
X146139138Y-94135206D01*
X146163374Y-94113492D01*
X146354936Y-94047975D01*
X146679232Y-94013745D01*
X147109171Y-94009650D01*
X147617659Y-94034537D01*
G37*
G36*
X151538899Y-95499955D02*
G01*
X151580115Y-95512137D01*
X151625545Y-95545888D01*
X151579804Y-95592712D01*
X151424943Y-95661304D01*
X151143010Y-95760361D01*
X150716054Y-95898579D01*
X150238551Y-96050550D01*
X149720625Y-96217394D01*
X149332142Y-96347982D01*
X149054489Y-96451121D01*
X148869054Y-96535620D01*
X148757226Y-96610284D01*
X148700391Y-96683922D01*
X148679940Y-96765341D01*
X148677258Y-96863347D01*
X148677389Y-96881011D01*
X148698260Y-97079779D01*
X148743951Y-97184420D01*
X148796330Y-97186126D01*
X148986399Y-97152289D01*
X149275715Y-97081974D01*
X149626248Y-96983827D01*
X149780688Y-96940150D01*
X150238664Y-96828650D01*
X150693924Y-96739357D01*
X151067414Y-96688472D01*
X151692977Y-96634791D01*
X149739131Y-97514112D01*
X149349540Y-97689968D01*
X148804304Y-97937808D01*
X148305680Y-98166408D01*
X147880774Y-98363260D01*
X147556691Y-98515856D01*
X147360536Y-98611689D01*
X146935787Y-98829945D01*
X146787210Y-98597571D01*
X146709144Y-98450273D01*
X146580646Y-98161466D01*
X146430994Y-97793098D01*
X146277556Y-97389646D01*
X146137700Y-96995587D01*
X146028796Y-96655400D01*
X146012063Y-96594767D01*
X145989373Y-96389980D01*
X146057983Y-96260751D01*
X146118642Y-96225637D01*
X146343502Y-96153566D01*
X146696609Y-96071526D01*
X147151860Y-95983141D01*
X147683156Y-95892034D01*
X148264393Y-95801828D01*
X148869470Y-95716146D01*
X149472287Y-95638611D01*
X150046741Y-95572847D01*
X150566730Y-95522476D01*
X151006154Y-95491122D01*
X151338911Y-95482407D01*
X151538899Y-95499955D01*
G37*
G36*
X158612586Y-90086114D02*
G01*
X158904210Y-90095387D01*
X159088043Y-90124841D01*
X159206688Y-90184115D01*
X159302746Y-90282847D01*
X159404359Y-90469794D01*
X159406933Y-90693491D01*
X159297469Y-90974633D01*
X159069635Y-91342000D01*
X158933849Y-91562416D01*
X158800273Y-91927482D01*
X158821066Y-92244801D01*
X158995409Y-92527498D01*
X159024562Y-92558075D01*
X159300217Y-92770976D01*
X159635631Y-92885702D01*
X160079840Y-92919999D01*
X160535903Y-92853962D01*
X160962230Y-92647483D01*
X161295374Y-92323149D01*
X161512215Y-91904035D01*
X161589633Y-91413214D01*
X161589664Y-91395399D01*
X161605256Y-91173639D01*
X161670261Y-91061679D01*
X161815225Y-91004127D01*
X161931623Y-90989261D01*
X162120047Y-91066411D01*
X162232151Y-91292325D01*
X162269232Y-91668901D01*
X162209226Y-92152050D01*
X161995895Y-92647147D01*
X161634728Y-93067590D01*
X161132581Y-93402920D01*
X161080379Y-93428198D01*
X160618619Y-93576517D01*
X160106979Y-93635512D01*
X159608635Y-93602809D01*
X159186763Y-93476034D01*
X159105082Y-93438185D01*
X158922645Y-93366608D01*
X158836168Y-93353416D01*
X158819473Y-93378946D01*
X158741837Y-93519827D01*
X158630891Y-93734194D01*
X158450761Y-94042121D01*
X158023284Y-94530978D01*
X157489383Y-94888411D01*
X156854026Y-95110571D01*
X156633190Y-95146717D01*
X156227184Y-95156040D01*
X155817455Y-95105430D01*
X155425430Y-95005779D01*
X155072535Y-94867975D01*
X154780199Y-94702910D01*
X154569848Y-94521474D01*
X154462911Y-94334556D01*
X154480813Y-94153049D01*
X154644984Y-93987840D01*
X154771122Y-93939264D01*
X154942309Y-94002041D01*
X155270945Y-94206112D01*
X155795570Y-94392731D01*
X156345487Y-94419398D01*
X156881883Y-94313856D01*
X157380999Y-94085729D01*
X157774450Y-93754824D01*
X158043961Y-93336871D01*
X158171260Y-92847603D01*
X158177435Y-92779127D01*
X158181147Y-92532604D01*
X158128343Y-92367376D01*
X158000130Y-92213431D01*
X157771668Y-92056199D01*
X157374045Y-91950175D01*
X156985074Y-91880808D01*
X156718389Y-91773062D01*
X156568622Y-91612079D01*
X156509243Y-91380382D01*
X156509443Y-91205776D01*
X156579164Y-90998757D01*
X156756050Y-90764221D01*
X157080381Y-90452613D01*
X157446589Y-90238376D01*
X157882630Y-90122103D01*
X158432578Y-90085963D01*
X158612586Y-90086114D01*
G37*
G36*
X163931289Y-83625134D02*
G01*
X164224263Y-84902114D01*
X164328887Y-85477895D01*
X165019293Y-85821441D01*
X165133476Y-85879137D01*
X165478090Y-86062857D01*
X165778515Y-86235992D01*
X165980119Y-86367493D01*
X166032002Y-86405105D01*
X166137316Y-86470437D01*
X166221468Y-86522641D01*
X166345687Y-86569999D01*
X166371288Y-86562898D01*
X166515766Y-86479295D01*
X166740752Y-86321461D01*
X167009717Y-86114456D01*
X167090870Y-86050015D01*
X168068796Y-85343535D01*
X169156022Y-84672088D01*
X170296991Y-84070222D01*
X170672035Y-83891939D01*
X171302512Y-83611168D01*
X171801534Y-83419429D01*
X172176602Y-83314911D01*
X172435220Y-83295804D01*
X172584889Y-83360298D01*
X172633111Y-83506584D01*
X172627522Y-83540095D01*
X172557106Y-83630914D01*
X172389272Y-83740776D01*
X172103039Y-83881980D01*
X171677426Y-84066824D01*
X171362912Y-84202343D01*
X170867696Y-84426347D01*
X170389878Y-84653177D01*
X169999666Y-84850059D01*
X169667110Y-85034789D01*
X169211834Y-85305285D01*
X168718856Y-85612352D01*
X168225249Y-85931925D01*
X167768084Y-86239937D01*
X167384434Y-86512322D01*
X167111372Y-86725016D01*
X166814048Y-86978070D01*
X167207906Y-87356058D01*
X167601765Y-87734047D01*
X168906903Y-87083273D01*
X170113321Y-86523181D01*
X171570848Y-85962981D01*
X173083196Y-85510728D01*
X173191813Y-85482547D01*
X173561933Y-85390175D01*
X173808758Y-85339605D01*
X173964886Y-85327603D01*
X174062917Y-85350938D01*
X174135448Y-85406376D01*
X174187363Y-85465451D01*
X174231035Y-85599584D01*
X174140833Y-85721237D01*
X173905109Y-85840930D01*
X173512215Y-85969181D01*
X172801195Y-86179777D01*
X171577500Y-86578444D01*
X170458224Y-86991350D01*
X169465085Y-87410248D01*
X168619800Y-87826890D01*
X168563315Y-87857866D01*
X168300988Y-88015325D01*
X168116350Y-88148714D01*
X168046389Y-88231908D01*
X168074969Y-88318665D01*
X168171755Y-88516609D01*
X168311900Y-88772998D01*
X168469131Y-89041707D01*
X168617175Y-89276614D01*
X168729760Y-89431594D01*
X168744956Y-89446285D01*
X168845254Y-89487902D01*
X169031745Y-89505638D01*
X169331912Y-89500608D01*
X169773242Y-89473928D01*
X169863733Y-89467934D01*
X170332128Y-89446380D01*
X170899996Y-89431799D01*
X171533676Y-89423974D01*
X172199507Y-89422686D01*
X172863827Y-89427717D01*
X173492974Y-89438851D01*
X174053287Y-89455868D01*
X174511104Y-89478551D01*
X174832764Y-89506682D01*
X174840329Y-89507652D01*
X175201679Y-89581734D01*
X175436437Y-89688435D01*
X175530170Y-89817493D01*
X175468448Y-89958647D01*
X175448307Y-89978542D01*
X175407722Y-90009605D01*
X175346627Y-90031679D01*
X175243699Y-90045152D01*
X175077613Y-90050411D01*
X174827043Y-90047844D01*
X174470665Y-90037839D01*
X173987154Y-90020783D01*
X173355185Y-89997064D01*
X172881978Y-89982903D01*
X172253546Y-89973650D01*
X171618026Y-89973487D01*
X171000693Y-89981676D01*
X170426827Y-89997480D01*
X169921705Y-90020160D01*
X169510604Y-90048979D01*
X169218801Y-90083200D01*
X169071575Y-90122084D01*
X169054348Y-90134872D01*
X169012798Y-90224529D01*
X169017838Y-90402117D01*
X169069324Y-90705133D01*
X169126591Y-90949494D01*
X169201373Y-91178734D01*
X169267119Y-91294232D01*
X169270330Y-91296340D01*
X169398010Y-91335892D01*
X169655806Y-91389793D01*
X170007905Y-91451226D01*
X170418491Y-91513377D01*
X170721859Y-91558633D01*
X171366201Y-91668871D01*
X172033360Y-91799210D01*
X172696104Y-91942994D01*
X173327201Y-92093569D01*
X173899418Y-92244280D01*
X174385523Y-92388472D01*
X174758284Y-92519489D01*
X174990469Y-92630677D01*
X175130891Y-92742187D01*
X175167708Y-92867531D01*
X175051541Y-93006850D01*
X175045516Y-93011609D01*
X174960897Y-93045908D01*
X174820553Y-93047113D01*
X174597820Y-93011042D01*
X174266034Y-92933514D01*
X173798531Y-92810348D01*
X172844064Y-92563601D01*
X171516173Y-92265427D01*
X170201919Y-92027239D01*
X169869317Y-91977550D01*
X169539213Y-91950771D01*
X169328950Y-91984674D01*
X169248879Y-92059182D01*
X169211824Y-92093663D01*
X169161131Y-92292142D01*
X169150168Y-92594513D01*
X169146249Y-92702627D01*
X169115049Y-93023707D01*
X169059458Y-93419160D01*
X168987627Y-93827164D01*
X168829232Y-94514576D01*
X168420071Y-95736630D01*
X167857887Y-96895088D01*
X167138733Y-97997505D01*
X166258665Y-99051433D01*
X166257132Y-99053078D01*
X165858676Y-99496612D01*
X165570814Y-99871157D01*
X165382611Y-100215424D01*
X165283130Y-100568128D01*
X165261435Y-100967983D01*
X165306591Y-101453702D01*
X165407661Y-102063999D01*
X165563488Y-102837138D01*
X165836207Y-103882183D01*
X166169466Y-104807998D01*
X166580135Y-105642825D01*
X167085086Y-106414905D01*
X167701189Y-107152481D01*
X168445316Y-107883793D01*
X169334338Y-108637082D01*
X169556864Y-108817325D01*
X170205949Y-109378664D01*
X170724069Y-109895527D01*
X171128101Y-110390504D01*
X171434920Y-110886182D01*
X171661403Y-111405151D01*
X171824427Y-111969999D01*
X171901884Y-112385892D01*
X171914020Y-112665648D01*
X171934965Y-113148462D01*
X171811193Y-113875951D01*
X171527594Y-114594666D01*
X171414089Y-114790828D01*
X171111443Y-115189413D01*
X170738694Y-115574989D01*
X170343414Y-115900863D01*
X169973177Y-116120341D01*
X169707572Y-116227406D01*
X168860384Y-116453974D01*
X167966041Y-116537693D01*
X167055728Y-116479745D01*
X166160631Y-116281314D01*
X165311937Y-115943580D01*
X165234167Y-115904128D01*
X164622277Y-115534228D01*
X164118333Y-115098916D01*
X163667108Y-114551450D01*
X163530447Y-114361720D01*
X163374919Y-114166894D01*
X163227211Y-114038806D01*
X163043888Y-113951663D01*
X162781515Y-113879673D01*
X162396656Y-113797044D01*
X161682774Y-113619635D01*
X160688105Y-113293295D01*
X159708819Y-112886628D01*
X159577114Y-112826343D01*
X159205972Y-112672891D01*
X158931327Y-112603325D01*
X158713346Y-112618087D01*
X158512194Y-112717618D01*
X158288039Y-112902358D01*
X158162669Y-113030038D01*
X158061863Y-113204047D01*
X158049951Y-113406065D01*
X158127120Y-113674743D01*
X158293557Y-114048733D01*
X158324643Y-114112156D01*
X158343876Y-114151396D01*
X158449659Y-114328674D01*
X158576492Y-114444936D01*
X158771951Y-114535536D01*
X159083613Y-114635829D01*
X159834634Y-114914824D01*
X160630187Y-115353501D01*
X161299503Y-115900337D01*
X161837602Y-116551868D01*
X161906969Y-116658640D01*
X162263318Y-117361767D01*
X162465004Y-118084431D01*
X162506498Y-118775257D01*
X162508424Y-118807323D01*
X162389973Y-119511132D01*
X162307092Y-119727312D01*
X162029522Y-120165725D01*
X161625338Y-120596957D01*
X161122216Y-121000226D01*
X160547833Y-121354748D01*
X159929864Y-121639741D01*
X159295987Y-121834423D01*
X158701094Y-121916531D01*
X157936790Y-121918480D01*
X157563237Y-121890365D01*
X156447783Y-121693602D01*
X155341608Y-121329017D01*
X154246169Y-120797628D01*
X153162922Y-120100449D01*
X152093326Y-119238498D01*
X151735459Y-118890399D01*
X154472857Y-118890399D01*
X154496689Y-119467566D01*
X154674434Y-119997936D01*
X154889858Y-120330635D01*
X155178798Y-120607796D01*
X155495686Y-120785475D01*
X155811000Y-120852659D01*
X156095220Y-120798333D01*
X156318826Y-120611482D01*
X156392486Y-120483057D01*
X156509325Y-120170700D01*
X156596807Y-119807043D01*
X156640216Y-119460076D01*
X156624835Y-119197785D01*
X156624014Y-119044663D01*
X156702362Y-118993169D01*
X156816194Y-119050452D01*
X156919288Y-119213970D01*
X157025130Y-119543227D01*
X157063711Y-119847183D01*
X157023278Y-120155780D01*
X156897748Y-120513753D01*
X156681037Y-120965833D01*
X156684186Y-120987708D01*
X156791764Y-121019889D01*
X157001770Y-121029857D01*
X157268749Y-121020073D01*
X157547244Y-120992995D01*
X157791800Y-120951083D01*
X157956960Y-120896796D01*
X157963955Y-120892927D01*
X158166382Y-120724045D01*
X158330810Y-120498695D01*
X158366447Y-120421213D01*
X158468459Y-120040776D01*
X158512610Y-119574366D01*
X158496205Y-119081061D01*
X158416548Y-118619937D01*
X158359480Y-118382588D01*
X158321703Y-118172629D01*
X158322006Y-118077178D01*
X158338515Y-118068154D01*
X158444941Y-118113659D01*
X158593266Y-118259253D01*
X158749930Y-118467510D01*
X158881370Y-118700999D01*
X159001495Y-119122400D01*
X159020982Y-119651216D01*
X158933463Y-120227244D01*
X158741650Y-120809533D01*
X158726581Y-120847208D01*
X158721619Y-120925085D01*
X158811757Y-120945549D01*
X159033105Y-120922611D01*
X159094301Y-120913080D01*
X159552739Y-120753096D01*
X159942616Y-120463954D01*
X160220144Y-120076854D01*
X160288406Y-119898999D01*
X160373144Y-119476373D01*
X160399509Y-118993617D01*
X160365837Y-118515885D01*
X160270461Y-118108333D01*
X160262310Y-118085810D01*
X160183465Y-117865712D01*
X160157394Y-117760717D01*
X160182729Y-117728649D01*
X160258103Y-117727333D01*
X160355310Y-117755226D01*
X160532940Y-117907071D01*
X160700824Y-118153141D01*
X160825055Y-118450202D01*
X160866720Y-118660408D01*
X160896778Y-119004247D01*
X160896843Y-119360546D01*
X160896607Y-119365172D01*
X160890000Y-119649355D01*
X160900221Y-119851762D01*
X160925106Y-119928843D01*
X160944331Y-119925652D01*
X161066240Y-119825941D01*
X161211097Y-119618845D01*
X161351847Y-119348284D01*
X161461437Y-119058176D01*
X161520577Y-118775257D01*
X161510570Y-118222245D01*
X161351273Y-117655645D01*
X161050967Y-117099789D01*
X160617928Y-116579007D01*
X160486137Y-116451690D01*
X159961498Y-116033438D01*
X159408061Y-115745199D01*
X158774327Y-115558464D01*
X158039075Y-115478369D01*
X157309918Y-115554001D01*
X156628740Y-115784668D01*
X156009591Y-116163715D01*
X155466520Y-116684485D01*
X155013575Y-117340321D01*
X154889915Y-117572309D01*
X154603684Y-118260594D01*
X154472857Y-118890399D01*
X151735459Y-118890399D01*
X151038836Y-118212790D01*
X150000911Y-117024340D01*
X148981008Y-115674166D01*
X148577395Y-115102666D01*
X147820303Y-115102666D01*
X147619312Y-115102984D01*
X147309451Y-115114098D01*
X147132831Y-115158397D01*
X147064599Y-115258943D01*
X147079900Y-115438796D01*
X147153880Y-115721019D01*
X147182012Y-115812929D01*
X147251018Y-115953149D01*
X147369110Y-116067600D01*
X147572329Y-116186276D01*
X147896718Y-116339168D01*
X148361477Y-116582067D01*
X148907964Y-116992116D01*
X149298176Y-117468013D01*
X149531922Y-118009503D01*
X149603445Y-118572518D01*
X149609011Y-118616333D01*
X149602803Y-118789359D01*
X149488488Y-119343274D01*
X149228138Y-119820210D01*
X148819119Y-120222975D01*
X148258797Y-120554377D01*
X147544538Y-120817222D01*
X147078992Y-120920994D01*
X146273731Y-120970205D01*
X145403989Y-120871037D01*
X144465212Y-120622828D01*
X143452844Y-120224921D01*
X143341194Y-120167963D01*
X142989744Y-119932225D01*
X142575753Y-119592547D01*
X142138872Y-119187559D01*
X145081820Y-119187559D01*
X145082010Y-119512426D01*
X145195374Y-119770654D01*
X145425486Y-119935788D01*
X145463446Y-119949070D01*
X145763983Y-120003593D01*
X146075424Y-119995490D01*
X146313015Y-119925725D01*
X146362546Y-119883032D01*
X146486174Y-119704450D01*
X146601738Y-119459775D01*
X146639764Y-119366800D01*
X146757130Y-119163696D01*
X146849901Y-119126010D01*
X146906461Y-119250929D01*
X146915189Y-119535641D01*
X146912028Y-119602617D01*
X146915715Y-119812399D01*
X146960507Y-119906760D01*
X147062511Y-119928666D01*
X147285759Y-119862354D01*
X147518127Y-119672540D01*
X147703684Y-119404321D01*
X147801715Y-119103166D01*
X147854448Y-118874119D01*
X147936708Y-118753604D01*
X148019979Y-118778831D01*
X148081433Y-118940186D01*
X148098242Y-119228055D01*
X148097820Y-119241736D01*
X148129771Y-119440439D01*
X148229332Y-119492858D01*
X148382579Y-119400802D01*
X148575585Y-119166080D01*
X148686650Y-118956299D01*
X148753382Y-118572518D01*
X148668599Y-118182773D01*
X148439879Y-117812468D01*
X148074799Y-117487006D01*
X148062684Y-117478775D01*
X147850984Y-117362705D01*
X147628635Y-117316882D01*
X147318061Y-117324665D01*
X146779673Y-117429033D01*
X146200044Y-117700870D01*
X145669320Y-118131882D01*
X145406655Y-118443730D01*
X145191227Y-118822509D01*
X145081820Y-119187559D01*
X142138872Y-119187559D01*
X142124453Y-119174193D01*
X141661081Y-118702429D01*
X141210871Y-118202521D01*
X140799059Y-117699733D01*
X140450879Y-117219333D01*
X140369041Y-117095483D01*
X139917824Y-116358011D01*
X139524021Y-115620701D01*
X139198455Y-114909070D01*
X138951946Y-114248635D01*
X138795315Y-113664914D01*
X138739384Y-113183424D01*
X138724035Y-112960100D01*
X138686436Y-112780924D01*
X138682391Y-112772457D01*
X138583202Y-112657428D01*
X138386649Y-112473532D01*
X138124743Y-112246722D01*
X137829494Y-112002951D01*
X137532913Y-111768173D01*
X137267010Y-111568342D01*
X137063795Y-111429410D01*
X136955279Y-111377333D01*
X136913171Y-111388033D01*
X136752565Y-111474292D01*
X136545688Y-111618788D01*
X136271726Y-111803717D01*
X135655117Y-112091220D01*
X134958979Y-112279807D01*
X134228388Y-112359092D01*
X133508415Y-112318687D01*
X132824133Y-112174655D01*
X132047181Y-111877912D01*
X131350594Y-111442115D01*
X130710454Y-110854748D01*
X130589560Y-110720922D01*
X130207560Y-110222096D01*
X129917844Y-109686785D01*
X129682859Y-109048999D01*
X129601279Y-108686917D01*
X129571342Y-108411141D01*
X130520104Y-108411141D01*
X130587467Y-108712613D01*
X130710435Y-109069108D01*
X130870527Y-109437927D01*
X131049262Y-109776372D01*
X131228158Y-110041743D01*
X131388735Y-110191342D01*
X131403252Y-110198893D01*
X131554830Y-110246705D01*
X131741859Y-110231916D01*
X132023915Y-110150717D01*
X132202919Y-110097959D01*
X132414700Y-110056425D01*
X132521056Y-110064831D01*
X132519139Y-110107317D01*
X132426975Y-110236665D01*
X132252507Y-110406991D01*
X132136247Y-110516129D01*
X132005226Y-110673765D01*
X131975049Y-110769238D01*
X131983805Y-110781074D01*
X132118625Y-110881408D01*
X132335027Y-110993853D01*
X132562675Y-111085473D01*
X132731233Y-111123333D01*
X132833606Y-111091861D01*
X133040756Y-110984398D01*
X133289758Y-110826999D01*
X133495511Y-110692479D01*
X133697476Y-110575630D01*
X133808990Y-110530666D01*
X133873721Y-110555557D01*
X133892142Y-110674757D01*
X133820010Y-110854989D01*
X133668568Y-111054316D01*
X133623621Y-111102574D01*
X133506485Y-111249715D01*
X133477431Y-111326565D01*
X133483755Y-111331110D01*
X133603783Y-111370118D01*
X133811038Y-111413115D01*
X134172566Y-111400778D01*
X134520749Y-111231372D01*
X134820148Y-110910758D01*
X134943420Y-110752783D01*
X135110371Y-110622483D01*
X135217589Y-110640500D01*
X135244405Y-110796767D01*
X135170151Y-111081219D01*
X135126803Y-111208974D01*
X135146152Y-111272495D01*
X135276338Y-111246411D01*
X135334438Y-111226752D01*
X135555976Y-111126480D01*
X135778829Y-110998017D01*
X135950809Y-110873694D01*
X136019733Y-110785843D01*
X135971685Y-110727402D01*
X135809998Y-110608634D01*
X135573747Y-110464860D01*
X135452806Y-110393386D01*
X135138630Y-110192093D01*
X134774802Y-109944450D01*
X134417901Y-109688462D01*
X134093388Y-109451153D01*
X133650489Y-109142667D01*
X133274212Y-108907892D01*
X132925397Y-108725025D01*
X132564880Y-108572263D01*
X132153499Y-108427804D01*
X131854930Y-108333012D01*
X131306586Y-108182389D01*
X130904433Y-108110819D01*
X130645870Y-108117944D01*
X130528301Y-108203406D01*
X130526828Y-108207390D01*
X130520104Y-108411141D01*
X129571342Y-108411141D01*
X129540284Y-108125030D01*
X129520128Y-107467583D01*
X129525191Y-107272947D01*
X135190730Y-107272947D01*
X135226547Y-107399039D01*
X135328754Y-107626708D01*
X135479623Y-107922280D01*
X135661430Y-108252080D01*
X135856446Y-108582433D01*
X136046946Y-108879666D01*
X136314253Y-109229565D01*
X136681841Y-109647759D01*
X137112253Y-110096096D01*
X137569242Y-110538212D01*
X137846492Y-110785843D01*
X138016558Y-110937741D01*
X138417952Y-111258316D01*
X139277689Y-111834853D01*
X140526856Y-112514804D01*
X141875762Y-113087872D01*
X143298601Y-113543443D01*
X144769566Y-113870902D01*
X145166080Y-113928467D01*
X145676797Y-113984561D01*
X146226605Y-114031230D01*
X146749234Y-114062073D01*
X147921878Y-114112156D01*
X147716600Y-113654911D01*
X147637651Y-113481298D01*
X147468065Y-113117862D01*
X147314496Y-112798949D01*
X147117670Y-112400233D01*
X145837431Y-112404109D01*
X145749155Y-112404201D01*
X145092598Y-112385257D01*
X163968293Y-112385257D01*
X164012276Y-112959511D01*
X164218184Y-113516755D01*
X164587307Y-114044333D01*
X164887770Y-114382999D01*
X164980173Y-114144654D01*
X165042217Y-113939087D01*
X165074969Y-113721321D01*
X165078025Y-113677720D01*
X165153643Y-113414146D01*
X165303702Y-113107151D01*
X165492255Y-112821653D01*
X165683356Y-112622571D01*
X165837760Y-112528288D01*
X165985957Y-112508681D01*
X166030453Y-112615478D01*
X165954689Y-112835670D01*
X165894628Y-112980165D01*
X165806535Y-113264845D01*
X165718386Y-113612581D01*
X165639687Y-113978245D01*
X165579942Y-114316706D01*
X165548660Y-114582837D01*
X165555345Y-114731509D01*
X165622896Y-114830830D01*
X165829873Y-114971664D01*
X166094890Y-115057675D01*
X166348299Y-115060009D01*
X166456626Y-115025301D01*
X166753472Y-114827309D01*
X167038943Y-114501119D01*
X167294052Y-114076345D01*
X167499816Y-113582601D01*
X167637249Y-113049499D01*
X167682500Y-112835725D01*
X167742824Y-112638685D01*
X167793460Y-112562666D01*
X167856526Y-112601162D01*
X167936306Y-112769007D01*
X167995056Y-113028400D01*
X168023464Y-113333543D01*
X168012219Y-113638640D01*
X167940937Y-114011049D01*
X167705010Y-114566943D01*
X167317514Y-115049676D01*
X167012532Y-115344884D01*
X167338039Y-115434969D01*
X167540390Y-115488273D01*
X167727780Y-115514523D01*
X167903440Y-115487808D01*
X168152812Y-115404984D01*
X168465737Y-115270976D01*
X168730759Y-115084116D01*
X168956046Y-114815825D01*
X169184534Y-114425333D01*
X169278899Y-114224320D01*
X169392049Y-113901219D01*
X169496659Y-113487337D01*
X169603767Y-112943666D01*
X169632738Y-112871021D01*
X169688610Y-112918538D01*
X169784259Y-113112386D01*
X169835722Y-113252999D01*
X169896730Y-113705043D01*
X169837146Y-114197530D01*
X169661197Y-114676733D01*
X169604552Y-114794818D01*
X169532425Y-114985278D01*
X169524789Y-115080927D01*
X169545759Y-115090294D01*
X169676393Y-115050350D01*
X169875044Y-114926746D01*
X170103588Y-114748394D01*
X170323895Y-114544204D01*
X170497840Y-114343086D01*
X170747004Y-113894966D01*
X170907395Y-113305737D01*
X170930622Y-112665648D01*
X170816096Y-112001793D01*
X170563225Y-111341264D01*
X170476081Y-111176034D01*
X170050970Y-110573614D01*
X169533180Y-110097595D01*
X168942136Y-109750754D01*
X168297262Y-109535869D01*
X167617984Y-109455718D01*
X166923726Y-109513077D01*
X166233913Y-109710724D01*
X165567971Y-110051436D01*
X164945323Y-110537992D01*
X164794965Y-110686977D01*
X164360930Y-111236336D01*
X164084941Y-111806647D01*
X163968293Y-112385257D01*
X145092598Y-112385257D01*
X144755066Y-112375518D01*
X143853509Y-112285704D01*
X142980492Y-112125978D01*
X142072023Y-111887564D01*
X141111673Y-111562766D01*
X140070568Y-111127320D01*
X139062684Y-110624145D01*
X138133579Y-110076115D01*
X137328812Y-109506105D01*
X137217753Y-109416147D01*
X136831011Y-109074247D01*
X136422886Y-108678189D01*
X136031921Y-108267924D01*
X135696657Y-107883398D01*
X135455636Y-107564561D01*
X135376780Y-107451150D01*
X135257209Y-107303239D01*
X135194716Y-107260711D01*
X135190730Y-107272947D01*
X129525191Y-107272947D01*
X129538746Y-106751911D01*
X129594067Y-106015348D01*
X129684024Y-105295229D01*
X129806549Y-104628890D01*
X129959574Y-104053666D01*
X130116524Y-103626279D01*
X130429247Y-103023951D01*
X130803907Y-102573746D01*
X131245374Y-102270399D01*
X131758518Y-102108643D01*
X131942975Y-102068912D01*
X132079310Y-102002405D01*
X132149321Y-101917020D01*
X133097937Y-101917020D01*
X133336850Y-102121839D01*
X133381111Y-102158986D01*
X133569622Y-102285676D01*
X133707096Y-102298201D01*
X133807468Y-102182786D01*
X133884671Y-101925655D01*
X133952639Y-101513031D01*
X133961839Y-101447398D01*
X134204600Y-100227908D01*
X134567563Y-99106865D01*
X135045959Y-98091630D01*
X135635019Y-97189568D01*
X136329974Y-96408041D01*
X137126054Y-95754411D01*
X138018491Y-95236041D01*
X138801744Y-94935790D01*
X139652813Y-94758346D01*
X140598953Y-94699469D01*
X140653885Y-94699381D01*
X141003817Y-94701020D01*
X141213118Y-94711127D01*
X141307796Y-94735759D01*
X141313858Y-94780974D01*
X141257314Y-94852833D01*
X141213221Y-94908896D01*
X141128595Y-95117226D01*
X141139604Y-95311935D01*
X141247327Y-95430597D01*
X141298846Y-95433772D01*
X141494506Y-95393914D01*
X141781583Y-95303766D01*
X142118062Y-95175631D01*
X142445787Y-95046886D01*
X143049061Y-94835329D01*
X143661784Y-94647641D01*
X144229603Y-94499984D01*
X144698165Y-94408517D01*
X145093989Y-94351255D01*
X145048654Y-94884460D01*
X145021196Y-95140355D01*
X144984545Y-95364417D01*
X144950155Y-95470687D01*
X144945862Y-95474242D01*
X144828358Y-95529387D01*
X144598847Y-95615897D01*
X144302342Y-95716679D01*
X144062625Y-95800092D01*
X143663687Y-95952766D01*
X143209085Y-96137818D01*
X142734510Y-96339683D01*
X142275656Y-96542797D01*
X141868214Y-96731595D01*
X141547876Y-96890513D01*
X141350335Y-97003985D01*
X141294409Y-97046231D01*
X141145253Y-97238014D01*
X141138713Y-97425547D01*
X141279293Y-97572756D01*
X141279469Y-97572850D01*
X141374549Y-97594279D01*
X141518531Y-97568499D01*
X141736008Y-97486206D01*
X142051576Y-97338098D01*
X142489828Y-97114871D01*
X142574742Y-97071053D01*
X143027596Y-96846395D01*
X143489013Y-96630494D01*
X143932239Y-96434510D01*
X144330517Y-96269602D01*
X144657091Y-96146928D01*
X144885205Y-96077648D01*
X144988105Y-96072920D01*
X145018465Y-96127881D01*
X145081081Y-96316396D01*
X145148452Y-96576670D01*
X145207241Y-96850198D01*
X145244110Y-97078475D01*
X145245722Y-97202998D01*
X145188098Y-97263000D01*
X145007799Y-97396403D01*
X144737363Y-97573865D01*
X144408960Y-97773454D01*
X144237320Y-97876220D01*
X143738797Y-98196961D01*
X143259102Y-98535684D01*
X142819328Y-98874787D01*
X142440566Y-99196667D01*
X142143908Y-99483723D01*
X141950446Y-99718352D01*
X141881272Y-99882951D01*
X141926062Y-100045174D01*
X142064729Y-100076174D01*
X142294698Y-99968905D01*
X142613346Y-99723938D01*
X142891669Y-99490240D01*
X143321051Y-99151539D01*
X143769694Y-98818490D01*
X144212474Y-98508026D01*
X144624267Y-98237080D01*
X144979949Y-98022582D01*
X145254399Y-97881467D01*
X145422492Y-97830666D01*
X145456292Y-97847693D01*
X145556978Y-97975841D01*
X145669875Y-98188376D01*
X145701635Y-98256392D01*
X145862667Y-98563589D01*
X146026480Y-98832870D01*
X146068980Y-98897921D01*
X146168709Y-99080475D01*
X146196380Y-99185945D01*
X146157187Y-99229010D01*
X146004539Y-99358845D01*
X145765524Y-99546860D01*
X145470402Y-99768766D01*
X145421374Y-99805107D01*
X145057235Y-100094582D01*
X144840978Y-100310216D01*
X144769566Y-100454981D01*
X144788692Y-100546991D01*
X144903528Y-100620245D01*
X145096142Y-100580779D01*
X145336460Y-100429921D01*
X145374778Y-100399362D01*
X145627393Y-100214518D01*
X145913323Y-100025496D01*
X146189928Y-99858292D01*
X146414568Y-99738905D01*
X146544602Y-99693333D01*
X146587034Y-99708250D01*
X146747115Y-99809017D01*
X146982585Y-99983925D01*
X147259238Y-100208324D01*
X147387022Y-100314412D01*
X147683751Y-100549561D01*
X147942243Y-100740172D01*
X148117764Y-100852671D01*
X148365293Y-100982027D01*
X148179043Y-100739846D01*
X148113871Y-100654116D01*
X147901237Y-100364114D01*
X147683682Y-100055253D01*
X147487676Y-99766296D01*
X147339690Y-99536005D01*
X147266197Y-99403143D01*
X147285083Y-99329230D01*
X147414716Y-99216109D01*
X147672691Y-99060087D01*
X148073694Y-98851125D01*
X148379021Y-98700985D01*
X148683709Y-98557089D01*
X148905149Y-98459361D01*
X149009367Y-98423333D01*
X149016529Y-98425105D01*
X149096806Y-98516627D01*
X149217948Y-98719311D01*
X149356665Y-98994833D01*
X149462577Y-99210317D01*
X149637497Y-99535040D01*
X149820816Y-99848214D01*
X149991053Y-100115056D01*
X150126727Y-100300784D01*
X150206355Y-100370618D01*
X150220884Y-100333355D01*
X150229052Y-100169409D01*
X150220544Y-99919087D01*
X150216921Y-99775301D01*
X150240436Y-99410465D01*
X150298985Y-99093472D01*
X150405714Y-98719666D01*
X150468730Y-99120699D01*
X150566514Y-99583056D01*
X150836442Y-100324314D01*
X151222569Y-100987972D01*
X151708809Y-101553117D01*
X152279077Y-101998836D01*
X152917288Y-102304216D01*
X152959036Y-102318128D01*
X153144852Y-102369504D01*
X153234565Y-102376105D01*
X153235565Y-102355747D01*
X153189871Y-102224464D01*
X153093365Y-102019155D01*
X153082382Y-101997249D01*
X152958667Y-101641800D01*
X152932110Y-101307065D01*
X153007609Y-101048472D01*
X153051509Y-101008481D01*
X153139494Y-101029178D01*
X153282839Y-101150588D01*
X153505833Y-101389331D01*
X153583009Y-101472915D01*
X154156053Y-101954560D01*
X154825422Y-102297936D01*
X155592441Y-102503572D01*
X156458433Y-102571999D01*
X157121773Y-102571999D01*
X156795357Y-102905165D01*
X156503783Y-103159345D01*
X155956004Y-103500584D01*
X155327087Y-103769427D01*
X154667846Y-103945600D01*
X154029098Y-104008830D01*
X153952846Y-104006752D01*
X153605695Y-103970234D01*
X153194013Y-103899237D01*
X152793226Y-103808220D01*
X152478763Y-103711643D01*
X152374690Y-103684153D01*
X152338948Y-103728924D01*
X152427875Y-103871605D01*
X152643652Y-104115414D01*
X152988462Y-104463572D01*
X153446049Y-104892387D01*
X153961280Y-105331106D01*
X154435354Y-105688385D01*
X154836121Y-105938562D01*
X155090971Y-106074187D01*
X154878596Y-106126693D01*
X154851577Y-106132556D01*
X154560540Y-106144047D01*
X154173915Y-106098967D01*
X153745625Y-106006106D01*
X153329596Y-105874251D01*
X153148837Y-105809517D01*
X152950866Y-105750037D01*
X152861389Y-105739593D01*
X152885547Y-105793336D01*
X152996507Y-105955207D01*
X153177631Y-106196829D01*
X153408500Y-106490188D01*
X153478468Y-106577832D01*
X153878329Y-107106198D01*
X154226584Y-107625269D01*
X154542065Y-108169692D01*
X154843603Y-108774113D01*
X155150030Y-109473177D01*
X155480178Y-110301532D01*
X155692354Y-110845899D01*
X155880394Y-111309169D01*
X156027083Y-111642955D01*
X156139971Y-111863255D01*
X156226606Y-111986068D01*
X156294536Y-112027391D01*
X156328432Y-112029653D01*
X156650248Y-111984185D01*
X156994920Y-111846481D01*
X157282450Y-111647320D01*
X157408751Y-111536876D01*
X157521199Y-111485053D01*
X157593762Y-111541458D01*
X157627733Y-111587294D01*
X157714842Y-111610736D01*
X157870451Y-111527702D01*
X157921073Y-111493825D01*
X158319172Y-111178608D01*
X158709977Y-110795302D01*
X159046421Y-110394035D01*
X159281442Y-110024930D01*
X159301171Y-109985886D01*
X159445750Y-109728689D01*
X159549077Y-109612982D01*
X159625045Y-109622493D01*
X159637525Y-109632787D01*
X159772766Y-109622908D01*
X159984438Y-109464766D01*
X160270701Y-109160031D01*
X160629716Y-108710373D01*
X160706619Y-108605650D01*
X160916291Y-108293261D01*
X161120501Y-107956445D01*
X161301562Y-107628310D01*
X161441785Y-107341966D01*
X161523483Y-107130524D01*
X161528968Y-107027092D01*
X161509649Y-107015729D01*
X161359884Y-106984257D01*
X161129488Y-106968715D01*
X161072369Y-106966939D01*
X160807626Y-106941214D01*
X160613272Y-106896879D01*
X160611358Y-106896133D01*
X160514176Y-106845077D01*
X160540400Y-106789593D01*
X160705380Y-106696245D01*
X161273835Y-106324598D01*
X161822963Y-105800127D01*
X162295288Y-105172215D01*
X162666559Y-104473386D01*
X162912526Y-103736166D01*
X162917457Y-103713839D01*
X162917506Y-103542705D01*
X162834066Y-103513407D01*
X162689332Y-103635915D01*
X162670964Y-103656634D01*
X162443874Y-103830004D01*
X162124617Y-103989478D01*
X161780724Y-104100525D01*
X161727600Y-104112115D01*
X161634103Y-104122877D01*
X161613243Y-104090005D01*
X161676036Y-103993640D01*
X161833499Y-103813925D01*
X162096645Y-103531001D01*
X162255028Y-103356829D01*
X162624477Y-102909165D01*
X162943757Y-102464994D01*
X163187630Y-102061059D01*
X163330858Y-101734104D01*
X163356518Y-101638021D01*
X163334078Y-101565290D01*
X163192114Y-101592919D01*
X162438674Y-101785327D01*
X161731810Y-101873668D01*
X161135156Y-101839029D01*
X160651886Y-101681299D01*
X160622554Y-101666108D01*
X160461288Y-101572377D01*
X160435536Y-101516071D01*
X160528300Y-101467826D01*
X160714794Y-101398699D01*
X161212471Y-101209075D01*
X161592282Y-101053176D01*
X161887192Y-100916019D01*
X162130170Y-100782621D01*
X162354181Y-100637998D01*
X162710144Y-100349073D01*
X163158275Y-99862162D01*
X163539949Y-99309120D01*
X163810118Y-98748413D01*
X164002544Y-98222425D01*
X164108979Y-98471045D01*
X164138786Y-98556719D01*
X164196293Y-98835826D01*
X164222301Y-99142999D01*
X164229188Y-99566333D01*
X164446191Y-99312333D01*
X164465738Y-99288477D01*
X164616050Y-99068749D01*
X164795591Y-98762729D01*
X164969676Y-98428948D01*
X165058287Y-98242305D01*
X165175727Y-97956006D01*
X165249161Y-97685982D01*
X165293343Y-97370364D01*
X165323030Y-96947281D01*
X165369900Y-96094999D01*
X165603513Y-96556123D01*
X165702765Y-96770629D01*
X165799652Y-97032701D01*
X165837125Y-97212290D01*
X165840563Y-97295018D01*
X165880554Y-97396047D01*
X165966606Y-97340125D01*
X166100234Y-97125686D01*
X166282951Y-96751166D01*
X166574772Y-96012166D01*
X166780853Y-95209316D01*
X166850470Y-94462651D01*
X166782523Y-93785537D01*
X166575912Y-93191337D01*
X166493065Y-93023303D01*
X166425008Y-92860426D01*
X166431513Y-92804601D01*
X166507814Y-92830580D01*
X166558028Y-92862951D01*
X166732873Y-93012094D01*
X166925807Y-93211486D01*
X167015173Y-93305931D01*
X167157501Y-93422898D01*
X167233326Y-93436821D01*
X167265527Y-93360256D01*
X167329556Y-93140066D01*
X167400645Y-92844395D01*
X167466653Y-92528713D01*
X167515441Y-92248486D01*
X167534866Y-92059182D01*
X167530446Y-91970961D01*
X167483091Y-91870102D01*
X167350048Y-91803273D01*
X167090135Y-91741009D01*
X167040136Y-91730439D01*
X166716692Y-91656746D01*
X166319131Y-91560199D01*
X165922074Y-91458826D01*
X165200001Y-91268999D01*
X166325586Y-91195951D01*
X166404423Y-91190823D01*
X166836124Y-91161123D01*
X167129132Y-91134293D01*
X167310294Y-91103934D01*
X167406457Y-91063649D01*
X167444467Y-91007040D01*
X167451171Y-90927709D01*
X167450833Y-90858267D01*
X167438141Y-90701113D01*
X167387442Y-90596511D01*
X167272384Y-90535329D01*
X167066618Y-90508434D01*
X166743793Y-90506694D01*
X166277559Y-90520978D01*
X165200001Y-90558923D01*
X166041314Y-90219386D01*
X166309915Y-90108445D01*
X166625503Y-89970743D01*
X166856777Y-89860949D01*
X166966788Y-89795968D01*
X166995994Y-89683539D01*
X166954852Y-89484345D01*
X166857345Y-89270689D01*
X166726206Y-89107607D01*
X166721343Y-89104155D01*
X166584096Y-89108231D01*
X166325914Y-89202276D01*
X165962985Y-89378484D01*
X165511493Y-89629047D01*
X164987626Y-89946158D01*
X164985548Y-89947446D01*
X164956327Y-89940118D01*
X165027987Y-89827520D01*
X165186646Y-89628480D01*
X165418423Y-89361827D01*
X165641812Y-89112352D01*
X165890299Y-88828824D01*
X166046825Y-88631388D01*
X166123779Y-88495653D01*
X166133552Y-88397226D01*
X166088535Y-88311716D01*
X166001116Y-88214731D01*
X165882467Y-88104199D01*
X165728975Y-88027936D01*
X165561307Y-88043820D01*
X165356136Y-88161601D01*
X165090137Y-88391027D01*
X164739985Y-88741848D01*
X164475663Y-89009319D01*
X164245693Y-89222350D01*
X164118420Y-89310425D01*
X164096918Y-89271015D01*
X164154824Y-89103232D01*
X164432449Y-88524495D01*
X164791462Y-88013405D01*
X164877510Y-87908571D01*
X165012615Y-87694372D01*
X165011109Y-87575537D01*
X165005621Y-87570249D01*
X164801996Y-87459083D01*
X164462322Y-87362220D01*
X164018782Y-87285302D01*
X163503557Y-87233975D01*
X162948830Y-87213880D01*
X162285870Y-87237031D01*
X161554686Y-87347887D01*
X160945316Y-87556491D01*
X160443701Y-87869893D01*
X160035783Y-88295142D01*
X159707503Y-88839289D01*
X159686099Y-88883503D01*
X159554931Y-89152992D01*
X159457996Y-89349719D01*
X159414952Y-89433742D01*
X159412585Y-89435576D01*
X159321517Y-89412575D01*
X159147973Y-89332945D01*
X158852118Y-89152309D01*
X158444429Y-88827946D01*
X157980210Y-88382738D01*
X157799088Y-88186213D01*
X159127954Y-88186213D01*
X159141550Y-88263333D01*
X159146595Y-88261008D01*
X159220725Y-88172680D01*
X159355056Y-87982079D01*
X159524599Y-87724362D01*
X159525535Y-87722900D01*
X159964644Y-87182925D01*
X160494064Y-86782355D01*
X161099381Y-86527271D01*
X161766178Y-86423752D01*
X162480040Y-86477878D01*
X162485680Y-86478916D01*
X162815341Y-86528759D01*
X162989695Y-86526588D01*
X163015661Y-86470437D01*
X162900154Y-86358335D01*
X162853234Y-86323242D01*
X162307701Y-86010715D01*
X161712625Y-85820021D01*
X161110800Y-85760550D01*
X160545022Y-85841688D01*
X160294608Y-85928039D01*
X159822027Y-86199171D01*
X159475465Y-86579995D01*
X159250928Y-87075790D01*
X159144420Y-87691833D01*
X159143877Y-87699410D01*
X159128802Y-87983777D01*
X159127954Y-88186213D01*
X157799088Y-88186213D01*
X157450385Y-87807856D01*
X156845877Y-87094476D01*
X156844411Y-87092690D01*
X156477092Y-86649953D01*
X156112056Y-86218336D01*
X155775358Y-85828042D01*
X155493051Y-85509275D01*
X155291192Y-85292238D01*
X154966920Y-84990000D01*
X154633664Y-84728719D01*
X154324060Y-84529887D01*
X154069313Y-84413533D01*
X153900625Y-84399684D01*
X153840328Y-84481369D01*
X153792826Y-84703805D01*
X153771594Y-85028942D01*
X153776055Y-85421687D01*
X153805629Y-85846949D01*
X153859739Y-86269639D01*
X153937804Y-86654666D01*
X153952086Y-86710958D01*
X154041240Y-87061110D01*
X154156443Y-87512150D01*
X154284375Y-88011974D01*
X154411715Y-88508478D01*
X154460036Y-88698230D01*
X154573319Y-89168342D01*
X154647037Y-89535875D01*
X154687654Y-89845533D01*
X154701636Y-90142017D01*
X154698015Y-90334008D01*
X154695450Y-90470027D01*
X154688696Y-90615769D01*
X154666292Y-90932178D01*
X154638891Y-91163542D01*
X154610956Y-91267741D01*
X154536065Y-91266553D01*
X154349581Y-91201818D01*
X154101257Y-91084257D01*
X153922621Y-90995104D01*
X153715774Y-90915653D01*
X153493601Y-90870553D01*
X153204614Y-90850385D01*
X152797325Y-90845731D01*
X152545052Y-90847256D01*
X152200114Y-90861413D01*
X151939187Y-90898292D01*
X151707476Y-90967339D01*
X151450188Y-91078003D01*
X151229182Y-91189259D01*
X150865217Y-91397338D01*
X150558215Y-91599582D01*
X150483976Y-91657234D01*
X150249030Y-91867427D01*
X149990912Y-92128005D01*
X149739005Y-92405686D01*
X149522692Y-92667185D01*
X149371357Y-92879220D01*
X149314382Y-93008508D01*
X149364748Y-93055733D01*
X149547931Y-93146943D01*
X149833705Y-93261123D01*
X150188851Y-93384010D01*
X150266416Y-93409817D01*
X150592768Y-93531079D01*
X150929371Y-93672426D01*
X151248310Y-93819818D01*
X151521673Y-93959213D01*
X151721545Y-94076569D01*
X151820013Y-94157846D01*
X151789164Y-94189003D01*
X151766469Y-94186631D01*
X151605333Y-94158907D01*
X151321870Y-94104922D01*
X150947818Y-94030812D01*
X150514916Y-93942711D01*
X150304543Y-93900101D01*
X149524516Y-93756942D01*
X148753388Y-93642151D01*
X147931577Y-93547636D01*
X146999499Y-93465307D01*
X146883801Y-93455881D01*
X146585024Y-93427749D01*
X146376828Y-93402390D01*
X146298663Y-93384361D01*
X146309599Y-93328974D01*
X146351997Y-93137660D01*
X146418903Y-92843927D01*
X146502355Y-92483006D01*
X146551907Y-92265801D01*
X146650948Y-91809523D01*
X146681284Y-91660653D01*
X149367924Y-91660653D01*
X149371345Y-91728624D01*
X149404761Y-91700975D01*
X149536090Y-91575023D01*
X149741331Y-91370919D01*
X149993981Y-91114790D01*
X150300667Y-90816835D01*
X150727259Y-90473570D01*
X151140441Y-90245892D01*
X151580485Y-90113432D01*
X152087662Y-90055821D01*
X152214571Y-90051219D01*
X152715987Y-90072477D01*
X153212200Y-90168995D01*
X153774248Y-90353303D01*
X153813260Y-90364538D01*
X153834272Y-90334008D01*
X153755342Y-90233650D01*
X153602760Y-90086403D01*
X153402818Y-89915207D01*
X153181807Y-89743001D01*
X152966017Y-89592725D01*
X152781740Y-89487319D01*
X152449622Y-89367730D01*
X151946782Y-89284337D01*
X151445070Y-89294413D01*
X151012448Y-89401264D01*
X150622777Y-89629426D01*
X150216996Y-89998231D01*
X149856388Y-90454199D01*
X149573834Y-90955299D01*
X149402217Y-91459499D01*
X149396577Y-91486470D01*
X149367924Y-91660653D01*
X146681284Y-91660653D01*
X146739099Y-91376936D01*
X146801764Y-91038470D01*
X146910452Y-90501061D01*
X147109736Y-89751264D01*
X147352610Y-89016021D01*
X147615458Y-88372703D01*
X147918794Y-87785145D01*
X148559993Y-86821720D01*
X149337116Y-85931633D01*
X150234366Y-85126848D01*
X151235946Y-84419332D01*
X152326060Y-83821048D01*
X153488909Y-83343963D01*
X154708696Y-83000043D01*
X155006619Y-82938125D01*
X155345136Y-82881167D01*
X155690121Y-82842577D01*
X156082409Y-82819113D01*
X156562837Y-82807537D01*
X157172242Y-82804610D01*
X157301819Y-82804954D01*
X157952974Y-82815486D01*
X158540012Y-82839340D01*
X159027734Y-82874682D01*
X159380937Y-82919679D01*
X159866907Y-83023760D01*
X160678070Y-83256482D01*
X161485899Y-83551213D01*
X162208606Y-83880172D01*
X162343036Y-83948173D01*
X162621570Y-84079497D01*
X162823887Y-84161355D01*
X162913349Y-84178251D01*
X162901407Y-84147485D01*
X162782102Y-84041801D01*
X162566899Y-83884994D01*
X162287306Y-83697888D01*
X161974829Y-83501308D01*
X161660978Y-83316077D01*
X161377258Y-83163019D01*
X160954676Y-82970725D01*
X160077766Y-82669352D01*
X159107490Y-82443318D01*
X158085870Y-82301474D01*
X157054927Y-82252671D01*
X156787784Y-82257111D01*
X155676542Y-82355605D01*
X154514555Y-82573772D01*
X153342633Y-82898937D01*
X152201585Y-83318423D01*
X151132222Y-83819552D01*
X150175352Y-84389650D01*
X149709240Y-84729567D01*
X148826173Y-85525563D01*
X148038623Y-86450107D01*
X147885087Y-86683568D01*
X147354259Y-87490728D01*
X146780751Y-88634953D01*
X146325769Y-89870312D01*
X145996981Y-91184333D01*
X145978856Y-91276356D01*
X145880736Y-91755812D01*
X145768928Y-92279912D01*
X145664247Y-92750666D01*
X145480127Y-93554999D01*
X144891235Y-93550079D01*
X144836303Y-93549241D01*
X144499681Y-93535971D01*
X144056602Y-93509633D01*
X143558308Y-93473551D01*
X143056041Y-93431048D01*
X141870860Y-93363538D01*
X140795075Y-93393505D01*
X139818806Y-93526112D01*
X138921184Y-93765513D01*
X138081340Y-94115864D01*
X137278404Y-94581320D01*
X136994939Y-94777266D01*
X136067015Y-95548922D01*
X135253694Y-96440576D01*
X134560252Y-97443769D01*
X133991963Y-98550045D01*
X133554101Y-99750944D01*
X133251941Y-101038009D01*
X133097937Y-101917020D01*
X132149321Y-101917020D01*
X132178417Y-101881534D01*
X132255568Y-101677977D01*
X132326034Y-101363410D01*
X132405087Y-100909511D01*
X132629710Y-99864117D01*
X133058266Y-98576646D01*
X133641781Y-97356487D01*
X134377553Y-96209095D01*
X135262878Y-95139927D01*
X135457806Y-94911628D01*
X135620165Y-94669697D01*
X135679934Y-94500097D01*
X135675775Y-94457539D01*
X135606794Y-94231427D01*
X135460991Y-93887759D01*
X135248777Y-93446314D01*
X134980561Y-92926870D01*
X134666755Y-92349204D01*
X134317768Y-91733096D01*
X133944010Y-91098324D01*
X133555892Y-90464666D01*
X132928936Y-89436381D01*
X132336180Y-88394293D01*
X131845424Y-87438022D01*
X131449425Y-86547504D01*
X131140942Y-85702676D01*
X130912732Y-84883475D01*
X130757554Y-84069837D01*
X130668166Y-83241700D01*
X130637325Y-82378999D01*
X130641103Y-81938012D01*
X130710465Y-80846024D01*
X130871718Y-79852807D01*
X131131972Y-78922355D01*
X131498335Y-78018666D01*
X131564388Y-77881642D01*
X132024903Y-77089294D01*
X132587980Y-76342541D01*
X133228284Y-75665787D01*
X133920479Y-75083437D01*
X134639230Y-74619897D01*
X135359203Y-74299571D01*
X135795523Y-74176543D01*
X136566530Y-74067949D01*
X137329630Y-74088522D01*
X138054792Y-74233802D01*
X138711991Y-74499327D01*
X139271195Y-74880637D01*
X139501710Y-75118662D01*
X139825372Y-75620289D01*
X140048798Y-76203203D01*
X140162135Y-76825977D01*
X140155530Y-77447180D01*
X140019129Y-78025384D01*
X139999390Y-78076385D01*
X139686767Y-78658098D01*
X139241618Y-79154143D01*
X138655541Y-79572104D01*
X137920131Y-79919566D01*
X137245113Y-80242696D01*
X136669327Y-80668275D01*
X136229536Y-81187604D01*
X135921121Y-81807819D01*
X135739461Y-82536057D01*
X135679934Y-83379456D01*
X135705054Y-84022355D01*
X135802095Y-84764811D01*
X135979198Y-85520301D01*
X136243833Y-86310694D01*
X136603473Y-87157861D01*
X137065589Y-88083672D01*
X137637653Y-89109999D01*
X137714440Y-89242878D01*
X138024754Y-89790355D01*
X138351598Y-90380593D01*
X138660490Y-90950836D01*
X138916952Y-91438333D01*
X139066046Y-91731527D01*
X139247076Y-92080246D01*
X139397755Y-92317402D01*
X139551397Y-92459733D01*
X139741317Y-92523979D01*
X140000826Y-92526879D01*
X140363241Y-92485173D01*
X140861874Y-92415599D01*
X141202261Y-92378194D01*
X142182856Y-92348202D01*
X143264108Y-92416608D01*
X144419648Y-92582178D01*
X144781235Y-92644079D01*
X145105421Y-92692558D01*
X145332045Y-92718358D01*
X145426463Y-92716847D01*
X145435218Y-92676272D01*
X145404194Y-92508331D01*
X145326363Y-92258347D01*
X145218345Y-91972320D01*
X145096758Y-91696255D01*
X144978224Y-91476154D01*
X144720258Y-91039526D01*
X144256772Y-90104552D01*
X143862005Y-89103962D01*
X143564056Y-88104749D01*
X143540256Y-88001637D01*
X143445900Y-87417194D01*
X143387537Y-86734362D01*
X143365685Y-86005800D01*
X143368955Y-85850333D01*
X144397821Y-85850333D01*
X144421017Y-86603767D01*
X144526149Y-87442021D01*
X144726139Y-88227810D01*
X145032013Y-89016170D01*
X145063575Y-89085627D01*
X145195235Y-89356365D01*
X145301621Y-89546334D01*
X145362142Y-89617999D01*
X145378215Y-89609547D01*
X145445932Y-89494985D01*
X145521108Y-89289211D01*
X145695890Y-88852956D01*
X145974504Y-88362309D01*
X146300747Y-87930793D01*
X146559761Y-87640587D01*
X146124912Y-87457377D01*
X145690063Y-87274166D01*
X146143025Y-87088218D01*
X146326002Y-87012628D01*
X146623114Y-86888186D01*
X146845738Y-86792919D01*
X147095488Y-86683568D01*
X146404292Y-86311483D01*
X146260160Y-86232593D01*
X145971753Y-86057809D01*
X145839086Y-85936836D01*
X145861552Y-85860925D01*
X146038544Y-85821328D01*
X146369455Y-85809296D01*
X146543182Y-85802831D01*
X146734276Y-85772548D01*
X146794204Y-85724410D01*
X146703267Y-85615839D01*
X146498351Y-85444184D01*
X146212205Y-85232810D01*
X145877496Y-85004830D01*
X145526887Y-84783357D01*
X145193044Y-84591502D01*
X144599952Y-84272228D01*
X144500432Y-84510947D01*
X144464311Y-84662066D01*
X144430104Y-84966021D01*
X144407042Y-85373843D01*
X144397821Y-85850333D01*
X143368955Y-85850333D01*
X143380862Y-85284168D01*
X143433586Y-84622126D01*
X143524377Y-84072333D01*
X143587558Y-83812884D01*
X143699737Y-83443808D01*
X143817723Y-83200364D01*
X143957007Y-83054726D01*
X144133082Y-82979071D01*
X144254199Y-82961503D01*
X144600909Y-82972008D01*
X145062441Y-83037602D01*
X145611002Y-83150967D01*
X146218800Y-83304782D01*
X146858045Y-83491731D01*
X147500943Y-83704493D01*
X148119704Y-83935750D01*
X148686534Y-84178184D01*
X149417884Y-84516043D01*
X150256298Y-83976527D01*
X150557984Y-83790034D01*
X151649468Y-83220159D01*
X152855537Y-82734610D01*
X154145212Y-82344725D01*
X155487511Y-82061845D01*
X156138902Y-81953654D01*
X156519845Y-81198152D01*
X159159831Y-81198152D01*
X159160237Y-81298257D01*
X159219373Y-81287850D01*
X159394811Y-81222124D01*
X159641096Y-81114291D01*
X159845910Y-81024339D01*
X160039612Y-80950968D01*
X160126229Y-80934584D01*
X160127013Y-80935710D01*
X160103027Y-81027297D01*
X160018451Y-81225696D01*
X159890636Y-81489999D01*
X159882670Y-81505764D01*
X159756412Y-81766997D01*
X159673726Y-81959479D01*
X159652163Y-82042543D01*
X159723093Y-82041588D01*
X159918024Y-82009028D01*
X160188661Y-81950631D01*
X160473549Y-81884901D01*
X160682374Y-81844891D01*
X160778057Y-81848054D01*
X160788880Y-81896524D01*
X160743123Y-81992433D01*
X160688752Y-82108607D01*
X160669183Y-82289506D01*
X160784761Y-82423333D01*
X161052593Y-82540374D01*
X161317262Y-82650216D01*
X161659196Y-82822058D01*
X161991948Y-83014000D01*
X162040625Y-83044343D01*
X162295903Y-83200809D01*
X162482856Y-83310995D01*
X162563928Y-83352666D01*
X162563232Y-83287971D01*
X162530452Y-83099771D01*
X162471935Y-82831321D01*
X162464705Y-82801022D01*
X162291019Y-82234568D01*
X162036217Y-81599376D01*
X161725890Y-80953761D01*
X161385631Y-80356039D01*
X161195776Y-80073732D01*
X160944775Y-79740672D01*
X160677291Y-79417086D01*
X160416535Y-79128521D01*
X160185719Y-78900522D01*
X160008055Y-78758635D01*
X159906752Y-78728406D01*
X159891032Y-78745635D01*
X159821570Y-78891451D01*
X159725838Y-79152052D01*
X159613837Y-79493008D01*
X159495567Y-79879893D01*
X159381031Y-80278278D01*
X159280229Y-80653735D01*
X159203162Y-80971835D01*
X159159831Y-81198152D01*
X156519845Y-81198152D01*
X156650688Y-80938660D01*
X156678494Y-80883678D01*
X157150981Y-80004210D01*
X157613823Y-79254879D01*
X158089616Y-78601762D01*
X158600960Y-78010937D01*
X158803502Y-77798634D01*
X159023487Y-77586181D01*
X159188605Y-77462995D01*
X159331864Y-77406003D01*
X159486274Y-77392133D01*
X159648959Y-77409582D01*
X159916535Y-77507283D01*
X160228925Y-77702079D01*
X160605332Y-78006639D01*
X161064960Y-78433632D01*
X161784640Y-79234571D01*
X162445788Y-80180125D01*
X163031188Y-81241898D01*
X163529976Y-82397648D01*
X163842209Y-83352666D01*
X163931289Y-83625134D01*
G37*
%TD*%
M02*
