%TF.GenerationSoftware,KiCad,Pcbnew,10.0.5*%
%TF.CreationDate,2026-09-13T05:51:45+05:30*%
%TF.ProjectId,esp32-devboard,65737033-322d-4646-9576-626f6172642e,rev?*%
%TF.SameCoordinates,Original*%
%TF.FileFunction,Soldermask,Bot*%
%TF.FilePolarity,Negative*%
%FSLAX46Y46*%
G04 Gerber Fmt 4.6, Leading zero omitted, Abs format (unit mm)*
G04 Created by KiCad (PCBNEW 10.0.5) date 2026-09-13 05:51:45*
%MOMM*%
%LPD*%
G01*
G04 APERTURE LIST*
%ADD10C,1.700000*%
%ADD11C,4.000000*%
%ADD12C,2.200000*%
%ADD13R,1.800000X1.800000*%
%ADD14C,1.800000*%
%ADD15R,1.700000X1.700000*%
%ADD16C,0.650000*%
%ADD17O,1.000000X2.100000*%
%ADD18O,1.000000X1.800000*%
G04 APERTURE END LIST*
D10*
%TO.C,SW1*%
X118920000Y-81500000D03*
D11*
X124000000Y-81500000D03*
D10*
X129080000Y-81500000D03*
D12*
X126540000Y-76420000D03*
X120190000Y-78960000D03*
%TD*%
D13*
%TO.C,D1*%
X166460000Y-104000000D03*
D14*
X169000000Y-104000000D03*
%TD*%
D10*
%TO.C,SW2*%
X158420000Y-81000000D03*
D11*
X163500000Y-81000000D03*
D10*
X168580000Y-81000000D03*
D12*
X166040000Y-75920000D03*
X159690000Y-78460000D03*
%TD*%
D13*
%TO.C,D2*%
X166730000Y-112500000D03*
D14*
X169270000Y-112500000D03*
%TD*%
D15*
%TO.C,J2*%
X175000000Y-73380000D03*
D10*
X175000000Y-75920000D03*
X175000000Y-78460000D03*
X175000000Y-81000000D03*
X175000000Y-83540000D03*
X175000000Y-86080000D03*
X175000000Y-88620000D03*
X175000000Y-91160000D03*
X175000000Y-93700000D03*
X175000000Y-96240000D03*
X175000000Y-98780000D03*
X175000000Y-101320000D03*
X175000000Y-103860000D03*
X175000000Y-106400000D03*
X175000000Y-108940000D03*
X175000000Y-111480000D03*
X175000000Y-114020000D03*
X175000000Y-116560000D03*
X175000000Y-119100000D03*
X175000000Y-121640000D03*
%TD*%
D13*
%TO.C,D3*%
X166500000Y-95500000D03*
D14*
X169040000Y-95500000D03*
%TD*%
D15*
%TO.C,J1*%
X112500000Y-74305000D03*
D10*
X112500000Y-76845000D03*
X112500000Y-79385000D03*
X112500000Y-81925000D03*
X112500000Y-84465000D03*
X112500000Y-87005000D03*
X112500000Y-89545000D03*
X112500000Y-92085000D03*
X112500000Y-94625000D03*
X112500000Y-97165000D03*
X112500000Y-99705000D03*
X112500000Y-102245000D03*
X112500000Y-104785000D03*
X112500000Y-107325000D03*
X112500000Y-109865000D03*
X112500000Y-112405000D03*
X112500000Y-114945000D03*
X112500000Y-117485000D03*
X112500000Y-120025000D03*
X112500000Y-122565000D03*
%TD*%
D16*
%TO.C,J3*%
X119430000Y-118445000D03*
X125210000Y-118445000D03*
D17*
X118000000Y-117945000D03*
D18*
X118000000Y-122125000D03*
D17*
X126640000Y-117945000D03*
D18*
X126640000Y-122125000D03*
%TD*%
M02*
