M48
; DRILL file KiCad 10.0.5 date 2026-09-13T05:51:43
; FORMAT={-:-/ absolute / metric / decimal}
; #@! TF.CreationDate,2026-09-13T05:51:43+05:30
; #@! TF.GenerationSoftware,Kicad,Pcbnew,10.0.5
; #@! TF.FileFunction,Plated,1,4,PTH
FMAT,2
METRIC
; #@! TA.AperFunction,Plated,PTH,ComponentDrill
T1C0.200
; #@! TA.AperFunction,Plated,PTH,ViaDrill
T2C0.300
; #@! TA.AperFunction,Plated,PTH,ComponentDrill
T3C0.600
; #@! TA.AperFunction,Plated,PTH,ComponentDrill
T4C0.900
; #@! TA.AperFunction,Plated,PTH,ComponentDrill
T5C1.000
; #@! TA.AperFunction,Plated,PTH,ComponentDrill
T6C1.500
%
G90
G05
T1
X141.35Y-79.82
X141.35Y-81.22
X142.05Y-79.12
X142.05Y-80.52
X142.05Y-81.92
X142.75Y-79.82
X142.75Y-81.22
X143.45Y-79.12
X143.45Y-80.52
X143.45Y-81.92
X144.15Y-79.82
X144.15Y-81.22
T2
X110.0Y-105.0
X110.0Y-110.0
X110.0Y-112.0
X110.0Y-114.5
X110.0Y-117.5
X110.5Y-74.5
X110.5Y-77.0
X110.5Y-107.5
X114.883Y-82.617
X115.0Y-89.5
X115.5Y-83.5
X115.5Y-85.0
X116.5Y-82.5
X117.5Y-83.5
X118.5Y-109.0
X119.0Y-87.5
X119.0Y-89.5
X119.0Y-96.0
X119.0Y-103.0
X119.5Y-120.0
X119.5Y-121.5
X120.0Y-88.0
X120.5Y-86.5
X120.527Y-92.527
X121.0Y-89.5
X121.5Y-87.5
X121.67Y-115.5
X122.0Y-90.5
X122.5Y-78.16
X122.5Y-119.5
X123.0Y-89.0
X123.0Y-91.0
X123.5Y-121.5
X123.732Y-89.768
X124.5Y-90.5
X126.0Y-86.5
X126.5Y-115.5
X127.5Y-94.0
X128.0Y-98.5
X128.5Y-76.5
X128.5Y-117.5
X128.5Y-122.0
X129.5Y-99.0
X131.5Y-87.0
X133.0Y-103.0
X133.5Y-91.0
X133.5Y-92.61
X134.0Y-73.0
X134.0Y-77.5
X135.0Y-90.5
X135.5Y-97.0
X137.0Y-74.0
X137.5Y-86.5
X137.5Y-89.0
X138.5Y-89.0
X140.0Y-79.5
X140.0Y-81.0
X140.0Y-89.0
X141.0Y-89.0
X141.0Y-97.0
X142.0Y-77.5
X142.0Y-83.0
X142.5Y-89.0
X143.0Y-77.0
X143.45Y-77.55
X143.5Y-83.0
X143.5Y-89.0
X145.0Y-89.0
X145.0Y-97.0
X145.5Y-80.0
X145.5Y-82.0
X146.0Y-89.0
X148.0Y-89.0
X148.0Y-92.21
X149.0Y-89.0
X149.3Y-75.3
X150.0Y-89.0
X150.5Y-95.0
X151.0Y-78.0
X151.0Y-79.5
X151.0Y-80.5
X151.0Y-81.5
X151.0Y-82.5
X151.0Y-85.0
X151.0Y-86.5
X151.0Y-87.5
X151.0Y-89.0
X151.5Y-72.5
X151.5Y-84.0
X151.5Y-96.0
X151.566Y-88.4
X152.0Y-108.0
X153.0Y-95.5
X154.5Y-99.0
X155.5Y-100.0
X157.0Y-91.0
X159.5Y-102.5
X160.5Y-92.0
X161.0Y-97.0
X161.5Y-93.0
X161.5Y-110.0
X162.0Y-115.5
X163.0Y-92.0
X164.0Y-104.0
X164.5Y-95.5
X164.5Y-112.5
X169.5Y-76.0
X171.5Y-121.0
X172.0Y-86.5
X172.0Y-88.5
X172.0Y-91.0
X172.0Y-111.0
X172.0Y-113.5
X172.0Y-122.0
X172.5Y-83.5
X172.5Y-94.0
X173.0Y-116.0
X177.0Y-101.5
X177.5Y-96.5
X177.5Y-99.0
X177.5Y-106.0
T4
X166.46Y-104.0
X166.5Y-95.5
X166.73Y-112.5
X169.0Y-104.0
X169.04Y-95.5
X169.27Y-112.5
T5
X112.5Y-74.305
X112.5Y-76.845
X112.5Y-79.385
X112.5Y-81.925
X112.5Y-84.465
X112.5Y-87.005
X112.5Y-89.545
X112.5Y-92.085
X112.5Y-94.625
X112.5Y-97.165
X112.5Y-99.705
X112.5Y-102.245
X112.5Y-104.785
X112.5Y-107.325
X112.5Y-109.865
X112.5Y-112.405
X112.5Y-114.945
X112.5Y-117.485
X112.5Y-120.025
X112.5Y-122.565
X175.0Y-73.38
X175.0Y-75.92
X175.0Y-78.46
X175.0Y-81.0
X175.0Y-83.54
X175.0Y-86.08
X175.0Y-88.62
X175.0Y-91.16
X175.0Y-93.7
X175.0Y-96.24
X175.0Y-98.78
X175.0Y-101.32
X175.0Y-103.86
X175.0Y-106.4
X175.0Y-108.94
X175.0Y-111.48
X175.0Y-114.02
X175.0Y-116.56
X175.0Y-119.1
X175.0Y-121.64
T6
X120.19Y-78.96
X126.54Y-76.42
X159.69Y-78.46
X166.04Y-75.92
T3
G00X118.0Y-117.395
M15
G01X118.0Y-118.495
M16
G05
G00X118.0Y-121.725
M15
G01X118.0Y-122.525
M16
G05
G00X126.64Y-117.395
M15
G01X126.64Y-118.495
M16
G05
G00X126.64Y-121.725
M15
G01X126.64Y-122.525
M16
G05
M30
