%TF.GenerationSoftware,KiCad,Pcbnew,10.0.5*%
%TF.CreationDate,2026-09-13T05:51:45+05:30*%
%TF.ProjectId,esp32-devboard,65737033-322d-4646-9576-626f6172642e,rev?*%
%TF.SameCoordinates,Original*%
%TF.FileFunction,Copper,L4,Bot*%
%TF.FilePolarity,Positive*%
%FSLAX46Y46*%
G04 Gerber Fmt 4.6, Leading zero omitted, Abs format (unit mm)*
G04 Created by KiCad (PCBNEW 10.0.5) date 2026-09-13 05:51:45*
%MOMM*%
%LPD*%
G01*
G04 APERTURE LIST*
%TA.AperFunction,ComponentPad*%
%ADD10C,2.200000*%
%TD*%
%TA.AperFunction,ComponentPad*%
%ADD11R,1.800000X1.800000*%
%TD*%
%TA.AperFunction,ComponentPad*%
%ADD12C,1.800000*%
%TD*%
%TA.AperFunction,ComponentPad*%
%ADD13R,1.700000X1.700000*%
%TD*%
%TA.AperFunction,ComponentPad*%
%ADD14C,1.700000*%
%TD*%
%TA.AperFunction,HeatsinkPad*%
%ADD15C,0.600000*%
%TD*%
%TA.AperFunction,ComponentPad*%
%ADD16O,1.000000X2.100000*%
%TD*%
%TA.AperFunction,ComponentPad*%
%ADD17O,1.000000X1.800000*%
%TD*%
%TA.AperFunction,ViaPad*%
%ADD18C,0.600000*%
%TD*%
%TA.AperFunction,Conductor*%
%ADD19C,0.200000*%
%TD*%
G04 APERTURE END LIST*
D10*
%TO.P,SW1,1,1_1*%
%TO.N,GND*%
X126540000Y-76420000D03*
%TO.P,SW1,2,2_2*%
%TO.N,/GPIO0*%
X120190000Y-78960000D03*
%TD*%
D11*
%TO.P,D1,1,K_1*%
%TO.N,GND*%
X166460000Y-104000000D03*
D12*
%TO.P,D1,2,A_2*%
%TO.N,Net-(D1-A)*%
X169000000Y-104000000D03*
%TD*%
D10*
%TO.P,SW2,1,1_1*%
%TO.N,GND*%
X166040000Y-75920000D03*
%TO.P,SW2,2,2_2*%
%TO.N,/EN*%
X159690000Y-78460000D03*
%TD*%
D11*
%TO.P,D2,1,K_1*%
%TO.N,GND*%
X166730000Y-112500000D03*
D12*
%TO.P,D2,2,A_2*%
%TO.N,Net-(D2-A)*%
X169270000Y-112500000D03*
%TD*%
D13*
%TO.P,J2,1,Pin_1_1*%
%TO.N,+5V*%
X175000000Y-73380000D03*
D14*
%TO.P,J2,2,Pin_2_2*%
%TO.N,/GPIO17*%
X175000000Y-75920000D03*
%TO.P,J2,3,Pin_3_3*%
%TO.N,/GPIO18*%
X175000000Y-78460000D03*
%TO.P,J2,4,Pin_4_4*%
%TO.N,/GPIO21*%
X175000000Y-81000000D03*
%TO.P,J2,5,Pin_5_5*%
%TO.N,/GPIO35*%
X175000000Y-83540000D03*
%TO.P,J2,6,Pin_6_6*%
%TO.N,/GPIO36*%
X175000000Y-86080000D03*
%TO.P,J2,7,Pin_7_7*%
%TO.N,/GPIO37*%
X175000000Y-88620000D03*
%TO.P,J2,8,Pin_8_8*%
%TO.N,/GPIO38*%
X175000000Y-91160000D03*
%TO.P,J2,9,Pin_9_9*%
%TO.N,/GPIO39*%
X175000000Y-93700000D03*
%TO.P,J2,10,Pin_10_10*%
%TO.N,/GPIO40*%
X175000000Y-96240000D03*
%TO.P,J2,11,Pin_11_11*%
%TO.N,/GPIO41*%
X175000000Y-98780000D03*
%TO.P,J2,12,Pin_12_12*%
%TO.N,/GPIO42*%
X175000000Y-101320000D03*
%TO.P,J2,13,Pin_13_13*%
%TO.N,/GPIO43 {slash} TXD0*%
X175000000Y-103860000D03*
%TO.P,J2,14,Pin_14_14*%
%TO.N,/GPIO44 {slash} RXD0*%
X175000000Y-106400000D03*
%TO.P,J2,15,Pin_15_15*%
%TO.N,/GPIO45*%
X175000000Y-108940000D03*
%TO.P,J2,16,Pin_16_16*%
%TO.N,/GPIO46*%
X175000000Y-111480000D03*
%TO.P,J2,17,Pin_17_17*%
%TO.N,/GPIO47*%
X175000000Y-114020000D03*
%TO.P,J2,18,Pin_18_18*%
%TO.N,/GPIO48*%
X175000000Y-116560000D03*
%TO.P,J2,19,Pin_19_19*%
%TO.N,/USB_D-*%
X175000000Y-119100000D03*
%TO.P,J2,20,Pin_20_20*%
%TO.N,/USB_D+*%
X175000000Y-121640000D03*
%TD*%
D11*
%TO.P,D3,1,K_1*%
%TO.N,GND*%
X166500000Y-95500000D03*
D12*
%TO.P,D3,2,A_2*%
%TO.N,Net-(D3-A)*%
X169040000Y-95500000D03*
%TD*%
D13*
%TO.P,J1,1,Pin_1_1*%
%TO.N,GND*%
X112500000Y-74305000D03*
D14*
%TO.P,J1,2,Pin_2_2*%
%TO.N,+3V3*%
X112500000Y-76845000D03*
%TO.P,J1,3,Pin_3_3*%
%TO.N,/EN*%
X112500000Y-79385000D03*
%TO.P,J1,4,Pin_4_4*%
%TO.N,/GPIO0*%
X112500000Y-81925000D03*
%TO.P,J1,5,Pin_5_5*%
%TO.N,/GPIO1*%
X112500000Y-84465000D03*
%TO.P,J1,6,Pin_6_6*%
%TO.N,/GPIO2*%
X112500000Y-87005000D03*
%TO.P,J1,7,Pin_7_7*%
%TO.N,/GPIO3*%
X112500000Y-89545000D03*
%TO.P,J1,8,Pin_8_8*%
%TO.N,/GPIO4*%
X112500000Y-92085000D03*
%TO.P,J1,9,Pin_9_9*%
%TO.N,/GPIO5*%
X112500000Y-94625000D03*
%TO.P,J1,10,Pin_10_10*%
%TO.N,/GPIO6*%
X112500000Y-97165000D03*
%TO.P,J1,11,Pin_11_11*%
%TO.N,/GPIO7*%
X112500000Y-99705000D03*
%TO.P,J1,12,Pin_12_12*%
%TO.N,/GPIO8*%
X112500000Y-102245000D03*
%TO.P,J1,13,Pin_13_13*%
%TO.N,/GPIO9*%
X112500000Y-104785000D03*
%TO.P,J1,14,Pin_14_14*%
%TO.N,/GPIO10*%
X112500000Y-107325000D03*
%TO.P,J1,15,Pin_15_15*%
%TO.N,/GPIO11*%
X112500000Y-109865000D03*
%TO.P,J1,16,Pin_16_16*%
%TO.N,/GPIO12*%
X112500000Y-112405000D03*
%TO.P,J1,17,Pin_17_17*%
%TO.N,/GPIO13*%
X112500000Y-114945000D03*
%TO.P,J1,18,Pin_18_18*%
%TO.N,/GPIO14*%
X112500000Y-117485000D03*
%TO.P,J1,19,Pin_19_19*%
%TO.N,/GPIO15*%
X112500000Y-120025000D03*
%TO.P,J1,20,Pin_20_20*%
%TO.N,/GPIO16*%
X112500000Y-122565000D03*
%TD*%
D15*
%TO.P,U1,41,GND_41*%
%TO.N,GND*%
X141350000Y-79820000D03*
X141350000Y-81220000D03*
X142050000Y-79120000D03*
X142050000Y-80520000D03*
X142050000Y-81920000D03*
X142750000Y-79820000D03*
X142750000Y-81220000D03*
X143450000Y-79120000D03*
X143450000Y-80520000D03*
X143450000Y-81920000D03*
X144150000Y-79820000D03*
X144150000Y-81220000D03*
%TD*%
D16*
%TO.P,J3,SH,SHIELD_SH*%
%TO.N,GND*%
X118000000Y-117945000D03*
D17*
X118000000Y-122125000D03*
D16*
X126640000Y-117945000D03*
D17*
X126640000Y-122125000D03*
%TD*%
D18*
%TO.N,GND*%
X128500000Y-117500000D03*
X151500000Y-72500000D03*
X161000000Y-97000000D03*
X128500000Y-122000000D03*
X164500000Y-112500000D03*
X145000000Y-97000000D03*
X141000000Y-97000000D03*
X119000000Y-103000000D03*
X119500000Y-120000000D03*
X126500000Y-115500000D03*
X119500000Y-121500000D03*
X128500000Y-76500000D03*
X145500000Y-82000000D03*
X110500000Y-74500000D03*
X159500000Y-102500000D03*
X143450000Y-77550000D03*
X164000000Y-104000000D03*
X143500000Y-83000000D03*
X140000000Y-81000000D03*
X142000000Y-83000000D03*
X164500000Y-95500000D03*
X119000000Y-96000000D03*
X134000000Y-73000000D03*
X145500000Y-80000000D03*
X143000000Y-77000000D03*
X140000000Y-79500000D03*
X169500000Y-76000000D03*
X142000000Y-77500000D03*
%TO.N,/GPIO0*%
X116500000Y-82500000D03*
X151565687Y-88400000D03*
X114883235Y-82616765D03*
X122500000Y-78160000D03*
%TO.N,+3V3*%
X133000000Y-103000000D03*
X152000000Y-108000000D03*
X118500000Y-109000000D03*
X110500000Y-77000000D03*
X137000000Y-74000000D03*
X135500000Y-97000000D03*
%TO.N,Net-(D1-A)*%
X128000000Y-98500000D03*
X129500000Y-99000000D03*
%TO.N,/GPIO21*%
X163000000Y-92000000D03*
X157000000Y-91000000D03*
X148000000Y-89000000D03*
X153000000Y-95500000D03*
X148000000Y-92210000D03*
%TO.N,/GPIO35*%
X172500000Y-83500000D03*
X151000000Y-87500000D03*
%TO.N,/GPIO36*%
X172000000Y-86500000D03*
X151000000Y-86500000D03*
%TO.N,/GPIO37*%
X151000000Y-85000000D03*
X172000000Y-88500000D03*
%TO.N,/GPIO38*%
X151500000Y-84000000D03*
X172000000Y-91000000D03*
%TO.N,/GPIO39*%
X151000000Y-82500000D03*
X172500000Y-94000000D03*
%TO.N,/GPIO40*%
X151000000Y-81500000D03*
X177500000Y-96500000D03*
%TO.N,/GPIO41*%
X177500000Y-99000000D03*
X151000000Y-80500000D03*
%TO.N,/GPIO42*%
X151000000Y-79500000D03*
X177000000Y-101500000D03*
%TO.N,/GPIO43 {slash} TXD0*%
X161500000Y-93000000D03*
X160500000Y-92000000D03*
%TO.N,/GPIO44 {slash} RXD0*%
X177500000Y-106000000D03*
X151000000Y-78000000D03*
%TO.N,/GPIO45*%
X172000000Y-111000000D03*
X151000000Y-89000000D03*
%TO.N,/GPIO46*%
X138500000Y-89000000D03*
X171500000Y-121000000D03*
%TO.N,/GPIO47*%
X149000000Y-89000000D03*
X172000000Y-113500000D03*
%TO.N,/GPIO48*%
X173000000Y-116000000D03*
X150000000Y-89000000D03*
%TO.N,/USB_D-*%
X162000000Y-115500000D03*
X133500000Y-92610000D03*
X133500000Y-91000000D03*
X121670000Y-115500000D03*
X151500000Y-96000000D03*
X150500000Y-95000000D03*
X161500000Y-110000000D03*
X154500000Y-99000000D03*
X155500000Y-100000000D03*
X127500000Y-94000000D03*
%TO.N,/USB_D+*%
X123500000Y-121500000D03*
X122500000Y-119500000D03*
X172000000Y-122000000D03*
X135000000Y-90500000D03*
%TO.N,/GPIO1*%
X134000000Y-77500000D03*
X115500000Y-83500000D03*
X117500000Y-83500000D03*
X149300000Y-75300000D03*
%TO.N,/GPIO2*%
X115500000Y-85000000D03*
X137500000Y-86500000D03*
%TO.N,/GPIO3*%
X137500000Y-89000000D03*
X115000000Y-89500000D03*
%TO.N,/GPIO6*%
X121500000Y-87500000D03*
X120000000Y-88000000D03*
%TO.N,/GPIO7*%
X121000000Y-89500000D03*
X123000000Y-89000000D03*
%TO.N,/GPIO8*%
X120526765Y-92526765D03*
X119000000Y-87500000D03*
X120500000Y-86500000D03*
X126000000Y-86500000D03*
X119000000Y-89500000D03*
X131500000Y-87000000D03*
%TO.N,/GPIO9*%
X110000000Y-105000000D03*
X140000000Y-89000000D03*
%TO.N,/GPIO10*%
X141000000Y-89000000D03*
X110500000Y-107500000D03*
%TO.N,/GPIO11*%
X142500000Y-89000000D03*
X110000000Y-110000000D03*
%TO.N,/GPIO12*%
X110000000Y-112000000D03*
X143500000Y-89000000D03*
%TO.N,/GPIO13*%
X110000000Y-114500000D03*
X145000000Y-89000000D03*
%TO.N,/GPIO14*%
X146000000Y-89000000D03*
X110000000Y-117500000D03*
%TO.N,/GPIO15*%
X122000000Y-90500000D03*
X123731765Y-89768235D03*
%TO.N,/GPIO16*%
X123000000Y-91000000D03*
X124500000Y-90500000D03*
%TD*%
%TO.N,/GPIO0*%
D19*
X114883235Y-82616765D02*
X116383235Y-82616765D01*
X145965685Y-88400000D02*
X135725685Y-78160000D01*
X116383235Y-82616765D02*
X116500000Y-82500000D01*
X151565687Y-88400000D02*
X145965685Y-88400000D01*
X135725685Y-78160000D02*
X122500000Y-78160000D01*
%TO.N,Net-(D1-A)*%
X129500000Y-99000000D02*
X129000000Y-98500000D01*
X129000000Y-98500000D02*
X128000000Y-98500000D01*
%TO.N,/GPIO21*%
X153000000Y-95500000D02*
X149710000Y-92210000D01*
X148000000Y-92210000D02*
X148000000Y-89000000D01*
X162000000Y-91000000D02*
X157000000Y-91000000D01*
X149710000Y-92210000D02*
X148000000Y-92210000D01*
X163000000Y-92000000D02*
X162000000Y-91000000D01*
%TO.N,/GPIO35*%
X168500000Y-87500000D02*
X172500000Y-83500000D01*
X151000000Y-87500000D02*
X168500000Y-87500000D01*
%TO.N,/GPIO36*%
X172251471Y-82900000D02*
X172748529Y-82900000D01*
X173100000Y-83251471D02*
X173100000Y-85400000D01*
X168651471Y-86500000D02*
X172251471Y-82900000D01*
X172748529Y-82900000D02*
X173100000Y-83251471D01*
X173100000Y-85400000D02*
X172000000Y-86500000D01*
X151000000Y-86500000D02*
X168651471Y-86500000D01*
%TO.N,/GPIO37*%
X173500000Y-87000000D02*
X172000000Y-88500000D01*
X169585785Y-85000000D02*
X172085786Y-82500000D01*
X172085786Y-82500000D02*
X172914215Y-82500000D01*
X151000000Y-85000000D02*
X169585785Y-85000000D01*
X172914215Y-82500000D02*
X173500000Y-83085786D01*
X173500000Y-83085786D02*
X173500000Y-87000000D01*
%TO.N,/GPIO38*%
X174763654Y-87230000D02*
X172000000Y-89993654D01*
X174523654Y-82390000D02*
X175476346Y-82390000D01*
X174233654Y-82100000D02*
X174523654Y-82390000D01*
X175476346Y-82390000D02*
X176150000Y-83063654D01*
X176150000Y-86556346D02*
X175476346Y-87230000D01*
X172000000Y-89993654D02*
X172000000Y-91000000D01*
X171920101Y-82100000D02*
X174233654Y-82100000D01*
X151500000Y-84000000D02*
X170020101Y-84000000D01*
X170020101Y-84000000D02*
X171920101Y-82100000D01*
X176150000Y-83063654D02*
X176150000Y-86556346D01*
X175476346Y-87230000D02*
X174763654Y-87230000D01*
%TO.N,/GPIO39*%
X175476346Y-79850000D02*
X176550000Y-80923654D01*
X152100000Y-83600000D02*
X169854415Y-83600000D01*
X174467057Y-89770000D02*
X172500000Y-91737057D01*
X175476346Y-89770000D02*
X174467057Y-89770000D01*
X173604415Y-79850000D02*
X175476346Y-79850000D01*
X169854415Y-83600000D02*
X173604415Y-79850000D01*
X176550000Y-80923654D02*
X176550000Y-88696346D01*
X172500000Y-91737057D02*
X172500000Y-94000000D01*
X176550000Y-88696346D02*
X175476346Y-89770000D01*
X151000000Y-82500000D02*
X152100000Y-83600000D01*
%TO.N,/GPIO40*%
X175476346Y-77310000D02*
X177500000Y-79333654D01*
X151000000Y-81500000D02*
X152700000Y-83200000D01*
X173850000Y-77983654D02*
X174523654Y-77310000D01*
X163291939Y-77983654D02*
X173850000Y-77983654D01*
X158075593Y-83200000D02*
X163291939Y-77983654D01*
X152700000Y-83200000D02*
X158075593Y-83200000D01*
X177500000Y-79333654D02*
X177500000Y-96500000D01*
X174523654Y-77310000D02*
X175476346Y-77310000D01*
%TO.N,/GPIO41*%
X178100000Y-98400000D02*
X177500000Y-99000000D01*
X178100000Y-77393654D02*
X178100000Y-98400000D01*
X151630000Y-79870000D02*
X160839907Y-79870000D01*
X174523654Y-74770000D02*
X175476346Y-74770000D01*
X163126254Y-77583654D02*
X171710000Y-77583654D01*
X175476346Y-74770000D02*
X178100000Y-77393654D01*
X171710000Y-77583654D02*
X174523654Y-74770000D01*
X151000000Y-80500000D02*
X151630000Y-79870000D01*
X160839907Y-79870000D02*
X163126254Y-77583654D01*
%TO.N,/GPIO42*%
X178500000Y-100000000D02*
X177000000Y-101500000D01*
X151000000Y-79500000D02*
X158270000Y-72230000D01*
X158270000Y-72230000D02*
X176150000Y-72230000D01*
X176150000Y-72230000D02*
X178500000Y-74580000D01*
X178500000Y-74580000D02*
X178500000Y-100000000D01*
%TO.N,/GPIO43 {slash} TXD0*%
X160500000Y-92000000D02*
X161500000Y-93000000D01*
%TO.N,/GPIO44 {slash} RXD0*%
X176315686Y-71830000D02*
X179500000Y-75014314D01*
X157170000Y-71830000D02*
X176315686Y-71830000D01*
X179500000Y-104000000D02*
X177500000Y-106000000D01*
X179500000Y-75014314D02*
X179500000Y-104000000D01*
X151000000Y-78000000D02*
X157170000Y-71830000D01*
%TO.N,/GPIO45*%
X151000000Y-89000000D02*
X153860000Y-89000000D01*
X153860000Y-89000000D02*
X167709670Y-102849670D01*
X167709670Y-102849670D02*
X167709670Y-106709670D01*
X167709670Y-106709670D02*
X172000000Y-111000000D01*
%TO.N,/GPIO46*%
X140000000Y-90500000D02*
X140000000Y-118000000D01*
X143000000Y-121000000D02*
X171500000Y-121000000D01*
X140000000Y-118000000D02*
X143000000Y-121000000D01*
X138500000Y-89000000D02*
X140000000Y-90500000D01*
%TO.N,/GPIO47*%
X149000000Y-90500000D02*
X172000000Y-113500000D01*
X149000000Y-89000000D02*
X149000000Y-90500000D01*
%TO.N,/GPIO48*%
X165260000Y-105906346D02*
X173000000Y-113646346D01*
X165260000Y-104260000D02*
X165260000Y-105906346D01*
X173000000Y-113646346D02*
X173000000Y-116000000D01*
X150000000Y-89000000D02*
X165260000Y-104260000D01*
%TO.N,/USB_D-*%
X133500000Y-91000000D02*
X133500000Y-92610000D01*
X161500000Y-115000000D02*
X162000000Y-115500000D01*
X161500000Y-110000000D02*
X161500000Y-115000000D01*
X127500000Y-94000000D02*
X121670000Y-99830000D01*
X121670000Y-99830000D02*
X121670000Y-115500000D01*
X150500000Y-95000000D02*
X151500000Y-96000000D01*
X154500000Y-99000000D02*
X155500000Y-100000000D01*
%TO.N,/USB_D+*%
X138500000Y-118500000D02*
X142500000Y-122500000D01*
X143000000Y-122000000D02*
X172000000Y-122000000D01*
X123500000Y-120500000D02*
X122500000Y-119500000D01*
X135000000Y-90500000D02*
X138500000Y-94000000D01*
X142500000Y-122500000D02*
X143000000Y-122000000D01*
X138500000Y-94000000D02*
X138500000Y-118500000D01*
X123500000Y-121500000D02*
X123500000Y-120500000D01*
%TO.N,/GPIO1*%
X149300000Y-75300000D02*
X148600000Y-76000000D01*
X115500000Y-83500000D02*
X117500000Y-83500000D01*
X148048527Y-76400000D02*
X135100000Y-76400000D01*
X135100000Y-76400000D02*
X134000000Y-77500000D01*
X148448527Y-76000000D02*
X148048527Y-76400000D01*
X148600000Y-76000000D02*
X148448527Y-76000000D01*
%TO.N,/GPIO2*%
X136000000Y-85000000D02*
X115500000Y-85000000D01*
X137500000Y-86500000D02*
X136000000Y-85000000D01*
%TO.N,/GPIO3*%
X136900000Y-88400000D02*
X120451471Y-88400000D01*
X115600000Y-88900000D02*
X115000000Y-89500000D01*
X120451471Y-88400000D02*
X119951471Y-88900000D01*
X137500000Y-89000000D02*
X136900000Y-88400000D01*
X119951471Y-88900000D02*
X115600000Y-88900000D01*
%TO.N,/GPIO6*%
X120500000Y-87500000D02*
X120000000Y-88000000D01*
X121500000Y-87500000D02*
X120500000Y-87500000D01*
%TO.N,/GPIO7*%
X121500000Y-89000000D02*
X121000000Y-89500000D01*
X123000000Y-89000000D02*
X121500000Y-89000000D01*
%TO.N,/GPIO8*%
X126000000Y-86500000D02*
X129000000Y-86500000D01*
X120500000Y-86500000D02*
X120000000Y-86500000D01*
X129500000Y-87000000D02*
X131500000Y-87000000D01*
X119000000Y-89500000D02*
X119000000Y-91000000D01*
X119000000Y-91000000D02*
X120526765Y-92526765D01*
X120000000Y-86500000D02*
X119000000Y-87500000D01*
X129000000Y-86500000D02*
X129500000Y-87000000D01*
%TO.N,/GPIO9*%
X113650000Y-90001471D02*
X113650000Y-100421346D01*
X139000000Y-88000000D02*
X122848529Y-88000000D01*
X140000000Y-89000000D02*
X139000000Y-88000000D01*
X122848529Y-88000000D02*
X120748529Y-85900000D01*
X113650000Y-100421346D02*
X112976346Y-101095000D01*
X112023654Y-101095000D02*
X110000000Y-103118654D01*
X117751471Y-85900000D02*
X113650000Y-90001471D01*
X120748529Y-85900000D02*
X117751471Y-85900000D01*
X112976346Y-101095000D02*
X112023654Y-101095000D01*
X110000000Y-103118654D02*
X110000000Y-105000000D01*
%TO.N,/GPIO10*%
X141000000Y-89000000D02*
X139600000Y-87600000D01*
X112023654Y-88395000D02*
X109400000Y-91018654D01*
X112976346Y-88395000D02*
X112023654Y-88395000D01*
X123014215Y-87600000D02*
X120914214Y-85500000D01*
X139600000Y-87600000D02*
X123014215Y-87600000D01*
X115871346Y-85500000D02*
X112976346Y-88395000D01*
X109400000Y-91018654D02*
X109400000Y-106400000D01*
X109400000Y-106400000D02*
X110500000Y-107500000D01*
X120914214Y-85500000D02*
X115871346Y-85500000D01*
%TO.N,/GPIO11*%
X142500000Y-89000000D02*
X137900000Y-84400000D01*
X137900000Y-84400000D02*
X114431346Y-84400000D01*
X112023654Y-85855000D02*
X109000000Y-88878654D01*
X109000000Y-88878654D02*
X109000000Y-109000000D01*
X112976346Y-85855000D02*
X112023654Y-85855000D01*
X109000000Y-109000000D02*
X110000000Y-110000000D01*
X114431346Y-84400000D02*
X112976346Y-85855000D01*
%TO.N,/GPIO12*%
X143500000Y-89000000D02*
X138500000Y-84000000D01*
X114391346Y-81900000D02*
X112976346Y-83315000D01*
X108600000Y-86738654D02*
X108600000Y-110600000D01*
X116748529Y-81900000D02*
X114391346Y-81900000D01*
X108600000Y-110600000D02*
X110000000Y-112000000D01*
X138500000Y-84000000D02*
X118848529Y-84000000D01*
X112023654Y-83315000D02*
X108600000Y-86738654D01*
X112976346Y-83315000D02*
X112023654Y-83315000D01*
X118848529Y-84000000D02*
X116748529Y-81900000D01*
%TO.N,/GPIO13*%
X135220000Y-79220000D02*
X123055593Y-79220000D01*
X119014215Y-83261378D02*
X116527837Y-80775000D01*
X145000000Y-89000000D02*
X135220000Y-79220000D01*
X123055593Y-79220000D02*
X119014215Y-83261378D01*
X108200000Y-112700000D02*
X110000000Y-114500000D01*
X112023654Y-80775000D02*
X108200000Y-84598654D01*
X116527837Y-80775000D02*
X112023654Y-80775000D01*
X108200000Y-84598654D02*
X108200000Y-112700000D01*
%TO.N,/GPIO14*%
X112023654Y-78235000D02*
X107800000Y-82458654D01*
X122889907Y-78820000D02*
X120677968Y-81031939D01*
X135820000Y-78820000D02*
X122889907Y-78820000D01*
X120050000Y-81031939D02*
X117253061Y-78235000D01*
X146000000Y-89000000D02*
X135820000Y-78820000D01*
X107800000Y-82458654D02*
X107800000Y-115300000D01*
X107800000Y-115300000D02*
X110000000Y-117500000D01*
X117253061Y-78235000D02*
X112023654Y-78235000D01*
X120677968Y-81031939D02*
X120050000Y-81031939D01*
%TO.N,/GPIO15*%
X122731765Y-89768235D02*
X122000000Y-90500000D01*
X123731765Y-89768235D02*
X122731765Y-89768235D01*
%TO.N,/GPIO16*%
X124500000Y-90500000D02*
X123500000Y-90500000D01*
X123500000Y-90500000D02*
X123000000Y-91000000D01*
%TD*%
M02*
