%TF.GenerationSoftware,KiCad,Pcbnew,10.0.5*%
%TF.CreationDate,2026-09-25T22:31:14+05:30*%
%TF.ProjectId,esp32-devboard,65737033-322d-4646-9576-626f6172642e,rev?*%
%TF.SameCoordinates,Original*%
%TF.FileFunction,Soldermask,Top*%
%TF.FilePolarity,Negative*%
%FSLAX46Y46*%
G04 Gerber Fmt 4.6, Leading zero omitted, Abs format (unit mm)*
G04 Created by KiCad (PCBNEW 10.0.5) date 2026-09-25 22:31:14*
%MOMM*%
%LPD*%
G01*
G04 APERTURE LIST*
G04 Aperture macros list*
%AMRoundRect*
0 Rectangle with rounded corners*
0 $1 Rounding radius*
0 $2 $3 $4 $5 $6 $7 $8 $9 X,Y pos of 4 corners*
0 Add a 4 corners polygon primitive as box body*
4,1,4,$2,$3,$4,$5,$6,$7,$8,$9,$2,$3,0*
0 Add four circle primitives for the rounded corners*
1,1,$1+$1,$2,$3*
1,1,$1+$1,$4,$5*
1,1,$1+$1,$6,$7*
1,1,$1+$1,$8,$9*
0 Add four rect primitives between the rounded corners*
20,1,$1+$1,$2,$3,$4,$5,0*
20,1,$1+$1,$4,$5,$6,$7,0*
20,1,$1+$1,$6,$7,$8,$9,0*
20,1,$1+$1,$8,$9,$2,$3,0*%
G04 Aperture macros list end*
%ADD10RoundRect,0.200000X-0.200000X0.250000X-0.200000X-0.250000X0.200000X-0.250000X0.200000X0.250000X0*%
%ADD11R,4.000000X4.000000*%
%ADD12RoundRect,0.050000X-0.350000X0.050000X-0.350000X-0.050000X0.350000X-0.050000X0.350000X0.050000X0*%
%ADD13RoundRect,0.050000X-0.050000X0.350000X-0.050000X-0.350000X0.050000X-0.350000X0.050000X0.350000X0*%
%ADD14O,1.000000X1.600000*%
%ADD15O,1.000000X2.100000*%
%ADD16RoundRect,0.150000X-0.150000X-0.575000X0.150000X-0.575000X0.150000X0.575000X-0.150000X0.575000X0*%
%ADD17RoundRect,0.075000X-0.075000X-0.650000X0.075000X-0.650000X0.075000X0.650000X-0.075000X0.650000X0*%
%ADD18C,0.650000*%
%ADD19C,2.000000*%
%ADD20R,0.700000X0.700000*%
%ADD21RoundRect,0.140000X-0.140000X-0.170000X0.140000X-0.170000X0.140000X0.170000X-0.140000X0.170000X0*%
%ADD22R,1.700000X1.700000*%
%ADD23C,1.700000*%
%ADD24RoundRect,0.135000X0.185000X-0.135000X0.185000X0.135000X-0.185000X0.135000X-0.185000X-0.135000X0*%
%ADD25RoundRect,0.140000X0.140000X0.170000X-0.140000X0.170000X-0.140000X-0.170000X0.140000X-0.170000X0*%
%ADD26RoundRect,0.140000X-0.170000X0.140000X-0.170000X-0.140000X0.170000X-0.140000X0.170000X0.140000X0*%
%ADD27RoundRect,0.140000X0.170000X-0.140000X0.170000X0.140000X-0.170000X0.140000X-0.170000X-0.140000X0*%
%ADD28RoundRect,0.135000X0.135000X0.185000X-0.135000X0.185000X-0.135000X-0.185000X0.135000X-0.185000X0*%
%ADD29RoundRect,0.150000X-0.512500X-0.150000X0.512500X-0.150000X0.512500X0.150000X-0.512500X0.150000X0*%
G04 APERTURE END LIST*
D10*
%TO.C,Y1*%
X193350000Y-104250000D03*
X193350000Y-105650000D03*
X192250000Y-105650000D03*
X192250000Y-104250000D03*
%TD*%
D11*
%TO.C,U1*%
X185330000Y-105670000D03*
D12*
X188780000Y-103070000D03*
X188780000Y-103470000D03*
X188780000Y-103870000D03*
X188780000Y-104270000D03*
X188780000Y-104670000D03*
X188780000Y-105070000D03*
X188780000Y-105470000D03*
X188780000Y-105870000D03*
X188780000Y-106270000D03*
X188780000Y-106670000D03*
X188780000Y-107070000D03*
X188780000Y-107470000D03*
X188780000Y-107870000D03*
X188780000Y-108270000D03*
D13*
X187930000Y-109120000D03*
X187530000Y-109120000D03*
X187130000Y-109120000D03*
X186730000Y-109120000D03*
X186330000Y-109120000D03*
X185930000Y-109120000D03*
X185530000Y-109120000D03*
X185130000Y-109120000D03*
X184730000Y-109120000D03*
X184330000Y-109120000D03*
X183930000Y-109120000D03*
X183530000Y-109120000D03*
X183130000Y-109120000D03*
X182730000Y-109120000D03*
D12*
X181880000Y-108270000D03*
X181880000Y-107870000D03*
X181880000Y-107470000D03*
X181880000Y-107070000D03*
X181880000Y-106670000D03*
X181880000Y-106270000D03*
X181880000Y-105870000D03*
X181880000Y-105470000D03*
X181880000Y-105070000D03*
X181880000Y-104670000D03*
X181880000Y-104270000D03*
X181880000Y-103870000D03*
X181880000Y-103470000D03*
X181880000Y-103070000D03*
D13*
X182730000Y-102220000D03*
X183130000Y-102220000D03*
X183530000Y-102220000D03*
X183930000Y-102220000D03*
X184330000Y-102220000D03*
X184730000Y-102220000D03*
X185130000Y-102220000D03*
X185530000Y-102220000D03*
X185930000Y-102220000D03*
X186330000Y-102220000D03*
X186730000Y-102220000D03*
X187130000Y-102220000D03*
X187530000Y-102220000D03*
X187930000Y-102220000D03*
%TD*%
D14*
%TO.C,J1*%
X189820000Y-127050000D03*
D15*
X189820000Y-122870000D03*
D14*
X181180000Y-127050000D03*
D15*
X181180000Y-122870000D03*
D16*
X182250000Y-121955000D03*
D17*
X184750000Y-121955000D03*
X186250000Y-121955000D03*
X187250000Y-121955000D03*
D16*
X187950000Y-121955000D03*
X183050000Y-121955000D03*
X188750000Y-121955000D03*
X188750000Y-121955000D03*
X187950000Y-121955000D03*
D17*
X186750000Y-121955000D03*
X183750000Y-121955000D03*
X185750000Y-121955000D03*
X185250000Y-121955000D03*
X184250000Y-121955000D03*
D16*
X183050000Y-121955000D03*
X182250000Y-121955000D03*
D18*
X188390000Y-123400000D03*
X182610000Y-123400000D03*
%TD*%
D19*
%TO.C,SW1*%
X185000000Y-98000000D03*
X178500000Y-98000000D03*
X185000000Y-93500000D03*
X178500000Y-93500000D03*
%TD*%
D20*
%TO.C,D2*%
X174585000Y-108450000D03*
X174585000Y-109550000D03*
X176415000Y-109550000D03*
X176415000Y-108450000D03*
%TD*%
D21*
%TO.C,C6*%
X190020000Y-103500000D03*
X190980000Y-103500000D03*
%TD*%
D22*
%TO.C,J2*%
X170500000Y-92100000D03*
D23*
X170500000Y-94640000D03*
X170500000Y-97180000D03*
X170500000Y-99720000D03*
X170500000Y-102260000D03*
X170500000Y-104800000D03*
X170500000Y-107340000D03*
X170500000Y-109880000D03*
X170500000Y-112420000D03*
X170500000Y-114960000D03*
X170500000Y-117500000D03*
X170500000Y-120040000D03*
X170500000Y-122580000D03*
X170500000Y-125120000D03*
X170500000Y-127660000D03*
%TD*%
D20*
%TO.C,D1*%
X177942500Y-108310000D03*
X177942500Y-109410000D03*
X179772500Y-109410000D03*
X179772500Y-108310000D03*
%TD*%
D24*
%TO.C,R2*%
X186000000Y-120010000D03*
X186000000Y-118990000D03*
%TD*%
D21*
%TO.C,C2*%
X192000000Y-102500000D03*
X192960000Y-102500000D03*
%TD*%
D25*
%TO.C,C10*%
X180480000Y-106000000D03*
X179520000Y-106000000D03*
%TD*%
D26*
%TO.C,C4*%
X184000000Y-110520000D03*
X184000000Y-111480000D03*
%TD*%
D25*
%TO.C,C9*%
X180480000Y-105000000D03*
X179520000Y-105000000D03*
%TD*%
%TO.C,C8*%
X187480000Y-118000000D03*
X186520000Y-118000000D03*
%TD*%
D21*
%TO.C,C1*%
X195020000Y-106000000D03*
X195980000Y-106000000D03*
%TD*%
D24*
%TO.C,R3*%
X184000000Y-120010000D03*
X184000000Y-118990000D03*
%TD*%
%TO.C,R8*%
X174205000Y-99805000D03*
X174205000Y-98785000D03*
%TD*%
%TO.C,R7*%
X175205000Y-95305000D03*
X175205000Y-94285000D03*
%TD*%
D27*
%TO.C,C3*%
X188500000Y-119980000D03*
X188500000Y-119020000D03*
%TD*%
D24*
%TO.C,R6*%
X190000000Y-101010000D03*
X190000000Y-99990000D03*
%TD*%
%TO.C,R4*%
X187500000Y-120010000D03*
X187500000Y-118990000D03*
%TD*%
D28*
%TO.C,R5*%
X192510000Y-98500000D03*
X191490000Y-98500000D03*
%TD*%
D27*
%TO.C,C12*%
X188010000Y-100480000D03*
X188010000Y-99520000D03*
%TD*%
D24*
%TO.C,R1*%
X185000000Y-120010000D03*
X185000000Y-118990000D03*
%TD*%
D29*
%TO.C,U2*%
X189000000Y-116050000D03*
X189000000Y-117950000D03*
X191275000Y-117000000D03*
%TD*%
D22*
%TO.C,J3*%
X200500000Y-92560000D03*
D23*
X200500000Y-95100000D03*
X200500000Y-97640000D03*
X200500000Y-100180000D03*
X200500000Y-102720000D03*
X200500000Y-105260000D03*
X200500000Y-107800000D03*
X200500000Y-110340000D03*
X200500000Y-112880000D03*
X200500000Y-115420000D03*
X200500000Y-117960000D03*
X200500000Y-120500000D03*
X200500000Y-123040000D03*
X200500000Y-125580000D03*
X200500000Y-128120000D03*
%TD*%
D26*
%TO.C,C7*%
X182980000Y-110520000D03*
X182980000Y-111480000D03*
%TD*%
D21*
%TO.C,C5*%
X192020000Y-101500000D03*
X192980000Y-101500000D03*
%TD*%
D27*
%TO.C,C11*%
X187000000Y-100480000D03*
X187000000Y-99520000D03*
%TD*%
M02*
