%TF.GenerationSoftware,KiCad,Pcbnew,10.0.5*%
%TF.CreationDate,2026-09-25T22:31:14+05:30*%
%TF.ProjectId,esp32-devboard,65737033-322d-4646-9576-626f6172642e,rev?*%
%TF.SameCoordinates,Original*%
%TF.FileFunction,Copper,L1,Top*%
%TF.FilePolarity,Positive*%
%FSLAX46Y46*%
G04 Gerber Fmt 4.6, Leading zero omitted, Abs format (unit mm)*
G04 Created by KiCad (PCBNEW 10.0.5) date 2026-09-25 22:31:14*
%MOMM*%
%LPD*%
G01*
G04 APERTURE LIST*
G04 Aperture macros list*
%AMRoundRect*
0 Rectangle with rounded corners*
0 $1 Rounding radius*
0 $2 $3 $4 $5 $6 $7 $8 $9 X,Y pos of 4 corners*
0 Add a 4 corners polygon primitive as box body*
4,1,4,$2,$3,$4,$5,$6,$7,$8,$9,$2,$3,0*
0 Add four circle primitives for the rounded corners*
1,1,$1+$1,$2,$3*
1,1,$1+$1,$4,$5*
1,1,$1+$1,$6,$7*
1,1,$1+$1,$8,$9*
0 Add four rect primitives between the rounded corners*
20,1,$1+$1,$2,$3,$4,$5,0*
20,1,$1+$1,$4,$5,$6,$7,0*
20,1,$1+$1,$6,$7,$8,$9,0*
20,1,$1+$1,$8,$9,$2,$3,0*%
G04 Aperture macros list end*
%TA.AperFunction,EtchedComponent*%
%ADD10C,0.000000*%
%TD*%
%TA.AperFunction,SMDPad,CuDef*%
%ADD11RoundRect,0.200000X-0.200000X0.250000X-0.200000X-0.250000X0.200000X-0.250000X0.200000X0.250000X0*%
%TD*%
%TA.AperFunction,HeatsinkPad*%
%ADD12R,4.000000X4.000000*%
%TD*%
%TA.AperFunction,SMDPad,CuDef*%
%ADD13RoundRect,0.050000X-0.350000X0.050000X-0.350000X-0.050000X0.350000X-0.050000X0.350000X0.050000X0*%
%TD*%
%TA.AperFunction,SMDPad,CuDef*%
%ADD14RoundRect,0.050000X-0.050000X0.350000X-0.050000X-0.350000X0.050000X-0.350000X0.050000X0.350000X0*%
%TD*%
%TA.AperFunction,ComponentPad*%
%ADD15O,1.000000X1.600000*%
%TD*%
%TA.AperFunction,ComponentPad*%
%ADD16O,1.000000X2.100000*%
%TD*%
%TA.AperFunction,SMDPad,CuDef*%
%ADD17RoundRect,0.150000X-0.150000X-0.575000X0.150000X-0.575000X0.150000X0.575000X-0.150000X0.575000X0*%
%TD*%
%TA.AperFunction,SMDPad,CuDef*%
%ADD18RoundRect,0.075000X-0.075000X-0.650000X0.075000X-0.650000X0.075000X0.650000X-0.075000X0.650000X0*%
%TD*%
%TA.AperFunction,ComponentPad*%
%ADD19C,2.000000*%
%TD*%
%TA.AperFunction,SMDPad,CuDef*%
%ADD20R,0.700000X0.700000*%
%TD*%
%TA.AperFunction,SMDPad,CuDef*%
%ADD21RoundRect,0.140000X-0.140000X-0.170000X0.140000X-0.170000X0.140000X0.170000X-0.140000X0.170000X0*%
%TD*%
%TA.AperFunction,ComponentPad*%
%ADD22R,1.700000X1.700000*%
%TD*%
%TA.AperFunction,ComponentPad*%
%ADD23C,1.700000*%
%TD*%
%TA.AperFunction,SMDPad,CuDef*%
%ADD24RoundRect,0.135000X0.185000X-0.135000X0.185000X0.135000X-0.185000X0.135000X-0.185000X-0.135000X0*%
%TD*%
%TA.AperFunction,SMDPad,CuDef*%
%ADD25RoundRect,0.140000X0.140000X0.170000X-0.140000X0.170000X-0.140000X-0.170000X0.140000X-0.170000X0*%
%TD*%
%TA.AperFunction,SMDPad,CuDef*%
%ADD26RoundRect,0.140000X-0.170000X0.140000X-0.170000X-0.140000X0.170000X-0.140000X0.170000X0.140000X0*%
%TD*%
%TA.AperFunction,SMDPad,CuDef*%
%ADD27RoundRect,0.140000X0.170000X-0.140000X0.170000X0.140000X-0.170000X0.140000X-0.170000X-0.140000X0*%
%TD*%
%TA.AperFunction,SMDPad,CuDef*%
%ADD28RoundRect,0.135000X0.135000X0.185000X-0.135000X0.185000X-0.135000X-0.185000X0.135000X-0.185000X0*%
%TD*%
%TA.AperFunction,ConnectorPad*%
%ADD29R,0.500000X0.500000*%
%TD*%
%TA.AperFunction,ComponentPad*%
%ADD30R,0.900000X0.500000*%
%TD*%
%TA.AperFunction,SMDPad,CuDef*%
%ADD31RoundRect,0.150000X-0.512500X-0.150000X0.512500X-0.150000X0.512500X0.150000X-0.512500X0.150000X0*%
%TD*%
%TA.AperFunction,ViaPad*%
%ADD32C,0.600000*%
%TD*%
%TA.AperFunction,Conductor*%
%ADD33C,0.200000*%
%TD*%
G04 APERTURE END LIST*
D10*
%TA.AperFunction,EtchedComponent*%
%TO.C,AE2*%
G36*
X193600000Y-89875000D02*
G01*
X192700000Y-89875000D01*
X192700000Y-89616842D01*
X193001778Y-89616842D01*
X193008309Y-89666368D01*
X193028868Y-89711553D01*
X193062511Y-89746787D01*
X193081122Y-89757400D01*
X193126637Y-89770300D01*
X193175156Y-89771043D01*
X193217819Y-89758935D01*
X193225731Y-89754581D01*
X193263674Y-89721797D01*
X193287742Y-89679395D01*
X193297583Y-89631785D01*
X193292847Y-89583378D01*
X193273185Y-89538584D01*
X193238245Y-89501814D01*
X193205353Y-89484908D01*
X193157267Y-89477018D01*
X193107682Y-89483592D01*
X193062372Y-89503687D01*
X193027112Y-89536357D01*
X193010218Y-89568583D01*
X193001778Y-89616842D01*
X192700000Y-89616842D01*
X192700000Y-84975000D01*
X191300000Y-84975000D01*
X191300000Y-89875000D01*
X190800000Y-89875000D01*
X190800000Y-84975000D01*
X189100000Y-84975000D01*
X189100000Y-87615000D01*
X186100000Y-87615000D01*
X186100000Y-84975000D01*
X184400000Y-84975000D01*
X184400000Y-87615000D01*
X181400000Y-87615000D01*
X181400000Y-84975000D01*
X179700000Y-84975000D01*
X179700000Y-88915000D01*
X179200000Y-88915000D01*
X179200000Y-84475000D01*
X181900000Y-84475000D01*
X181900000Y-87115000D01*
X183900000Y-87115000D01*
X183900000Y-84475000D01*
X186600000Y-84475000D01*
X186600000Y-87115000D01*
X188600000Y-87115000D01*
X188600000Y-84475000D01*
X193600000Y-84475000D01*
X193600000Y-89631785D01*
X193600000Y-89875000D01*
G37*
%TD.AperFunction*%
%TD*%
D11*
%TO.P,Y1,4*%
%TO.N,N/C*%
X193350000Y-104250000D03*
%TO.P,Y1,3,3_3*%
%TO.N,/XO*%
X193350000Y-105650000D03*
%TO.P,Y1,2,2_2*%
%TO.N,GND*%
X192250000Y-105650000D03*
%TO.P,Y1,1,1_1*%
%TO.N,/XI*%
X192250000Y-104250000D03*
%TD*%
D12*
%TO.P,U1,57,GND_57*%
%TO.N,GND*%
X185330000Y-105670000D03*
D13*
%TO.P,U1,56,CHIP_PU_56*%
%TO.N,/CHIP_PU*%
X188780000Y-103070000D03*
%TO.P,U1,55,GPIO46_55*%
%TO.N,/GPIO46*%
X188780000Y-103470000D03*
%TO.P,U1,54,VDDA_54*%
%TO.N,+3V3*%
X188780000Y-103870000D03*
%TO.P,U1,53,XTAL_P_53*%
%TO.N,/XI*%
X188780000Y-104270000D03*
%TO.P,U1,52,XTAL_N_52*%
%TO.N,/X0*%
X188780000Y-104670000D03*
%TO.P,U1,51,VDDA_51*%
%TO.N,+3V3*%
X188780000Y-105070000D03*
%TO.P,U1,50,GPIO45_50*%
%TO.N,/GPIO45*%
X188780000Y-105470000D03*
%TO.P,U1,49,U0RXD_49*%
%TO.N,/RX*%
X188780000Y-105870000D03*
%TO.P,U1,48,U0TXD_48*%
%TO.N,/TX*%
X188780000Y-106270000D03*
%TO.P,U1,47,MTMS_47*%
%TO.N,unconnected-(U1-MTMS-Pad47)*%
X188780000Y-106670000D03*
%TO.P,U1,46,MDTI_46*%
%TO.N,unconnected-(U1-MDTI-Pad46)*%
X188780000Y-107070000D03*
%TO.P,U1,45,VDD3P3_CPU_45*%
%TO.N,+3V3*%
X188780000Y-107470000D03*
%TO.P,U1,44,MTD0_44*%
%TO.N,unconnected-(U1-MTD0-Pad44)*%
X188780000Y-107870000D03*
%TO.P,U1,43,MTCK_43*%
%TO.N,unconnected-(U1-MTCK-Pad43)*%
X188780000Y-108270000D03*
D14*
%TO.P,U1,42,GPIO38_42*%
%TO.N,/GPIO38*%
X187930000Y-109120000D03*
%TO.P,U1,41,GPIO37_41*%
%TO.N,/GPIO37*%
X187530000Y-109120000D03*
%TO.P,U1,40,GPIO36_40*%
%TO.N,/GPIO36*%
X187130000Y-109120000D03*
%TO.P,U1,39,GPIO35_39*%
%TO.N,/GPIO35*%
X186730000Y-109120000D03*
%TO.P,U1,38,GPIO34_38*%
%TO.N,/GPIO34*%
X186330000Y-109120000D03*
%TO.P,U1,37,GPIO33_37*%
%TO.N,/GPIO33*%
X185930000Y-109120000D03*
%TO.P,U1,36,SPID_36*%
%TO.N,unconnected-(U1-SPID-Pad36)*%
X185530000Y-109120000D03*
%TO.P,U1,35,SPIQ_35*%
%TO.N,unconnected-(U1-SPIQ-Pad35)*%
X185130000Y-109120000D03*
%TO.P,U1,34,SPICLK_34*%
%TO.N,unconnected-(U1-SPICLK-Pad34)*%
X184730000Y-109120000D03*
%TO.P,U1,33,SPICS0_33*%
%TO.N,unconnected-(U1-SPICS0-Pad33)*%
X184330000Y-109120000D03*
%TO.P,U1,32,SPIWP_32*%
%TO.N,unconnected-(U1-SPIWP-Pad32)*%
X183930000Y-109120000D03*
%TO.P,U1,31,SPIHD_31*%
%TO.N,unconnected-(U1-SPIHD-Pad31)*%
X183530000Y-109120000D03*
%TO.P,U1,30,VDD_SPI_30*%
%TO.N,+3V3*%
X183130000Y-109120000D03*
%TO.P,U1,29,SPICS1_29*%
%TO.N,unconnected-(U1-SPICS1-Pad29)*%
X182730000Y-109120000D03*
D13*
%TO.P,U1,28,GPIO21_28*%
%TO.N,/GPIO21*%
X181880000Y-108270000D03*
%TO.P,U1,27,VDD3P3_RTC_IO_27*%
%TO.N,+3V3*%
X181880000Y-107870000D03*
%TO.P,U1,26,GPIO20/USB_D+_26*%
%TO.N,Net-(U1-GPIO20{slash}USB_D+)*%
X181880000Y-107470000D03*
%TO.P,U1,25,GPIO19/USB_D-_25*%
%TO.N,Net-(U1-GPIO19{slash}USB_D-)*%
X181880000Y-107070000D03*
%TO.P,U1,24,DAC_2_24*%
%TO.N,unconnected-(U1-DAC_2-Pad24)*%
X181880000Y-106670000D03*
%TO.P,U1,23,DAC_1_23*%
%TO.N,unconnected-(U1-DAC_1-Pad23)*%
X181880000Y-106270000D03*
%TO.P,U1,22,XTAL_32K_N_22*%
%TO.N,unconnected-(U1-XTAL_32K_N-Pad22)*%
X181880000Y-105870000D03*
%TO.P,U1,21,XTAL_32K_P_21*%
%TO.N,unconnected-(U1-XTAL_32K_P-Pad21)*%
X181880000Y-105470000D03*
%TO.P,U1,20,VDD3P3_RTC_20*%
%TO.N,+3V3*%
X181880000Y-105070000D03*
%TO.P,U1,19,GPIO14_19*%
%TO.N,/GPIO14*%
X181880000Y-104670000D03*
%TO.P,U1,18,GPIO13_18*%
%TO.N,/GPIO13*%
X181880000Y-104270000D03*
%TO.P,U1,17,GPIO12_17*%
%TO.N,/GPIO12*%
X181880000Y-103870000D03*
%TO.P,U1,16,GPIO11_16*%
%TO.N,/GPIO11*%
X181880000Y-103470000D03*
%TO.P,U1,15,GPIO10_15*%
%TO.N,/GPIO10*%
X181880000Y-103070000D03*
D14*
%TO.P,U1,14,GPIO9_14*%
%TO.N,/SWPUD*%
X182730000Y-102220000D03*
%TO.P,U1,13,GPIO8_13*%
%TO.N,/SWPUC*%
X183130000Y-102220000D03*
%TO.P,U1,12,GPIO7_12*%
%TO.N,unconnected-(U1-GPIO7-Pad12)*%
X183530000Y-102220000D03*
%TO.P,U1,11,GPIO6_11*%
%TO.N,/SWIO*%
X183930000Y-102220000D03*
%TO.P,U1,10,GPIO5_10*%
%TO.N,unconnected-(U1-GPIO5-Pad10)*%
X184330000Y-102220000D03*
%TO.P,U1,9,GPIO4_9*%
%TO.N,/SWCLK*%
X184730000Y-102220000D03*
%TO.P,U1,8,GPIO3_8*%
%TO.N,/GPIO3*%
X185130000Y-102220000D03*
%TO.P,U1,7,GPIO2_7*%
%TO.N,/GPIO2*%
X185530000Y-102220000D03*
%TO.P,U1,6,GPIO1_6*%
%TO.N,/GPIO1*%
X185930000Y-102220000D03*
%TO.P,U1,5,GPIO0_5*%
%TO.N,/IO0*%
X186330000Y-102220000D03*
%TO.P,U1,4,VDD3P3_4*%
%TO.N,+3V3*%
X186730000Y-102220000D03*
%TO.P,U1,3,VDD3P3_3*%
X187130000Y-102220000D03*
%TO.P,U1,2,LNA_IN_2*%
%TO.N,Net-(AE2-A)*%
X187530000Y-102220000D03*
%TO.P,U1,1,VDDA_1*%
%TO.N,+3V3*%
X187930000Y-102220000D03*
%TD*%
D15*
%TO.P,J1,SH,SHIELD_SH*%
%TO.N,GND*%
X189820000Y-127050000D03*
D16*
X189820000Y-122870000D03*
D15*
X181180000Y-127050000D03*
D16*
X181180000Y-122870000D03*
D17*
%TO.P,J1,B12,GND_B12*%
X182250000Y-121955000D03*
D18*
%TO.P,J1,B7,D-_B7*%
%TO.N,/D-*%
X184750000Y-121955000D03*
%TO.P,J1,B6,D+_B6*%
%TO.N,/D+*%
X186250000Y-121955000D03*
%TO.P,J1,B5,CC2_B5*%
%TO.N,Net-(J1-CC2)*%
X187250000Y-121955000D03*
D17*
%TO.P,J1,B4,VBUS_B4*%
%TO.N,VBUS*%
X187950000Y-121955000D03*
X183050000Y-121955000D03*
%TO.P,J1,B1,GND_B1*%
%TO.N,GND*%
X188750000Y-121955000D03*
%TO.P,J1,A12,GND_A12*%
X188750000Y-121955000D03*
%TO.P,J1,A9,VBUS_A9*%
%TO.N,VBUS*%
X187950000Y-121955000D03*
D18*
%TO.P,J1,A8*%
%TO.N,N/C*%
X186750000Y-121955000D03*
X183750000Y-121955000D03*
%TO.P,J1,A7,D-_A7*%
%TO.N,/D-*%
X185750000Y-121955000D03*
%TO.P,J1,A6,D+_A6*%
%TO.N,/D+*%
X185250000Y-121955000D03*
%TO.P,J1,A5,CC1_A5*%
%TO.N,Net-(J1-CC1)*%
X184250000Y-121955000D03*
D17*
%TO.P,J1,A4,VBUS_A4*%
%TO.N,VBUS*%
X183050000Y-121955000D03*
%TO.P,J1,A1,GND_A1*%
%TO.N,GND*%
X182250000Y-121955000D03*
%TD*%
D19*
%TO.P,SW1,1,1_1*%
%TO.N,/IO0*%
X185000000Y-98000000D03*
X178500000Y-98000000D03*
%TO.P,SW1,2,2_2*%
%TO.N,GND*%
X185000000Y-93500000D03*
X178500000Y-93500000D03*
%TD*%
D20*
%TO.P,D2,1,DOUT_1*%
%TO.N,unconnected-(D2-DOUT-Pad1)*%
X174585000Y-108450000D03*
%TO.P,D2,2,VSS_2*%
%TO.N,GND*%
X174585000Y-109550000D03*
%TO.P,D2,3,DIN_3*%
%TO.N,Net-(D1-DOUT)*%
X176415000Y-109550000D03*
%TO.P,D2,4,VDD_4*%
%TO.N,+5V*%
X176415000Y-108450000D03*
%TD*%
D21*
%TO.P,C6,1*%
%TO.N,+3V3*%
X190020000Y-103500000D03*
%TO.P,C6,2*%
%TO.N,GND*%
X190980000Y-103500000D03*
%TD*%
D22*
%TO.P,J2,1,Pin_1_1*%
%TO.N,GND*%
X170500000Y-92100000D03*
D23*
%TO.P,J2,2,Pin_2_2*%
%TO.N,/SWCLK*%
X170500000Y-94640000D03*
%TO.P,J2,3,Pin_3_3*%
%TO.N,/SWDIO*%
X170500000Y-97180000D03*
%TO.P,J2,4,Pin_4_4*%
%TO.N,/GPIO5*%
X170500000Y-99720000D03*
%TO.P,J2,5,Pin_5_5*%
%TO.N,/GPIO7*%
X170500000Y-102260000D03*
%TO.P,J2,6,Pin_6_6*%
%TO.N,/GPIO10*%
X170500000Y-104800000D03*
%TO.P,J2,7,Pin_7_7*%
%TO.N,/GPIO11*%
X170500000Y-107340000D03*
%TO.P,J2,8,Pin_8_8*%
%TO.N,/GPIO12*%
X170500000Y-109880000D03*
%TO.P,J2,9,Pin_9_9*%
%TO.N,/GPIO13*%
X170500000Y-112420000D03*
%TO.P,J2,10,Pin_10_10*%
%TO.N,/GPIO14*%
X170500000Y-114960000D03*
%TO.P,J2,11,Pin_11_11*%
%TO.N,/GPIO15*%
X170500000Y-117500000D03*
%TO.P,J2,12,Pin_12_12*%
%TO.N,/GPIO16*%
X170500000Y-120040000D03*
%TO.P,J2,13,Pin_13_13*%
%TO.N,GND*%
X170500000Y-122580000D03*
%TO.P,J2,14,Pin_14_14*%
X170500000Y-125120000D03*
%TO.P,J2,15,Pin_15_15*%
X170500000Y-127660000D03*
%TD*%
D20*
%TO.P,D1,1,DOUT_1*%
%TO.N,Net-(D1-DOUT)*%
X177942500Y-108310000D03*
%TO.P,D1,2,VSS_2*%
%TO.N,GND*%
X177942500Y-109410000D03*
%TO.P,D1,3,DIN_3*%
%TO.N,/GPIO21*%
X179772500Y-109410000D03*
%TO.P,D1,4,VDD_4*%
%TO.N,+5V*%
X179772500Y-108310000D03*
%TD*%
D24*
%TO.P,R2,1*%
%TO.N,/D+*%
X186000000Y-120010000D03*
%TO.P,R2,2*%
%TO.N,Net-(U1-GPIO20{slash}USB_D+)*%
X186000000Y-118990000D03*
%TD*%
D21*
%TO.P,C2,1*%
%TO.N,/XI*%
X192000000Y-102500000D03*
%TO.P,C2,2*%
%TO.N,GND*%
X192960000Y-102500000D03*
%TD*%
D25*
%TO.P,C10,1*%
%TO.N,+3V3*%
X180480000Y-106000000D03*
%TO.P,C10,2*%
%TO.N,GND*%
X179520000Y-106000000D03*
%TD*%
D26*
%TO.P,C4,1*%
%TO.N,+3V3*%
X184000000Y-110520000D03*
%TO.P,C4,2*%
%TO.N,GND*%
X184000000Y-111480000D03*
%TD*%
D25*
%TO.P,C9,1*%
%TO.N,+3V3*%
X180480000Y-105000000D03*
%TO.P,C9,2*%
%TO.N,GND*%
X179520000Y-105000000D03*
%TD*%
%TO.P,C8,1*%
%TO.N,+3V3*%
X187480000Y-118000000D03*
%TO.P,C8,2*%
%TO.N,GND*%
X186520000Y-118000000D03*
%TD*%
D21*
%TO.P,C1,1*%
%TO.N,/XO*%
X195020000Y-106000000D03*
%TO.P,C1,2*%
%TO.N,GND*%
X195980000Y-106000000D03*
%TD*%
D24*
%TO.P,R3,1*%
%TO.N,Net-(J1-CC1)*%
X184000000Y-120010000D03*
%TO.P,R3,2*%
%TO.N,GND*%
X184000000Y-118990000D03*
%TD*%
%TO.P,R8,1*%
%TO.N,/SWDIO*%
X174205000Y-99805000D03*
%TO.P,R8,2*%
%TO.N,/SWPUD*%
X174205000Y-98785000D03*
%TD*%
%TO.P,R7,1*%
%TO.N,/SWCLK*%
X175205000Y-95305000D03*
%TO.P,R7,2*%
%TO.N,/SWPUC*%
X175205000Y-94285000D03*
%TD*%
D27*
%TO.P,C3,1*%
%TO.N,VBUS*%
X188500000Y-119980000D03*
%TO.P,C3,2*%
%TO.N,GND*%
X188500000Y-119020000D03*
%TD*%
D24*
%TO.P,R6,1*%
%TO.N,/CHIP_PU*%
X190000000Y-101010000D03*
%TO.P,R6,2*%
%TO.N,+3V3*%
X190000000Y-99990000D03*
%TD*%
%TO.P,R4,1*%
%TO.N,Net-(J1-CC2)*%
X187500000Y-120010000D03*
%TO.P,R4,2*%
%TO.N,GND*%
X187500000Y-118990000D03*
%TD*%
D28*
%TO.P,R5,1*%
%TO.N,+3V3*%
X192510000Y-98500000D03*
%TO.P,R5,2*%
%TO.N,/IO0*%
X191490000Y-98500000D03*
%TD*%
D29*
%TO.P,AE2,1,A_1*%
%TO.N,Net-(AE2-A)*%
X191050000Y-89625000D03*
D30*
%TO.P,AE2,2,Shield_2*%
%TO.N,GND*%
X193150000Y-89625000D03*
%TD*%
D27*
%TO.P,C12,1*%
%TO.N,+3V3*%
X188010000Y-100480000D03*
%TO.P,C12,2*%
%TO.N,GND*%
X188010000Y-99520000D03*
%TD*%
D24*
%TO.P,R1,1*%
%TO.N,/D-*%
X185000000Y-120010000D03*
%TO.P,R1,2*%
%TO.N,Net-(U1-GPIO19{slash}USB_D-)*%
X185000000Y-118990000D03*
%TD*%
D31*
%TO.P,U2,1,GND_1*%
%TO.N,GND*%
X189000000Y-116050000D03*
%TO.P,U2,2,VO_2*%
%TO.N,+3V3*%
X189000000Y-117950000D03*
%TO.P,U2,3,VI_3*%
%TO.N,VBUS*%
X191275000Y-117000000D03*
%TD*%
D22*
%TO.P,J3,1,Pin_1_1*%
%TO.N,VBUS*%
X200500000Y-92560000D03*
D23*
%TO.P,J3,2,Pin_2_2*%
%TO.N,+3V3*%
X200500000Y-95100000D03*
%TO.P,J3,3,Pin_3_3*%
X200500000Y-97640000D03*
%TO.P,J3,4,Pin_4_4*%
%TO.N,GND*%
X200500000Y-100180000D03*
%TO.P,J3,5,Pin_5_5*%
%TO.N,/GPIO33*%
X200500000Y-102720000D03*
%TO.P,J3,6,Pin_6_6*%
%TO.N,/GPIO34*%
X200500000Y-105260000D03*
%TO.P,J3,7,Pin_7_7*%
%TO.N,/GPIO35*%
X200500000Y-107800000D03*
%TO.P,J3,8,Pin_8_8*%
%TO.N,/GPIO36*%
X200500000Y-110340000D03*
%TO.P,J3,9,Pin_9_9*%
%TO.N,/GPIO37*%
X200500000Y-112880000D03*
%TO.P,J3,10,Pin_10_10*%
%TO.N,/GPIO38*%
X200500000Y-115420000D03*
%TO.P,J3,11,Pin_11_11*%
%TO.N,/TX*%
X200500000Y-117960000D03*
%TO.P,J3,12,Pin_12_12*%
%TO.N,/RX*%
X200500000Y-120500000D03*
%TO.P,J3,13,Pin_13_13*%
%TO.N,/GPIO45*%
X200500000Y-123040000D03*
%TO.P,J3,14,Pin_14_14*%
%TO.N,/GPIO46*%
X200500000Y-125580000D03*
%TO.P,J3,15,Pin_15_15*%
%TO.N,GND*%
X200500000Y-128120000D03*
%TD*%
D26*
%TO.P,C7,1*%
%TO.N,+3V3*%
X182980000Y-110520000D03*
%TO.P,C7,2*%
%TO.N,GND*%
X182980000Y-111480000D03*
%TD*%
D21*
%TO.P,C5,1*%
%TO.N,/CHIP_PU*%
X192020000Y-101500000D03*
%TO.P,C5,2*%
%TO.N,GND*%
X192980000Y-101500000D03*
%TD*%
D27*
%TO.P,C11,1*%
%TO.N,+3V3*%
X187000000Y-100480000D03*
%TO.P,C11,2*%
%TO.N,GND*%
X187000000Y-99520000D03*
%TD*%
D32*
%TO.N,/IO0*%
X188820000Y-98500000D03*
X190020000Y-98500000D03*
%TO.N,GND*%
X194000000Y-102500000D03*
X183000000Y-118000000D03*
X182000000Y-120500000D03*
X191325735Y-103325735D03*
X189000000Y-115500000D03*
X188820000Y-99500000D03*
X178000000Y-110500000D03*
X174801914Y-110572892D03*
X186000000Y-117000000D03*
X186000000Y-117000000D03*
X177825735Y-105325735D03*
X185000000Y-105500000D03*
%TO.N,VBUS*%
X198000000Y-97500000D03*
X192000000Y-116000000D03*
%TO.N,+3V3*%
X190000000Y-103100000D03*
X193500000Y-97500000D03*
X186518197Y-103102808D03*
X189659771Y-104870000D03*
X185000000Y-110500000D03*
%TO.N,/GPIO14*%
X173000000Y-111000000D03*
X182764994Y-104048867D03*
%TO.N,Net-(U1-GPIO20{slash}USB_D+)*%
X180900735Y-108400735D03*
X185740000Y-118108527D03*
%TO.N,/SWPUD*%
X175500000Y-99900000D03*
X176000000Y-102120000D03*
%TO.N,/SWPUC*%
X174000000Y-94000000D03*
X183000000Y-101100000D03*
%TO.N,/CHIP_PU*%
X192917668Y-100682332D03*
X194000000Y-100000000D03*
%TO.N,Net-(U1-GPIO19{slash}USB_D-)*%
X180500000Y-107500000D03*
X184500000Y-117400000D03*
%TO.N,/GPIO33*%
X191500000Y-110500000D03*
X187000000Y-113000000D03*
%TO.N,/GPIO34*%
X188000000Y-113000000D03*
X191500000Y-111500000D03*
%TO.N,/GPIO35*%
X193000000Y-112500000D03*
X189000000Y-113000000D03*
%TO.N,/GPIO36*%
X193500000Y-113500000D03*
X190500000Y-113500000D03*
%TO.N,/GPIO37*%
X192480735Y-114519265D03*
X194500000Y-114500000D03*
%TO.N,/TX*%
X194435735Y-107935735D03*
X198000000Y-116020000D03*
%TO.N,/RX*%
X197000000Y-116020000D03*
X193500000Y-107335735D03*
%TO.N,/GPIO45*%
X195500000Y-116500000D03*
X191500000Y-106900000D03*
%TO.N,/GPIO46*%
X191000000Y-102500000D03*
X187988753Y-103491010D03*
%TD*%
%TO.N,/GPIO46*%
D33*
X200500000Y-125580000D02*
X201650000Y-124430000D01*
X201650000Y-124430000D02*
X201650000Y-102243654D01*
X193083866Y-100000000D02*
X191500000Y-100000000D01*
X200976346Y-101570000D02*
X194653865Y-101570000D01*
X201650000Y-102243654D02*
X200976346Y-101570000D01*
X191000000Y-100500000D02*
X191000000Y-102500000D01*
X194653865Y-101570000D02*
X193083866Y-100000000D01*
X191500000Y-100000000D02*
X191000000Y-100500000D01*
%TO.N,*%
X186750000Y-123030000D02*
X186400000Y-123380000D01*
X183750000Y-122712410D02*
X183750000Y-121955000D01*
X186750000Y-121955000D02*
X186750000Y-123030000D01*
X186400000Y-123380000D02*
X184417590Y-123380000D01*
X184417590Y-123380000D02*
X183750000Y-122712410D01*
%TO.N,/IO0*%
X189990000Y-98530000D02*
X190020000Y-98500000D01*
X186330000Y-99330000D02*
X186330000Y-102220000D01*
X178500000Y-98000000D02*
X185000000Y-98000000D01*
X185000000Y-98000000D02*
X186330000Y-99330000D01*
X186500000Y-98500000D02*
X186330000Y-98670000D01*
X188820000Y-98500000D02*
X186500000Y-98500000D01*
X190020000Y-98500000D02*
X191490000Y-98500000D01*
X186330000Y-98670000D02*
X186330000Y-99330000D01*
%TO.N,GND*%
X185330000Y-105670000D02*
X185170000Y-105670000D01*
X182250000Y-121955000D02*
X182095000Y-121955000D01*
X188010000Y-99520000D02*
X187000000Y-99520000D01*
X187530000Y-119020000D02*
X187500000Y-118990000D01*
X182250000Y-120750000D02*
X182000000Y-120500000D01*
X188500000Y-119020000D02*
X187530000Y-119020000D01*
X181180000Y-122870000D02*
X181180000Y-127050000D01*
X184000000Y-118990000D02*
X183990000Y-118990000D01*
X177942500Y-109410000D02*
X177942500Y-110442500D01*
X189820000Y-127050000D02*
X189820000Y-122870000D01*
X174585000Y-110355978D02*
X174801914Y-110572892D01*
X179520000Y-105000000D02*
X179520000Y-106000000D01*
X193000000Y-101500000D02*
X194000000Y-102500000D01*
X190980000Y-103500000D02*
X191151470Y-103500000D01*
X178848530Y-106000000D02*
X179520000Y-106000000D01*
X188010000Y-99520000D02*
X188800000Y-99520000D01*
X189665000Y-122870000D02*
X188750000Y-121955000D01*
X195980000Y-106000000D02*
X195980000Y-105520000D01*
X195600000Y-105140000D02*
X195600000Y-106356134D01*
X192960000Y-102500000D02*
X194000000Y-102500000D01*
X177825735Y-105325735D02*
X178174265Y-105325735D01*
X195980000Y-105520000D02*
X195600000Y-105140000D01*
X189820000Y-122870000D02*
X189665000Y-122870000D01*
X182250000Y-121955000D02*
X182250000Y-120750000D01*
X182095000Y-121955000D02*
X181180000Y-122870000D01*
X192980000Y-101500000D02*
X193000000Y-101500000D01*
X177942500Y-110442500D02*
X178000000Y-110500000D01*
X178174265Y-105325735D02*
X178848530Y-106000000D01*
X181180000Y-127050000D02*
X189820000Y-127050000D01*
X195346134Y-106610000D02*
X192760000Y-106610000D01*
X187500000Y-118990000D02*
X187500000Y-118980000D01*
X192960000Y-102500000D02*
X195600000Y-105140000D01*
X185170000Y-105670000D02*
X185000000Y-105500000D01*
X187500000Y-118980000D02*
X186520000Y-118000000D01*
X192250000Y-106100000D02*
X192250000Y-105650000D01*
X189000000Y-116050000D02*
X189000000Y-115500000D01*
X174585000Y-109550000D02*
X174585000Y-110355978D01*
X183990000Y-118990000D02*
X183000000Y-118000000D01*
X181180000Y-122870000D02*
X181335000Y-122870000D01*
X192760000Y-106610000D02*
X192250000Y-106100000D01*
X186520000Y-118000000D02*
X186520000Y-117520000D01*
X186520000Y-117520000D02*
X186000000Y-117000000D01*
X195600000Y-106356134D02*
X195346134Y-106610000D01*
X188800000Y-99520000D02*
X188820000Y-99500000D01*
X191151470Y-103500000D02*
X191325735Y-103325735D01*
%TO.N,Net-(D1-DOUT)*%
X177942500Y-108310000D02*
X177855000Y-108310000D01*
X177855000Y-108310000D02*
X176615000Y-109550000D01*
X176615000Y-109550000D02*
X176415000Y-109550000D01*
%TO.N,+5V*%
X179122500Y-107660000D02*
X177205000Y-107660000D01*
X179772500Y-108310000D02*
X179122500Y-107660000D01*
X177205000Y-107660000D02*
X176415000Y-108450000D01*
%TO.N,VBUS*%
X187950000Y-121955000D02*
X187950000Y-120530000D01*
X192000000Y-116000000D02*
X192000000Y-116275000D01*
X187950000Y-120530000D02*
X188500000Y-119980000D01*
X198000000Y-95060000D02*
X198000000Y-97500000D01*
X191275000Y-117000000D02*
X191275000Y-117205000D01*
X187950000Y-121955000D02*
X187950000Y-122679999D01*
X183050000Y-122578096D02*
X183050000Y-121955000D01*
X200500000Y-92560000D02*
X198000000Y-95060000D01*
X192000000Y-116275000D02*
X191275000Y-117000000D01*
X187950000Y-122679999D02*
X186849999Y-123780000D01*
X184251904Y-123780000D02*
X183050000Y-122578096D01*
X186849999Y-123780000D02*
X184251904Y-123780000D01*
X191275000Y-117205000D02*
X188500000Y-119980000D01*
%TO.N,Net-(J1-CC1)*%
X184250000Y-120260000D02*
X184000000Y-120010000D01*
X184250000Y-121955000D02*
X184250000Y-120260000D01*
%TO.N,/D+*%
X185982410Y-120930000D02*
X186250000Y-121197590D01*
X186250000Y-121197590D02*
X186250000Y-121955000D01*
X186000000Y-120010000D02*
X186250000Y-120260000D01*
X185517590Y-120930000D02*
X185982410Y-120930000D01*
X185250000Y-121197590D02*
X185517590Y-120930000D01*
X185250000Y-121955000D02*
X185250000Y-121197590D01*
X186250000Y-120260000D02*
X186250000Y-121955000D01*
%TO.N,/D-*%
X185750000Y-122712410D02*
X185482410Y-122980000D01*
X185000000Y-120010000D02*
X184750000Y-120260000D01*
X184750000Y-122712410D02*
X184750000Y-121955000D01*
X185017590Y-122980000D02*
X184750000Y-122712410D01*
X184750000Y-120260000D02*
X184750000Y-121955000D01*
X185750000Y-121955000D02*
X185750000Y-122712410D01*
X185482410Y-122980000D02*
X185017590Y-122980000D01*
%TO.N,Net-(J1-CC2)*%
X187250000Y-121955000D02*
X187250000Y-120260000D01*
X187250000Y-120260000D02*
X187500000Y-120010000D01*
%TO.N,+3V3*%
X189459771Y-105070000D02*
X189659771Y-104870000D01*
X185000000Y-111520000D02*
X184000000Y-110520000D01*
X187480000Y-114328529D02*
X185000000Y-111848529D01*
X186730000Y-102891005D02*
X186518197Y-103102808D01*
X187930000Y-102716360D02*
X187930000Y-102220000D01*
X180480000Y-105000000D02*
X180480000Y-106000000D01*
X191810000Y-99200000D02*
X192510000Y-98500000D01*
X187130000Y-102716360D02*
X187333640Y-102920000D01*
X188780000Y-105070000D02*
X189459771Y-105070000D01*
X187726360Y-102920000D02*
X187930000Y-102716360D01*
X190000000Y-99990000D02*
X190000000Y-100000000D01*
X184000000Y-110520000D02*
X182980000Y-110520000D01*
X183130000Y-108623640D02*
X183130000Y-109120000D01*
X187333640Y-102920000D02*
X187726360Y-102920000D01*
X187930000Y-102070000D02*
X187930000Y-102220000D01*
X188283640Y-107470000D02*
X188080000Y-107266360D01*
X188283640Y-105070000D02*
X188780000Y-105070000D01*
X190000000Y-100000000D02*
X187930000Y-102070000D01*
X188950000Y-118000000D02*
X189000000Y-117950000D01*
X192510000Y-98490000D02*
X193500000Y-97500000D01*
X187000000Y-101950000D02*
X186730000Y-102220000D01*
X187480000Y-118000000D02*
X188950000Y-118000000D01*
X190020000Y-103500000D02*
X190020000Y-103120000D01*
X184000000Y-110520000D02*
X184980000Y-110520000D01*
X187130000Y-102220000D02*
X187130000Y-102716360D01*
X187000000Y-100480000D02*
X187000000Y-101950000D01*
X185000000Y-111848529D02*
X185000000Y-111520000D01*
X190020000Y-103120000D02*
X190000000Y-103100000D01*
X182500000Y-105070000D02*
X182580000Y-105150000D01*
X183130000Y-110370000D02*
X182980000Y-110520000D01*
X187000000Y-100480000D02*
X188010000Y-100480000D01*
X182580000Y-107666360D02*
X182376360Y-107870000D01*
X182376360Y-107870000D02*
X183130000Y-108623640D01*
X188080000Y-105273640D02*
X188283640Y-105070000D01*
X188080000Y-107266360D02*
X188080000Y-105273640D01*
X190000000Y-99990000D02*
X190790000Y-99200000D01*
X183130000Y-109120000D02*
X183130000Y-110370000D01*
X200500000Y-97640000D02*
X200500000Y-95100000D01*
X187480000Y-118000000D02*
X187480000Y-114328529D01*
X181880000Y-105070000D02*
X182500000Y-105070000D01*
X186730000Y-102220000D02*
X187130000Y-102220000D01*
X199635000Y-98505000D02*
X200500000Y-97640000D01*
X192510000Y-98500000D02*
X192515000Y-98505000D01*
X188780000Y-103870000D02*
X189650000Y-103870000D01*
X188780000Y-107470000D02*
X188283640Y-107470000D01*
X184980000Y-110520000D02*
X185000000Y-110500000D01*
X182580000Y-105150000D02*
X182580000Y-107666360D01*
X180550000Y-105070000D02*
X180480000Y-105000000D01*
X192515000Y-98505000D02*
X199635000Y-98505000D01*
X192510000Y-98500000D02*
X192510000Y-98490000D01*
X182376360Y-107870000D02*
X181880000Y-107870000D01*
X190790000Y-99200000D02*
X191810000Y-99200000D01*
X186730000Y-102220000D02*
X186730000Y-102891005D01*
X181880000Y-105070000D02*
X180550000Y-105070000D01*
X189650000Y-103870000D02*
X190020000Y-103500000D01*
%TO.N,/SWCLK*%
X183665686Y-100100000D02*
X184730000Y-101164315D01*
X170500000Y-94640000D02*
X174540000Y-94640000D01*
X184730000Y-101164315D02*
X184730000Y-102220000D01*
X175205000Y-95305000D02*
X176100000Y-96200000D01*
X176100000Y-96200000D02*
X176100000Y-100100000D01*
X176100000Y-100100000D02*
X183665686Y-100100000D01*
X174540000Y-94640000D02*
X175205000Y-95305000D01*
%TO.N,/SWDIO*%
X170500000Y-97180000D02*
X173125000Y-99805000D01*
X173125000Y-99805000D02*
X174205000Y-99805000D01*
%TO.N,/GPIO5*%
X171720000Y-99720000D02*
X172500000Y-100500000D01*
X170500000Y-99720000D02*
X171720000Y-99720000D01*
X172500000Y-100500000D02*
X183500000Y-100500000D01*
X183500000Y-100500000D02*
X184330000Y-101330000D01*
X184330000Y-101330000D02*
X184330000Y-102220000D01*
%TO.N,/GPIO10*%
X170500000Y-104800000D02*
X172230000Y-103070000D01*
X172230000Y-103070000D02*
X181880000Y-103070000D01*
%TO.N,/GPIO11*%
X170500000Y-107340000D02*
X174370000Y-103470000D01*
X174370000Y-103470000D02*
X181880000Y-103470000D01*
%TO.N,/GPIO12*%
X170500000Y-109880000D02*
X176510000Y-103870000D01*
X176510000Y-103870000D02*
X181880000Y-103870000D01*
%TO.N,/GPIO13*%
X170500000Y-112420000D02*
X173935000Y-108985000D01*
X173935000Y-107800000D02*
X177465000Y-104270000D01*
X177465000Y-104270000D02*
X181880000Y-104270000D01*
X173935000Y-108985000D02*
X173935000Y-107800000D01*
%TO.N,/GPIO14*%
X173000000Y-111000000D02*
X173000000Y-112460000D01*
X182655029Y-104670000D02*
X181880000Y-104670000D01*
X182764994Y-104048867D02*
X182655046Y-104158815D01*
X182655046Y-104158815D02*
X182655046Y-104669983D01*
X173000000Y-112460000D02*
X170500000Y-114960000D01*
X182655046Y-104669983D02*
X182655029Y-104670000D01*
%TO.N,/GPIO21*%
X181880000Y-108270000D02*
X180740000Y-109410000D01*
X180740000Y-109410000D02*
X179772500Y-109410000D01*
%TO.N,/XI*%
X192000000Y-104000000D02*
X192250000Y-104250000D01*
X192000000Y-102500000D02*
X192000000Y-104000000D01*
X188780000Y-104270000D02*
X189770000Y-104270000D01*
X189790000Y-104250000D02*
X192250000Y-104250000D01*
X189770000Y-104270000D02*
X189790000Y-104250000D01*
%TO.N,/XO*%
X193350000Y-105650000D02*
X194670000Y-105650000D01*
X194670000Y-105650000D02*
X195020000Y-106000000D01*
%TO.N,Net-(U1-GPIO20{slash}USB_D+)*%
X181880000Y-107470000D02*
X181383640Y-107470000D01*
X185740000Y-118108527D02*
X185740000Y-118730000D01*
X180900735Y-107952905D02*
X180900735Y-108400735D01*
X185740000Y-118730000D02*
X186000000Y-118990000D01*
X181383640Y-107470000D02*
X180900735Y-107952905D01*
%TO.N,/SWPUD*%
X174385000Y-98785000D02*
X175500000Y-99900000D01*
X182630000Y-102120000D02*
X182730000Y-102220000D01*
X176000000Y-102120000D02*
X182630000Y-102120000D01*
X174205000Y-98785000D02*
X174385000Y-98785000D01*
%TO.N,/SWPUC*%
X174920000Y-94000000D02*
X174000000Y-94000000D01*
X183130000Y-101230000D02*
X183000000Y-101100000D01*
X175205000Y-94285000D02*
X174920000Y-94000000D01*
X183130000Y-102220000D02*
X183130000Y-101230000D01*
%TO.N,/CHIP_PU*%
X191334315Y-99600000D02*
X193600000Y-99600000D01*
X188780000Y-103070000D02*
X190000000Y-101850000D01*
X190000000Y-101850000D02*
X190000000Y-101010000D01*
X193600000Y-99600000D02*
X194000000Y-100000000D01*
X190000000Y-100934315D02*
X191334315Y-99600000D01*
X192837668Y-100682332D02*
X192020000Y-101500000D01*
X190000000Y-101010000D02*
X190000000Y-100934315D01*
X192917668Y-100682332D02*
X192837668Y-100682332D01*
%TO.N,Net-(AE2-A)*%
X187530000Y-102220000D02*
X187530000Y-101470000D01*
X187956134Y-101470000D02*
X189420000Y-100006134D01*
X187530000Y-101470000D02*
X187956134Y-101470000D01*
X189420000Y-91255000D02*
X191050000Y-89625000D01*
X189420000Y-100006134D02*
X189420000Y-91255000D01*
%TO.N,Net-(U1-GPIO19{slash}USB_D-)*%
X184500000Y-118490000D02*
X185000000Y-118990000D01*
X180930000Y-107070000D02*
X180500000Y-107500000D01*
X184500000Y-117400000D02*
X184500000Y-118490000D01*
X181880000Y-107070000D02*
X180930000Y-107070000D01*
%TO.N,/GPIO33*%
X191500000Y-110500000D02*
X192720000Y-110500000D01*
X185930000Y-109120000D02*
X185930000Y-111930000D01*
X185930000Y-111930000D02*
X187000000Y-113000000D01*
X192720000Y-110500000D02*
X200500000Y-102720000D01*
%TO.N,/GPIO34*%
X188000000Y-113000000D02*
X186330000Y-111330000D01*
X186330000Y-111330000D02*
X186330000Y-109120000D01*
X194260000Y-111500000D02*
X191500000Y-111500000D01*
X200500000Y-105260000D02*
X194260000Y-111500000D01*
%TO.N,/GPIO35*%
X186730000Y-110730000D02*
X186730000Y-109120000D01*
X195800000Y-112500000D02*
X193000000Y-112500000D01*
X189000000Y-113000000D02*
X186730000Y-110730000D01*
X200500000Y-107800000D02*
X195800000Y-112500000D01*
%TO.N,/GPIO36*%
X187130000Y-110130000D02*
X187130000Y-109120000D01*
X200500000Y-110340000D02*
X198000000Y-112840000D01*
X198000000Y-113500000D02*
X193500000Y-113500000D01*
X190500000Y-113500000D02*
X187130000Y-110130000D01*
X198000000Y-112840000D02*
X198000000Y-113500000D01*
%TO.N,/GPIO37*%
X187530000Y-109616360D02*
X187530000Y-109120000D01*
X198880000Y-114500000D02*
X194500000Y-114500000D01*
X200500000Y-112880000D02*
X198880000Y-114500000D01*
X192480735Y-114519265D02*
X192432905Y-114519265D01*
X192432905Y-114519265D02*
X187530000Y-109616360D01*
%TO.N,/GPIO38*%
X200500000Y-115420000D02*
X194390000Y-115420000D01*
X194310000Y-115500000D02*
X187930000Y-109120000D01*
X194390000Y-115420000D02*
X194310000Y-115500000D01*
%TO.N,/TX*%
X200500000Y-117960000D02*
X198560000Y-116020000D01*
X190942095Y-107935735D02*
X189276360Y-106270000D01*
X189276360Y-106270000D02*
X188780000Y-106270000D01*
X194435735Y-107935735D02*
X190942095Y-107935735D01*
X198560000Y-116020000D02*
X198000000Y-116020000D01*
%TO.N,/RX*%
X193500000Y-107335735D02*
X193335735Y-107500000D01*
X189442045Y-105870000D02*
X188780000Y-105870000D01*
X200500000Y-120500000D02*
X197000000Y-117000000D01*
X197000000Y-117000000D02*
X197000000Y-116020000D01*
X191072045Y-107500000D02*
X189442045Y-105870000D01*
X193335735Y-107500000D02*
X191072045Y-107500000D01*
%TO.N,/GPIO45*%
X188780000Y-105470000D02*
X190070000Y-105470000D01*
X195500000Y-116500000D02*
X195500000Y-118040000D01*
X190070000Y-105470000D02*
X191500000Y-106900000D01*
X195500000Y-118040000D02*
X200500000Y-123040000D01*
%TO.N,/GPIO46*%
X188009763Y-103470000D02*
X187988753Y-103491010D01*
X188780000Y-103470000D02*
X188009763Y-103470000D01*
%TD*%
%TA.AperFunction,Conductor*%
%TO.N,GND*%
G36*
X190093441Y-89519685D02*
G01*
X190139196Y-89572489D01*
X190149140Y-89641647D01*
X190120115Y-89705203D01*
X190114083Y-89711681D01*
X188939481Y-90886282D01*
X188939479Y-90886285D01*
X188889361Y-90973094D01*
X188889359Y-90973096D01*
X188860425Y-91023209D01*
X188860424Y-91023210D01*
X188860423Y-91023215D01*
X188819499Y-91175943D01*
X188819499Y-91175945D01*
X188819499Y-91344046D01*
X188819500Y-91344059D01*
X188819500Y-97582152D01*
X188799815Y-97649191D01*
X188747011Y-97694946D01*
X188719692Y-97703769D01*
X188586508Y-97730261D01*
X188586498Y-97730264D01*
X188440827Y-97790602D01*
X188440814Y-97790609D01*
X188309125Y-97878602D01*
X188242447Y-97899480D01*
X188240234Y-97899500D01*
X186609193Y-97899500D01*
X186542154Y-97879815D01*
X186496399Y-97827011D01*
X186486720Y-97794898D01*
X186463553Y-97648631D01*
X186410495Y-97485338D01*
X186390568Y-97424008D01*
X186390566Y-97424005D01*
X186390566Y-97424003D01*
X186310315Y-97266503D01*
X186283343Y-97213567D01*
X186144517Y-97022490D01*
X185977510Y-96855483D01*
X185786433Y-96716657D01*
X185575996Y-96609433D01*
X185351368Y-96536446D01*
X185118097Y-96499500D01*
X185118092Y-96499500D01*
X184881908Y-96499500D01*
X184881903Y-96499500D01*
X184648631Y-96536446D01*
X184424003Y-96609433D01*
X184213566Y-96716657D01*
X184153624Y-96760208D01*
X184022490Y-96855483D01*
X184022488Y-96855485D01*
X184022487Y-96855485D01*
X183855485Y-97022487D01*
X183855485Y-97022488D01*
X183855483Y-97022490D01*
X183818267Y-97073713D01*
X183716657Y-97213566D01*
X183689687Y-97266498D01*
X183660513Y-97323757D01*
X183656417Y-97331795D01*
X183608442Y-97382591D01*
X183545932Y-97399500D01*
X179954068Y-97399500D01*
X179887029Y-97379815D01*
X179843583Y-97331795D01*
X179839489Y-97323760D01*
X179783343Y-97213567D01*
X179644517Y-97022490D01*
X179477510Y-96855483D01*
X179286433Y-96716657D01*
X179075996Y-96609433D01*
X178851368Y-96536446D01*
X178618097Y-96499500D01*
X178618092Y-96499500D01*
X178381908Y-96499500D01*
X178381903Y-96499500D01*
X178148631Y-96536446D01*
X177924003Y-96609433D01*
X177713566Y-96716657D01*
X177653624Y-96760208D01*
X177522490Y-96855483D01*
X177522488Y-96855485D01*
X177522487Y-96855485D01*
X177355485Y-97022487D01*
X177355485Y-97022488D01*
X177355483Y-97022490D01*
X177318267Y-97073713D01*
X177216657Y-97213566D01*
X177109433Y-97424003D01*
X177036446Y-97648631D01*
X176999500Y-97881902D01*
X176999500Y-98118097D01*
X177036446Y-98351368D01*
X177109433Y-98575996D01*
X177216657Y-98786433D01*
X177355483Y-98977510D01*
X177522490Y-99144517D01*
X177702335Y-99275183D01*
X177745000Y-99330512D01*
X177750979Y-99400126D01*
X177718373Y-99461920D01*
X177657534Y-99496278D01*
X177629449Y-99499500D01*
X176824500Y-99499500D01*
X176757461Y-99479815D01*
X176711706Y-99427011D01*
X176700500Y-99375500D01*
X176700500Y-96120945D01*
X176700500Y-96120943D01*
X176659577Y-95968216D01*
X176659577Y-95968215D01*
X176606994Y-95877139D01*
X176580520Y-95831284D01*
X176468716Y-95719480D01*
X176468715Y-95719479D01*
X176464385Y-95715149D01*
X176464374Y-95715139D01*
X176061818Y-95312583D01*
X176028333Y-95251260D01*
X176025499Y-95224902D01*
X176025499Y-95105831D01*
X176025498Y-95105806D01*
X176022665Y-95069799D01*
X176022665Y-95069796D01*
X175977869Y-94915607D01*
X175943869Y-94858117D01*
X175942058Y-94850976D01*
X175937289Y-94845358D01*
X175933582Y-94817572D01*
X175926688Y-94790398D01*
X175928797Y-94781697D01*
X175928051Y-94776102D01*
X175934578Y-94757854D01*
X175938340Y-94742341D01*
X175940853Y-94736983D01*
X175977869Y-94674393D01*
X176022665Y-94520204D01*
X176025500Y-94484181D01*
X176025499Y-94085820D01*
X176022665Y-94049796D01*
X175977869Y-93895607D01*
X175896135Y-93757402D01*
X175896133Y-93757400D01*
X175896130Y-93757396D01*
X175782603Y-93643869D01*
X175782595Y-93643863D01*
X175644393Y-93562131D01*
X175644388Y-93562129D01*
X175490208Y-93517335D01*
X175490202Y-93517334D01*
X175454188Y-93514500D01*
X175454181Y-93514500D01*
X175313315Y-93514500D01*
X175297827Y-93510350D01*
X175284081Y-93511005D01*
X175251315Y-93497887D01*
X175228062Y-93484462D01*
X175227769Y-93484293D01*
X175182007Y-93457872D01*
X175182006Y-93457871D01*
X175151783Y-93440422D01*
X175095881Y-93425443D01*
X174999057Y-93399499D01*
X174840943Y-93399499D01*
X174833347Y-93399499D01*
X174833331Y-93399500D01*
X174579766Y-93399500D01*
X174519988Y-93381947D01*
X177000000Y-93381947D01*
X177000000Y-93618052D01*
X177036934Y-93851247D01*
X177109897Y-94075802D01*
X177217087Y-94286174D01*
X177277338Y-94369104D01*
X177277340Y-94369105D01*
X177976212Y-93670233D01*
X177987482Y-93712292D01*
X178059890Y-93837708D01*
X178162292Y-93940110D01*
X178287708Y-94012518D01*
X178329765Y-94023787D01*
X177630893Y-94722658D01*
X177713828Y-94782914D01*
X177924197Y-94890102D01*
X178148752Y-94963065D01*
X178148751Y-94963065D01*
X178381948Y-95000000D01*
X178618052Y-95000000D01*
X178851247Y-94963065D01*
X179075802Y-94890102D01*
X179286163Y-94782918D01*
X179286169Y-94782914D01*
X179369104Y-94722658D01*
X179369105Y-94722658D01*
X178670233Y-94023787D01*
X178712292Y-94012518D01*
X178837708Y-93940110D01*
X178940110Y-93837708D01*
X179012518Y-93712292D01*
X179023787Y-93670233D01*
X179722658Y-94369105D01*
X179722658Y-94369104D01*
X179782914Y-94286169D01*
X179782918Y-94286163D01*
X179890102Y-94075802D01*
X179963065Y-93851247D01*
X180000000Y-93618052D01*
X180000000Y-93381947D01*
X183500000Y-93381947D01*
X183500000Y-93618052D01*
X183536934Y-93851247D01*
X183609897Y-94075802D01*
X183717087Y-94286174D01*
X183777338Y-94369104D01*
X183777340Y-94369105D01*
X184476212Y-93670233D01*
X184487482Y-93712292D01*
X184559890Y-93837708D01*
X184662292Y-93940110D01*
X184787708Y-94012518D01*
X184829765Y-94023787D01*
X184130893Y-94722658D01*
X184213828Y-94782914D01*
X184424197Y-94890102D01*
X184648752Y-94963065D01*
X184648751Y-94963065D01*
X184881948Y-95000000D01*
X185118052Y-95000000D01*
X185351247Y-94963065D01*
X185575802Y-94890102D01*
X185786163Y-94782918D01*
X185786169Y-94782914D01*
X185869104Y-94722658D01*
X185869105Y-94722658D01*
X185170233Y-94023787D01*
X185212292Y-94012518D01*
X185337708Y-93940110D01*
X185440110Y-93837708D01*
X185512518Y-93712292D01*
X185523787Y-93670234D01*
X186222658Y-94369105D01*
X186222658Y-94369104D01*
X186282914Y-94286169D01*
X186282918Y-94286163D01*
X186390102Y-94075802D01*
X186463065Y-93851247D01*
X186500000Y-93618052D01*
X186500000Y-93381947D01*
X186463065Y-93148752D01*
X186390102Y-92924197D01*
X186282914Y-92713828D01*
X186222658Y-92630894D01*
X186222658Y-92630893D01*
X185523787Y-93329765D01*
X185512518Y-93287708D01*
X185440110Y-93162292D01*
X185337708Y-93059890D01*
X185212292Y-92987482D01*
X185170234Y-92976212D01*
X185869105Y-92277340D01*
X185869104Y-92277338D01*
X185786174Y-92217087D01*
X185575802Y-92109897D01*
X185351247Y-92036934D01*
X185351248Y-92036934D01*
X185118052Y-92000000D01*
X184881948Y-92000000D01*
X184648752Y-92036934D01*
X184424197Y-92109897D01*
X184213830Y-92217084D01*
X184130894Y-92277340D01*
X184829766Y-92976212D01*
X184787708Y-92987482D01*
X184662292Y-93059890D01*
X184559890Y-93162292D01*
X184487482Y-93287708D01*
X184476212Y-93329766D01*
X183777340Y-92630894D01*
X183717084Y-92713830D01*
X183609897Y-92924197D01*
X183536934Y-93148752D01*
X183500000Y-93381947D01*
X180000000Y-93381947D01*
X179963065Y-93148752D01*
X179890102Y-92924197D01*
X179782914Y-92713828D01*
X179722658Y-92630894D01*
X179722658Y-92630893D01*
X179023787Y-93329765D01*
X179012518Y-93287708D01*
X178940110Y-93162292D01*
X178837708Y-93059890D01*
X178712292Y-92987482D01*
X178670234Y-92976212D01*
X179369105Y-92277340D01*
X179369104Y-92277339D01*
X179286174Y-92217087D01*
X179075802Y-92109897D01*
X178851247Y-92036934D01*
X178851248Y-92036934D01*
X178618052Y-92000000D01*
X178381948Y-92000000D01*
X178148752Y-92036934D01*
X177924197Y-92109897D01*
X177713830Y-92217084D01*
X177630894Y-92277340D01*
X178329766Y-92976212D01*
X178287708Y-92987482D01*
X178162292Y-93059890D01*
X178059890Y-93162292D01*
X177987482Y-93287708D01*
X177976212Y-93329766D01*
X177277340Y-92630894D01*
X177217084Y-92713830D01*
X177109897Y-92924197D01*
X177036934Y-93148752D01*
X177000000Y-93381947D01*
X174519988Y-93381947D01*
X174512727Y-93379815D01*
X174510875Y-93378602D01*
X174379185Y-93290609D01*
X174379172Y-93290602D01*
X174233501Y-93230264D01*
X174233489Y-93230261D01*
X174078845Y-93199500D01*
X174078842Y-93199500D01*
X173921158Y-93199500D01*
X173921155Y-93199500D01*
X173766510Y-93230261D01*
X173766498Y-93230264D01*
X173620827Y-93290602D01*
X173620814Y-93290609D01*
X173489711Y-93378210D01*
X173489707Y-93378213D01*
X173378213Y-93489707D01*
X173378210Y-93489711D01*
X173290609Y-93620814D01*
X173290602Y-93620827D01*
X173230264Y-93766498D01*
X173230261Y-93766510D01*
X173199500Y-93921153D01*
X173198903Y-93927218D01*
X173196139Y-93926945D01*
X173179815Y-93982539D01*
X173127011Y-94028294D01*
X173075500Y-94039500D01*
X171785719Y-94039500D01*
X171718680Y-94019815D01*
X171675235Y-93971795D01*
X171655052Y-93932185D01*
X171655051Y-93932184D01*
X171530109Y-93760213D01*
X171416181Y-93646285D01*
X171382696Y-93584962D01*
X171387680Y-93515270D01*
X171429552Y-93459337D01*
X171460529Y-93442422D01*
X171592086Y-93393354D01*
X171592093Y-93393350D01*
X171707187Y-93307190D01*
X171707190Y-93307187D01*
X171793350Y-93192093D01*
X171793354Y-93192086D01*
X171843596Y-93057379D01*
X171843598Y-93057372D01*
X171849999Y-92997844D01*
X171850000Y-92997827D01*
X171850000Y-92350000D01*
X170933012Y-92350000D01*
X170965925Y-92292993D01*
X171000000Y-92165826D01*
X171000000Y-92034174D01*
X170965925Y-91907007D01*
X170933012Y-91850000D01*
X171850000Y-91850000D01*
X171850000Y-91202172D01*
X171849999Y-91202155D01*
X171843598Y-91142627D01*
X171843596Y-91142620D01*
X171793354Y-91007913D01*
X171793350Y-91007906D01*
X171707190Y-90892812D01*
X171707187Y-90892809D01*
X171592093Y-90806649D01*
X171592086Y-90806645D01*
X171457379Y-90756403D01*
X171457372Y-90756401D01*
X171397844Y-90750000D01*
X170750000Y-90750000D01*
X170750000Y-91666988D01*
X170692993Y-91634075D01*
X170565826Y-91600000D01*
X170434174Y-91600000D01*
X170307007Y-91634075D01*
X170250000Y-91666988D01*
X170250000Y-90750000D01*
X169602155Y-90750000D01*
X169542627Y-90756401D01*
X169542620Y-90756403D01*
X169407913Y-90806645D01*
X169407906Y-90806649D01*
X169292812Y-90892809D01*
X169292809Y-90892812D01*
X169206649Y-91007906D01*
X169206645Y-91007913D01*
X169156403Y-91142620D01*
X169156401Y-91142627D01*
X169150000Y-91202155D01*
X169150000Y-91850000D01*
X170066988Y-91850000D01*
X170034075Y-91907007D01*
X170000000Y-92034174D01*
X170000000Y-92165826D01*
X170034075Y-92292993D01*
X170066988Y-92350000D01*
X169150000Y-92350000D01*
X169150000Y-92997844D01*
X169156401Y-93057372D01*
X169156403Y-93057379D01*
X169206645Y-93192086D01*
X169206649Y-93192093D01*
X169292809Y-93307187D01*
X169292812Y-93307190D01*
X169407906Y-93393350D01*
X169407913Y-93393354D01*
X169539470Y-93442422D01*
X169595404Y-93484293D01*
X169619821Y-93549758D01*
X169604969Y-93618031D01*
X169583819Y-93646285D01*
X169469889Y-93760215D01*
X169344951Y-93932179D01*
X169248444Y-94121585D01*
X169182753Y-94323760D01*
X169171917Y-94392179D01*
X169149500Y-94533713D01*
X169149500Y-94746287D01*
X169155301Y-94782914D01*
X169160790Y-94817572D01*
X169182754Y-94956243D01*
X169231358Y-95105831D01*
X169248444Y-95158414D01*
X169344951Y-95347820D01*
X169469890Y-95519786D01*
X169620213Y-95670109D01*
X169792182Y-95795050D01*
X169800946Y-95799516D01*
X169851742Y-95847491D01*
X169868536Y-95915312D01*
X169845998Y-95981447D01*
X169800946Y-96020484D01*
X169792182Y-96024949D01*
X169620213Y-96149890D01*
X169469890Y-96300213D01*
X169344951Y-96472179D01*
X169248444Y-96661585D01*
X169182753Y-96863760D01*
X169149500Y-97073713D01*
X169149500Y-97286286D01*
X169182753Y-97496239D01*
X169182753Y-97496241D01*
X169182754Y-97496243D01*
X169243219Y-97682335D01*
X169248444Y-97698414D01*
X169344951Y-97887820D01*
X169469890Y-98059786D01*
X169620213Y-98210109D01*
X169792182Y-98335050D01*
X169800946Y-98339516D01*
X169851742Y-98387491D01*
X169868536Y-98455312D01*
X169845998Y-98521447D01*
X169800946Y-98560484D01*
X169792182Y-98564949D01*
X169620213Y-98689890D01*
X169469890Y-98840213D01*
X169344951Y-99012179D01*
X169248444Y-99201585D01*
X169182753Y-99403760D01*
X169167431Y-99500500D01*
X169149500Y-99613713D01*
X169149500Y-99826287D01*
X169155453Y-99863872D01*
X169174955Y-99987007D01*
X169182754Y-100036243D01*
X169246847Y-100233501D01*
X169248444Y-100238414D01*
X169344951Y-100427820D01*
X169469890Y-100599786D01*
X169620213Y-100750109D01*
X169792182Y-100875050D01*
X169800946Y-100879516D01*
X169851742Y-100927491D01*
X169868536Y-100995312D01*
X169845998Y-101061447D01*
X169800946Y-101100484D01*
X169792182Y-101104949D01*
X169620213Y-101229890D01*
X169469890Y-101380213D01*
X169344951Y-101552179D01*
X169248444Y-101741585D01*
X169182753Y-101943760D01*
X169165844Y-102050520D01*
X169149500Y-102153713D01*
X169149500Y-102366287D01*
X169159197Y-102427511D01*
X169165931Y-102470031D01*
X169182754Y-102576243D01*
X169246032Y-102770993D01*
X169248444Y-102778414D01*
X169344951Y-102967820D01*
X169469890Y-103139786D01*
X169620213Y-103290109D01*
X169792182Y-103415050D01*
X169800946Y-103419516D01*
X169851742Y-103467491D01*
X169868536Y-103535312D01*
X169845998Y-103601447D01*
X169800946Y-103640484D01*
X169792182Y-103644949D01*
X169620213Y-103769890D01*
X169469890Y-103920213D01*
X169344951Y-104092179D01*
X169248444Y-104281585D01*
X169182753Y-104483760D01*
X169167432Y-104580494D01*
X169149500Y-104693713D01*
X169149500Y-104906287D01*
X169154077Y-104935185D01*
X169181860Y-105110603D01*
X169182754Y-105116243D01*
X169226214Y-105250000D01*
X169248444Y-105318414D01*
X169344951Y-105507820D01*
X169469890Y-105679786D01*
X169620213Y-105830109D01*
X169792182Y-105955050D01*
X169800946Y-105959516D01*
X169851742Y-106007491D01*
X169868536Y-106075312D01*
X169845998Y-106141447D01*
X169800946Y-106180484D01*
X169792182Y-106184949D01*
X169620213Y-106309890D01*
X169469890Y-106460213D01*
X169344951Y-106632179D01*
X169248444Y-106821585D01*
X169182753Y-107023760D01*
X169149500Y-107233713D01*
X169149500Y-107446286D01*
X169182747Y-107656204D01*
X169182754Y-107656243D01*
X169242043Y-107838716D01*
X169248444Y-107858414D01*
X169344951Y-108047820D01*
X169469890Y-108219786D01*
X169620213Y-108370109D01*
X169792182Y-108495050D01*
X169800946Y-108499516D01*
X169851742Y-108547491D01*
X169868536Y-108615312D01*
X169845998Y-108681447D01*
X169800946Y-108720484D01*
X169792182Y-108724949D01*
X169620213Y-108849890D01*
X169469890Y-109000213D01*
X169344951Y-109172179D01*
X169248444Y-109361585D01*
X169182753Y-109563760D01*
X169150324Y-109768511D01*
X169149500Y-109773713D01*
X169149500Y-109986287D01*
X169152041Y-110002330D01*
X169177949Y-110165909D01*
X169182754Y-110196243D01*
X169246878Y-110393596D01*
X169248444Y-110398414D01*
X169344951Y-110587820D01*
X169469890Y-110759786D01*
X169620213Y-110910109D01*
X169792182Y-111035050D01*
X169800946Y-111039516D01*
X169851742Y-111087491D01*
X169868536Y-111155312D01*
X169845998Y-111221447D01*
X169800946Y-111260484D01*
X169792182Y-111264949D01*
X169620213Y-111389890D01*
X169469890Y-111540213D01*
X169344951Y-111712179D01*
X169248444Y-111901585D01*
X169182753Y-112103760D01*
X169158199Y-112258789D01*
X169149500Y-112313713D01*
X169149500Y-112526287D01*
X169182754Y-112736243D01*
X169225797Y-112868716D01*
X169248444Y-112938414D01*
X169344951Y-113127820D01*
X169469890Y-113299786D01*
X169620213Y-113450109D01*
X169792182Y-113575050D01*
X169800946Y-113579516D01*
X169851742Y-113627491D01*
X169868536Y-113695312D01*
X169845998Y-113761447D01*
X169800946Y-113800484D01*
X169792182Y-113804949D01*
X169620213Y-113929890D01*
X169469890Y-114080213D01*
X169344951Y-114252179D01*
X169248444Y-114441585D01*
X169182753Y-114643760D01*
X169149500Y-114853713D01*
X169149500Y-115066286D01*
X169179729Y-115257149D01*
X169182754Y-115276243D01*
X169232255Y-115428592D01*
X169248444Y-115478414D01*
X169344951Y-115667820D01*
X169469890Y-115839786D01*
X169620213Y-115990109D01*
X169792182Y-116115050D01*
X169800946Y-116119516D01*
X169851742Y-116167491D01*
X169868536Y-116235312D01*
X169845998Y-116301447D01*
X169800946Y-116340484D01*
X169792182Y-116344949D01*
X169620213Y-116469890D01*
X169469890Y-116620213D01*
X169344951Y-116792179D01*
X169248444Y-116981585D01*
X169182753Y-117183760D01*
X169149500Y-117393713D01*
X169149500Y-117606286D01*
X169180260Y-117800500D01*
X169182754Y-117816243D01*
X169235166Y-117977551D01*
X169248444Y-118018414D01*
X169344951Y-118207820D01*
X169469890Y-118379786D01*
X169620213Y-118530109D01*
X169792182Y-118655050D01*
X169800946Y-118659516D01*
X169851742Y-118707491D01*
X169868536Y-118775312D01*
X169845998Y-118841447D01*
X169800946Y-118880484D01*
X169792182Y-118884949D01*
X169620213Y-119009890D01*
X169469890Y-119160213D01*
X169344951Y-119332179D01*
X169248444Y-119521585D01*
X169182753Y-119723760D01*
X169149500Y-119933713D01*
X169149500Y-120146287D01*
X169182754Y-120356243D01*
X169196774Y-120399393D01*
X169248444Y-120558414D01*
X169344951Y-120747820D01*
X169469890Y-120919786D01*
X169620213Y-121070109D01*
X169792179Y-121195048D01*
X169792181Y-121195049D01*
X169792184Y-121195051D01*
X169801493Y-121199794D01*
X169852290Y-121247766D01*
X169869087Y-121315587D01*
X169846552Y-121381722D01*
X169801505Y-121420760D01*
X169792446Y-121425376D01*
X169792440Y-121425380D01*
X169738282Y-121464727D01*
X169738282Y-121464728D01*
X170370591Y-122097037D01*
X170307007Y-122114075D01*
X170192993Y-122179901D01*
X170099901Y-122272993D01*
X170034075Y-122387007D01*
X170017037Y-122450591D01*
X169384728Y-121818282D01*
X169384727Y-121818282D01*
X169345380Y-121872439D01*
X169248904Y-122061782D01*
X169183242Y-122263869D01*
X169183242Y-122263872D01*
X169150000Y-122473753D01*
X169150000Y-122686246D01*
X169183242Y-122896127D01*
X169183242Y-122896130D01*
X169248904Y-123098217D01*
X169345375Y-123287550D01*
X169384728Y-123341716D01*
X170017037Y-122709408D01*
X170034075Y-122772993D01*
X170099901Y-122887007D01*
X170192993Y-122980099D01*
X170307007Y-123045925D01*
X170370591Y-123062962D01*
X169769971Y-123663581D01*
X169848711Y-123780895D01*
X169849920Y-123784729D01*
X169852844Y-123787491D01*
X169860343Y-123817778D01*
X169869727Y-123847529D01*
X169868671Y-123851408D01*
X169869638Y-123855312D01*
X169859573Y-123884844D01*
X169851383Y-123914947D01*
X169848397Y-123917640D01*
X169847100Y-123921447D01*
X169802051Y-123960483D01*
X169792440Y-123965380D01*
X169738282Y-124004727D01*
X169738282Y-124004728D01*
X170370591Y-124637037D01*
X170307007Y-124654075D01*
X170192993Y-124719901D01*
X170099901Y-124812993D01*
X170034075Y-124927007D01*
X170017037Y-124990591D01*
X169384728Y-124358282D01*
X169384727Y-124358282D01*
X169345380Y-124412439D01*
X169248904Y-124601782D01*
X169183242Y-124803869D01*
X169183242Y-124803872D01*
X169150000Y-125013753D01*
X169150000Y-125226246D01*
X169183242Y-125436127D01*
X169183242Y-125436130D01*
X169248904Y-125638217D01*
X169345375Y-125827550D01*
X169384728Y-125881716D01*
X170017037Y-125249408D01*
X170034075Y-125312993D01*
X170099901Y-125427007D01*
X170192993Y-125520099D01*
X170307007Y-125585925D01*
X170370591Y-125602962D01*
X169769971Y-126203581D01*
X169848711Y-126320895D01*
X169849920Y-126324729D01*
X169852844Y-126327491D01*
X169860343Y-126357778D01*
X169869727Y-126387529D01*
X169868671Y-126391408D01*
X169869638Y-126395312D01*
X169859573Y-126424844D01*
X169851383Y-126454947D01*
X169848397Y-126457640D01*
X169847100Y-126461447D01*
X169802051Y-126500483D01*
X169792440Y-126505380D01*
X169738282Y-126544727D01*
X169738282Y-126544728D01*
X170370591Y-127177037D01*
X170307007Y-127194075D01*
X170192993Y-127259901D01*
X170099901Y-127352993D01*
X170034075Y-127467007D01*
X170017037Y-127530591D01*
X169384728Y-126898282D01*
X169384727Y-126898282D01*
X169345380Y-126952439D01*
X169248904Y-127141782D01*
X169183242Y-127343869D01*
X169183242Y-127343872D01*
X169150000Y-127553753D01*
X169150000Y-127766246D01*
X169183242Y-127976127D01*
X169183242Y-127976130D01*
X169248904Y-128178217D01*
X169345375Y-128367550D01*
X169384728Y-128421716D01*
X170017037Y-127789408D01*
X170034075Y-127852993D01*
X170099901Y-127967007D01*
X170192993Y-128060099D01*
X170307007Y-128125925D01*
X170370590Y-128142962D01*
X169738282Y-128775269D01*
X169738282Y-128775270D01*
X169792449Y-128814624D01*
X169981782Y-128911095D01*
X170183870Y-128976757D01*
X170393754Y-129010000D01*
X170606246Y-129010000D01*
X170816127Y-128976757D01*
X170816130Y-128976757D01*
X171018217Y-128911095D01*
X171207554Y-128814622D01*
X171261716Y-128775270D01*
X171261717Y-128775270D01*
X170629408Y-128142962D01*
X170692993Y-128125925D01*
X170807007Y-128060099D01*
X170900099Y-127967007D01*
X170965925Y-127852993D01*
X170982962Y-127789408D01*
X171615270Y-128421717D01*
X171615270Y-128421716D01*
X171654622Y-128367554D01*
X171751095Y-128178217D01*
X171816757Y-127976130D01*
X171816757Y-127976127D01*
X171850000Y-127766246D01*
X171850000Y-127553753D01*
X171816757Y-127343872D01*
X171816757Y-127343869D01*
X171798265Y-127286956D01*
X171751095Y-127141782D01*
X171654624Y-126952449D01*
X171615270Y-126898282D01*
X171615269Y-126898282D01*
X170982962Y-127530590D01*
X170965925Y-127467007D01*
X170900099Y-127352993D01*
X170807007Y-127259901D01*
X170692993Y-127194075D01*
X170629409Y-127177037D01*
X171154941Y-126651504D01*
X180180000Y-126651504D01*
X180180000Y-126800000D01*
X180880000Y-126800000D01*
X180880000Y-127300000D01*
X180180000Y-127300000D01*
X180180000Y-127448495D01*
X180218427Y-127641681D01*
X180218430Y-127641693D01*
X180293807Y-127823671D01*
X180293814Y-127823684D01*
X180403248Y-127987462D01*
X180403251Y-127987466D01*
X180542533Y-128126748D01*
X180542537Y-128126751D01*
X180706315Y-128236185D01*
X180706328Y-128236192D01*
X180888308Y-128311569D01*
X180930000Y-128319862D01*
X180930000Y-127516988D01*
X180939940Y-127534205D01*
X180995795Y-127590060D01*
X181064204Y-127629556D01*
X181140504Y-127650000D01*
X181219496Y-127650000D01*
X181295796Y-127629556D01*
X181364205Y-127590060D01*
X181420060Y-127534205D01*
X181430000Y-127516988D01*
X181430000Y-128319862D01*
X181471690Y-128311569D01*
X181471692Y-128311569D01*
X181653671Y-128236192D01*
X181653684Y-128236185D01*
X181817462Y-128126751D01*
X181817466Y-128126748D01*
X181956748Y-127987466D01*
X181956751Y-127987462D01*
X182066185Y-127823684D01*
X182066192Y-127823671D01*
X182141569Y-127641693D01*
X182141572Y-127641681D01*
X182179999Y-127448495D01*
X182180000Y-127448492D01*
X182180000Y-127300000D01*
X181480000Y-127300000D01*
X181480000Y-126800000D01*
X182180000Y-126800000D01*
X182180000Y-126651508D01*
X182179999Y-126651504D01*
X188820000Y-126651504D01*
X188820000Y-126800000D01*
X189520000Y-126800000D01*
X189520000Y-127300000D01*
X188820000Y-127300000D01*
X188820000Y-127448495D01*
X188858427Y-127641681D01*
X188858430Y-127641693D01*
X188933807Y-127823671D01*
X188933814Y-127823684D01*
X189043248Y-127987462D01*
X189043251Y-127987466D01*
X189182533Y-128126748D01*
X189182537Y-128126751D01*
X189346315Y-128236185D01*
X189346328Y-128236192D01*
X189528308Y-128311569D01*
X189570000Y-128319862D01*
X189570000Y-127516988D01*
X189579940Y-127534205D01*
X189635795Y-127590060D01*
X189704204Y-127629556D01*
X189780504Y-127650000D01*
X189859496Y-127650000D01*
X189935796Y-127629556D01*
X190004205Y-127590060D01*
X190060060Y-127534205D01*
X190070000Y-127516988D01*
X190070000Y-128319862D01*
X190111690Y-128311569D01*
X190111692Y-128311569D01*
X190293671Y-128236192D01*
X190293684Y-128236185D01*
X190457462Y-128126751D01*
X190457466Y-128126748D01*
X190596748Y-127987466D01*
X190596751Y-127987462D01*
X190628472Y-127939990D01*
X190706185Y-127823684D01*
X190706192Y-127823671D01*
X190781569Y-127641693D01*
X190781572Y-127641681D01*
X190819999Y-127448495D01*
X190820000Y-127448492D01*
X190820000Y-127300000D01*
X190120000Y-127300000D01*
X190120000Y-126800000D01*
X190820000Y-126800000D01*
X190820000Y-126651508D01*
X190819999Y-126651504D01*
X190781572Y-126458318D01*
X190781569Y-126458306D01*
X190706192Y-126276328D01*
X190706185Y-126276315D01*
X190596751Y-126112537D01*
X190596748Y-126112533D01*
X190457466Y-125973251D01*
X190457462Y-125973248D01*
X190293684Y-125863814D01*
X190293671Y-125863807D01*
X190111691Y-125788429D01*
X190111683Y-125788427D01*
X190070000Y-125780135D01*
X190070000Y-126583011D01*
X190060060Y-126565795D01*
X190004205Y-126509940D01*
X189935796Y-126470444D01*
X189859496Y-126450000D01*
X189780504Y-126450000D01*
X189704204Y-126470444D01*
X189635795Y-126509940D01*
X189579940Y-126565795D01*
X189570000Y-126583011D01*
X189570000Y-125780136D01*
X189569999Y-125780135D01*
X189528316Y-125788427D01*
X189528308Y-125788429D01*
X189346328Y-125863807D01*
X189346315Y-125863814D01*
X189182537Y-125973248D01*
X189182533Y-125973251D01*
X189043251Y-126112533D01*
X189043248Y-126112537D01*
X188933814Y-126276315D01*
X188933807Y-126276328D01*
X188858430Y-126458306D01*
X188858427Y-126458318D01*
X188820000Y-126651504D01*
X182179999Y-126651504D01*
X182141572Y-126458318D01*
X182141569Y-126458306D01*
X182066192Y-126276328D01*
X182066185Y-126276315D01*
X181956751Y-126112537D01*
X181956748Y-126112533D01*
X181817466Y-125973251D01*
X181817462Y-125973248D01*
X181653684Y-125863814D01*
X181653671Y-125863807D01*
X181471691Y-125788429D01*
X181471683Y-125788427D01*
X181430000Y-125780135D01*
X181430000Y-126583011D01*
X181420060Y-126565795D01*
X181364205Y-126509940D01*
X181295796Y-126470444D01*
X181219496Y-126450000D01*
X181140504Y-126450000D01*
X181064204Y-126470444D01*
X180995795Y-126509940D01*
X180939940Y-126565795D01*
X180930000Y-126583011D01*
X180930000Y-125780136D01*
X180929999Y-125780135D01*
X180888316Y-125788427D01*
X180888308Y-125788429D01*
X180706328Y-125863807D01*
X180706315Y-125863814D01*
X180542537Y-125973248D01*
X180542533Y-125973251D01*
X180403251Y-126112533D01*
X180403248Y-126112537D01*
X180293814Y-126276315D01*
X180293807Y-126276328D01*
X180218430Y-126458306D01*
X180218427Y-126458318D01*
X180180000Y-126651504D01*
X171154941Y-126651504D01*
X171248709Y-126557736D01*
X171261716Y-126544728D01*
X171207550Y-126505375D01*
X171197954Y-126500486D01*
X171147157Y-126452512D01*
X171130361Y-126384692D01*
X171152897Y-126318556D01*
X171197954Y-126279514D01*
X171207554Y-126274622D01*
X171261716Y-126235270D01*
X171261717Y-126235270D01*
X170629408Y-125602962D01*
X170692993Y-125585925D01*
X170807007Y-125520099D01*
X170900099Y-125427007D01*
X170965925Y-125312993D01*
X170982962Y-125249408D01*
X171615270Y-125881717D01*
X171615270Y-125881716D01*
X171654622Y-125827554D01*
X171751095Y-125638217D01*
X171816757Y-125436130D01*
X171816757Y-125436127D01*
X171850000Y-125226246D01*
X171850000Y-125013753D01*
X171816757Y-124803872D01*
X171816757Y-124803869D01*
X171751095Y-124601782D01*
X171654624Y-124412449D01*
X171615270Y-124358282D01*
X171615269Y-124358282D01*
X170982962Y-124990590D01*
X170965925Y-124927007D01*
X170900099Y-124812993D01*
X170807007Y-124719901D01*
X170692993Y-124654075D01*
X170629409Y-124637037D01*
X171261716Y-124004728D01*
X171207550Y-123965375D01*
X171197954Y-123960486D01*
X171147157Y-123912512D01*
X171130361Y-123844692D01*
X171152897Y-123778556D01*
X171197954Y-123739514D01*
X171207554Y-123734622D01*
X171261716Y-123695270D01*
X171261717Y-123695270D01*
X170629408Y-123062962D01*
X170692993Y-123045925D01*
X170807007Y-122980099D01*
X170900099Y-122887007D01*
X170965925Y-122772993D01*
X170982962Y-122709408D01*
X171615270Y-123341717D01*
X171615270Y-123341716D01*
X171654622Y-123287554D01*
X171751094Y-123098218D01*
X171773157Y-123030319D01*
X171773157Y-123030318D01*
X171816757Y-122896130D01*
X171816757Y-122896127D01*
X171850000Y-122686246D01*
X171850000Y-122473753D01*
X171816757Y-122263872D01*
X171816756Y-122263866D01*
X171813465Y-122253737D01*
X171813464Y-122253735D01*
X171751095Y-122061782D01*
X171654624Y-121872449D01*
X171615270Y-121818282D01*
X171615269Y-121818282D01*
X170982962Y-122450590D01*
X170965925Y-122387007D01*
X170900099Y-122272993D01*
X170807007Y-122179901D01*
X170692993Y-122114075D01*
X170629409Y-122097037D01*
X171261716Y-121464728D01*
X171207547Y-121425373D01*
X171207547Y-121425372D01*
X171198500Y-121420763D01*
X171147706Y-121372788D01*
X171130912Y-121304966D01*
X171153451Y-121238832D01*
X171198508Y-121199793D01*
X171207816Y-121195051D01*
X171311662Y-121119603D01*
X171379786Y-121070109D01*
X171379788Y-121070106D01*
X171379792Y-121070104D01*
X171530104Y-120919792D01*
X171530106Y-120919788D01*
X171530109Y-120919786D01*
X171655048Y-120747820D01*
X171655047Y-120747820D01*
X171655051Y-120747816D01*
X171751557Y-120558412D01*
X171817246Y-120356243D01*
X171850500Y-120146287D01*
X171850500Y-119933713D01*
X171817246Y-119723757D01*
X171751557Y-119521588D01*
X171655051Y-119332184D01*
X171655049Y-119332181D01*
X171655048Y-119332179D01*
X171530109Y-119160213D01*
X171379786Y-119009890D01*
X171207820Y-118884951D01*
X171207115Y-118884591D01*
X171199054Y-118880485D01*
X171148259Y-118832512D01*
X171131463Y-118764692D01*
X171153999Y-118698556D01*
X171199054Y-118659515D01*
X171207816Y-118655051D01*
X171282480Y-118600805D01*
X171379786Y-118530109D01*
X171379788Y-118530106D01*
X171379792Y-118530104D01*
X171530104Y-118379792D01*
X171530106Y-118379788D01*
X171530109Y-118379786D01*
X171655048Y-118207820D01*
X171655047Y-118207820D01*
X171655051Y-118207816D01*
X171751557Y-118018412D01*
X171817246Y-117816243D01*
X171850500Y-117606287D01*
X171850500Y-117393713D01*
X171817246Y-117183757D01*
X171751557Y-116981588D01*
X171655051Y-116792184D01*
X171655049Y-116792181D01*
X171655048Y-116792179D01*
X171530109Y-116620213D01*
X171379786Y-116469890D01*
X171207820Y-116344951D01*
X171207115Y-116344591D01*
X171199054Y-116340485D01*
X171148259Y-116292512D01*
X171131463Y-116224692D01*
X171153999Y-116158556D01*
X171199054Y-116119515D01*
X171207816Y-116115051D01*
X171284170Y-116059577D01*
X171379786Y-115990109D01*
X171379788Y-115990106D01*
X171379792Y-115990104D01*
X171530104Y-115839792D01*
X171530106Y-115839788D01*
X171530109Y-115839786D01*
X171655048Y-115667820D01*
X171655047Y-115667820D01*
X171655051Y-115667816D01*
X171751557Y-115478412D01*
X171817246Y-115276243D01*
X171850500Y-115066287D01*
X171850500Y-114853713D01*
X171817246Y-114643757D01*
X171803506Y-114601473D01*
X171801512Y-114531635D01*
X171833755Y-114475478D01*
X173358506Y-112950728D01*
X173358511Y-112950724D01*
X173368714Y-112940520D01*
X173368716Y-112940520D01*
X173480520Y-112828716D01*
X173548001Y-112711835D01*
X173559577Y-112691785D01*
X173600501Y-112539057D01*
X173600501Y-112380943D01*
X173600501Y-112373348D01*
X173600500Y-112373330D01*
X173600500Y-111730000D01*
X182175496Y-111730000D01*
X182217968Y-111876195D01*
X182300278Y-112015374D01*
X182300285Y-112015383D01*
X182414616Y-112129714D01*
X182414625Y-112129721D01*
X182553804Y-112212031D01*
X182709089Y-112257145D01*
X182730000Y-112258789D01*
X183230000Y-112258789D01*
X183250910Y-112257145D01*
X183406193Y-112212032D01*
X183426876Y-112199800D01*
X183494600Y-112182616D01*
X183553124Y-112199800D01*
X183573806Y-112212032D01*
X183729089Y-112257145D01*
X183750000Y-112258789D01*
X183750000Y-111730000D01*
X183230000Y-111730000D01*
X183230000Y-112258789D01*
X182730000Y-112258789D01*
X182730000Y-111730000D01*
X182175496Y-111730000D01*
X173600500Y-111730000D01*
X173600500Y-111579765D01*
X173620185Y-111512726D01*
X173621398Y-111510874D01*
X173709390Y-111379185D01*
X173709390Y-111379184D01*
X173709394Y-111379179D01*
X173769737Y-111233497D01*
X173800500Y-111078842D01*
X173800500Y-110921158D01*
X173800500Y-110921155D01*
X173800499Y-110921153D01*
X173790104Y-110868894D01*
X173769737Y-110766503D01*
X173756237Y-110733911D01*
X173709397Y-110620827D01*
X173709390Y-110620814D01*
X173621789Y-110489711D01*
X173621786Y-110489707D01*
X173538337Y-110406258D01*
X173504852Y-110344935D01*
X173509836Y-110275243D01*
X173538333Y-110230901D01*
X173620036Y-110149198D01*
X173681355Y-110115716D01*
X173751047Y-110120700D01*
X173806979Y-110162571D01*
X173877809Y-110257187D01*
X173877812Y-110257190D01*
X173992906Y-110343350D01*
X173992913Y-110343354D01*
X174127620Y-110393596D01*
X174127627Y-110393598D01*
X174187155Y-110399999D01*
X174187172Y-110400000D01*
X174335000Y-110400000D01*
X174335000Y-109674000D01*
X174354685Y-109606961D01*
X174407489Y-109561206D01*
X174459000Y-109550000D01*
X174711000Y-109550000D01*
X174778039Y-109569685D01*
X174823794Y-109622489D01*
X174835000Y-109674000D01*
X174835000Y-110400000D01*
X174982828Y-110400000D01*
X174982844Y-110399999D01*
X175042372Y-110393598D01*
X175042379Y-110393596D01*
X175177086Y-110343354D01*
X175177093Y-110343350D01*
X175292187Y-110257190D01*
X175292190Y-110257187D01*
X175378350Y-110142093D01*
X175378354Y-110142086D01*
X175383550Y-110128155D01*
X175425420Y-110072220D01*
X175490884Y-110047801D01*
X175559157Y-110062651D01*
X175608564Y-110112055D01*
X175615915Y-110128151D01*
X175621203Y-110142330D01*
X175621206Y-110142335D01*
X175707452Y-110257544D01*
X175707455Y-110257547D01*
X175822664Y-110343793D01*
X175822671Y-110343797D01*
X175957517Y-110394091D01*
X175957516Y-110394091D01*
X175964444Y-110394835D01*
X176017127Y-110400500D01*
X176812872Y-110400499D01*
X176872483Y-110394091D01*
X177007331Y-110343796D01*
X177122546Y-110257546D01*
X177156071Y-110212761D01*
X177212001Y-110170894D01*
X177281692Y-110165909D01*
X177329647Y-110187809D01*
X177350410Y-110203352D01*
X177350413Y-110203354D01*
X177485120Y-110253596D01*
X177485127Y-110253598D01*
X177544655Y-110259999D01*
X177544672Y-110260000D01*
X177692500Y-110260000D01*
X177692500Y-109534000D01*
X177712185Y-109466961D01*
X177764989Y-109421206D01*
X177816500Y-109410000D01*
X178068500Y-109410000D01*
X178135539Y-109429685D01*
X178181294Y-109482489D01*
X178192500Y-109534000D01*
X178192500Y-110260000D01*
X178340328Y-110260000D01*
X178340344Y-110259999D01*
X178399872Y-110253598D01*
X178399879Y-110253596D01*
X178534586Y-110203354D01*
X178534593Y-110203350D01*
X178649687Y-110117190D01*
X178649690Y-110117187D01*
X178735850Y-110002093D01*
X178735854Y-110002086D01*
X178741050Y-109988155D01*
X178782920Y-109932220D01*
X178848384Y-109907801D01*
X178916657Y-109922651D01*
X178966064Y-109972055D01*
X178973415Y-109988151D01*
X178978703Y-110002330D01*
X178978706Y-110002335D01*
X179064952Y-110117544D01*
X179064955Y-110117547D01*
X179180164Y-110203793D01*
X179180171Y-110203797D01*
X179315017Y-110254091D01*
X179315016Y-110254091D01*
X179321944Y-110254835D01*
X179374627Y-110260500D01*
X180170372Y-110260499D01*
X180229983Y-110254091D01*
X180364831Y-110203796D01*
X180480046Y-110117546D01*
X180521141Y-110062651D01*
X180522985Y-110060188D01*
X180578919Y-110018318D01*
X180622251Y-110010500D01*
X180653331Y-110010500D01*
X180653347Y-110010501D01*
X180660943Y-110010501D01*
X180819054Y-110010501D01*
X180819057Y-110010501D01*
X180971785Y-109969577D01*
X181022281Y-109940423D01*
X181022282Y-109940423D01*
X181108709Y-109890524D01*
X181108708Y-109890524D01*
X181108716Y-109890520D01*
X181220520Y-109778716D01*
X181220520Y-109778714D01*
X181230724Y-109768511D01*
X181230727Y-109768506D01*
X181917820Y-109081414D01*
X181979142Y-109047930D01*
X182048834Y-109052914D01*
X182104767Y-109094786D01*
X182129184Y-109160250D01*
X182129500Y-109169096D01*
X182129500Y-109513102D01*
X182130506Y-109521476D01*
X182140122Y-109601561D01*
X182195639Y-109742343D01*
X182284283Y-109859237D01*
X182309106Y-109924548D01*
X182294678Y-109992912D01*
X182292212Y-109997282D01*
X182217504Y-110123608D01*
X182217504Y-110123609D01*
X182172357Y-110279002D01*
X182172356Y-110279008D01*
X182169500Y-110315302D01*
X182169500Y-110724697D01*
X182172356Y-110760991D01*
X182172357Y-110760997D01*
X182217504Y-110916390D01*
X182217507Y-110916397D01*
X182229910Y-110937370D01*
X182247093Y-111005094D01*
X182229912Y-111063608D01*
X182217968Y-111083804D01*
X182175496Y-111230000D01*
X182481648Y-111230000D01*
X182544766Y-111247267D01*
X182553605Y-111252494D01*
X182553608Y-111252494D01*
X182553610Y-111252496D01*
X182709002Y-111297642D01*
X182709005Y-111297642D01*
X182709007Y-111297643D01*
X182745310Y-111300500D01*
X182745318Y-111300500D01*
X183214682Y-111300500D01*
X183214690Y-111300500D01*
X183250993Y-111297643D01*
X183250995Y-111297642D01*
X183250997Y-111297642D01*
X183406389Y-111252496D01*
X183406389Y-111252495D01*
X183406395Y-111252494D01*
X183415233Y-111247267D01*
X183478352Y-111230000D01*
X183501648Y-111230000D01*
X183564766Y-111247267D01*
X183573605Y-111252494D01*
X183573608Y-111252494D01*
X183573610Y-111252496D01*
X183729002Y-111297642D01*
X183729005Y-111297642D01*
X183729007Y-111297643D01*
X183765310Y-111300500D01*
X183876000Y-111300500D01*
X183943039Y-111320185D01*
X183988794Y-111372989D01*
X184000000Y-111424500D01*
X184000000Y-111480000D01*
X184059403Y-111480000D01*
X184126442Y-111499685D01*
X184147084Y-111516319D01*
X184213681Y-111582916D01*
X184247166Y-111644239D01*
X184250000Y-111670597D01*
X184250000Y-112258789D01*
X184270913Y-112257144D01*
X184424018Y-112212664D01*
X184493887Y-112212863D01*
X184546294Y-112244059D01*
X184638349Y-112336114D01*
X184638355Y-112336119D01*
X186843181Y-114540945D01*
X186876666Y-114602268D01*
X186879500Y-114628626D01*
X186879500Y-117062153D01*
X186859815Y-117129192D01*
X186807011Y-117174947D01*
X186795082Y-117176662D01*
X186770000Y-117195494D01*
X186770000Y-117501645D01*
X186752734Y-117564763D01*
X186747507Y-117573600D01*
X186747504Y-117573608D01*
X186702357Y-117729002D01*
X186701218Y-117735243D01*
X186699662Y-117734958D01*
X186677571Y-117792890D01*
X186621333Y-117834351D01*
X186551607Y-117838826D01*
X186490530Y-117804894D01*
X186464289Y-117765309D01*
X186449394Y-117729348D01*
X186449390Y-117729341D01*
X186361789Y-117598238D01*
X186361786Y-117598234D01*
X186306319Y-117542767D01*
X186272834Y-117481444D01*
X186270000Y-117455086D01*
X186270000Y-117195494D01*
X186269998Y-117195493D01*
X186123809Y-117237965D01*
X186123802Y-117237969D01*
X185999211Y-117311651D01*
X185931487Y-117328834D01*
X185911901Y-117326537D01*
X185837061Y-117311651D01*
X185818842Y-117308027D01*
X185661158Y-117308027D01*
X185661155Y-117308027D01*
X185506510Y-117338788D01*
X185506503Y-117338790D01*
X185459012Y-117358461D01*
X185389543Y-117365929D01*
X185327064Y-117334653D01*
X185291412Y-117274563D01*
X185289944Y-117268090D01*
X185286175Y-117249143D01*
X185269737Y-117166503D01*
X185262694Y-117149500D01*
X185209397Y-117020827D01*
X185209390Y-117020814D01*
X185121789Y-116889711D01*
X185121786Y-116889707D01*
X185010292Y-116778213D01*
X185010288Y-116778210D01*
X184879185Y-116690609D01*
X184879172Y-116690602D01*
X184733501Y-116630264D01*
X184733489Y-116630261D01*
X184578845Y-116599500D01*
X184578842Y-116599500D01*
X184421158Y-116599500D01*
X184421155Y-116599500D01*
X184266510Y-116630261D01*
X184266498Y-116630264D01*
X184120827Y-116690602D01*
X184120814Y-116690609D01*
X183989711Y-116778210D01*
X183989707Y-116778213D01*
X183878213Y-116889707D01*
X183878210Y-116889711D01*
X183790609Y-117020814D01*
X183790602Y-117020827D01*
X183730264Y-117166498D01*
X183730261Y-117166510D01*
X183699500Y-117321153D01*
X183699500Y-117478846D01*
X183730261Y-117633489D01*
X183730264Y-117633501D01*
X183790602Y-117779172D01*
X183790609Y-117779185D01*
X183878602Y-117910874D01*
X183899480Y-117977551D01*
X183899500Y-117979765D01*
X183899500Y-118096000D01*
X183879815Y-118163039D01*
X183827011Y-118208794D01*
X183775500Y-118220000D01*
X183750864Y-118220000D01*
X183714876Y-118222832D01*
X183714870Y-118222833D01*
X183560811Y-118267592D01*
X183560808Y-118267593D01*
X183422714Y-118349261D01*
X183422705Y-118349268D01*
X183309268Y-118462705D01*
X183309261Y-118462714D01*
X183227595Y-118600805D01*
X183187156Y-118740000D01*
X183876000Y-118740000D01*
X183943039Y-118759685D01*
X183988794Y-118812489D01*
X184000000Y-118864000D01*
X184000000Y-119115500D01*
X183980315Y-119182539D01*
X183927511Y-119228294D01*
X183876001Y-119239500D01*
X183750830Y-119239500D01*
X183750813Y-119239501D01*
X183749692Y-119239589D01*
X183749330Y-119239618D01*
X183739607Y-119240000D01*
X183187156Y-119240000D01*
X183227594Y-119379193D01*
X183261419Y-119436388D01*
X183278601Y-119504112D01*
X183261419Y-119562628D01*
X183227130Y-119620607D01*
X183227129Y-119620611D01*
X183182335Y-119774791D01*
X183182334Y-119774797D01*
X183179500Y-119810811D01*
X183179500Y-120209169D01*
X183179501Y-120209191D01*
X183182335Y-120245205D01*
X183227129Y-120399388D01*
X183227131Y-120399394D01*
X183311692Y-120542379D01*
X183328875Y-120610103D01*
X183306715Y-120676366D01*
X183252249Y-120720129D01*
X183204960Y-120729500D01*
X182834298Y-120729500D01*
X182797432Y-120732401D01*
X182797426Y-120732402D01*
X182683699Y-120765444D01*
X182614509Y-120765444D01*
X182502494Y-120732900D01*
X182502497Y-120732900D01*
X182500000Y-120732703D01*
X182500000Y-120808691D01*
X182480315Y-120875730D01*
X182463681Y-120896372D01*
X182381923Y-120978129D01*
X182381917Y-120978137D01*
X182298255Y-121119603D01*
X182298254Y-121119606D01*
X182252402Y-121277426D01*
X182252401Y-121277432D01*
X182249500Y-121314298D01*
X182249500Y-121831000D01*
X182229815Y-121898039D01*
X182177011Y-121943794D01*
X182125500Y-121955000D01*
X182124000Y-121955000D01*
X182056961Y-121935315D01*
X182011206Y-121882511D01*
X182000000Y-121831000D01*
X182000000Y-120732703D01*
X181997503Y-120732900D01*
X181839806Y-120778716D01*
X181839803Y-120778717D01*
X181698447Y-120862314D01*
X181698438Y-120862321D01*
X181582321Y-120978438D01*
X181582314Y-120978447D01*
X181498717Y-121119803D01*
X181498716Y-121119806D01*
X181452900Y-121277504D01*
X181452898Y-121277517D01*
X181452511Y-121282436D01*
X181430000Y-121341485D01*
X181430000Y-122153011D01*
X181420060Y-122135795D01*
X181364205Y-122079940D01*
X181295796Y-122040444D01*
X181219496Y-122020000D01*
X181140504Y-122020000D01*
X181064204Y-122040444D01*
X180995795Y-122079940D01*
X180939940Y-122135795D01*
X180930000Y-122153011D01*
X180930000Y-121350136D01*
X180929999Y-121350135D01*
X180888316Y-121358427D01*
X180888308Y-121358429D01*
X180706328Y-121433807D01*
X180706315Y-121433814D01*
X180542537Y-121543248D01*
X180542533Y-121543251D01*
X180403251Y-121682533D01*
X180403248Y-121682537D01*
X180293814Y-121846315D01*
X180293807Y-121846328D01*
X180218430Y-122028306D01*
X180218427Y-122028318D01*
X180180000Y-122221504D01*
X180180000Y-122620000D01*
X180880000Y-122620000D01*
X180880000Y-123120000D01*
X180180000Y-123120000D01*
X180180000Y-123518495D01*
X180218427Y-123711681D01*
X180218430Y-123711693D01*
X180293807Y-123893671D01*
X180293814Y-123893684D01*
X180403248Y-124057462D01*
X180403251Y-124057466D01*
X180542533Y-124196748D01*
X180542537Y-124196751D01*
X180706315Y-124306185D01*
X180706328Y-124306192D01*
X180888308Y-124381569D01*
X180930000Y-124389862D01*
X180930000Y-123586988D01*
X180939940Y-123604205D01*
X180995795Y-123660060D01*
X181064204Y-123699556D01*
X181140504Y-123720000D01*
X181219496Y-123720000D01*
X181295796Y-123699556D01*
X181364205Y-123660060D01*
X181420060Y-123604205D01*
X181430000Y-123586988D01*
X181430000Y-124389862D01*
X181471690Y-124381569D01*
X181471692Y-124381569D01*
X181653671Y-124306192D01*
X181653684Y-124306185D01*
X181817462Y-124196751D01*
X181817466Y-124196748D01*
X181956748Y-124057466D01*
X181956751Y-124057462D01*
X182066185Y-123893684D01*
X182066189Y-123893677D01*
X182089658Y-123837016D01*
X182133498Y-123782612D01*
X182199792Y-123760546D01*
X182267492Y-123777824D01*
X182291901Y-123796786D01*
X182299616Y-123804501D01*
X182414884Y-123871051D01*
X182543450Y-123905500D01*
X182543452Y-123905500D01*
X182676548Y-123905500D01*
X182676550Y-123905500D01*
X182805116Y-123871051D01*
X182920384Y-123804501D01*
X183014501Y-123710384D01*
X183050300Y-123648377D01*
X183100865Y-123600164D01*
X183169472Y-123586940D01*
X183234337Y-123612908D01*
X183245367Y-123622698D01*
X183767043Y-124144374D01*
X183767053Y-124144385D01*
X183771383Y-124148715D01*
X183771384Y-124148716D01*
X183883188Y-124260520D01*
X183936947Y-124291557D01*
X183969999Y-124310639D01*
X183970001Y-124310641D01*
X184000835Y-124328443D01*
X184020119Y-124339577D01*
X184172847Y-124380501D01*
X184172850Y-124380501D01*
X184338557Y-124380501D01*
X184338573Y-124380500D01*
X186763330Y-124380500D01*
X186763346Y-124380501D01*
X186770942Y-124380501D01*
X186929053Y-124380501D01*
X186929056Y-124380501D01*
X187081784Y-124339577D01*
X187131903Y-124310639D01*
X187218715Y-124260520D01*
X187330519Y-124148716D01*
X187330519Y-124148714D01*
X187340727Y-124138507D01*
X187340729Y-124138504D01*
X187791933Y-123687299D01*
X187853254Y-123653816D01*
X187922946Y-123658800D01*
X187978879Y-123700672D01*
X187983972Y-123708394D01*
X187985497Y-123710381D01*
X187985499Y-123710384D01*
X188079616Y-123804501D01*
X188194884Y-123871051D01*
X188323450Y-123905500D01*
X188323452Y-123905500D01*
X188456548Y-123905500D01*
X188456550Y-123905500D01*
X188585116Y-123871051D01*
X188700384Y-123804501D01*
X188708097Y-123796787D01*
X188769416Y-123763302D01*
X188839108Y-123768284D01*
X188895043Y-123810153D01*
X188910340Y-123837015D01*
X188933807Y-123893671D01*
X188933814Y-123893684D01*
X189043248Y-124057462D01*
X189043251Y-124057466D01*
X189182533Y-124196748D01*
X189182537Y-124196751D01*
X189346315Y-124306185D01*
X189346328Y-124306192D01*
X189528308Y-124381569D01*
X189570000Y-124389862D01*
X189570000Y-123586988D01*
X189579940Y-123604205D01*
X189635795Y-123660060D01*
X189704204Y-123699556D01*
X189780504Y-123720000D01*
X189859496Y-123720000D01*
X189935796Y-123699556D01*
X190004205Y-123660060D01*
X190060060Y-123604205D01*
X190070000Y-123586988D01*
X190070000Y-124389862D01*
X190111690Y-124381569D01*
X190111692Y-124381569D01*
X190293671Y-124306192D01*
X190293684Y-124306185D01*
X190457462Y-124196751D01*
X190457466Y-124196748D01*
X190596748Y-124057466D01*
X190596751Y-124057462D01*
X190706185Y-123893684D01*
X190706192Y-123893671D01*
X190781569Y-123711693D01*
X190781572Y-123711681D01*
X190819999Y-123518495D01*
X190820000Y-123518492D01*
X190820000Y-123120000D01*
X190120000Y-123120000D01*
X190120000Y-122620000D01*
X190820000Y-122620000D01*
X190820000Y-122221508D01*
X190819999Y-122221504D01*
X190781572Y-122028318D01*
X190781569Y-122028306D01*
X190706192Y-121846328D01*
X190706185Y-121846315D01*
X190596751Y-121682537D01*
X190596748Y-121682533D01*
X190457466Y-121543251D01*
X190457462Y-121543248D01*
X190293684Y-121433814D01*
X190293671Y-121433807D01*
X190111691Y-121358429D01*
X190111683Y-121358427D01*
X190070000Y-121350135D01*
X190070000Y-122153011D01*
X190060060Y-122135795D01*
X190004205Y-122079940D01*
X189935796Y-122040444D01*
X189859496Y-122020000D01*
X189780504Y-122020000D01*
X189704204Y-122040444D01*
X189635795Y-122079940D01*
X189579940Y-122135795D01*
X189570000Y-122153011D01*
X189570000Y-121335606D01*
X189553106Y-121310806D01*
X189553105Y-121310801D01*
X189553104Y-121310800D01*
X189553103Y-121310795D01*
X189547487Y-121282425D01*
X189547100Y-121277510D01*
X189547099Y-121277504D01*
X189501283Y-121119806D01*
X189501282Y-121119803D01*
X189417685Y-120978447D01*
X189417678Y-120978438D01*
X189301561Y-120862321D01*
X189301552Y-120862314D01*
X189160193Y-120778715D01*
X189157958Y-120777748D01*
X189156486Y-120776523D01*
X189153483Y-120774747D01*
X189153769Y-120774262D01*
X189104254Y-120733053D01*
X189083240Y-120666419D01*
X189101586Y-120599001D01*
X189119530Y-120576273D01*
X189180117Y-120515687D01*
X189262494Y-120376395D01*
X189307643Y-120220993D01*
X189310500Y-120184690D01*
X189310500Y-120070097D01*
X189330185Y-120003058D01*
X189346819Y-119982416D01*
X191492417Y-117836819D01*
X191553740Y-117803334D01*
X191580098Y-117800500D01*
X191853186Y-117800500D01*
X191853194Y-117800500D01*
X191890069Y-117797598D01*
X191890071Y-117797597D01*
X191890073Y-117797597D01*
X191953491Y-117779172D01*
X192047898Y-117751744D01*
X192189365Y-117668081D01*
X192305581Y-117551865D01*
X192389244Y-117410398D01*
X192425417Y-117285890D01*
X192435098Y-117252570D01*
X192435098Y-117252567D01*
X192435098Y-117252565D01*
X192438000Y-117215694D01*
X192438000Y-116784306D01*
X192435330Y-116750377D01*
X192449695Y-116682000D01*
X192471264Y-116652971D01*
X192478023Y-116646212D01*
X192496811Y-116630794D01*
X192510289Y-116621789D01*
X192621789Y-116510289D01*
X192709394Y-116379179D01*
X192769737Y-116233497D01*
X192800500Y-116078842D01*
X192800500Y-115921158D01*
X192800500Y-115921155D01*
X192800499Y-115921153D01*
X192776400Y-115800000D01*
X192769737Y-115766503D01*
X192769735Y-115766498D01*
X192709397Y-115620827D01*
X192709390Y-115620814D01*
X192618405Y-115484646D01*
X192620348Y-115483347D01*
X192597091Y-115428592D01*
X192608880Y-115359724D01*
X192656030Y-115308162D01*
X192696066Y-115292615D01*
X192714232Y-115289002D01*
X192856042Y-115230263D01*
X192859907Y-115228662D01*
X192859907Y-115228661D01*
X192859914Y-115228659D01*
X192886182Y-115211107D01*
X192972827Y-115153213D01*
X193039504Y-115132335D01*
X193106884Y-115150819D01*
X193129398Y-115168633D01*
X193941284Y-115980520D01*
X194010532Y-116020500D01*
X194078215Y-116059577D01*
X194230943Y-116100501D01*
X194230946Y-116100501D01*
X194389056Y-116100501D01*
X194389057Y-116100501D01*
X194389058Y-116100501D01*
X194541785Y-116059577D01*
X194580694Y-116037112D01*
X194642694Y-116020500D01*
X194646582Y-116020500D01*
X194713621Y-116040185D01*
X194759376Y-116092989D01*
X194769320Y-116162147D01*
X194761144Y-116191948D01*
X194747582Y-116224692D01*
X194730263Y-116266502D01*
X194730261Y-116266510D01*
X194699500Y-116421153D01*
X194699500Y-116578846D01*
X194730261Y-116733489D01*
X194730264Y-116733501D01*
X194790602Y-116879172D01*
X194790609Y-116879185D01*
X194878602Y-117010874D01*
X194899480Y-117077551D01*
X194899500Y-117079765D01*
X194899500Y-117953330D01*
X194899499Y-117953348D01*
X194899499Y-118119054D01*
X194899498Y-118119054D01*
X194899499Y-118119057D01*
X194940423Y-118271785D01*
X194940424Y-118271786D01*
X194955714Y-118298271D01*
X194955715Y-118298272D01*
X195019475Y-118408709D01*
X195019481Y-118408717D01*
X195138349Y-118527585D01*
X195138355Y-118527590D01*
X199166241Y-122555476D01*
X199199726Y-122616799D01*
X199196492Y-122681473D01*
X199182753Y-122723757D01*
X199149500Y-122933713D01*
X199149500Y-123146286D01*
X199182753Y-123356239D01*
X199248444Y-123558414D01*
X199344951Y-123747820D01*
X199469890Y-123919786D01*
X199620213Y-124070109D01*
X199792182Y-124195050D01*
X199800946Y-124199516D01*
X199851742Y-124247491D01*
X199868536Y-124315312D01*
X199845998Y-124381447D01*
X199800946Y-124420484D01*
X199792182Y-124424949D01*
X199620213Y-124549890D01*
X199469890Y-124700213D01*
X199344951Y-124872179D01*
X199248444Y-125061585D01*
X199182753Y-125263760D01*
X199149500Y-125473713D01*
X199149500Y-125686286D01*
X199182753Y-125896239D01*
X199248444Y-126098414D01*
X199344951Y-126287820D01*
X199469890Y-126459786D01*
X199620213Y-126610109D01*
X199792179Y-126735048D01*
X199792181Y-126735049D01*
X199792184Y-126735051D01*
X199801493Y-126739794D01*
X199852290Y-126787766D01*
X199869087Y-126855587D01*
X199846552Y-126921722D01*
X199801505Y-126960760D01*
X199792446Y-126965376D01*
X199792440Y-126965380D01*
X199738282Y-127004727D01*
X199738282Y-127004728D01*
X200370591Y-127637037D01*
X200307007Y-127654075D01*
X200192993Y-127719901D01*
X200099901Y-127812993D01*
X200034075Y-127927007D01*
X200017037Y-127990591D01*
X199384728Y-127358282D01*
X199384727Y-127358282D01*
X199345380Y-127412439D01*
X199248904Y-127601782D01*
X199183242Y-127803869D01*
X199183242Y-127803872D01*
X199150000Y-128013753D01*
X199150000Y-128226246D01*
X199183242Y-128436127D01*
X199183242Y-128436130D01*
X199248904Y-128638217D01*
X199345375Y-128827550D01*
X199384728Y-128881716D01*
X200017037Y-128249408D01*
X200034075Y-128312993D01*
X200099901Y-128427007D01*
X200192993Y-128520099D01*
X200307007Y-128585925D01*
X200370590Y-128602962D01*
X199738282Y-129235269D01*
X199738282Y-129235270D01*
X199792449Y-129274624D01*
X199981782Y-129371095D01*
X200183870Y-129436757D01*
X200393754Y-129470000D01*
X200606246Y-129470000D01*
X200816127Y-129436757D01*
X200816130Y-129436757D01*
X201018217Y-129371095D01*
X201207554Y-129274622D01*
X201261716Y-129235270D01*
X201261717Y-129235270D01*
X200629408Y-128602962D01*
X200692993Y-128585925D01*
X200807007Y-128520099D01*
X200900099Y-128427007D01*
X200965925Y-128312993D01*
X200982962Y-128249408D01*
X201615270Y-128881717D01*
X201615270Y-128881716D01*
X201654622Y-128827554D01*
X201751095Y-128638217D01*
X201816757Y-128436130D01*
X201816757Y-128436127D01*
X201850000Y-128226246D01*
X201850000Y-128013753D01*
X201816757Y-127803872D01*
X201816757Y-127803869D01*
X201751095Y-127601782D01*
X201654624Y-127412449D01*
X201615270Y-127358282D01*
X201615269Y-127358282D01*
X200982962Y-127990590D01*
X200965925Y-127927007D01*
X200900099Y-127812993D01*
X200807007Y-127719901D01*
X200692993Y-127654075D01*
X200629409Y-127637037D01*
X201261716Y-127004728D01*
X201207547Y-126965373D01*
X201207547Y-126965372D01*
X201198500Y-126960763D01*
X201147706Y-126912788D01*
X201130912Y-126844966D01*
X201153451Y-126778832D01*
X201198508Y-126739793D01*
X201207816Y-126735051D01*
X201322804Y-126651508D01*
X201379786Y-126610109D01*
X201379788Y-126610106D01*
X201379792Y-126610104D01*
X201530104Y-126459792D01*
X201530106Y-126459788D01*
X201530109Y-126459786D01*
X201655048Y-126287820D01*
X201655047Y-126287820D01*
X201655051Y-126287816D01*
X201751557Y-126098412D01*
X201817246Y-125896243D01*
X201850500Y-125686287D01*
X201850500Y-125473713D01*
X201817246Y-125263757D01*
X201803506Y-125221473D01*
X201801512Y-125151635D01*
X201833753Y-125095480D01*
X202130520Y-124798716D01*
X202209577Y-124661784D01*
X202250501Y-124509057D01*
X202250501Y-124350942D01*
X202250501Y-124343347D01*
X202250500Y-124343329D01*
X202250500Y-102332714D01*
X202250501Y-102332701D01*
X202250501Y-102164598D01*
X202250501Y-102164597D01*
X202209577Y-102011870D01*
X202209573Y-102011863D01*
X202130524Y-101874944D01*
X202130518Y-101874936D01*
X201807761Y-101552179D01*
X201463935Y-101208354D01*
X201463934Y-101208352D01*
X201345063Y-101089481D01*
X201345055Y-101089475D01*
X201226725Y-101021158D01*
X201226725Y-101021157D01*
X201226720Y-101021156D01*
X201220233Y-101017410D01*
X201208132Y-101010423D01*
X201169949Y-101000192D01*
X201055403Y-100969499D01*
X200987307Y-100969499D01*
X200920268Y-100949814D01*
X200899626Y-100933180D01*
X200629408Y-100662962D01*
X200692993Y-100645925D01*
X200807007Y-100580099D01*
X200900099Y-100487007D01*
X200965925Y-100372993D01*
X200982962Y-100309408D01*
X201615270Y-100941717D01*
X201615270Y-100941716D01*
X201654622Y-100887554D01*
X201751095Y-100698217D01*
X201816757Y-100496130D01*
X201816757Y-100496127D01*
X201850000Y-100286246D01*
X201850000Y-100073753D01*
X201816757Y-99863872D01*
X201816757Y-99863869D01*
X201751095Y-99661782D01*
X201654624Y-99472449D01*
X201615270Y-99418282D01*
X201615269Y-99418282D01*
X200982962Y-100050590D01*
X200965925Y-99987007D01*
X200900099Y-99872993D01*
X200807007Y-99779901D01*
X200692993Y-99714075D01*
X200629409Y-99697037D01*
X201261716Y-99064728D01*
X201207547Y-99025373D01*
X201207547Y-99025372D01*
X201198500Y-99020763D01*
X201147706Y-98972788D01*
X201130912Y-98904966D01*
X201153451Y-98838832D01*
X201198508Y-98799793D01*
X201207816Y-98795051D01*
X201287007Y-98737515D01*
X201379786Y-98670109D01*
X201379788Y-98670106D01*
X201379792Y-98670104D01*
X201530104Y-98519792D01*
X201530106Y-98519788D01*
X201530109Y-98519786D01*
X201655048Y-98347820D01*
X201655047Y-98347820D01*
X201655051Y-98347816D01*
X201751557Y-98158412D01*
X201817246Y-97956243D01*
X201850500Y-97746287D01*
X201850500Y-97533713D01*
X201817246Y-97323757D01*
X201751557Y-97121588D01*
X201655051Y-96932184D01*
X201655049Y-96932181D01*
X201655048Y-96932179D01*
X201530109Y-96760213D01*
X201379786Y-96609890D01*
X201207820Y-96484951D01*
X201207205Y-96484637D01*
X201199054Y-96480484D01*
X201148259Y-96432512D01*
X201131463Y-96364692D01*
X201153999Y-96298556D01*
X201199054Y-96259515D01*
X201207816Y-96255051D01*
X201229789Y-96239086D01*
X201379786Y-96130109D01*
X201379788Y-96130106D01*
X201379792Y-96130104D01*
X201530104Y-95979792D01*
X201530106Y-95979788D01*
X201530109Y-95979786D01*
X201655048Y-95807820D01*
X201655047Y-95807820D01*
X201655051Y-95807816D01*
X201751557Y-95618412D01*
X201817246Y-95416243D01*
X201850500Y-95206287D01*
X201850500Y-94993713D01*
X201817246Y-94783757D01*
X201751557Y-94581588D01*
X201655051Y-94392184D01*
X201655049Y-94392181D01*
X201655048Y-94392179D01*
X201530109Y-94220213D01*
X201416569Y-94106673D01*
X201383084Y-94045350D01*
X201388068Y-93975658D01*
X201429940Y-93919725D01*
X201460915Y-93902810D01*
X201592331Y-93853796D01*
X201707546Y-93767546D01*
X201793796Y-93652331D01*
X201844091Y-93517483D01*
X201850500Y-93457873D01*
X201850499Y-91662128D01*
X201844091Y-91602517D01*
X201843152Y-91600000D01*
X201793797Y-91467671D01*
X201793793Y-91467664D01*
X201707547Y-91352455D01*
X201707544Y-91352452D01*
X201592335Y-91266206D01*
X201592328Y-91266202D01*
X201457482Y-91215908D01*
X201457483Y-91215908D01*
X201397883Y-91209501D01*
X201397881Y-91209500D01*
X201397873Y-91209500D01*
X201397864Y-91209500D01*
X199602129Y-91209500D01*
X199602123Y-91209501D01*
X199542516Y-91215908D01*
X199407671Y-91266202D01*
X199407664Y-91266206D01*
X199292455Y-91352452D01*
X199292452Y-91352455D01*
X199206206Y-91467664D01*
X199206202Y-91467671D01*
X199155908Y-91602517D01*
X199149501Y-91662116D01*
X199149501Y-91662123D01*
X199149500Y-91662135D01*
X199149500Y-93009902D01*
X199129815Y-93076941D01*
X199113181Y-93097583D01*
X197519481Y-94691282D01*
X197519477Y-94691287D01*
X197476621Y-94765518D01*
X197476621Y-94765519D01*
X197440423Y-94828214D01*
X197440423Y-94828215D01*
X197399499Y-94980943D01*
X197399499Y-94980945D01*
X197399499Y-95149046D01*
X197399500Y-95149059D01*
X197399500Y-96920234D01*
X197379815Y-96987273D01*
X197378602Y-96989125D01*
X197290609Y-97120814D01*
X197290602Y-97120827D01*
X197230264Y-97266498D01*
X197230261Y-97266510D01*
X197199500Y-97421153D01*
X197199500Y-97578846D01*
X197230261Y-97733489D01*
X197232031Y-97739324D01*
X197230791Y-97739700D01*
X197237547Y-97802513D01*
X197206274Y-97864993D01*
X197146186Y-97900647D01*
X197115516Y-97904500D01*
X194384484Y-97904500D01*
X194317445Y-97884815D01*
X194271690Y-97832011D01*
X194261746Y-97762853D01*
X194268183Y-97739389D01*
X194267969Y-97739324D01*
X194269731Y-97733509D01*
X194269737Y-97733497D01*
X194300500Y-97578842D01*
X194300500Y-97421158D01*
X194300500Y-97421155D01*
X194300499Y-97421153D01*
X194281126Y-97323760D01*
X194269737Y-97266503D01*
X194269735Y-97266498D01*
X194209397Y-97120827D01*
X194209390Y-97120814D01*
X194121789Y-96989711D01*
X194121786Y-96989707D01*
X194010292Y-96878213D01*
X194010288Y-96878210D01*
X193879185Y-96790609D01*
X193879172Y-96790602D01*
X193733501Y-96730264D01*
X193733489Y-96730261D01*
X193578845Y-96699500D01*
X193578842Y-96699500D01*
X193421158Y-96699500D01*
X193421155Y-96699500D01*
X193266510Y-96730261D01*
X193266498Y-96730264D01*
X193120827Y-96790602D01*
X193120814Y-96790609D01*
X192989711Y-96878210D01*
X192989707Y-96878213D01*
X192878213Y-96989707D01*
X192878210Y-96989711D01*
X192790609Y-97120814D01*
X192790602Y-97120827D01*
X192730264Y-97266498D01*
X192730261Y-97266508D01*
X192699361Y-97421849D01*
X192666976Y-97483760D01*
X192665425Y-97485338D01*
X192507582Y-97643181D01*
X192446259Y-97676666D01*
X192419902Y-97679500D01*
X192310831Y-97679500D01*
X192310807Y-97679501D01*
X192274794Y-97682335D01*
X192120611Y-97727129D01*
X192120604Y-97727132D01*
X192063119Y-97761128D01*
X191995395Y-97778309D01*
X191936881Y-97761128D01*
X191879395Y-97727132D01*
X191879388Y-97727129D01*
X191725208Y-97682335D01*
X191725202Y-97682334D01*
X191689181Y-97679500D01*
X191290830Y-97679500D01*
X191290808Y-97679501D01*
X191254794Y-97682335D01*
X191100611Y-97727129D01*
X191100606Y-97727131D01*
X190962404Y-97808863D01*
X190962400Y-97808866D01*
X190944256Y-97827011D01*
X190908084Y-97863182D01*
X190846764Y-97896666D01*
X190820405Y-97899500D01*
X190599766Y-97899500D01*
X190532727Y-97879815D01*
X190530875Y-97878602D01*
X190399185Y-97790609D01*
X190399172Y-97790602D01*
X190253501Y-97730264D01*
X190253491Y-97730261D01*
X190120308Y-97703769D01*
X190058397Y-97671384D01*
X190023823Y-97610668D01*
X190020500Y-97582152D01*
X190020500Y-91555096D01*
X190040185Y-91488057D01*
X190056814Y-91467419D01*
X191112416Y-90411817D01*
X191173739Y-90378333D01*
X191200097Y-90375499D01*
X191347871Y-90375499D01*
X191347872Y-90375499D01*
X191407483Y-90369091D01*
X191542331Y-90318796D01*
X191657546Y-90232546D01*
X191743796Y-90117331D01*
X191794091Y-89982483D01*
X191800500Y-89922873D01*
X191800499Y-89623998D01*
X191820183Y-89556961D01*
X191872987Y-89511206D01*
X191924499Y-89500000D01*
X205125500Y-89500000D01*
X205192539Y-89519685D01*
X205238294Y-89572489D01*
X205249500Y-89624000D01*
X205249500Y-128496948D01*
X205249351Y-128503033D01*
X205231743Y-128861432D01*
X205230550Y-128873542D01*
X205178347Y-129225467D01*
X205175973Y-129237401D01*
X205089527Y-129582514D01*
X205085994Y-129594160D01*
X204966139Y-129929130D01*
X204961483Y-129940371D01*
X204809366Y-130261999D01*
X204803629Y-130272732D01*
X204620726Y-130577885D01*
X204613966Y-130588002D01*
X204402032Y-130873764D01*
X204394312Y-130883171D01*
X204155388Y-131146783D01*
X204146783Y-131155388D01*
X203883171Y-131394312D01*
X203873764Y-131402032D01*
X203588002Y-131613966D01*
X203577885Y-131620726D01*
X203272732Y-131803629D01*
X203261999Y-131809366D01*
X202940371Y-131961483D01*
X202929130Y-131966139D01*
X202594160Y-132085994D01*
X202582514Y-132089527D01*
X202237401Y-132175973D01*
X202225467Y-132178347D01*
X201873542Y-132230550D01*
X201861432Y-132231743D01*
X201523927Y-132248324D01*
X201503031Y-132249351D01*
X201496949Y-132249500D01*
X195732084Y-132249500D01*
X195728906Y-132249459D01*
X191371322Y-132137726D01*
X191304809Y-132116330D01*
X191260422Y-132062370D01*
X191250500Y-132013767D01*
X191250500Y-130401578D01*
X191219709Y-130207173D01*
X191158882Y-130019970D01*
X191111743Y-129927455D01*
X191069524Y-129844595D01*
X190953828Y-129685354D01*
X190814646Y-129546172D01*
X190655405Y-129430476D01*
X190480029Y-129341117D01*
X190371771Y-129305942D01*
X190292826Y-129280290D01*
X190098421Y-129249500D01*
X190098416Y-129249500D01*
X190049828Y-129249500D01*
X181044170Y-129249500D01*
X181000000Y-129249500D01*
X180901584Y-129249500D01*
X180901579Y-129249500D01*
X180707173Y-129280290D01*
X180519970Y-129341117D01*
X180344594Y-129430476D01*
X180253741Y-129496485D01*
X180185354Y-129546172D01*
X180185352Y-129546174D01*
X180185351Y-129546174D01*
X180046174Y-129685351D01*
X180046174Y-129685352D01*
X180046172Y-129685354D01*
X179998840Y-129750500D01*
X179930476Y-129844594D01*
X179841117Y-130019970D01*
X179780290Y-130207173D01*
X179749500Y-130401578D01*
X179749500Y-131712509D01*
X179729815Y-131779548D01*
X179677011Y-131825303D01*
X179622322Y-131836468D01*
X167324683Y-131521145D01*
X167258170Y-131499749D01*
X167253994Y-131496784D01*
X167126230Y-131402028D01*
X167116824Y-131394308D01*
X166922650Y-131218319D01*
X166853209Y-131155381D01*
X166844618Y-131146790D01*
X166605691Y-130883175D01*
X166597971Y-130873769D01*
X166504774Y-130748107D01*
X166480650Y-130682534D01*
X166480410Y-130677259D01*
X165750535Y-100022479D01*
X165750500Y-100019527D01*
X165750500Y-89624000D01*
X165770185Y-89556961D01*
X165822989Y-89511206D01*
X165874500Y-89500000D01*
X190026402Y-89500000D01*
X190093441Y-89519685D01*
G37*
%TD.AperFunction*%
%TA.AperFunction,Conductor*%
G36*
X188375727Y-118744924D02*
G01*
X188384928Y-118747597D01*
X188384931Y-118747598D01*
X188385627Y-118747652D01*
X188385991Y-118747791D01*
X188391167Y-118748737D01*
X188390991Y-118749696D01*
X188450916Y-118772529D01*
X188463590Y-118783590D01*
X188463681Y-118783681D01*
X188497166Y-118845004D01*
X188500000Y-118871362D01*
X188500000Y-119075500D01*
X188480315Y-119142539D01*
X188427511Y-119188294D01*
X188376000Y-119199500D01*
X188265302Y-119199500D01*
X188229008Y-119202356D01*
X188229002Y-119202357D01*
X188073608Y-119247504D01*
X188073600Y-119247507D01*
X188064767Y-119252732D01*
X188001646Y-119270000D01*
X187898074Y-119270000D01*
X187863479Y-119265076D01*
X187785209Y-119242336D01*
X187785205Y-119242335D01*
X187785204Y-119242335D01*
X187785202Y-119242334D01*
X187785197Y-119242334D01*
X187749188Y-119239500D01*
X187624000Y-119239500D01*
X187556961Y-119219815D01*
X187511206Y-119167011D01*
X187500000Y-119115500D01*
X187500000Y-118934500D01*
X187519685Y-118867461D01*
X187572489Y-118821706D01*
X187624000Y-118810500D01*
X187684682Y-118810500D01*
X187684690Y-118810500D01*
X187720993Y-118807643D01*
X187720995Y-118807642D01*
X187720997Y-118807642D01*
X187876389Y-118762496D01*
X187876389Y-118762495D01*
X187876395Y-118762494D01*
X187885233Y-118757267D01*
X187948352Y-118740000D01*
X188341131Y-118740000D01*
X188375727Y-118744924D01*
G37*
%TD.AperFunction*%
%TA.AperFunction,Conductor*%
G36*
X189642196Y-113592380D02*
G01*
X189698134Y-113634246D01*
X189720491Y-113684374D01*
X189730261Y-113733491D01*
X189730264Y-113733501D01*
X189790602Y-113879172D01*
X189790609Y-113879185D01*
X189878210Y-114010288D01*
X189878213Y-114010292D01*
X189989707Y-114121786D01*
X189989711Y-114121789D01*
X190120814Y-114209390D01*
X190120827Y-114209397D01*
X190224126Y-114252184D01*
X190266503Y-114269737D01*
X190421153Y-114300499D01*
X190421156Y-114300500D01*
X190421158Y-114300500D01*
X190578844Y-114300500D01*
X190578845Y-114300499D01*
X190733497Y-114269737D01*
X190879179Y-114209394D01*
X191010289Y-114121789D01*
X191010554Y-114121523D01*
X191010727Y-114121429D01*
X191014993Y-114117928D01*
X191015656Y-114118736D01*
X191071870Y-114088035D01*
X191141562Y-114093012D01*
X191185922Y-114121517D01*
X191658037Y-114593633D01*
X191691522Y-114654956D01*
X191691973Y-114657122D01*
X191710996Y-114752756D01*
X191710999Y-114752766D01*
X191771337Y-114898437D01*
X191771344Y-114898450D01*
X191862330Y-115034619D01*
X191860387Y-115035917D01*
X191883644Y-115090681D01*
X191871850Y-115159548D01*
X191824697Y-115211107D01*
X191784669Y-115226649D01*
X191766508Y-115230261D01*
X191766498Y-115230264D01*
X191620827Y-115290602D01*
X191620814Y-115290609D01*
X191489711Y-115378210D01*
X191489707Y-115378213D01*
X191378213Y-115489707D01*
X191378210Y-115489711D01*
X191290609Y-115620814D01*
X191290602Y-115620827D01*
X191230264Y-115766498D01*
X191230261Y-115766510D01*
X191199500Y-115921153D01*
X191199500Y-116075500D01*
X191179815Y-116142539D01*
X191127011Y-116188294D01*
X191075500Y-116199500D01*
X190696798Y-116199500D01*
X190659932Y-116202401D01*
X190659926Y-116202402D01*
X190502106Y-116248254D01*
X190502103Y-116248255D01*
X190360637Y-116331917D01*
X190354469Y-116336702D01*
X190353164Y-116335019D01*
X190301454Y-116363246D01*
X190231763Y-116358251D01*
X190184058Y-116326247D01*
X190159796Y-116300000D01*
X189250000Y-116300000D01*
X189250000Y-116850000D01*
X189578134Y-116850000D01*
X189578149Y-116849999D01*
X189614989Y-116847100D01*
X189614995Y-116847099D01*
X189772693Y-116801283D01*
X189772696Y-116801282D01*
X189920771Y-116713712D01*
X189921790Y-116715435D01*
X189977026Y-116693744D01*
X190045545Y-116707418D01*
X190095793Y-116755966D01*
X190112000Y-116817257D01*
X190112000Y-117182104D01*
X190092315Y-117249143D01*
X190039511Y-117294898D01*
X189970353Y-117304842D01*
X189922002Y-117284330D01*
X189921080Y-117285890D01*
X189802384Y-117215694D01*
X189772898Y-117198256D01*
X189772897Y-117198255D01*
X189772896Y-117198255D01*
X189772893Y-117198254D01*
X189615073Y-117152402D01*
X189615067Y-117152401D01*
X189578201Y-117149500D01*
X189578194Y-117149500D01*
X188421806Y-117149500D01*
X188421798Y-117149500D01*
X188384932Y-117152401D01*
X188384926Y-117152402D01*
X188239095Y-117194771D01*
X188169226Y-117194572D01*
X188110556Y-117156630D01*
X188081712Y-117092992D01*
X188080500Y-117075695D01*
X188080500Y-116923784D01*
X188100185Y-116856745D01*
X188152989Y-116810990D01*
X188222147Y-116801046D01*
X188239095Y-116804708D01*
X188385004Y-116847099D01*
X188385010Y-116847100D01*
X188421850Y-116849999D01*
X188421866Y-116850000D01*
X188750000Y-116850000D01*
X188750000Y-115800000D01*
X189250000Y-115800000D01*
X190159795Y-115800000D01*
X190159795Y-115799998D01*
X190159600Y-115797513D01*
X190113781Y-115639801D01*
X190030185Y-115498447D01*
X190030178Y-115498438D01*
X189914061Y-115382321D01*
X189914052Y-115382314D01*
X189772696Y-115298717D01*
X189772693Y-115298716D01*
X189614995Y-115252900D01*
X189614989Y-115252899D01*
X189578149Y-115250000D01*
X189250000Y-115250000D01*
X189250000Y-115800000D01*
X188750000Y-115800000D01*
X188750000Y-115250000D01*
X188421850Y-115250000D01*
X188385012Y-115252899D01*
X188239095Y-115295292D01*
X188169225Y-115295092D01*
X188110555Y-115257149D01*
X188081712Y-115193511D01*
X188080500Y-115176215D01*
X188080500Y-114417589D01*
X188080501Y-114417576D01*
X188080501Y-114249473D01*
X188080501Y-114249472D01*
X188039577Y-114096745D01*
X187975926Y-113986498D01*
X187959455Y-113918599D01*
X187982308Y-113852572D01*
X188037230Y-113809382D01*
X188072920Y-113802503D01*
X188072782Y-113801097D01*
X188078836Y-113800500D01*
X188078842Y-113800500D01*
X188233497Y-113769737D01*
X188379179Y-113709394D01*
X188431110Y-113674694D01*
X188497785Y-113653816D01*
X188565165Y-113672300D01*
X188568863Y-113674676D01*
X188620821Y-113709394D01*
X188620823Y-113709395D01*
X188620825Y-113709396D01*
X188743203Y-113760086D01*
X188766503Y-113769737D01*
X188921078Y-113800484D01*
X188921153Y-113800499D01*
X188921156Y-113800500D01*
X188921158Y-113800500D01*
X189078844Y-113800500D01*
X189078845Y-113800499D01*
X189233497Y-113769737D01*
X189379179Y-113709394D01*
X189510289Y-113621789D01*
X189511186Y-113620891D01*
X189511773Y-113620571D01*
X189514999Y-113617924D01*
X189515500Y-113618535D01*
X189572504Y-113587402D01*
X189642196Y-113592380D01*
G37*
%TD.AperFunction*%
%TA.AperFunction,Conductor*%
G36*
X183348434Y-103109876D02*
G01*
X183348436Y-103109877D01*
X183420821Y-103118569D01*
X183436897Y-103120500D01*
X183436898Y-103120500D01*
X183623103Y-103120500D01*
X183639178Y-103118569D01*
X183711564Y-103109877D01*
X183711565Y-103109876D01*
X183715215Y-103109438D01*
X183744785Y-103109438D01*
X183748434Y-103109876D01*
X183748436Y-103109877D01*
X183820821Y-103118569D01*
X183836897Y-103120500D01*
X183836898Y-103120500D01*
X184023103Y-103120500D01*
X184039178Y-103118569D01*
X184111564Y-103109877D01*
X184111565Y-103109876D01*
X184115215Y-103109438D01*
X184144785Y-103109438D01*
X184148434Y-103109876D01*
X184148436Y-103109877D01*
X184220821Y-103118569D01*
X184236897Y-103120500D01*
X184236898Y-103120500D01*
X184423103Y-103120500D01*
X184439178Y-103118569D01*
X184511564Y-103109877D01*
X184511565Y-103109876D01*
X184515215Y-103109438D01*
X184544785Y-103109438D01*
X184548434Y-103109876D01*
X184548436Y-103109877D01*
X184620821Y-103118569D01*
X184636897Y-103120500D01*
X184636898Y-103120500D01*
X184823103Y-103120500D01*
X184839178Y-103118569D01*
X184911564Y-103109877D01*
X184911565Y-103109876D01*
X184915215Y-103109438D01*
X184944785Y-103109438D01*
X184948434Y-103109876D01*
X184948436Y-103109877D01*
X185020821Y-103118569D01*
X185036897Y-103120500D01*
X185036898Y-103120500D01*
X185223103Y-103120500D01*
X185239178Y-103118569D01*
X185311564Y-103109877D01*
X185311565Y-103109876D01*
X185315215Y-103109438D01*
X185344785Y-103109438D01*
X185348434Y-103109876D01*
X185348436Y-103109877D01*
X185420821Y-103118569D01*
X185436897Y-103120500D01*
X185603769Y-103120500D01*
X185670808Y-103140185D01*
X185716563Y-103192989D01*
X185725386Y-103220308D01*
X185748458Y-103336299D01*
X185748461Y-103336309D01*
X185808799Y-103481980D01*
X185808806Y-103481993D01*
X185896407Y-103613096D01*
X185896410Y-103613100D01*
X186007904Y-103724594D01*
X186007908Y-103724597D01*
X186139011Y-103812198D01*
X186139024Y-103812205D01*
X186284695Y-103872543D01*
X186284700Y-103872545D01*
X186439350Y-103903307D01*
X186439353Y-103903308D01*
X186439355Y-103903308D01*
X186597041Y-103903308D01*
X186597042Y-103903307D01*
X186751694Y-103872545D01*
X186897376Y-103812202D01*
X187028486Y-103724597D01*
X187032009Y-103721073D01*
X187093328Y-103687586D01*
X187163020Y-103692566D01*
X187218956Y-103734434D01*
X187234255Y-103761299D01*
X187279355Y-103870182D01*
X187279362Y-103870195D01*
X187366963Y-104001298D01*
X187366966Y-104001302D01*
X187478460Y-104112796D01*
X187478464Y-104112799D01*
X187609567Y-104200400D01*
X187609580Y-104200407D01*
X187696983Y-104236609D01*
X187755256Y-104260747D01*
X187781746Y-104266016D01*
X187843656Y-104298399D01*
X187878231Y-104359115D01*
X187880671Y-104372850D01*
X187890561Y-104455217D01*
X187890561Y-104484783D01*
X187884531Y-104534995D01*
X187879500Y-104576898D01*
X187879500Y-104576902D01*
X187879499Y-104576911D01*
X187879278Y-104580603D01*
X187877458Y-104580494D01*
X187859815Y-104640581D01*
X187843181Y-104661223D01*
X187599481Y-104904922D01*
X187599479Y-104904925D01*
X187584329Y-104931166D01*
X187562968Y-104968165D01*
X187520423Y-105041855D01*
X187479499Y-105194583D01*
X187479499Y-105194585D01*
X187479499Y-105362686D01*
X187479500Y-105362699D01*
X187479500Y-107179690D01*
X187479499Y-107179708D01*
X187479499Y-107345414D01*
X187479498Y-107345414D01*
X187520424Y-107498149D01*
X187520425Y-107498150D01*
X187536216Y-107525500D01*
X187536217Y-107525501D01*
X187599477Y-107635072D01*
X187599481Y-107635077D01*
X187718349Y-107753945D01*
X187718355Y-107753950D01*
X187798779Y-107834374D01*
X187798800Y-107834397D01*
X187843180Y-107878776D01*
X187876666Y-107940099D01*
X187878744Y-107959428D01*
X187879278Y-107959397D01*
X187879499Y-107963088D01*
X187879500Y-107963096D01*
X187879500Y-107963102D01*
X187885066Y-108009459D01*
X187890561Y-108055217D01*
X187890561Y-108084782D01*
X187886547Y-108118213D01*
X187859011Y-108182428D01*
X187801129Y-108221562D01*
X187778213Y-108226547D01*
X187744782Y-108230561D01*
X187715217Y-108230561D01*
X187666559Y-108224718D01*
X187623102Y-108219500D01*
X187436898Y-108219500D01*
X187393440Y-108224718D01*
X187344783Y-108230561D01*
X187315217Y-108230561D01*
X187266559Y-108224718D01*
X187223102Y-108219500D01*
X187036898Y-108219500D01*
X186993440Y-108224718D01*
X186944783Y-108230561D01*
X186915217Y-108230561D01*
X186866559Y-108224718D01*
X186823102Y-108219500D01*
X186636898Y-108219500D01*
X186593440Y-108224718D01*
X186544783Y-108230561D01*
X186515217Y-108230561D01*
X186466559Y-108224718D01*
X186423102Y-108219500D01*
X186236898Y-108219500D01*
X186193440Y-108224718D01*
X186144783Y-108230561D01*
X186115217Y-108230561D01*
X186066559Y-108224718D01*
X186023102Y-108219500D01*
X185836898Y-108219500D01*
X185793440Y-108224718D01*
X185744783Y-108230561D01*
X185715217Y-108230561D01*
X185666559Y-108224718D01*
X185623102Y-108219500D01*
X185436898Y-108219500D01*
X185393440Y-108224718D01*
X185344783Y-108230561D01*
X185315217Y-108230561D01*
X185266559Y-108224718D01*
X185223102Y-108219500D01*
X185036898Y-108219500D01*
X184993440Y-108224718D01*
X184944783Y-108230561D01*
X184915217Y-108230561D01*
X184866559Y-108224718D01*
X184823102Y-108219500D01*
X184636898Y-108219500D01*
X184593440Y-108224718D01*
X184544783Y-108230561D01*
X184515217Y-108230561D01*
X184466559Y-108224718D01*
X184423102Y-108219500D01*
X184236898Y-108219500D01*
X184193440Y-108224718D01*
X184144783Y-108230561D01*
X184115217Y-108230561D01*
X184066559Y-108224718D01*
X184023102Y-108219500D01*
X183836898Y-108219500D01*
X183793440Y-108224718D01*
X183744783Y-108230561D01*
X183715217Y-108230561D01*
X183669459Y-108225066D01*
X183623102Y-108219500D01*
X183623096Y-108219500D01*
X183623088Y-108219499D01*
X183619397Y-108219278D01*
X183619505Y-108217458D01*
X183559419Y-108199815D01*
X183538776Y-108183180D01*
X183494397Y-108138800D01*
X183494374Y-108138779D01*
X183214324Y-107858729D01*
X183180839Y-107797406D01*
X183181893Y-107753795D01*
X183179439Y-107753472D01*
X183180500Y-107745414D01*
X183180500Y-105070945D01*
X183180500Y-105070943D01*
X183173648Y-105045371D01*
X183173825Y-105037937D01*
X183173540Y-105037415D01*
X183173985Y-105031179D01*
X183175311Y-104975524D01*
X183178477Y-104968368D01*
X183178524Y-104967723D01*
X183182470Y-104959348D01*
X183186055Y-104951247D01*
X183187320Y-104949057D01*
X183214623Y-104901768D01*
X183255547Y-104749040D01*
X183255547Y-104741755D01*
X183275232Y-104674716D01*
X183291866Y-104654074D01*
X183386780Y-104559159D01*
X183386783Y-104559156D01*
X183474388Y-104428046D01*
X183534731Y-104282364D01*
X183565494Y-104127709D01*
X183565494Y-103970025D01*
X183565494Y-103970022D01*
X183565493Y-103970020D01*
X183552223Y-103903307D01*
X183534731Y-103815370D01*
X183504750Y-103742989D01*
X183474391Y-103669694D01*
X183474384Y-103669681D01*
X183386783Y-103538578D01*
X183386780Y-103538574D01*
X183275286Y-103427080D01*
X183275282Y-103427077D01*
X183156340Y-103347602D01*
X183111535Y-103293990D01*
X183102828Y-103224665D01*
X183132983Y-103161637D01*
X183192426Y-103124918D01*
X183219430Y-103121281D01*
X183219397Y-103120722D01*
X183223100Y-103120500D01*
X183223102Y-103120500D01*
X183311564Y-103109877D01*
X183311566Y-103109876D01*
X183315215Y-103109438D01*
X183344785Y-103109438D01*
X183348434Y-103109876D01*
G37*
%TD.AperFunction*%
%TA.AperFunction,Conductor*%
G36*
X179416228Y-104876439D02*
G01*
X179437280Y-104877573D01*
X179459253Y-104889073D01*
X179463039Y-104890185D01*
X179464417Y-104891776D01*
X179468550Y-104893939D01*
X179648050Y-105023439D01*
X179690900Y-105078626D01*
X179699500Y-105124000D01*
X179699500Y-105234697D01*
X179702356Y-105270991D01*
X179702357Y-105270997D01*
X179747504Y-105426391D01*
X179747507Y-105426399D01*
X179752732Y-105435233D01*
X179770000Y-105498354D01*
X179770000Y-105501646D01*
X179752734Y-105564764D01*
X179747507Y-105573601D01*
X179747504Y-105573610D01*
X179702357Y-105729002D01*
X179702356Y-105729008D01*
X179699500Y-105765302D01*
X179699500Y-106234697D01*
X179702356Y-106270991D01*
X179702357Y-106270997D01*
X179747503Y-106426389D01*
X179747505Y-106426393D01*
X179747506Y-106426395D01*
X179752732Y-106435233D01*
X179770000Y-106498352D01*
X179770000Y-106804504D01*
X179785245Y-106815951D01*
X179800985Y-106815996D01*
X179859657Y-106853936D01*
X179888503Y-106917573D01*
X179878365Y-106986703D01*
X179868819Y-107003765D01*
X179790608Y-107120816D01*
X179790606Y-107120820D01*
X179756753Y-107202548D01*
X179712911Y-107256951D01*
X179646617Y-107279015D01*
X179578918Y-107261735D01*
X179554511Y-107242775D01*
X179491217Y-107179481D01*
X179491209Y-107179475D01*
X179389616Y-107120821D01*
X179389613Y-107120820D01*
X179354286Y-107100423D01*
X179354287Y-107100423D01*
X179293193Y-107084053D01*
X179201557Y-107059499D01*
X179043443Y-107059499D01*
X179035847Y-107059499D01*
X179035831Y-107059500D01*
X177291670Y-107059500D01*
X177291654Y-107059499D01*
X177284058Y-107059499D01*
X177125943Y-107059499D01*
X177049579Y-107079961D01*
X176973214Y-107100423D01*
X176973209Y-107100426D01*
X176836290Y-107179475D01*
X176836282Y-107179481D01*
X176452581Y-107563181D01*
X176391258Y-107596666D01*
X176364900Y-107599500D01*
X176017130Y-107599500D01*
X176017123Y-107599501D01*
X175957516Y-107605908D01*
X175822671Y-107656202D01*
X175822664Y-107656206D01*
X175707455Y-107742452D01*
X175707452Y-107742455D01*
X175621206Y-107857664D01*
X175621203Y-107857670D01*
X175616182Y-107871133D01*
X175574310Y-107927066D01*
X175508846Y-107951483D01*
X175440573Y-107936631D01*
X175391168Y-107887225D01*
X175383818Y-107871133D01*
X175378796Y-107857670D01*
X175378793Y-107857664D01*
X175292547Y-107742455D01*
X175292544Y-107742452D01*
X175177335Y-107656206D01*
X175177325Y-107656200D01*
X175176532Y-107655905D01*
X175175854Y-107655397D01*
X175169546Y-107651953D01*
X175170041Y-107651045D01*
X175120600Y-107614032D01*
X175096186Y-107548566D01*
X175111040Y-107480294D01*
X175132185Y-107452048D01*
X176334234Y-106250000D01*
X178741210Y-106250000D01*
X178742854Y-106270910D01*
X178787968Y-106426195D01*
X178870278Y-106565374D01*
X178870285Y-106565383D01*
X178984616Y-106679714D01*
X178984625Y-106679721D01*
X179123804Y-106762031D01*
X179270000Y-106804504D01*
X179270000Y-106250000D01*
X178741210Y-106250000D01*
X176334234Y-106250000D01*
X176834235Y-105749999D01*
X178741209Y-105749999D01*
X178741210Y-105750000D01*
X179270000Y-105750000D01*
X179270000Y-105250000D01*
X178741210Y-105250000D01*
X178742854Y-105270910D01*
X178787968Y-105426195D01*
X178787968Y-105426196D01*
X178794288Y-105436882D01*
X178811468Y-105504607D01*
X178794288Y-105563118D01*
X178787968Y-105573803D01*
X178787966Y-105573809D01*
X178742855Y-105729081D01*
X178742854Y-105729087D01*
X178741209Y-105749999D01*
X176834235Y-105749999D01*
X177677416Y-104906819D01*
X177738739Y-104873334D01*
X177765097Y-104870500D01*
X179396000Y-104870500D01*
X179416228Y-104876439D01*
G37*
%TD.AperFunction*%
%TA.AperFunction,Conductor*%
G36*
X194208745Y-106334425D02*
G01*
X194264679Y-106376296D01*
X194284487Y-106416007D01*
X194287504Y-106426391D01*
X194287505Y-106426393D01*
X194287506Y-106426395D01*
X194304702Y-106455472D01*
X194369881Y-106565684D01*
X194369887Y-106565692D01*
X194484307Y-106680112D01*
X194484311Y-106680115D01*
X194484313Y-106680117D01*
X194623605Y-106762494D01*
X194664587Y-106774400D01*
X194779002Y-106807642D01*
X194779005Y-106807642D01*
X194779007Y-106807643D01*
X194815310Y-106810500D01*
X194815318Y-106810500D01*
X195224682Y-106810500D01*
X195224690Y-106810500D01*
X195253849Y-106808205D01*
X195322226Y-106822569D01*
X195371983Y-106871620D01*
X195387322Y-106939786D01*
X195363373Y-107005423D01*
X195351259Y-107019504D01*
X195084398Y-107286365D01*
X195023075Y-107319850D01*
X194953383Y-107314866D01*
X194927826Y-107301786D01*
X194814920Y-107226344D01*
X194814907Y-107226337D01*
X194669236Y-107165999D01*
X194669224Y-107165996D01*
X194514580Y-107135235D01*
X194514577Y-107135235D01*
X194366259Y-107135235D01*
X194299220Y-107115550D01*
X194253465Y-107062746D01*
X194251698Y-107058687D01*
X194209397Y-106956562D01*
X194209390Y-106956549D01*
X194121789Y-106825446D01*
X194121786Y-106825442D01*
X194010292Y-106713948D01*
X194010284Y-106713942D01*
X193957412Y-106678614D01*
X193912606Y-106625002D01*
X193903899Y-106555677D01*
X193934053Y-106492650D01*
X193962151Y-106469396D01*
X193985185Y-106455472D01*
X194077732Y-106362924D01*
X194139053Y-106329441D01*
X194208745Y-106334425D01*
G37*
%TD.AperFunction*%
%TA.AperFunction,Conductor*%
G36*
X192852720Y-106542244D02*
G01*
X192853551Y-106540398D01*
X192860388Y-106543474D01*
X192860394Y-106543478D01*
X192893121Y-106553676D01*
X192951268Y-106592411D01*
X192979244Y-106656436D01*
X192968163Y-106725422D01*
X192943914Y-106759742D01*
X192878210Y-106825446D01*
X192865552Y-106844391D01*
X192811940Y-106889196D01*
X192762450Y-106899500D01*
X192417848Y-106899500D01*
X192350809Y-106879815D01*
X192305054Y-106827011D01*
X192296231Y-106799693D01*
X192285986Y-106748192D01*
X192292213Y-106678600D01*
X192335075Y-106623422D01*
X192400964Y-106600177D01*
X192407603Y-106599999D01*
X192506581Y-106599999D01*
X192577102Y-106593591D01*
X192577107Y-106593590D01*
X192739399Y-106543018D01*
X192746239Y-106539940D01*
X192747303Y-106542305D01*
X192802913Y-106527620D01*
X192852720Y-106542244D01*
G37*
%TD.AperFunction*%
%TA.AperFunction,Conductor*%
G36*
X193173039Y-101519685D02*
G01*
X193218794Y-101572489D01*
X193230000Y-101624000D01*
X193230000Y-102250000D01*
X193738790Y-102250000D01*
X193737145Y-102229089D01*
X193692031Y-102073804D01*
X193688934Y-102066647D01*
X193691972Y-102065332D01*
X193678533Y-102012235D01*
X193695715Y-101953783D01*
X193712031Y-101926194D01*
X193754567Y-101779783D01*
X193792173Y-101720897D01*
X193855645Y-101691690D01*
X193924832Y-101701436D01*
X193961325Y-101726696D01*
X194285149Y-102050520D01*
X194422080Y-102129577D01*
X194574808Y-102170501D01*
X194574811Y-102170501D01*
X194740518Y-102170501D01*
X194740534Y-102170500D01*
X199087873Y-102170500D01*
X199154912Y-102190185D01*
X199200667Y-102242989D01*
X199210611Y-102312147D01*
X199205805Y-102332813D01*
X199194929Y-102366286D01*
X199182753Y-102403760D01*
X199149500Y-102613713D01*
X199149500Y-102826286D01*
X199182754Y-103036244D01*
X199182754Y-103036247D01*
X199196491Y-103078523D01*
X199198486Y-103148364D01*
X199166241Y-103204522D01*
X196856630Y-105514132D01*
X196795307Y-105547617D01*
X196725615Y-105542633D01*
X196669682Y-105500761D01*
X196662217Y-105489573D01*
X196629718Y-105434622D01*
X196629714Y-105434616D01*
X196515383Y-105320285D01*
X196515374Y-105320278D01*
X196376193Y-105237967D01*
X196376190Y-105237965D01*
X196230001Y-105195493D01*
X196230000Y-105195494D01*
X196230000Y-105876000D01*
X196210315Y-105943039D01*
X196157511Y-105988794D01*
X196106000Y-106000000D01*
X195924500Y-106000000D01*
X195857461Y-105980315D01*
X195811706Y-105927511D01*
X195800500Y-105876000D01*
X195800500Y-105765317D01*
X195800499Y-105765302D01*
X195797643Y-105729008D01*
X195797642Y-105729002D01*
X195752495Y-105573608D01*
X195752492Y-105573600D01*
X195747266Y-105564763D01*
X195730000Y-105501645D01*
X195730000Y-105195494D01*
X195729998Y-105195493D01*
X195583809Y-105237965D01*
X195583806Y-105237967D01*
X195563608Y-105249912D01*
X195495884Y-105267092D01*
X195437370Y-105249910D01*
X195416397Y-105237507D01*
X195416390Y-105237504D01*
X195260997Y-105192357D01*
X195260991Y-105192356D01*
X195224697Y-105189500D01*
X195224690Y-105189500D01*
X195106618Y-105189500D01*
X195044619Y-105172888D01*
X194995944Y-105144786D01*
X194936375Y-105110394D01*
X194936374Y-105110393D01*
X194901783Y-105090422D01*
X194829093Y-105070945D01*
X194749057Y-105049499D01*
X194590943Y-105049499D01*
X194583347Y-105049499D01*
X194583331Y-105049500D01*
X194256224Y-105049500D01*
X194189185Y-105029815D01*
X194143430Y-104977011D01*
X194133486Y-104907853D01*
X194150107Y-104861350D01*
X194162468Y-104840902D01*
X194193478Y-104789606D01*
X194244086Y-104627196D01*
X194250500Y-104556616D01*
X194250500Y-103943384D01*
X194244086Y-103872804D01*
X194193478Y-103710394D01*
X194105472Y-103564815D01*
X194105470Y-103564813D01*
X194105469Y-103564811D01*
X193985188Y-103444530D01*
X193956322Y-103427080D01*
X193839606Y-103356522D01*
X193677196Y-103305914D01*
X193658509Y-103304215D01*
X193593528Y-103278544D01*
X193552740Y-103221816D01*
X193549097Y-103152041D01*
X193582054Y-103093042D01*
X193609718Y-103065378D01*
X193609721Y-103065374D01*
X193692031Y-102926195D01*
X193692033Y-102926190D01*
X193737144Y-102770918D01*
X193737145Y-102770912D01*
X193738790Y-102750000D01*
X193084000Y-102750000D01*
X193016961Y-102730315D01*
X192971206Y-102677511D01*
X192960000Y-102626000D01*
X192960000Y-102500000D01*
X192904500Y-102500000D01*
X192891442Y-102496165D01*
X192877869Y-102497106D01*
X192858577Y-102486515D01*
X192837461Y-102480315D01*
X192828550Y-102470031D01*
X192816621Y-102463483D01*
X192806116Y-102444141D01*
X192791706Y-102427511D01*
X192788112Y-102410991D01*
X192783275Y-102402085D01*
X192784009Y-102392131D01*
X192780500Y-102376000D01*
X192780500Y-102265317D01*
X192780499Y-102265302D01*
X192777643Y-102229008D01*
X192777642Y-102229002D01*
X192732495Y-102073608D01*
X192729395Y-102066443D01*
X192732500Y-102065099D01*
X192719113Y-102012275D01*
X192736293Y-101953789D01*
X192752494Y-101926395D01*
X192752553Y-101926194D01*
X192797642Y-101770997D01*
X192797643Y-101770991D01*
X192800499Y-101734697D01*
X192800500Y-101734690D01*
X192800500Y-101624000D01*
X192820185Y-101556961D01*
X192872989Y-101511206D01*
X192924500Y-101500000D01*
X193106000Y-101500000D01*
X193173039Y-101519685D01*
G37*
%TD.AperFunction*%
%TA.AperFunction,Conductor*%
G36*
X191411401Y-104870185D02*
G01*
X191457156Y-104922989D01*
X191467100Y-104992147D01*
X191450478Y-105038651D01*
X191406981Y-105110601D01*
X191406980Y-105110603D01*
X191356409Y-105272893D01*
X191350000Y-105343427D01*
X191350000Y-105400000D01*
X192126000Y-105400000D01*
X192193039Y-105419685D01*
X192238794Y-105472489D01*
X192250000Y-105524000D01*
X192250000Y-105776000D01*
X192230315Y-105843039D01*
X192177511Y-105888794D01*
X192126000Y-105900000D01*
X191400597Y-105900000D01*
X191333558Y-105880315D01*
X191312916Y-105863681D01*
X190557590Y-105108355D01*
X190557588Y-105108352D01*
X190511417Y-105062181D01*
X190477932Y-105000858D01*
X190482916Y-104931166D01*
X190524788Y-104875233D01*
X190590252Y-104850816D01*
X190599098Y-104850500D01*
X191344362Y-104850500D01*
X191411401Y-104870185D01*
G37*
%TD.AperFunction*%
%TA.AperFunction,Conductor*%
G36*
X199548347Y-99105501D02*
G01*
X199722185Y-99105501D01*
X199722185Y-99107687D01*
X199779896Y-99116684D01*
X199814733Y-99141179D01*
X200370591Y-99697037D01*
X200307007Y-99714075D01*
X200192993Y-99779901D01*
X200099901Y-99872993D01*
X200034075Y-99987007D01*
X200017037Y-100050591D01*
X199384728Y-99418282D01*
X199384727Y-99418282D01*
X199345380Y-99472439D01*
X199248904Y-99661782D01*
X199183242Y-99863869D01*
X199183242Y-99863872D01*
X199150000Y-100073753D01*
X199150000Y-100286246D01*
X199183242Y-100496127D01*
X199183242Y-100496130D01*
X199248904Y-100698217D01*
X199295265Y-100789205D01*
X199308161Y-100857874D01*
X199281885Y-100922615D01*
X199224778Y-100962872D01*
X199184780Y-100969500D01*
X194953962Y-100969500D01*
X194886923Y-100949815D01*
X194866281Y-100933181D01*
X194620270Y-100687169D01*
X194586785Y-100625846D01*
X194591769Y-100556154D01*
X194618121Y-100515152D01*
X194617928Y-100514993D01*
X194619293Y-100513329D01*
X194620273Y-100511804D01*
X194621789Y-100510289D01*
X194709394Y-100379179D01*
X194769737Y-100233497D01*
X194800500Y-100078842D01*
X194800500Y-99921158D01*
X194800500Y-99921155D01*
X194800499Y-99921153D01*
X194781629Y-99826287D01*
X194769737Y-99766503D01*
X194761868Y-99747506D01*
X194709397Y-99620827D01*
X194709390Y-99620814D01*
X194621789Y-99489711D01*
X194621786Y-99489707D01*
X194510292Y-99378213D01*
X194510288Y-99378210D01*
X194442031Y-99332602D01*
X194397226Y-99278990D01*
X194388519Y-99209665D01*
X194418673Y-99146637D01*
X194478117Y-99109918D01*
X194510922Y-99105500D01*
X199548331Y-99105500D01*
X199548347Y-99105501D01*
G37*
%TD.AperFunction*%
%TA.AperFunction,Conductor*%
G36*
X187953039Y-99289685D02*
G01*
X187998794Y-99342489D01*
X188010000Y-99394000D01*
X188010000Y-99575500D01*
X187990315Y-99642539D01*
X187937511Y-99688294D01*
X187886000Y-99699500D01*
X187775302Y-99699500D01*
X187739008Y-99702356D01*
X187739002Y-99702357D01*
X187583608Y-99747504D01*
X187583600Y-99747507D01*
X187574767Y-99752732D01*
X187511646Y-99770000D01*
X187498354Y-99770000D01*
X187435233Y-99752732D01*
X187426399Y-99747507D01*
X187426391Y-99747504D01*
X187270997Y-99702357D01*
X187270991Y-99702356D01*
X187234697Y-99699500D01*
X187234690Y-99699500D01*
X187124000Y-99699500D01*
X187056961Y-99679815D01*
X187011206Y-99627011D01*
X187000000Y-99575500D01*
X187000000Y-99394000D01*
X187019685Y-99326961D01*
X187072489Y-99281206D01*
X187124000Y-99270000D01*
X187886000Y-99270000D01*
X187953039Y-99289685D01*
G37*
%TD.AperFunction*%
%TD*%
M02*
