%TF.GenerationSoftware,KiCad,Pcbnew,10.0.5*%
%TF.CreationDate,2026-09-25T22:31:14+05:30*%
%TF.ProjectId,esp32-devboard,65737033-322d-4646-9576-626f6172642e,rev?*%
%TF.SameCoordinates,Original*%
%TF.FileFunction,Soldermask,Bot*%
%TF.FilePolarity,Negative*%
%FSLAX46Y46*%
G04 Gerber Fmt 4.6, Leading zero omitted, Abs format (unit mm)*
G04 Created by KiCad (PCBNEW 10.0.5) date 2026-09-25 22:31:14*
%MOMM*%
%LPD*%
G01*
G04 APERTURE LIST*
%ADD10O,1.000000X1.600000*%
%ADD11O,1.000000X2.100000*%
%ADD12C,0.650000*%
%ADD13C,2.000000*%
%ADD14R,1.700000X1.700000*%
%ADD15C,1.700000*%
G04 APERTURE END LIST*
D10*
%TO.C,J1*%
X189820000Y-127050000D03*
D11*
X189820000Y-122870000D03*
D10*
X181180000Y-127050000D03*
D11*
X181180000Y-122870000D03*
D12*
X188390000Y-123400000D03*
X182610000Y-123400000D03*
%TD*%
D13*
%TO.C,SW1*%
X185000000Y-98000000D03*
X178500000Y-98000000D03*
X185000000Y-93500000D03*
X178500000Y-93500000D03*
%TD*%
D14*
%TO.C,J2*%
X170500000Y-92100000D03*
D15*
X170500000Y-94640000D03*
X170500000Y-97180000D03*
X170500000Y-99720000D03*
X170500000Y-102260000D03*
X170500000Y-104800000D03*
X170500000Y-107340000D03*
X170500000Y-109880000D03*
X170500000Y-112420000D03*
X170500000Y-114960000D03*
X170500000Y-117500000D03*
X170500000Y-120040000D03*
X170500000Y-122580000D03*
X170500000Y-125120000D03*
X170500000Y-127660000D03*
%TD*%
D14*
%TO.C,J3*%
X200500000Y-92560000D03*
D15*
X200500000Y-95100000D03*
X200500000Y-97640000D03*
X200500000Y-100180000D03*
X200500000Y-102720000D03*
X200500000Y-105260000D03*
X200500000Y-107800000D03*
X200500000Y-110340000D03*
X200500000Y-112880000D03*
X200500000Y-115420000D03*
X200500000Y-117960000D03*
X200500000Y-120500000D03*
X200500000Y-123040000D03*
X200500000Y-125580000D03*
X200500000Y-128120000D03*
%TD*%
M02*
