%TF.GenerationSoftware,KiCad,Pcbnew,10.0.5*%
%TF.CreationDate,2026-09-25T22:31:14+05:30*%
%TF.ProjectId,esp32-devboard,65737033-322d-4646-9576-626f6172642e,rev?*%
%TF.SameCoordinates,Original*%
%TF.FileFunction,Copper,L2,Inr*%
%TF.FilePolarity,Positive*%
%FSLAX46Y46*%
G04 Gerber Fmt 4.6, Leading zero omitted, Abs format (unit mm)*
G04 Created by KiCad (PCBNEW 10.0.5) date 2026-09-25 22:31:14*
%MOMM*%
%LPD*%
G01*
G04 APERTURE LIST*
%TA.AperFunction,ComponentPad*%
%ADD10O,1.000000X1.600000*%
%TD*%
%TA.AperFunction,ComponentPad*%
%ADD11O,1.000000X2.100000*%
%TD*%
%TA.AperFunction,ComponentPad*%
%ADD12C,2.000000*%
%TD*%
%TA.AperFunction,ComponentPad*%
%ADD13R,1.700000X1.700000*%
%TD*%
%TA.AperFunction,ComponentPad*%
%ADD14C,1.700000*%
%TD*%
%TA.AperFunction,ComponentPad*%
%ADD15R,0.900000X0.500000*%
%TD*%
%TA.AperFunction,ViaPad*%
%ADD16C,0.600000*%
%TD*%
G04 APERTURE END LIST*
D10*
%TO.N,GND*%
%TO.C,J1*%
X189820000Y-127050000D03*
D11*
X189820000Y-122870000D03*
D10*
X181180000Y-127050000D03*
D11*
X181180000Y-122870000D03*
%TD*%
D12*
%TO.N,/IO0*%
%TO.C,SW1*%
X185000000Y-98000000D03*
X178500000Y-98000000D03*
%TO.N,GND*%
X185000000Y-93500000D03*
X178500000Y-93500000D03*
%TD*%
D13*
%TO.N,GND*%
%TO.C,J2*%
X170500000Y-92100000D03*
D14*
%TO.N,/SWCLK*%
X170500000Y-94640000D03*
%TO.N,/SWDIO*%
X170500000Y-97180000D03*
%TO.N,/GPIO5*%
X170500000Y-99720000D03*
%TO.N,/GPIO7*%
X170500000Y-102260000D03*
%TO.N,/GPIO10*%
X170500000Y-104800000D03*
%TO.N,/GPIO11*%
X170500000Y-107340000D03*
%TO.N,/GPIO12*%
X170500000Y-109880000D03*
%TO.N,/GPIO13*%
X170500000Y-112420000D03*
%TO.N,/GPIO14*%
X170500000Y-114960000D03*
%TO.N,/GPIO15*%
X170500000Y-117500000D03*
%TO.N,/GPIO16*%
X170500000Y-120040000D03*
%TO.N,GND*%
X170500000Y-122580000D03*
X170500000Y-125120000D03*
X170500000Y-127660000D03*
%TD*%
D15*
%TO.N,GND*%
%TO.C,AE2*%
X193150000Y-89625000D03*
%TD*%
D13*
%TO.N,VBUS*%
%TO.C,J3*%
X200500000Y-92560000D03*
D14*
%TO.N,+3V3*%
X200500000Y-95100000D03*
X200500000Y-97640000D03*
%TO.N,GND*%
X200500000Y-100180000D03*
%TO.N,/GPIO33*%
X200500000Y-102720000D03*
%TO.N,/GPIO34*%
X200500000Y-105260000D03*
%TO.N,/GPIO35*%
X200500000Y-107800000D03*
%TO.N,/GPIO36*%
X200500000Y-110340000D03*
%TO.N,/GPIO37*%
X200500000Y-112880000D03*
%TO.N,/GPIO38*%
X200500000Y-115420000D03*
%TO.N,/TX*%
X200500000Y-117960000D03*
%TO.N,/RX*%
X200500000Y-120500000D03*
%TO.N,/GPIO45*%
X200500000Y-123040000D03*
%TO.N,/GPIO46*%
X200500000Y-125580000D03*
%TO.N,GND*%
X200500000Y-128120000D03*
%TD*%
D16*
%TO.N,/IO0*%
X188820000Y-98500000D03*
X190020000Y-98500000D03*
%TO.N,GND*%
X194000000Y-102500000D03*
X183000000Y-118000000D03*
X182000000Y-120500000D03*
X191325735Y-103325735D03*
X189000000Y-115500000D03*
X188820000Y-99500000D03*
X178000000Y-110500000D03*
X174801914Y-110572892D03*
X186000000Y-117000000D03*
X186000000Y-117000000D03*
X177825735Y-105325735D03*
X185000000Y-105500000D03*
%TO.N,VBUS*%
X198000000Y-97500000D03*
X192000000Y-116000000D03*
%TO.N,+3V3*%
X190000000Y-103100000D03*
X193500000Y-97500000D03*
X186518197Y-103102808D03*
X189659771Y-104870000D03*
X185000000Y-110500000D03*
%TO.N,/GPIO14*%
X173000000Y-111000000D03*
X182764994Y-104048867D03*
%TO.N,Net-(U1-GPIO20{slash}USB_D+)*%
X180900735Y-108400735D03*
X185740000Y-118108527D03*
%TO.N,/SWPUD*%
X175500000Y-99900000D03*
X176000000Y-102120000D03*
%TO.N,/SWPUC*%
X174000000Y-94000000D03*
X183000000Y-101100000D03*
%TO.N,/CHIP_PU*%
X192917668Y-100682332D03*
X194000000Y-100000000D03*
%TO.N,Net-(U1-GPIO19{slash}USB_D-)*%
X180500000Y-107500000D03*
X184500000Y-117400000D03*
%TO.N,/GPIO33*%
X191500000Y-110500000D03*
X187000000Y-113000000D03*
%TO.N,/GPIO34*%
X188000000Y-113000000D03*
X191500000Y-111500000D03*
%TO.N,/GPIO35*%
X193000000Y-112500000D03*
X189000000Y-113000000D03*
%TO.N,/GPIO36*%
X193500000Y-113500000D03*
X190500000Y-113500000D03*
%TO.N,/GPIO37*%
X192480735Y-114519265D03*
X194500000Y-114500000D03*
%TO.N,/TX*%
X194435735Y-107935735D03*
X198000000Y-116020000D03*
%TO.N,/RX*%
X197000000Y-116020000D03*
X193500000Y-107335735D03*
%TO.N,/GPIO45*%
X195500000Y-116500000D03*
X191500000Y-106900000D03*
%TO.N,/GPIO46*%
X191000000Y-102500000D03*
X187988753Y-103491010D03*
%TD*%
%TA.AperFunction,Conductor*%
%TO.N,GND*%
G36*
X205192539Y-89519685D02*
G01*
X205238294Y-89572489D01*
X205249500Y-89624000D01*
X205249500Y-128496948D01*
X205249351Y-128503033D01*
X205231743Y-128861432D01*
X205230550Y-128873542D01*
X205178347Y-129225467D01*
X205175973Y-129237401D01*
X205089527Y-129582514D01*
X205085994Y-129594160D01*
X204966139Y-129929130D01*
X204961483Y-129940371D01*
X204809366Y-130261999D01*
X204803629Y-130272732D01*
X204620726Y-130577885D01*
X204613966Y-130588002D01*
X204402032Y-130873764D01*
X204394312Y-130883171D01*
X204155388Y-131146783D01*
X204146783Y-131155388D01*
X203883171Y-131394312D01*
X203873764Y-131402032D01*
X203588002Y-131613966D01*
X203577885Y-131620726D01*
X203272732Y-131803629D01*
X203261999Y-131809366D01*
X202940371Y-131961483D01*
X202929130Y-131966139D01*
X202594160Y-132085994D01*
X202582514Y-132089527D01*
X202237401Y-132175973D01*
X202225467Y-132178347D01*
X201873542Y-132230550D01*
X201861432Y-132231743D01*
X201523927Y-132248324D01*
X201503031Y-132249351D01*
X201496949Y-132249500D01*
X195732084Y-132249500D01*
X195728906Y-132249459D01*
X191371322Y-132137726D01*
X191304809Y-132116330D01*
X191260422Y-132062370D01*
X191250500Y-132013767D01*
X191250500Y-130401578D01*
X191219709Y-130207173D01*
X191158882Y-130019970D01*
X191111743Y-129927455D01*
X191069524Y-129844595D01*
X190953828Y-129685354D01*
X190814646Y-129546172D01*
X190655405Y-129430476D01*
X190480029Y-129341117D01*
X190371771Y-129305942D01*
X190292826Y-129280290D01*
X190098421Y-129249500D01*
X190098416Y-129249500D01*
X190049828Y-129249500D01*
X181044170Y-129249500D01*
X181000000Y-129249500D01*
X180901584Y-129249500D01*
X180901579Y-129249500D01*
X180707173Y-129280290D01*
X180519970Y-129341117D01*
X180344594Y-129430476D01*
X180253741Y-129496485D01*
X180185354Y-129546172D01*
X180185352Y-129546174D01*
X180185351Y-129546174D01*
X180046174Y-129685351D01*
X180046174Y-129685352D01*
X180046172Y-129685354D01*
X179998840Y-129750500D01*
X179930476Y-129844594D01*
X179841117Y-130019970D01*
X179780290Y-130207173D01*
X179749500Y-130401578D01*
X179749500Y-131712509D01*
X179729815Y-131779548D01*
X179677011Y-131825303D01*
X179622322Y-131836468D01*
X167324683Y-131521145D01*
X167258170Y-131499749D01*
X167253994Y-131496784D01*
X167126230Y-131402028D01*
X167116824Y-131394308D01*
X166922650Y-131218319D01*
X166853209Y-131155381D01*
X166844618Y-131146790D01*
X166605691Y-130883175D01*
X166597971Y-130873769D01*
X166504774Y-130748107D01*
X166480650Y-130682534D01*
X166480410Y-130677259D01*
X165750535Y-100022479D01*
X165750500Y-100019527D01*
X165750500Y-94533713D01*
X169149500Y-94533713D01*
X169149500Y-94746286D01*
X169182753Y-94956239D01*
X169248444Y-95158414D01*
X169344951Y-95347820D01*
X169469890Y-95519786D01*
X169620213Y-95670109D01*
X169792182Y-95795050D01*
X169800946Y-95799516D01*
X169851742Y-95847491D01*
X169868536Y-95915312D01*
X169845998Y-95981447D01*
X169800946Y-96020484D01*
X169792182Y-96024949D01*
X169620213Y-96149890D01*
X169469890Y-96300213D01*
X169344951Y-96472179D01*
X169248444Y-96661585D01*
X169182753Y-96863760D01*
X169149500Y-97073713D01*
X169149500Y-97286286D01*
X169175967Y-97453396D01*
X169182754Y-97496243D01*
X169232268Y-97648632D01*
X169248444Y-97698414D01*
X169344951Y-97887820D01*
X169469890Y-98059786D01*
X169620213Y-98210109D01*
X169792182Y-98335050D01*
X169800946Y-98339516D01*
X169851742Y-98387491D01*
X169868536Y-98455312D01*
X169845998Y-98521447D01*
X169800946Y-98560484D01*
X169792182Y-98564949D01*
X169620213Y-98689890D01*
X169469890Y-98840213D01*
X169344951Y-99012179D01*
X169248444Y-99201585D01*
X169182753Y-99403760D01*
X169169140Y-99489711D01*
X169149500Y-99613713D01*
X169149500Y-99826287D01*
X169155453Y-99863872D01*
X169174955Y-99987007D01*
X169182754Y-100036243D01*
X169246847Y-100233501D01*
X169248444Y-100238414D01*
X169344951Y-100427820D01*
X169469890Y-100599786D01*
X169620213Y-100750109D01*
X169792182Y-100875050D01*
X169800946Y-100879516D01*
X169851742Y-100927491D01*
X169868536Y-100995312D01*
X169845998Y-101061447D01*
X169800946Y-101100484D01*
X169792182Y-101104949D01*
X169620213Y-101229890D01*
X169469890Y-101380213D01*
X169344951Y-101552179D01*
X169248444Y-101741585D01*
X169182753Y-101943760D01*
X169154711Y-102120814D01*
X169149500Y-102153713D01*
X169149500Y-102366287D01*
X169182754Y-102576243D01*
X169236543Y-102741789D01*
X169248444Y-102778414D01*
X169344951Y-102967820D01*
X169469890Y-103139786D01*
X169620213Y-103290109D01*
X169792182Y-103415050D01*
X169800946Y-103419516D01*
X169851742Y-103467491D01*
X169868536Y-103535312D01*
X169845998Y-103601447D01*
X169800946Y-103640484D01*
X169792182Y-103644949D01*
X169620213Y-103769890D01*
X169469890Y-103920213D01*
X169344951Y-104092179D01*
X169248444Y-104281585D01*
X169182753Y-104483760D01*
X169181636Y-104490814D01*
X169149500Y-104693713D01*
X169149500Y-104906287D01*
X169182754Y-105116243D01*
X169225945Y-105249172D01*
X169248444Y-105318414D01*
X169344951Y-105507820D01*
X169469890Y-105679786D01*
X169620213Y-105830109D01*
X169792182Y-105955050D01*
X169800946Y-105959516D01*
X169851742Y-106007491D01*
X169868536Y-106075312D01*
X169845998Y-106141447D01*
X169800946Y-106180484D01*
X169792182Y-106184949D01*
X169620213Y-106309890D01*
X169469890Y-106460213D01*
X169344951Y-106632179D01*
X169248444Y-106821585D01*
X169182753Y-107023760D01*
X169165374Y-107133489D01*
X169149500Y-107233713D01*
X169149500Y-107446287D01*
X169182754Y-107656243D01*
X169247949Y-107856893D01*
X169248444Y-107858414D01*
X169344951Y-108047820D01*
X169469890Y-108219786D01*
X169620213Y-108370109D01*
X169792182Y-108495050D01*
X169800946Y-108499516D01*
X169851742Y-108547491D01*
X169868536Y-108615312D01*
X169845998Y-108681447D01*
X169800946Y-108720484D01*
X169792182Y-108724949D01*
X169620213Y-108849890D01*
X169469890Y-109000213D01*
X169344951Y-109172179D01*
X169248444Y-109361585D01*
X169182753Y-109563760D01*
X169171917Y-109632179D01*
X169149500Y-109773713D01*
X169149500Y-109986287D01*
X169182754Y-110196243D01*
X169241879Y-110378211D01*
X169248444Y-110398414D01*
X169344951Y-110587820D01*
X169469890Y-110759786D01*
X169620213Y-110910109D01*
X169792182Y-111035050D01*
X169800946Y-111039516D01*
X169851742Y-111087491D01*
X169868536Y-111155312D01*
X169845998Y-111221447D01*
X169800946Y-111260484D01*
X169792182Y-111264949D01*
X169620213Y-111389890D01*
X169469890Y-111540213D01*
X169344951Y-111712179D01*
X169248444Y-111901585D01*
X169182753Y-112103760D01*
X169149500Y-112313713D01*
X169149500Y-112526286D01*
X169182753Y-112736239D01*
X169182753Y-112736241D01*
X169182754Y-112736243D01*
X169242835Y-112921153D01*
X169248444Y-112938414D01*
X169344951Y-113127820D01*
X169469890Y-113299786D01*
X169620213Y-113450109D01*
X169792182Y-113575050D01*
X169800946Y-113579516D01*
X169851742Y-113627491D01*
X169868536Y-113695312D01*
X169845998Y-113761447D01*
X169800946Y-113800484D01*
X169792182Y-113804949D01*
X169620213Y-113929890D01*
X169469890Y-114080213D01*
X169344951Y-114252179D01*
X169248444Y-114441585D01*
X169182753Y-114643760D01*
X169149500Y-114853713D01*
X169149500Y-115066286D01*
X169181723Y-115269738D01*
X169182754Y-115276243D01*
X169232255Y-115428592D01*
X169248444Y-115478414D01*
X169344951Y-115667820D01*
X169469890Y-115839786D01*
X169620213Y-115990109D01*
X169792182Y-116115050D01*
X169800946Y-116119516D01*
X169851742Y-116167491D01*
X169868536Y-116235312D01*
X169845998Y-116301447D01*
X169800946Y-116340484D01*
X169792182Y-116344949D01*
X169620213Y-116469890D01*
X169469890Y-116620213D01*
X169344951Y-116792179D01*
X169248444Y-116981585D01*
X169182753Y-117183760D01*
X169149500Y-117393713D01*
X169149500Y-117606286D01*
X169176884Y-117779185D01*
X169182754Y-117816243D01*
X169213311Y-117910288D01*
X169248444Y-118018414D01*
X169344951Y-118207820D01*
X169469890Y-118379786D01*
X169620213Y-118530109D01*
X169792182Y-118655050D01*
X169800946Y-118659516D01*
X169851742Y-118707491D01*
X169868536Y-118775312D01*
X169845998Y-118841447D01*
X169800946Y-118880484D01*
X169792182Y-118884949D01*
X169620213Y-119009890D01*
X169469890Y-119160213D01*
X169344951Y-119332179D01*
X169248444Y-119521585D01*
X169182753Y-119723760D01*
X169149500Y-119933713D01*
X169149500Y-120146286D01*
X169182753Y-120356239D01*
X169248444Y-120558414D01*
X169344951Y-120747820D01*
X169469890Y-120919786D01*
X169620213Y-121070109D01*
X169792179Y-121195048D01*
X169792181Y-121195049D01*
X169792184Y-121195051D01*
X169801493Y-121199794D01*
X169852290Y-121247766D01*
X169869087Y-121315587D01*
X169846552Y-121381722D01*
X169801505Y-121420760D01*
X169792446Y-121425376D01*
X169792440Y-121425380D01*
X169738282Y-121464727D01*
X169738282Y-121464728D01*
X170370591Y-122097037D01*
X170307007Y-122114075D01*
X170192993Y-122179901D01*
X170099901Y-122272993D01*
X170034075Y-122387007D01*
X170017037Y-122450591D01*
X169384728Y-121818282D01*
X169384727Y-121818282D01*
X169345380Y-121872439D01*
X169248904Y-122061782D01*
X169183242Y-122263869D01*
X169183242Y-122263872D01*
X169150000Y-122473753D01*
X169150000Y-122686246D01*
X169183242Y-122896127D01*
X169183242Y-122896130D01*
X169248904Y-123098217D01*
X169345375Y-123287550D01*
X169384728Y-123341716D01*
X170017037Y-122709408D01*
X170034075Y-122772993D01*
X170099901Y-122887007D01*
X170192993Y-122980099D01*
X170307007Y-123045925D01*
X170370591Y-123062962D01*
X169769971Y-123663581D01*
X169848711Y-123780895D01*
X169849920Y-123784729D01*
X169852844Y-123787491D01*
X169860343Y-123817778D01*
X169869727Y-123847529D01*
X169868671Y-123851408D01*
X169869638Y-123855312D01*
X169859573Y-123884844D01*
X169851383Y-123914947D01*
X169848397Y-123917640D01*
X169847100Y-123921447D01*
X169802051Y-123960483D01*
X169792440Y-123965380D01*
X169738282Y-124004727D01*
X169738282Y-124004728D01*
X170370591Y-124637037D01*
X170307007Y-124654075D01*
X170192993Y-124719901D01*
X170099901Y-124812993D01*
X170034075Y-124927007D01*
X170017037Y-124990591D01*
X169384728Y-124358282D01*
X169384727Y-124358282D01*
X169345380Y-124412439D01*
X169248904Y-124601782D01*
X169183242Y-124803869D01*
X169183242Y-124803872D01*
X169150000Y-125013753D01*
X169150000Y-125226246D01*
X169183242Y-125436127D01*
X169183242Y-125436130D01*
X169248904Y-125638217D01*
X169345375Y-125827550D01*
X169384728Y-125881716D01*
X170017037Y-125249408D01*
X170034075Y-125312993D01*
X170099901Y-125427007D01*
X170192993Y-125520099D01*
X170307007Y-125585925D01*
X170370591Y-125602962D01*
X169769971Y-126203581D01*
X169848711Y-126320895D01*
X169849920Y-126324729D01*
X169852844Y-126327491D01*
X169860343Y-126357778D01*
X169869727Y-126387529D01*
X169868671Y-126391408D01*
X169869638Y-126395312D01*
X169859573Y-126424844D01*
X169851383Y-126454947D01*
X169848397Y-126457640D01*
X169847100Y-126461447D01*
X169802051Y-126500483D01*
X169792440Y-126505380D01*
X169738282Y-126544727D01*
X169738282Y-126544728D01*
X170370591Y-127177037D01*
X170307007Y-127194075D01*
X170192993Y-127259901D01*
X170099901Y-127352993D01*
X170034075Y-127467007D01*
X170017037Y-127530591D01*
X169384728Y-126898282D01*
X169384727Y-126898282D01*
X169345380Y-126952439D01*
X169248904Y-127141782D01*
X169183242Y-127343869D01*
X169183242Y-127343872D01*
X169150000Y-127553753D01*
X169150000Y-127766246D01*
X169183242Y-127976127D01*
X169183242Y-127976130D01*
X169248904Y-128178217D01*
X169345375Y-128367550D01*
X169384728Y-128421716D01*
X170017037Y-127789408D01*
X170034075Y-127852993D01*
X170099901Y-127967007D01*
X170192993Y-128060099D01*
X170307007Y-128125925D01*
X170370590Y-128142962D01*
X169738282Y-128775269D01*
X169738282Y-128775270D01*
X169792449Y-128814624D01*
X169981782Y-128911095D01*
X170183870Y-128976757D01*
X170393754Y-129010000D01*
X170606246Y-129010000D01*
X170816127Y-128976757D01*
X170816130Y-128976757D01*
X171018217Y-128911095D01*
X171207554Y-128814622D01*
X171261716Y-128775270D01*
X171261717Y-128775270D01*
X170629408Y-128142962D01*
X170692993Y-128125925D01*
X170807007Y-128060099D01*
X170900099Y-127967007D01*
X170965925Y-127852993D01*
X170982962Y-127789408D01*
X171615270Y-128421717D01*
X171615270Y-128421716D01*
X171654622Y-128367554D01*
X171751095Y-128178217D01*
X171816757Y-127976130D01*
X171816757Y-127976127D01*
X171850000Y-127766246D01*
X171850000Y-127553753D01*
X171816757Y-127343872D01*
X171816757Y-127343869D01*
X171798265Y-127286956D01*
X171751095Y-127141782D01*
X171654624Y-126952449D01*
X171615270Y-126898282D01*
X171615269Y-126898282D01*
X170982962Y-127530590D01*
X170965925Y-127467007D01*
X170900099Y-127352993D01*
X170807007Y-127259901D01*
X170692993Y-127194075D01*
X170629409Y-127177037D01*
X171154941Y-126651504D01*
X180180000Y-126651504D01*
X180180000Y-126800000D01*
X180880000Y-126800000D01*
X180880000Y-127300000D01*
X180180000Y-127300000D01*
X180180000Y-127448495D01*
X180218427Y-127641681D01*
X180218430Y-127641693D01*
X180293807Y-127823671D01*
X180293814Y-127823684D01*
X180403248Y-127987462D01*
X180403251Y-127987466D01*
X180542533Y-128126748D01*
X180542537Y-128126751D01*
X180706315Y-128236185D01*
X180706328Y-128236192D01*
X180888308Y-128311569D01*
X180930000Y-128319862D01*
X180930000Y-127516988D01*
X180939940Y-127534205D01*
X180995795Y-127590060D01*
X181064204Y-127629556D01*
X181140504Y-127650000D01*
X181219496Y-127650000D01*
X181295796Y-127629556D01*
X181364205Y-127590060D01*
X181420060Y-127534205D01*
X181430000Y-127516988D01*
X181430000Y-128319862D01*
X181471690Y-128311569D01*
X181471692Y-128311569D01*
X181653671Y-128236192D01*
X181653684Y-128236185D01*
X181817462Y-128126751D01*
X181817466Y-128126748D01*
X181956748Y-127987466D01*
X181956751Y-127987462D01*
X182066185Y-127823684D01*
X182066192Y-127823671D01*
X182141569Y-127641693D01*
X182141572Y-127641681D01*
X182179999Y-127448495D01*
X182180000Y-127448492D01*
X182180000Y-127300000D01*
X181480000Y-127300000D01*
X181480000Y-126800000D01*
X182180000Y-126800000D01*
X182180000Y-126651508D01*
X182179999Y-126651504D01*
X188820000Y-126651504D01*
X188820000Y-126800000D01*
X189520000Y-126800000D01*
X189520000Y-127300000D01*
X188820000Y-127300000D01*
X188820000Y-127448495D01*
X188858427Y-127641681D01*
X188858430Y-127641693D01*
X188933807Y-127823671D01*
X188933814Y-127823684D01*
X189043248Y-127987462D01*
X189043251Y-127987466D01*
X189182533Y-128126748D01*
X189182537Y-128126751D01*
X189346315Y-128236185D01*
X189346328Y-128236192D01*
X189528308Y-128311569D01*
X189570000Y-128319862D01*
X189570000Y-127516988D01*
X189579940Y-127534205D01*
X189635795Y-127590060D01*
X189704204Y-127629556D01*
X189780504Y-127650000D01*
X189859496Y-127650000D01*
X189935796Y-127629556D01*
X190004205Y-127590060D01*
X190060060Y-127534205D01*
X190070000Y-127516988D01*
X190070000Y-128319862D01*
X190111690Y-128311569D01*
X190111692Y-128311569D01*
X190293671Y-128236192D01*
X190293684Y-128236185D01*
X190457462Y-128126751D01*
X190457466Y-128126748D01*
X190596748Y-127987466D01*
X190596751Y-127987462D01*
X190628472Y-127939990D01*
X190706185Y-127823684D01*
X190706192Y-127823671D01*
X190781569Y-127641693D01*
X190781572Y-127641681D01*
X190819999Y-127448495D01*
X190820000Y-127448492D01*
X190820000Y-127300000D01*
X190120000Y-127300000D01*
X190120000Y-126800000D01*
X190820000Y-126800000D01*
X190820000Y-126651508D01*
X190819999Y-126651504D01*
X190781572Y-126458318D01*
X190781569Y-126458306D01*
X190706192Y-126276328D01*
X190706185Y-126276315D01*
X190596751Y-126112537D01*
X190596748Y-126112533D01*
X190457466Y-125973251D01*
X190457462Y-125973248D01*
X190293684Y-125863814D01*
X190293671Y-125863807D01*
X190111691Y-125788429D01*
X190111683Y-125788427D01*
X190070000Y-125780135D01*
X190070000Y-126583011D01*
X190060060Y-126565795D01*
X190004205Y-126509940D01*
X189935796Y-126470444D01*
X189859496Y-126450000D01*
X189780504Y-126450000D01*
X189704204Y-126470444D01*
X189635795Y-126509940D01*
X189579940Y-126565795D01*
X189570000Y-126583011D01*
X189570000Y-125780136D01*
X189569999Y-125780135D01*
X189528316Y-125788427D01*
X189528308Y-125788429D01*
X189346328Y-125863807D01*
X189346315Y-125863814D01*
X189182537Y-125973248D01*
X189182533Y-125973251D01*
X189043251Y-126112533D01*
X189043248Y-126112537D01*
X188933814Y-126276315D01*
X188933807Y-126276328D01*
X188858430Y-126458306D01*
X188858427Y-126458318D01*
X188820000Y-126651504D01*
X182179999Y-126651504D01*
X182141572Y-126458318D01*
X182141569Y-126458306D01*
X182066192Y-126276328D01*
X182066185Y-126276315D01*
X181956751Y-126112537D01*
X181956748Y-126112533D01*
X181817466Y-125973251D01*
X181817462Y-125973248D01*
X181653684Y-125863814D01*
X181653671Y-125863807D01*
X181471691Y-125788429D01*
X181471683Y-125788427D01*
X181430000Y-125780135D01*
X181430000Y-126583011D01*
X181420060Y-126565795D01*
X181364205Y-126509940D01*
X181295796Y-126470444D01*
X181219496Y-126450000D01*
X181140504Y-126450000D01*
X181064204Y-126470444D01*
X180995795Y-126509940D01*
X180939940Y-126565795D01*
X180930000Y-126583011D01*
X180930000Y-125780136D01*
X180929999Y-125780135D01*
X180888316Y-125788427D01*
X180888308Y-125788429D01*
X180706328Y-125863807D01*
X180706315Y-125863814D01*
X180542537Y-125973248D01*
X180542533Y-125973251D01*
X180403251Y-126112533D01*
X180403248Y-126112537D01*
X180293814Y-126276315D01*
X180293807Y-126276328D01*
X180218430Y-126458306D01*
X180218427Y-126458318D01*
X180180000Y-126651504D01*
X171154941Y-126651504D01*
X171248709Y-126557736D01*
X171261716Y-126544728D01*
X171207550Y-126505375D01*
X171197954Y-126500486D01*
X171147157Y-126452512D01*
X171130361Y-126384692D01*
X171152897Y-126318556D01*
X171197954Y-126279514D01*
X171207554Y-126274622D01*
X171261716Y-126235270D01*
X171261717Y-126235270D01*
X170629408Y-125602962D01*
X170692993Y-125585925D01*
X170807007Y-125520099D01*
X170900099Y-125427007D01*
X170965925Y-125312993D01*
X170982962Y-125249408D01*
X171615270Y-125881717D01*
X171615270Y-125881716D01*
X171654622Y-125827554D01*
X171751095Y-125638217D01*
X171816757Y-125436130D01*
X171816757Y-125436127D01*
X171850000Y-125226246D01*
X171850000Y-125013753D01*
X171816757Y-124803872D01*
X171816757Y-124803869D01*
X171751095Y-124601782D01*
X171654624Y-124412449D01*
X171615270Y-124358282D01*
X171615269Y-124358282D01*
X170982962Y-124990590D01*
X170965925Y-124927007D01*
X170900099Y-124812993D01*
X170807007Y-124719901D01*
X170692993Y-124654075D01*
X170629409Y-124637037D01*
X171261716Y-124004728D01*
X171207550Y-123965375D01*
X171197954Y-123960486D01*
X171147157Y-123912512D01*
X171130361Y-123844692D01*
X171152897Y-123778556D01*
X171197954Y-123739514D01*
X171207554Y-123734622D01*
X171261716Y-123695270D01*
X171261717Y-123695270D01*
X170629408Y-123062962D01*
X170692993Y-123045925D01*
X170807007Y-122980099D01*
X170900099Y-122887007D01*
X170965925Y-122772993D01*
X170982962Y-122709408D01*
X171615270Y-123341717D01*
X171615270Y-123341716D01*
X171654622Y-123287554D01*
X171751094Y-123098218D01*
X171773157Y-123030319D01*
X171773157Y-123030318D01*
X171816757Y-122896130D01*
X171816757Y-122896127D01*
X171850000Y-122686246D01*
X171850000Y-122473753D01*
X171816757Y-122263872D01*
X171816756Y-122263866D01*
X171813465Y-122253737D01*
X171813464Y-122253735D01*
X171802992Y-122221504D01*
X180180000Y-122221504D01*
X180180000Y-122620000D01*
X180880000Y-122620000D01*
X180880000Y-123120000D01*
X180180000Y-123120000D01*
X180180000Y-123518495D01*
X180218427Y-123711681D01*
X180218430Y-123711693D01*
X180293807Y-123893671D01*
X180293814Y-123893684D01*
X180403248Y-124057462D01*
X180403251Y-124057466D01*
X180542533Y-124196748D01*
X180542537Y-124196751D01*
X180706315Y-124306185D01*
X180706328Y-124306192D01*
X180888308Y-124381569D01*
X180930000Y-124389862D01*
X180930000Y-123586988D01*
X180939940Y-123604205D01*
X180995795Y-123660060D01*
X181064204Y-123699556D01*
X181140504Y-123720000D01*
X181219496Y-123720000D01*
X181295796Y-123699556D01*
X181364205Y-123660060D01*
X181420060Y-123604205D01*
X181430000Y-123586988D01*
X181430000Y-124389862D01*
X181471690Y-124381569D01*
X181471692Y-124381569D01*
X181653671Y-124306192D01*
X181653684Y-124306185D01*
X181817462Y-124196751D01*
X181817466Y-124196748D01*
X181956748Y-124057466D01*
X181956751Y-124057462D01*
X182066185Y-123893684D01*
X182066189Y-123893677D01*
X182089658Y-123837016D01*
X182133498Y-123782612D01*
X182199792Y-123760546D01*
X182267492Y-123777824D01*
X182291901Y-123796786D01*
X182299616Y-123804501D01*
X182414884Y-123871051D01*
X182543450Y-123905500D01*
X182543452Y-123905500D01*
X182676548Y-123905500D01*
X182676550Y-123905500D01*
X182805116Y-123871051D01*
X182920384Y-123804501D01*
X183014501Y-123710384D01*
X183081051Y-123595116D01*
X183115500Y-123466550D01*
X183115500Y-123333450D01*
X187884500Y-123333450D01*
X187884500Y-123466550D01*
X187909115Y-123558412D01*
X187918949Y-123595115D01*
X187918950Y-123595118D01*
X187941132Y-123633538D01*
X187985499Y-123710384D01*
X188079616Y-123804501D01*
X188194884Y-123871051D01*
X188323450Y-123905500D01*
X188323452Y-123905500D01*
X188456548Y-123905500D01*
X188456550Y-123905500D01*
X188585116Y-123871051D01*
X188700384Y-123804501D01*
X188708097Y-123796787D01*
X188769416Y-123763302D01*
X188839108Y-123768284D01*
X188895043Y-123810153D01*
X188910340Y-123837015D01*
X188933807Y-123893671D01*
X188933814Y-123893684D01*
X189043248Y-124057462D01*
X189043251Y-124057466D01*
X189182533Y-124196748D01*
X189182537Y-124196751D01*
X189346315Y-124306185D01*
X189346328Y-124306192D01*
X189528308Y-124381569D01*
X189570000Y-124389862D01*
X189570000Y-123586988D01*
X189579940Y-123604205D01*
X189635795Y-123660060D01*
X189704204Y-123699556D01*
X189780504Y-123720000D01*
X189859496Y-123720000D01*
X189935796Y-123699556D01*
X190004205Y-123660060D01*
X190060060Y-123604205D01*
X190070000Y-123586988D01*
X190070000Y-124389862D01*
X190111690Y-124381569D01*
X190111692Y-124381569D01*
X190293671Y-124306192D01*
X190293684Y-124306185D01*
X190457462Y-124196751D01*
X190457466Y-124196748D01*
X190596748Y-124057466D01*
X190596751Y-124057462D01*
X190706185Y-123893684D01*
X190706192Y-123893671D01*
X190781569Y-123711693D01*
X190781572Y-123711681D01*
X190819999Y-123518495D01*
X190820000Y-123518492D01*
X190820000Y-123120000D01*
X190120000Y-123120000D01*
X190120000Y-122620000D01*
X190820000Y-122620000D01*
X190820000Y-122221508D01*
X190819999Y-122221504D01*
X190781572Y-122028318D01*
X190781569Y-122028306D01*
X190706192Y-121846328D01*
X190706185Y-121846315D01*
X190596751Y-121682537D01*
X190596748Y-121682533D01*
X190457466Y-121543251D01*
X190457462Y-121543248D01*
X190293684Y-121433814D01*
X190293671Y-121433807D01*
X190111691Y-121358429D01*
X190111683Y-121358427D01*
X190070000Y-121350135D01*
X190070000Y-122153011D01*
X190060060Y-122135795D01*
X190004205Y-122079940D01*
X189935796Y-122040444D01*
X189859496Y-122020000D01*
X189780504Y-122020000D01*
X189704204Y-122040444D01*
X189635795Y-122079940D01*
X189579940Y-122135795D01*
X189570000Y-122153011D01*
X189570000Y-121350136D01*
X189569999Y-121350135D01*
X189528316Y-121358427D01*
X189528308Y-121358429D01*
X189346328Y-121433807D01*
X189346315Y-121433814D01*
X189182537Y-121543248D01*
X189182533Y-121543251D01*
X189043251Y-121682533D01*
X189043248Y-121682537D01*
X188933814Y-121846315D01*
X188933807Y-121846328D01*
X188858430Y-122028306D01*
X188858427Y-122028318D01*
X188820000Y-122221504D01*
X188820000Y-122620000D01*
X189520000Y-122620000D01*
X189520000Y-123120000D01*
X188876247Y-123120000D01*
X188809208Y-123100315D01*
X188788566Y-123083681D01*
X188700386Y-122995501D01*
X188700384Y-122995499D01*
X188623538Y-122951132D01*
X188585118Y-122928950D01*
X188585117Y-122928949D01*
X188585116Y-122928949D01*
X188456550Y-122894500D01*
X188323450Y-122894500D01*
X188194884Y-122928949D01*
X188194881Y-122928950D01*
X188079619Y-122995497D01*
X188079613Y-122995501D01*
X187985501Y-123089613D01*
X187985497Y-123089619D01*
X187918950Y-123204881D01*
X187918949Y-123204884D01*
X187884500Y-123333450D01*
X183115500Y-123333450D01*
X183081051Y-123204884D01*
X183014501Y-123089616D01*
X182920384Y-122995499D01*
X182843538Y-122951132D01*
X182805118Y-122928950D01*
X182805117Y-122928949D01*
X182805116Y-122928949D01*
X182676550Y-122894500D01*
X182543450Y-122894500D01*
X182414884Y-122928949D01*
X182414881Y-122928950D01*
X182299619Y-122995497D01*
X182299613Y-122995501D01*
X182211434Y-123083681D01*
X182150111Y-123117166D01*
X182123753Y-123120000D01*
X181480000Y-123120000D01*
X181480000Y-122620000D01*
X182180000Y-122620000D01*
X182180000Y-122221508D01*
X182179999Y-122221504D01*
X182141572Y-122028318D01*
X182141569Y-122028306D01*
X182066192Y-121846328D01*
X182066185Y-121846315D01*
X181956751Y-121682537D01*
X181956748Y-121682533D01*
X181817466Y-121543251D01*
X181817462Y-121543248D01*
X181653684Y-121433814D01*
X181653671Y-121433807D01*
X181471691Y-121358429D01*
X181471683Y-121358427D01*
X181430000Y-121350135D01*
X181430000Y-122153011D01*
X181420060Y-122135795D01*
X181364205Y-122079940D01*
X181295796Y-122040444D01*
X181219496Y-122020000D01*
X181140504Y-122020000D01*
X181064204Y-122040444D01*
X180995795Y-122079940D01*
X180939940Y-122135795D01*
X180930000Y-122153011D01*
X180930000Y-121350136D01*
X180929999Y-121350135D01*
X180888316Y-121358427D01*
X180888308Y-121358429D01*
X180706328Y-121433807D01*
X180706315Y-121433814D01*
X180542537Y-121543248D01*
X180542533Y-121543251D01*
X180403251Y-121682533D01*
X180403248Y-121682537D01*
X180293814Y-121846315D01*
X180293807Y-121846328D01*
X180218430Y-122028306D01*
X180218427Y-122028318D01*
X180180000Y-122221504D01*
X171802992Y-122221504D01*
X171751095Y-122061782D01*
X171654624Y-121872449D01*
X171615270Y-121818282D01*
X171615269Y-121818282D01*
X170982962Y-122450590D01*
X170965925Y-122387007D01*
X170900099Y-122272993D01*
X170807007Y-122179901D01*
X170692993Y-122114075D01*
X170629409Y-122097037D01*
X171261716Y-121464728D01*
X171207547Y-121425373D01*
X171207547Y-121425372D01*
X171198500Y-121420763D01*
X171147706Y-121372788D01*
X171130912Y-121304966D01*
X171153451Y-121238832D01*
X171198508Y-121199793D01*
X171207816Y-121195051D01*
X171287007Y-121137515D01*
X171379786Y-121070109D01*
X171379788Y-121070106D01*
X171379792Y-121070104D01*
X171530104Y-120919792D01*
X171530106Y-120919788D01*
X171530109Y-120919786D01*
X171655048Y-120747820D01*
X171655047Y-120747820D01*
X171655051Y-120747816D01*
X171751557Y-120558412D01*
X171817246Y-120356243D01*
X171850500Y-120146287D01*
X171850500Y-119933713D01*
X171817246Y-119723757D01*
X171751557Y-119521588D01*
X171655051Y-119332184D01*
X171655049Y-119332181D01*
X171655048Y-119332179D01*
X171530109Y-119160213D01*
X171379786Y-119009890D01*
X171207820Y-118884951D01*
X171207115Y-118884591D01*
X171199054Y-118880485D01*
X171148259Y-118832512D01*
X171131463Y-118764692D01*
X171153999Y-118698556D01*
X171199054Y-118659515D01*
X171207816Y-118655051D01*
X171229789Y-118639086D01*
X171379786Y-118530109D01*
X171379788Y-118530106D01*
X171379792Y-118530104D01*
X171530104Y-118379792D01*
X171530106Y-118379788D01*
X171530109Y-118379786D01*
X171655048Y-118207820D01*
X171655047Y-118207820D01*
X171655051Y-118207816D01*
X171751557Y-118018412D01*
X171817246Y-117816243D01*
X171850500Y-117606287D01*
X171850500Y-117393713D01*
X171850500Y-117393712D01*
X171841116Y-117334463D01*
X171839008Y-117321153D01*
X183699500Y-117321153D01*
X183699500Y-117478846D01*
X183730261Y-117633489D01*
X183730264Y-117633501D01*
X183790602Y-117779172D01*
X183790609Y-117779185D01*
X183878210Y-117910288D01*
X183878213Y-117910292D01*
X183989707Y-118021786D01*
X183989711Y-118021789D01*
X184120814Y-118109390D01*
X184120827Y-118109397D01*
X184266498Y-118169735D01*
X184266503Y-118169737D01*
X184355155Y-118187371D01*
X184421153Y-118200499D01*
X184421156Y-118200500D01*
X184421158Y-118200500D01*
X184578844Y-118200500D01*
X184578845Y-118200499D01*
X184733497Y-118169737D01*
X184780988Y-118150065D01*
X184850453Y-118142597D01*
X184912933Y-118173871D01*
X184948586Y-118233960D01*
X184950055Y-118240435D01*
X184970261Y-118342018D01*
X184970264Y-118342028D01*
X185030602Y-118487699D01*
X185030609Y-118487712D01*
X185118210Y-118618815D01*
X185118213Y-118618819D01*
X185229707Y-118730313D01*
X185229711Y-118730316D01*
X185360814Y-118817917D01*
X185360827Y-118817924D01*
X185506498Y-118878262D01*
X185506503Y-118878264D01*
X185661153Y-118909026D01*
X185661156Y-118909027D01*
X185661158Y-118909027D01*
X185818844Y-118909027D01*
X185818845Y-118909026D01*
X185973497Y-118878264D01*
X186119179Y-118817921D01*
X186250289Y-118730316D01*
X186361789Y-118618816D01*
X186449394Y-118487706D01*
X186509737Y-118342024D01*
X186540500Y-118187369D01*
X186540500Y-118029685D01*
X186540500Y-118029682D01*
X186540499Y-118029680D01*
X186509738Y-117875037D01*
X186509737Y-117875030D01*
X186470032Y-117779172D01*
X186449397Y-117729354D01*
X186449390Y-117729341D01*
X186361789Y-117598238D01*
X186361786Y-117598234D01*
X186250292Y-117486740D01*
X186250288Y-117486737D01*
X186119185Y-117399136D01*
X186119172Y-117399129D01*
X185973501Y-117338791D01*
X185973489Y-117338788D01*
X185818845Y-117308027D01*
X185818842Y-117308027D01*
X185661158Y-117308027D01*
X185661155Y-117308027D01*
X185506510Y-117338788D01*
X185506503Y-117338790D01*
X185459012Y-117358461D01*
X185389543Y-117365929D01*
X185327064Y-117334653D01*
X185291412Y-117274563D01*
X185289944Y-117268090D01*
X185278269Y-117209397D01*
X185269737Y-117166503D01*
X185233993Y-117080208D01*
X185209397Y-117020827D01*
X185209390Y-117020814D01*
X185121789Y-116889711D01*
X185121786Y-116889707D01*
X185010292Y-116778213D01*
X185010288Y-116778210D01*
X184879185Y-116690609D01*
X184879172Y-116690602D01*
X184733501Y-116630264D01*
X184733489Y-116630261D01*
X184578845Y-116599500D01*
X184578842Y-116599500D01*
X184421158Y-116599500D01*
X184421155Y-116599500D01*
X184266510Y-116630261D01*
X184266498Y-116630264D01*
X184120827Y-116690602D01*
X184120814Y-116690609D01*
X183989711Y-116778210D01*
X183989707Y-116778213D01*
X183878213Y-116889707D01*
X183878210Y-116889711D01*
X183790609Y-117020814D01*
X183790602Y-117020827D01*
X183730264Y-117166498D01*
X183730261Y-117166510D01*
X183699500Y-117321153D01*
X171839008Y-117321153D01*
X171821307Y-117209397D01*
X171817246Y-117183757D01*
X171751557Y-116981588D01*
X171655051Y-116792184D01*
X171655049Y-116792181D01*
X171655048Y-116792179D01*
X171530109Y-116620213D01*
X171379786Y-116469890D01*
X171207820Y-116344951D01*
X171207115Y-116344591D01*
X171199054Y-116340485D01*
X171148259Y-116292512D01*
X171131463Y-116224692D01*
X171153999Y-116158556D01*
X171199054Y-116119515D01*
X171207816Y-116115051D01*
X171257654Y-116078842D01*
X171379786Y-115990109D01*
X171379788Y-115990106D01*
X171379792Y-115990104D01*
X171530104Y-115839792D01*
X171530106Y-115839788D01*
X171530109Y-115839786D01*
X171655048Y-115667820D01*
X171655047Y-115667820D01*
X171655051Y-115667816D01*
X171751557Y-115478412D01*
X171817246Y-115276243D01*
X171850500Y-115066287D01*
X171850500Y-114853713D01*
X171817246Y-114643757D01*
X171751557Y-114441588D01*
X171655051Y-114252184D01*
X171655049Y-114252181D01*
X171655048Y-114252179D01*
X171530109Y-114080213D01*
X171379786Y-113929890D01*
X171207820Y-113804951D01*
X171207115Y-113804591D01*
X171199054Y-113800485D01*
X171148259Y-113752512D01*
X171131463Y-113684692D01*
X171153999Y-113618556D01*
X171199054Y-113579515D01*
X171207816Y-113575051D01*
X171296954Y-113510289D01*
X171379786Y-113450109D01*
X171379788Y-113450106D01*
X171379792Y-113450104D01*
X171530104Y-113299792D01*
X171530106Y-113299788D01*
X171530109Y-113299786D01*
X171655048Y-113127820D01*
X171655047Y-113127820D01*
X171655051Y-113127816D01*
X171751557Y-112938412D01*
X171757165Y-112921153D01*
X186199500Y-112921153D01*
X186199500Y-113078846D01*
X186230261Y-113233489D01*
X186230264Y-113233501D01*
X186290602Y-113379172D01*
X186290609Y-113379185D01*
X186378210Y-113510288D01*
X186378213Y-113510292D01*
X186489707Y-113621786D01*
X186489711Y-113621789D01*
X186620814Y-113709390D01*
X186620827Y-113709397D01*
X186742479Y-113759786D01*
X186766503Y-113769737D01*
X186921078Y-113800484D01*
X186921153Y-113800499D01*
X186921156Y-113800500D01*
X186921158Y-113800500D01*
X187078844Y-113800500D01*
X187078845Y-113800499D01*
X187233497Y-113769737D01*
X187379179Y-113709394D01*
X187431110Y-113674694D01*
X187497785Y-113653816D01*
X187565165Y-113672300D01*
X187568863Y-113674676D01*
X187620821Y-113709394D01*
X187620823Y-113709395D01*
X187620825Y-113709396D01*
X187742479Y-113759786D01*
X187766503Y-113769737D01*
X187921078Y-113800484D01*
X187921153Y-113800499D01*
X187921156Y-113800500D01*
X187921158Y-113800500D01*
X188078844Y-113800500D01*
X188078845Y-113800499D01*
X188233497Y-113769737D01*
X188379179Y-113709394D01*
X188431110Y-113674694D01*
X188497785Y-113653816D01*
X188565165Y-113672300D01*
X188568863Y-113674676D01*
X188620821Y-113709394D01*
X188620823Y-113709395D01*
X188620825Y-113709396D01*
X188742479Y-113759786D01*
X188766503Y-113769737D01*
X188921078Y-113800484D01*
X188921153Y-113800499D01*
X188921156Y-113800500D01*
X188921158Y-113800500D01*
X189078844Y-113800500D01*
X189078845Y-113800499D01*
X189233497Y-113769737D01*
X189379179Y-113709394D01*
X189510289Y-113621789D01*
X189511186Y-113620891D01*
X189511773Y-113620571D01*
X189514999Y-113617924D01*
X189515500Y-113618535D01*
X189572504Y-113587402D01*
X189642196Y-113592380D01*
X189698134Y-113634246D01*
X189720491Y-113684374D01*
X189730261Y-113733491D01*
X189730264Y-113733501D01*
X189790602Y-113879172D01*
X189790609Y-113879185D01*
X189878210Y-114010288D01*
X189878213Y-114010292D01*
X189989707Y-114121786D01*
X189989711Y-114121789D01*
X190120814Y-114209390D01*
X190120827Y-114209397D01*
X190254948Y-114264951D01*
X190266503Y-114269737D01*
X190416377Y-114299549D01*
X190421153Y-114300499D01*
X190421156Y-114300500D01*
X190421158Y-114300500D01*
X190578844Y-114300500D01*
X190578845Y-114300499D01*
X190733497Y-114269737D01*
X190850080Y-114221447D01*
X190879172Y-114209397D01*
X190879172Y-114209396D01*
X190879179Y-114209394D01*
X191010289Y-114121789D01*
X191121789Y-114010289D01*
X191209394Y-113879179D01*
X191269737Y-113733497D01*
X191300500Y-113578842D01*
X191300500Y-113421158D01*
X191300500Y-113421155D01*
X191300499Y-113421153D01*
X191295976Y-113398414D01*
X191269737Y-113266503D01*
X191256062Y-113233489D01*
X191209397Y-113120827D01*
X191209390Y-113120814D01*
X191121789Y-112989711D01*
X191121786Y-112989707D01*
X191010292Y-112878213D01*
X191010288Y-112878210D01*
X190879185Y-112790609D01*
X190879172Y-112790602D01*
X190733501Y-112730264D01*
X190733489Y-112730261D01*
X190578845Y-112699500D01*
X190578842Y-112699500D01*
X190421158Y-112699500D01*
X190421155Y-112699500D01*
X190266510Y-112730261D01*
X190266498Y-112730264D01*
X190120827Y-112790602D01*
X190120814Y-112790609D01*
X189989711Y-112878210D01*
X189989708Y-112878212D01*
X189988798Y-112879123D01*
X189988204Y-112879446D01*
X189985001Y-112882076D01*
X189984502Y-112881468D01*
X189927471Y-112912602D01*
X189857780Y-112907611D01*
X189801851Y-112865734D01*
X189779508Y-112815624D01*
X189769738Y-112766509D01*
X189769737Y-112766503D01*
X189756062Y-112733489D01*
X189709397Y-112620827D01*
X189709390Y-112620814D01*
X189621789Y-112489711D01*
X189621786Y-112489707D01*
X189510292Y-112378213D01*
X189510288Y-112378210D01*
X189379185Y-112290609D01*
X189379172Y-112290602D01*
X189233501Y-112230264D01*
X189233489Y-112230261D01*
X189078845Y-112199500D01*
X189078842Y-112199500D01*
X188921158Y-112199500D01*
X188921155Y-112199500D01*
X188766510Y-112230261D01*
X188766498Y-112230264D01*
X188620827Y-112290602D01*
X188620814Y-112290609D01*
X188568891Y-112325304D01*
X188502214Y-112346182D01*
X188434833Y-112327698D01*
X188431109Y-112325304D01*
X188379185Y-112290609D01*
X188379172Y-112290602D01*
X188233501Y-112230264D01*
X188233489Y-112230261D01*
X188078845Y-112199500D01*
X188078842Y-112199500D01*
X187921158Y-112199500D01*
X187921155Y-112199500D01*
X187766510Y-112230261D01*
X187766498Y-112230264D01*
X187620827Y-112290602D01*
X187620814Y-112290609D01*
X187568891Y-112325304D01*
X187502214Y-112346182D01*
X187434833Y-112327698D01*
X187431109Y-112325304D01*
X187379185Y-112290609D01*
X187379172Y-112290602D01*
X187233501Y-112230264D01*
X187233489Y-112230261D01*
X187078845Y-112199500D01*
X187078842Y-112199500D01*
X186921158Y-112199500D01*
X186921155Y-112199500D01*
X186766510Y-112230261D01*
X186766498Y-112230264D01*
X186620827Y-112290602D01*
X186620814Y-112290609D01*
X186489711Y-112378210D01*
X186489707Y-112378213D01*
X186378213Y-112489707D01*
X186378210Y-112489711D01*
X186290609Y-112620814D01*
X186290602Y-112620827D01*
X186230264Y-112766498D01*
X186230261Y-112766510D01*
X186199500Y-112921153D01*
X171757165Y-112921153D01*
X171817246Y-112736243D01*
X171850500Y-112526287D01*
X171850500Y-112313713D01*
X171817246Y-112103757D01*
X171751557Y-111901588D01*
X171655051Y-111712184D01*
X171655049Y-111712181D01*
X171655048Y-111712179D01*
X171530109Y-111540213D01*
X171379786Y-111389890D01*
X171207820Y-111264951D01*
X171207115Y-111264591D01*
X171199054Y-111260485D01*
X171148259Y-111212512D01*
X171131463Y-111144692D01*
X171153999Y-111078556D01*
X171199054Y-111039515D01*
X171207816Y-111035051D01*
X171259107Y-110997786D01*
X171364585Y-110921153D01*
X172199500Y-110921153D01*
X172199500Y-111078846D01*
X172230261Y-111233489D01*
X172230264Y-111233501D01*
X172290602Y-111379172D01*
X172290609Y-111379185D01*
X172378210Y-111510288D01*
X172378213Y-111510292D01*
X172489707Y-111621786D01*
X172489711Y-111621789D01*
X172620814Y-111709390D01*
X172620827Y-111709397D01*
X172766498Y-111769735D01*
X172766503Y-111769737D01*
X172921153Y-111800499D01*
X172921156Y-111800500D01*
X172921158Y-111800500D01*
X173078844Y-111800500D01*
X173078845Y-111800499D01*
X173233497Y-111769737D01*
X173372443Y-111712184D01*
X173379172Y-111709397D01*
X173379172Y-111709396D01*
X173379179Y-111709394D01*
X173510289Y-111621789D01*
X173621789Y-111510289D01*
X173709394Y-111379179D01*
X173769737Y-111233497D01*
X173800500Y-111078842D01*
X173800500Y-110921158D01*
X173800500Y-110921155D01*
X173800499Y-110921153D01*
X173769738Y-110766510D01*
X173769737Y-110766503D01*
X173756062Y-110733489D01*
X173709397Y-110620827D01*
X173709390Y-110620814D01*
X173621790Y-110489712D01*
X173621784Y-110489705D01*
X173553232Y-110421153D01*
X184199500Y-110421153D01*
X184199500Y-110578846D01*
X184230261Y-110733489D01*
X184230264Y-110733501D01*
X184290602Y-110879172D01*
X184290609Y-110879185D01*
X184378210Y-111010288D01*
X184378213Y-111010292D01*
X184489707Y-111121786D01*
X184489711Y-111121789D01*
X184620814Y-111209390D01*
X184620827Y-111209397D01*
X184754948Y-111264951D01*
X184766503Y-111269737D01*
X184921153Y-111300499D01*
X184921156Y-111300500D01*
X184921158Y-111300500D01*
X185078844Y-111300500D01*
X185078845Y-111300499D01*
X185233497Y-111269737D01*
X185354090Y-111219786D01*
X185379172Y-111209397D01*
X185379172Y-111209396D01*
X185379179Y-111209394D01*
X185510289Y-111121789D01*
X185621789Y-111010289D01*
X185709394Y-110879179D01*
X185769737Y-110733497D01*
X185800500Y-110578842D01*
X185800500Y-110421158D01*
X185800500Y-110421155D01*
X185800499Y-110421153D01*
X190699500Y-110421153D01*
X190699500Y-110578846D01*
X190730261Y-110733489D01*
X190730264Y-110733501D01*
X190790602Y-110879172D01*
X190790609Y-110879185D01*
X190825304Y-110931109D01*
X190846182Y-110997786D01*
X190827698Y-111065167D01*
X190825304Y-111068891D01*
X190790609Y-111120814D01*
X190790602Y-111120827D01*
X190730264Y-111266498D01*
X190730261Y-111266510D01*
X190699500Y-111421153D01*
X190699500Y-111578846D01*
X190730261Y-111733489D01*
X190730264Y-111733501D01*
X190790602Y-111879172D01*
X190790609Y-111879185D01*
X190878210Y-112010288D01*
X190878213Y-112010292D01*
X190989707Y-112121786D01*
X190989711Y-112121789D01*
X191120814Y-112209390D01*
X191120827Y-112209397D01*
X191258683Y-112266498D01*
X191266503Y-112269737D01*
X191421153Y-112300499D01*
X191421156Y-112300500D01*
X191421158Y-112300500D01*
X191578844Y-112300500D01*
X191578845Y-112300499D01*
X191733497Y-112269737D01*
X191879179Y-112209394D01*
X192010289Y-112121789D01*
X192047331Y-112084747D01*
X192108653Y-112051261D01*
X192178345Y-112056245D01*
X192234279Y-112098115D01*
X192258697Y-112163579D01*
X192249575Y-112219878D01*
X192230263Y-112266502D01*
X192230261Y-112266510D01*
X192199500Y-112421153D01*
X192199500Y-112578846D01*
X192230261Y-112733489D01*
X192230264Y-112733501D01*
X192290602Y-112879172D01*
X192290609Y-112879185D01*
X192378210Y-113010288D01*
X192378213Y-113010292D01*
X192489707Y-113121786D01*
X192489711Y-113121789D01*
X192620817Y-113209392D01*
X192620819Y-113209393D01*
X192620821Y-113209394D01*
X192638409Y-113216679D01*
X192692812Y-113260520D01*
X192714877Y-113326814D01*
X192712573Y-113355431D01*
X192699500Y-113421153D01*
X192699500Y-113578847D01*
X192699977Y-113583695D01*
X192686952Y-113652339D01*
X192638883Y-113703046D01*
X192571031Y-113719714D01*
X192564430Y-113719242D01*
X192559583Y-113718765D01*
X192559577Y-113718765D01*
X192401893Y-113718765D01*
X192401890Y-113718765D01*
X192247245Y-113749526D01*
X192247233Y-113749529D01*
X192101562Y-113809867D01*
X192101549Y-113809874D01*
X191970446Y-113897475D01*
X191970442Y-113897478D01*
X191858948Y-114008972D01*
X191858945Y-114008976D01*
X191771344Y-114140079D01*
X191771337Y-114140092D01*
X191710999Y-114285763D01*
X191710996Y-114285775D01*
X191680235Y-114440418D01*
X191680235Y-114598111D01*
X191710996Y-114752754D01*
X191710999Y-114752766D01*
X191771337Y-114898437D01*
X191771344Y-114898450D01*
X191862330Y-115034619D01*
X191860387Y-115035917D01*
X191883644Y-115090681D01*
X191871850Y-115159548D01*
X191824697Y-115211107D01*
X191784669Y-115226649D01*
X191766508Y-115230261D01*
X191766498Y-115230264D01*
X191620827Y-115290602D01*
X191620814Y-115290609D01*
X191489711Y-115378210D01*
X191489707Y-115378213D01*
X191378213Y-115489707D01*
X191378210Y-115489711D01*
X191290609Y-115620814D01*
X191290602Y-115620827D01*
X191230264Y-115766498D01*
X191230261Y-115766510D01*
X191199500Y-115921153D01*
X191199500Y-116078846D01*
X191230261Y-116233489D01*
X191230264Y-116233501D01*
X191290602Y-116379172D01*
X191290609Y-116379185D01*
X191378210Y-116510288D01*
X191378213Y-116510292D01*
X191489707Y-116621786D01*
X191489711Y-116621789D01*
X191620814Y-116709390D01*
X191620827Y-116709397D01*
X191746489Y-116761447D01*
X191766503Y-116769737D01*
X191879326Y-116792179D01*
X191921153Y-116800499D01*
X191921156Y-116800500D01*
X191921158Y-116800500D01*
X192078844Y-116800500D01*
X192078845Y-116800499D01*
X192233497Y-116769737D01*
X192379179Y-116709394D01*
X192510289Y-116621789D01*
X192621789Y-116510289D01*
X192681348Y-116421153D01*
X194699500Y-116421153D01*
X194699500Y-116578846D01*
X194730261Y-116733489D01*
X194730264Y-116733501D01*
X194790602Y-116879172D01*
X194790609Y-116879185D01*
X194878210Y-117010288D01*
X194878213Y-117010292D01*
X194989707Y-117121786D01*
X194989711Y-117121789D01*
X195120814Y-117209390D01*
X195120827Y-117209397D01*
X195224126Y-117252184D01*
X195266503Y-117269737D01*
X195421153Y-117300499D01*
X195421156Y-117300500D01*
X195421158Y-117300500D01*
X195578844Y-117300500D01*
X195578845Y-117300499D01*
X195733497Y-117269737D01*
X195879179Y-117209394D01*
X196010289Y-117121789D01*
X196121789Y-117010289D01*
X196209394Y-116879179D01*
X196269737Y-116733497D01*
X196276190Y-116701054D01*
X196308574Y-116639146D01*
X196369290Y-116604572D01*
X196439059Y-116608311D01*
X196485488Y-116637567D01*
X196489707Y-116641786D01*
X196489711Y-116641789D01*
X196620814Y-116729390D01*
X196620827Y-116729397D01*
X196738681Y-116778213D01*
X196766503Y-116789737D01*
X196921153Y-116820499D01*
X196921156Y-116820500D01*
X196921158Y-116820500D01*
X197078844Y-116820500D01*
X197078845Y-116820499D01*
X197233497Y-116789737D01*
X197379179Y-116729394D01*
X197431110Y-116694694D01*
X197497785Y-116673816D01*
X197565165Y-116692300D01*
X197568863Y-116694676D01*
X197620821Y-116729394D01*
X197620823Y-116729395D01*
X197620825Y-116729396D01*
X197738681Y-116778213D01*
X197766503Y-116789737D01*
X197921153Y-116820499D01*
X197921156Y-116820500D01*
X197921158Y-116820500D01*
X198078844Y-116820500D01*
X198078845Y-116820499D01*
X198233497Y-116789737D01*
X198369269Y-116733499D01*
X198379172Y-116729397D01*
X198379172Y-116729396D01*
X198379179Y-116729394D01*
X198510289Y-116641789D01*
X198621789Y-116530289D01*
X198709394Y-116399179D01*
X198769737Y-116253497D01*
X198800500Y-116098842D01*
X198800500Y-115941158D01*
X198800500Y-115941155D01*
X198800499Y-115941153D01*
X198794638Y-115911687D01*
X198769737Y-115786503D01*
X198746441Y-115730261D01*
X198709397Y-115640827D01*
X198709390Y-115640814D01*
X198621789Y-115509711D01*
X198621786Y-115509707D01*
X198510292Y-115398213D01*
X198510288Y-115398210D01*
X198379185Y-115310609D01*
X198379172Y-115310602D01*
X198233501Y-115250264D01*
X198233489Y-115250261D01*
X198078845Y-115219500D01*
X198078842Y-115219500D01*
X197921158Y-115219500D01*
X197921155Y-115219500D01*
X197766510Y-115250261D01*
X197766498Y-115250264D01*
X197620827Y-115310602D01*
X197620814Y-115310609D01*
X197568891Y-115345304D01*
X197502214Y-115366182D01*
X197434833Y-115347698D01*
X197431109Y-115345304D01*
X197379185Y-115310609D01*
X197379172Y-115310602D01*
X197233501Y-115250264D01*
X197233489Y-115250261D01*
X197078845Y-115219500D01*
X197078842Y-115219500D01*
X196921158Y-115219500D01*
X196921155Y-115219500D01*
X196766510Y-115250261D01*
X196766498Y-115250264D01*
X196620827Y-115310602D01*
X196620814Y-115310609D01*
X196489711Y-115398210D01*
X196489707Y-115398213D01*
X196378213Y-115509707D01*
X196378210Y-115509711D01*
X196290609Y-115640814D01*
X196290602Y-115640827D01*
X196230264Y-115786498D01*
X196230262Y-115786506D01*
X196223809Y-115818945D01*
X196191422Y-115880855D01*
X196130706Y-115915428D01*
X196060936Y-115911687D01*
X196014511Y-115882432D01*
X196010292Y-115878213D01*
X196010288Y-115878210D01*
X195879185Y-115790609D01*
X195879172Y-115790602D01*
X195733501Y-115730264D01*
X195733489Y-115730261D01*
X195578845Y-115699500D01*
X195578842Y-115699500D01*
X195421158Y-115699500D01*
X195421155Y-115699500D01*
X195266510Y-115730261D01*
X195266498Y-115730264D01*
X195120827Y-115790602D01*
X195120814Y-115790609D01*
X194989711Y-115878210D01*
X194989707Y-115878213D01*
X194878213Y-115989707D01*
X194878210Y-115989711D01*
X194790609Y-116120814D01*
X194790602Y-116120827D01*
X194730264Y-116266498D01*
X194730261Y-116266510D01*
X194699500Y-116421153D01*
X192681348Y-116421153D01*
X192709394Y-116379179D01*
X192769737Y-116233497D01*
X192800500Y-116078842D01*
X192800500Y-115921158D01*
X192800500Y-115921155D01*
X192800499Y-115921153D01*
X192774531Y-115790606D01*
X192769737Y-115766503D01*
X192757201Y-115736239D01*
X192709397Y-115620827D01*
X192709390Y-115620814D01*
X192618405Y-115484646D01*
X192620348Y-115483347D01*
X192597091Y-115428592D01*
X192608880Y-115359724D01*
X192656030Y-115308162D01*
X192696066Y-115292615D01*
X192714232Y-115289002D01*
X192856042Y-115230263D01*
X192859907Y-115228662D01*
X192859907Y-115228661D01*
X192859914Y-115228659D01*
X192991024Y-115141054D01*
X193102524Y-115029554D01*
X193190129Y-114898444D01*
X193250472Y-114752762D01*
X193281235Y-114598107D01*
X193281235Y-114440423D01*
X193280758Y-114435580D01*
X193293777Y-114366934D01*
X193341842Y-114316223D01*
X193409693Y-114299549D01*
X193416315Y-114300023D01*
X193421158Y-114300500D01*
X193575500Y-114300500D01*
X193642539Y-114320185D01*
X193688294Y-114372989D01*
X193699500Y-114424500D01*
X193699500Y-114578846D01*
X193730261Y-114733489D01*
X193730264Y-114733501D01*
X193790602Y-114879172D01*
X193790609Y-114879185D01*
X193878210Y-115010288D01*
X193878213Y-115010292D01*
X193989707Y-115121786D01*
X193989711Y-115121789D01*
X194120814Y-115209390D01*
X194120827Y-115209397D01*
X194266498Y-115269735D01*
X194266503Y-115269737D01*
X194381513Y-115292614D01*
X194421153Y-115300499D01*
X194421156Y-115300500D01*
X194421158Y-115300500D01*
X194578844Y-115300500D01*
X194578845Y-115300499D01*
X194733497Y-115269737D01*
X194854781Y-115219500D01*
X194879172Y-115209397D01*
X194879172Y-115209396D01*
X194879179Y-115209394D01*
X195010289Y-115121789D01*
X195121789Y-115010289D01*
X195209394Y-114879179D01*
X195269737Y-114733497D01*
X195300500Y-114578842D01*
X195300500Y-114421158D01*
X195300500Y-114421155D01*
X195300499Y-114421153D01*
X195269737Y-114266503D01*
X195263804Y-114252179D01*
X195209397Y-114120827D01*
X195209390Y-114120814D01*
X195121789Y-113989711D01*
X195121786Y-113989707D01*
X195010292Y-113878213D01*
X195010288Y-113878210D01*
X194879185Y-113790609D01*
X194879172Y-113790602D01*
X194733501Y-113730264D01*
X194733489Y-113730261D01*
X194578845Y-113699500D01*
X194578842Y-113699500D01*
X194424500Y-113699500D01*
X194357461Y-113679815D01*
X194311706Y-113627011D01*
X194300500Y-113575500D01*
X194300500Y-113421155D01*
X194300499Y-113421153D01*
X194295976Y-113398414D01*
X194269737Y-113266503D01*
X194256062Y-113233489D01*
X194209397Y-113120827D01*
X194209390Y-113120814D01*
X194121789Y-112989711D01*
X194121786Y-112989707D01*
X194010292Y-112878213D01*
X194010288Y-112878210D01*
X193879185Y-112790609D01*
X193879179Y-112790606D01*
X193861589Y-112783320D01*
X193807186Y-112739478D01*
X193785122Y-112673184D01*
X193787425Y-112644571D01*
X193800500Y-112578842D01*
X193800500Y-112421158D01*
X193800500Y-112421155D01*
X193800499Y-112421153D01*
X193785586Y-112346182D01*
X193769737Y-112266503D01*
X193769735Y-112266498D01*
X193709397Y-112120827D01*
X193709390Y-112120814D01*
X193621789Y-111989711D01*
X193621786Y-111989707D01*
X193510292Y-111878213D01*
X193510288Y-111878210D01*
X193379185Y-111790609D01*
X193379172Y-111790602D01*
X193233501Y-111730264D01*
X193233489Y-111730261D01*
X193078845Y-111699500D01*
X193078842Y-111699500D01*
X192921158Y-111699500D01*
X192921155Y-111699500D01*
X192766510Y-111730261D01*
X192766498Y-111730264D01*
X192620827Y-111790602D01*
X192620814Y-111790609D01*
X192489711Y-111878210D01*
X192489706Y-111878214D01*
X192452666Y-111915254D01*
X192391343Y-111948739D01*
X192321651Y-111943753D01*
X192265718Y-111901881D01*
X192241302Y-111836417D01*
X192250424Y-111780121D01*
X192269737Y-111733497D01*
X192300500Y-111578842D01*
X192300500Y-111421158D01*
X192300500Y-111421155D01*
X192300499Y-111421153D01*
X192269737Y-111266503D01*
X192250386Y-111219786D01*
X192209396Y-111120825D01*
X192209394Y-111120822D01*
X192209394Y-111120821D01*
X192174694Y-111068889D01*
X192153816Y-111002215D01*
X192172300Y-110934835D01*
X192174676Y-110931136D01*
X192209394Y-110879179D01*
X192269737Y-110733497D01*
X192300500Y-110578842D01*
X192300500Y-110421158D01*
X192300500Y-110421155D01*
X192300499Y-110421153D01*
X192295976Y-110398414D01*
X192269737Y-110266503D01*
X192256155Y-110233713D01*
X192209397Y-110120827D01*
X192209390Y-110120814D01*
X192121789Y-109989711D01*
X192121786Y-109989707D01*
X192010292Y-109878213D01*
X192010288Y-109878210D01*
X191879185Y-109790609D01*
X191879172Y-109790602D01*
X191733501Y-109730264D01*
X191733489Y-109730261D01*
X191578845Y-109699500D01*
X191578842Y-109699500D01*
X191421158Y-109699500D01*
X191421155Y-109699500D01*
X191266510Y-109730261D01*
X191266498Y-109730264D01*
X191120827Y-109790602D01*
X191120814Y-109790609D01*
X190989711Y-109878210D01*
X190989707Y-109878213D01*
X190878213Y-109989707D01*
X190878210Y-109989711D01*
X190790609Y-110120814D01*
X190790602Y-110120827D01*
X190730264Y-110266498D01*
X190730261Y-110266510D01*
X190699500Y-110421153D01*
X185800499Y-110421153D01*
X185795976Y-110398414D01*
X185769737Y-110266503D01*
X185756155Y-110233713D01*
X185709397Y-110120827D01*
X185709390Y-110120814D01*
X185621789Y-109989711D01*
X185621786Y-109989707D01*
X185510292Y-109878213D01*
X185510288Y-109878210D01*
X185379185Y-109790609D01*
X185379172Y-109790602D01*
X185233501Y-109730264D01*
X185233489Y-109730261D01*
X185078845Y-109699500D01*
X185078842Y-109699500D01*
X184921158Y-109699500D01*
X184921155Y-109699500D01*
X184766510Y-109730261D01*
X184766498Y-109730264D01*
X184620827Y-109790602D01*
X184620814Y-109790609D01*
X184489711Y-109878210D01*
X184489707Y-109878213D01*
X184378213Y-109989707D01*
X184378210Y-109989711D01*
X184290609Y-110120814D01*
X184290602Y-110120827D01*
X184230264Y-110266498D01*
X184230261Y-110266510D01*
X184199500Y-110421153D01*
X173553232Y-110421153D01*
X173510292Y-110378213D01*
X173510288Y-110378210D01*
X173379185Y-110290609D01*
X173379172Y-110290602D01*
X173233501Y-110230264D01*
X173233489Y-110230261D01*
X173078845Y-110199500D01*
X173078842Y-110199500D01*
X172921158Y-110199500D01*
X172921155Y-110199500D01*
X172766510Y-110230261D01*
X172766498Y-110230264D01*
X172620827Y-110290602D01*
X172620814Y-110290609D01*
X172489711Y-110378210D01*
X172489707Y-110378213D01*
X172378213Y-110489707D01*
X172378210Y-110489711D01*
X172290609Y-110620814D01*
X172290602Y-110620827D01*
X172230264Y-110766498D01*
X172230261Y-110766510D01*
X172199500Y-110921153D01*
X171364585Y-110921153D01*
X171379786Y-110910109D01*
X171379788Y-110910106D01*
X171379792Y-110910104D01*
X171530104Y-110759792D01*
X171530106Y-110759788D01*
X171530109Y-110759786D01*
X171655048Y-110587820D01*
X171655047Y-110587820D01*
X171655051Y-110587816D01*
X171751557Y-110398412D01*
X171817246Y-110196243D01*
X171850500Y-109986287D01*
X171850500Y-109773713D01*
X171817246Y-109563757D01*
X171751557Y-109361588D01*
X171655051Y-109172184D01*
X171655049Y-109172181D01*
X171655048Y-109172179D01*
X171530109Y-109000213D01*
X171379786Y-108849890D01*
X171207820Y-108724951D01*
X171207115Y-108724591D01*
X171199054Y-108720485D01*
X171148259Y-108672512D01*
X171131463Y-108604692D01*
X171153999Y-108538556D01*
X171199054Y-108499515D01*
X171207816Y-108495051D01*
X171275292Y-108446027D01*
X171379786Y-108370109D01*
X171379788Y-108370106D01*
X171379792Y-108370104D01*
X171530104Y-108219792D01*
X171530106Y-108219788D01*
X171530109Y-108219786D01*
X171655048Y-108047820D01*
X171655047Y-108047820D01*
X171655051Y-108047816D01*
X171751557Y-107858412D01*
X171817246Y-107656243D01*
X171850500Y-107446287D01*
X171850500Y-107421153D01*
X179699500Y-107421153D01*
X179699500Y-107578846D01*
X179730261Y-107733489D01*
X179730264Y-107733501D01*
X179790602Y-107879172D01*
X179790609Y-107879185D01*
X179878210Y-108010288D01*
X179878213Y-108010292D01*
X179989710Y-108121789D01*
X180053511Y-108164419D01*
X180098316Y-108218031D01*
X180107023Y-108287356D01*
X180106238Y-108291709D01*
X180100235Y-108321891D01*
X180100235Y-108479581D01*
X180130996Y-108634224D01*
X180130999Y-108634236D01*
X180191337Y-108779907D01*
X180191344Y-108779920D01*
X180278945Y-108911023D01*
X180278948Y-108911027D01*
X180390442Y-109022521D01*
X180390446Y-109022524D01*
X180521549Y-109110125D01*
X180521562Y-109110132D01*
X180667233Y-109170470D01*
X180667238Y-109170472D01*
X180821888Y-109201234D01*
X180821891Y-109201235D01*
X180821893Y-109201235D01*
X180979579Y-109201235D01*
X180979580Y-109201234D01*
X181134232Y-109170472D01*
X181279914Y-109110129D01*
X181411024Y-109022524D01*
X181522524Y-108911024D01*
X181610129Y-108779914D01*
X181670472Y-108634232D01*
X181701235Y-108479577D01*
X181701235Y-108321893D01*
X181701235Y-108321891D01*
X181701235Y-108321890D01*
X181701234Y-108321888D01*
X181694365Y-108287356D01*
X181670472Y-108167238D01*
X181651243Y-108120814D01*
X181610132Y-108021562D01*
X181610125Y-108021549D01*
X181522524Y-107890446D01*
X181522521Y-107890442D01*
X181411026Y-107778947D01*
X181385769Y-107762071D01*
X181347222Y-107736314D01*
X181302417Y-107682704D01*
X181293710Y-107613379D01*
X181294491Y-107609046D01*
X181297970Y-107591557D01*
X181300500Y-107578844D01*
X181300500Y-107421155D01*
X181300499Y-107421153D01*
X181279174Y-107313945D01*
X181269737Y-107266503D01*
X181269735Y-107266498D01*
X181209397Y-107120827D01*
X181209390Y-107120814D01*
X181121789Y-106989711D01*
X181121786Y-106989707D01*
X181010292Y-106878213D01*
X181010288Y-106878210D01*
X180924897Y-106821153D01*
X190699500Y-106821153D01*
X190699500Y-106978846D01*
X190730261Y-107133489D01*
X190730264Y-107133501D01*
X190790602Y-107279172D01*
X190790609Y-107279185D01*
X190878210Y-107410288D01*
X190878213Y-107410292D01*
X190989707Y-107521786D01*
X190989711Y-107521789D01*
X191120814Y-107609390D01*
X191120827Y-107609397D01*
X191233925Y-107656243D01*
X191266503Y-107669737D01*
X191387038Y-107693713D01*
X191421153Y-107700499D01*
X191421156Y-107700500D01*
X191421158Y-107700500D01*
X191578844Y-107700500D01*
X191578845Y-107700499D01*
X191733497Y-107669737D01*
X191879179Y-107609394D01*
X192010289Y-107521789D01*
X192121789Y-107410289D01*
X192209394Y-107279179D01*
X192218627Y-107256888D01*
X192699500Y-107256888D01*
X192699500Y-107414581D01*
X192730261Y-107569224D01*
X192730264Y-107569236D01*
X192790602Y-107714907D01*
X192790609Y-107714920D01*
X192878210Y-107846023D01*
X192878213Y-107846027D01*
X192989707Y-107957521D01*
X192989711Y-107957524D01*
X193120814Y-108045125D01*
X193120827Y-108045132D01*
X193266498Y-108105470D01*
X193266503Y-108105472D01*
X193348534Y-108121789D01*
X193421153Y-108136234D01*
X193421156Y-108136235D01*
X193569476Y-108136235D01*
X193636515Y-108155920D01*
X193682270Y-108208724D01*
X193684037Y-108212783D01*
X193726337Y-108314907D01*
X193726344Y-108314920D01*
X193813945Y-108446023D01*
X193813948Y-108446027D01*
X193925442Y-108557521D01*
X193925446Y-108557524D01*
X194056549Y-108645125D01*
X194056562Y-108645132D01*
X194202233Y-108705470D01*
X194202238Y-108705472D01*
X194356888Y-108736234D01*
X194356891Y-108736235D01*
X194356893Y-108736235D01*
X194514579Y-108736235D01*
X194514580Y-108736234D01*
X194669232Y-108705472D01*
X194814914Y-108645129D01*
X194946024Y-108557524D01*
X195057524Y-108446024D01*
X195145129Y-108314914D01*
X195205472Y-108169232D01*
X195236235Y-108014577D01*
X195236235Y-107856893D01*
X195236235Y-107856890D01*
X195236234Y-107856888D01*
X195220730Y-107778946D01*
X195205472Y-107702238D01*
X195192009Y-107669735D01*
X195145132Y-107556562D01*
X195145125Y-107556549D01*
X195057524Y-107425446D01*
X195057521Y-107425442D01*
X194946027Y-107313948D01*
X194946023Y-107313945D01*
X194814920Y-107226344D01*
X194814907Y-107226337D01*
X194669236Y-107165999D01*
X194669224Y-107165996D01*
X194514580Y-107135235D01*
X194514577Y-107135235D01*
X194366259Y-107135235D01*
X194299220Y-107115550D01*
X194253465Y-107062746D01*
X194251698Y-107058687D01*
X194209397Y-106956562D01*
X194209390Y-106956549D01*
X194121789Y-106825446D01*
X194121786Y-106825442D01*
X194010292Y-106713948D01*
X194010288Y-106713945D01*
X193879185Y-106626344D01*
X193879172Y-106626337D01*
X193733501Y-106565999D01*
X193733489Y-106565996D01*
X193578845Y-106535235D01*
X193578842Y-106535235D01*
X193421158Y-106535235D01*
X193421155Y-106535235D01*
X193266510Y-106565996D01*
X193266498Y-106565999D01*
X193120827Y-106626337D01*
X193120814Y-106626344D01*
X192989711Y-106713945D01*
X192989707Y-106713948D01*
X192878213Y-106825442D01*
X192878210Y-106825446D01*
X192790609Y-106956549D01*
X192790602Y-106956562D01*
X192730264Y-107102233D01*
X192730261Y-107102245D01*
X192699500Y-107256888D01*
X192218627Y-107256888D01*
X192240804Y-107203349D01*
X192269735Y-107133501D01*
X192269737Y-107133497D01*
X192300500Y-106978842D01*
X192300500Y-106821158D01*
X192300500Y-106821155D01*
X192300499Y-106821153D01*
X192279174Y-106713945D01*
X192269737Y-106666503D01*
X192260809Y-106644949D01*
X192209397Y-106520827D01*
X192209390Y-106520814D01*
X192121789Y-106389711D01*
X192121786Y-106389707D01*
X192010292Y-106278213D01*
X192010288Y-106278210D01*
X191879185Y-106190609D01*
X191879172Y-106190602D01*
X191733501Y-106130264D01*
X191733489Y-106130261D01*
X191578845Y-106099500D01*
X191578842Y-106099500D01*
X191421158Y-106099500D01*
X191421155Y-106099500D01*
X191266510Y-106130261D01*
X191266498Y-106130264D01*
X191120827Y-106190602D01*
X191120814Y-106190609D01*
X190989711Y-106278210D01*
X190989707Y-106278213D01*
X190878213Y-106389707D01*
X190878210Y-106389711D01*
X190790609Y-106520814D01*
X190790602Y-106520827D01*
X190730264Y-106666498D01*
X190730261Y-106666510D01*
X190699500Y-106821153D01*
X180924897Y-106821153D01*
X180879185Y-106790609D01*
X180879172Y-106790602D01*
X180733501Y-106730264D01*
X180733489Y-106730261D01*
X180578845Y-106699500D01*
X180578842Y-106699500D01*
X180421158Y-106699500D01*
X180421155Y-106699500D01*
X180266510Y-106730261D01*
X180266498Y-106730264D01*
X180120827Y-106790602D01*
X180120814Y-106790609D01*
X179989711Y-106878210D01*
X179989707Y-106878213D01*
X179878213Y-106989707D01*
X179878210Y-106989711D01*
X179790609Y-107120814D01*
X179790602Y-107120827D01*
X179730264Y-107266498D01*
X179730261Y-107266510D01*
X179699500Y-107421153D01*
X171850500Y-107421153D01*
X171850500Y-107233713D01*
X171817246Y-107023757D01*
X171751557Y-106821588D01*
X171655051Y-106632184D01*
X171655049Y-106632181D01*
X171655048Y-106632179D01*
X171530109Y-106460213D01*
X171379786Y-106309890D01*
X171207820Y-106184951D01*
X171207115Y-106184591D01*
X171199054Y-106180485D01*
X171148259Y-106132512D01*
X171131463Y-106064692D01*
X171153999Y-105998556D01*
X171199054Y-105959515D01*
X171207816Y-105955051D01*
X171229789Y-105939086D01*
X171379786Y-105830109D01*
X171379788Y-105830106D01*
X171379792Y-105830104D01*
X171530104Y-105679792D01*
X171530106Y-105679788D01*
X171530109Y-105679786D01*
X171655048Y-105507820D01*
X171655047Y-105507820D01*
X171655051Y-105507816D01*
X171751557Y-105318412D01*
X171817246Y-105116243D01*
X171850500Y-104906287D01*
X171850500Y-104693713D01*
X171817246Y-104483757D01*
X171751557Y-104281588D01*
X171655051Y-104092184D01*
X171638570Y-104069500D01*
X171614828Y-104036821D01*
X171614826Y-104036819D01*
X171566294Y-103970020D01*
X181964494Y-103970020D01*
X181964494Y-104127713D01*
X181995255Y-104282356D01*
X181995258Y-104282368D01*
X182055596Y-104428039D01*
X182055603Y-104428052D01*
X182143204Y-104559155D01*
X182143207Y-104559159D01*
X182254701Y-104670653D01*
X182254705Y-104670656D01*
X182385808Y-104758257D01*
X182385821Y-104758264D01*
X182531492Y-104818602D01*
X182531497Y-104818604D01*
X182686147Y-104849366D01*
X182686150Y-104849367D01*
X182686152Y-104849367D01*
X182843838Y-104849367D01*
X182843839Y-104849366D01*
X182998491Y-104818604D01*
X183064764Y-104791153D01*
X188859271Y-104791153D01*
X188859271Y-104948846D01*
X188890032Y-105103489D01*
X188890035Y-105103501D01*
X188950373Y-105249172D01*
X188950380Y-105249185D01*
X189037981Y-105380288D01*
X189037984Y-105380292D01*
X189149478Y-105491786D01*
X189149482Y-105491789D01*
X189280585Y-105579390D01*
X189280598Y-105579397D01*
X189426269Y-105639735D01*
X189426274Y-105639737D01*
X189580924Y-105670499D01*
X189580927Y-105670500D01*
X189580929Y-105670500D01*
X189738615Y-105670500D01*
X189738616Y-105670499D01*
X189893268Y-105639737D01*
X190038950Y-105579394D01*
X190170060Y-105491789D01*
X190281560Y-105380289D01*
X190369165Y-105249179D01*
X190429508Y-105103497D01*
X190460271Y-104948842D01*
X190460271Y-104791158D01*
X190460271Y-104791155D01*
X190460270Y-104791153D01*
X190453727Y-104758261D01*
X190429508Y-104636503D01*
X190429506Y-104636498D01*
X190369168Y-104490827D01*
X190369161Y-104490814D01*
X190281560Y-104359711D01*
X190281557Y-104359707D01*
X190170063Y-104248213D01*
X190170059Y-104248210D01*
X190038956Y-104160609D01*
X190038943Y-104160602D01*
X189986936Y-104139061D01*
X189932532Y-104095221D01*
X189910467Y-104028927D01*
X189927746Y-103961227D01*
X189978883Y-103913616D01*
X190034388Y-103900500D01*
X190078844Y-103900500D01*
X190078845Y-103900499D01*
X190233497Y-103869737D01*
X190372400Y-103812202D01*
X190379172Y-103809397D01*
X190379172Y-103809396D01*
X190379179Y-103809394D01*
X190510289Y-103721789D01*
X190621789Y-103610289D01*
X190709394Y-103479179D01*
X190709395Y-103479176D01*
X190709397Y-103479173D01*
X190754947Y-103369203D01*
X190798787Y-103314799D01*
X190865081Y-103292734D01*
X190893697Y-103295037D01*
X190921158Y-103300500D01*
X191078844Y-103300500D01*
X191078845Y-103300499D01*
X191233497Y-103269737D01*
X191379179Y-103209394D01*
X191510289Y-103121789D01*
X191621789Y-103010289D01*
X191709394Y-102879179D01*
X191713484Y-102869306D01*
X191749804Y-102781619D01*
X191769737Y-102733497D01*
X191800500Y-102578842D01*
X191800500Y-102421158D01*
X191800500Y-102421155D01*
X191800499Y-102421153D01*
X191794981Y-102393414D01*
X191769737Y-102266503D01*
X191742849Y-102201588D01*
X191709397Y-102120827D01*
X191709390Y-102120814D01*
X191621789Y-101989711D01*
X191621786Y-101989707D01*
X191510292Y-101878213D01*
X191510288Y-101878210D01*
X191379185Y-101790609D01*
X191379172Y-101790602D01*
X191233501Y-101730264D01*
X191233489Y-101730261D01*
X191078845Y-101699500D01*
X191078842Y-101699500D01*
X190921158Y-101699500D01*
X190921155Y-101699500D01*
X190766510Y-101730261D01*
X190766498Y-101730264D01*
X190620827Y-101790602D01*
X190620814Y-101790609D01*
X190489711Y-101878210D01*
X190489707Y-101878213D01*
X190378213Y-101989707D01*
X190378210Y-101989711D01*
X190290609Y-102120814D01*
X190290604Y-102120824D01*
X190245052Y-102230797D01*
X190201211Y-102285200D01*
X190134917Y-102307265D01*
X190106301Y-102304962D01*
X190078842Y-102299500D01*
X189921158Y-102299500D01*
X189921155Y-102299500D01*
X189766510Y-102330261D01*
X189766498Y-102330264D01*
X189620827Y-102390602D01*
X189620814Y-102390609D01*
X189489711Y-102478210D01*
X189489707Y-102478213D01*
X189378213Y-102589707D01*
X189378210Y-102589711D01*
X189290609Y-102720814D01*
X189290602Y-102720827D01*
X189230264Y-102866498D01*
X189230261Y-102866510D01*
X189199500Y-103021153D01*
X189199500Y-103178846D01*
X189230261Y-103333489D01*
X189230264Y-103333501D01*
X189290602Y-103479172D01*
X189290609Y-103479185D01*
X189378210Y-103610288D01*
X189378213Y-103610292D01*
X189489707Y-103721786D01*
X189489711Y-103721789D01*
X189620814Y-103809390D01*
X189620827Y-103809397D01*
X189672835Y-103830939D01*
X189727239Y-103874779D01*
X189749304Y-103941073D01*
X189732025Y-104008773D01*
X189680888Y-104056384D01*
X189625383Y-104069500D01*
X189580926Y-104069500D01*
X189426281Y-104100261D01*
X189426269Y-104100264D01*
X189280598Y-104160602D01*
X189280585Y-104160609D01*
X189149482Y-104248210D01*
X189149478Y-104248213D01*
X189037984Y-104359707D01*
X189037981Y-104359711D01*
X188950380Y-104490814D01*
X188950373Y-104490827D01*
X188890035Y-104636498D01*
X188890032Y-104636510D01*
X188859271Y-104791153D01*
X183064764Y-104791153D01*
X183144173Y-104758261D01*
X183169126Y-104741588D01*
X183258360Y-104681964D01*
X183264698Y-104677728D01*
X183275283Y-104670656D01*
X183386783Y-104559156D01*
X183474388Y-104428046D01*
X183534731Y-104282364D01*
X183565494Y-104127709D01*
X183565494Y-103970025D01*
X183565494Y-103970022D01*
X183565493Y-103970020D01*
X183555585Y-103920208D01*
X183534731Y-103815370D01*
X183507697Y-103750104D01*
X183474391Y-103669694D01*
X183474384Y-103669681D01*
X183386783Y-103538578D01*
X183386780Y-103538574D01*
X183275286Y-103427080D01*
X183275282Y-103427077D01*
X183144179Y-103339476D01*
X183144166Y-103339469D01*
X182998495Y-103279131D01*
X182998483Y-103279128D01*
X182843839Y-103248367D01*
X182843836Y-103248367D01*
X182686152Y-103248367D01*
X182686149Y-103248367D01*
X182531504Y-103279128D01*
X182531492Y-103279131D01*
X182385821Y-103339469D01*
X182385808Y-103339476D01*
X182254705Y-103427077D01*
X182254701Y-103427080D01*
X182143207Y-103538574D01*
X182143204Y-103538578D01*
X182055603Y-103669681D01*
X182055596Y-103669694D01*
X181995258Y-103815365D01*
X181995255Y-103815377D01*
X181964494Y-103970020D01*
X171566294Y-103970020D01*
X171530104Y-103920208D01*
X171379792Y-103769896D01*
X171379786Y-103769890D01*
X171207820Y-103644951D01*
X171207115Y-103644591D01*
X171199054Y-103640485D01*
X171148259Y-103592512D01*
X171131463Y-103524692D01*
X171153999Y-103458556D01*
X171199054Y-103419515D01*
X171207816Y-103415051D01*
X171311841Y-103339473D01*
X171379786Y-103290109D01*
X171379788Y-103290106D01*
X171379792Y-103290104D01*
X171530104Y-103139792D01*
X171530106Y-103139788D01*
X171530109Y-103139786D01*
X171614260Y-103023961D01*
X185717697Y-103023961D01*
X185717697Y-103181654D01*
X185748458Y-103336297D01*
X185748461Y-103336309D01*
X185808799Y-103481980D01*
X185808806Y-103481993D01*
X185896407Y-103613096D01*
X185896410Y-103613100D01*
X186007904Y-103724594D01*
X186007908Y-103724597D01*
X186139011Y-103812198D01*
X186139024Y-103812205D01*
X186284695Y-103872543D01*
X186284700Y-103872545D01*
X186439350Y-103903307D01*
X186439353Y-103903308D01*
X186439355Y-103903308D01*
X186597041Y-103903308D01*
X186597042Y-103903307D01*
X186751694Y-103872545D01*
X186897376Y-103812202D01*
X187028486Y-103724597D01*
X187032009Y-103721073D01*
X187093328Y-103687586D01*
X187163020Y-103692566D01*
X187218956Y-103734434D01*
X187234255Y-103761299D01*
X187279355Y-103870182D01*
X187279362Y-103870195D01*
X187366963Y-104001298D01*
X187366966Y-104001302D01*
X187478460Y-104112796D01*
X187478464Y-104112799D01*
X187609567Y-104200400D01*
X187609580Y-104200407D01*
X187724991Y-104248211D01*
X187755256Y-104260747D01*
X187909906Y-104291509D01*
X187909909Y-104291510D01*
X187909911Y-104291510D01*
X188067597Y-104291510D01*
X188067598Y-104291509D01*
X188222250Y-104260747D01*
X188367932Y-104200404D01*
X188499042Y-104112799D01*
X188610542Y-104001299D01*
X188698147Y-103870189D01*
X188758490Y-103724507D01*
X188789253Y-103569852D01*
X188789253Y-103412168D01*
X188789253Y-103412165D01*
X188789252Y-103412163D01*
X188780707Y-103369203D01*
X188758490Y-103257513D01*
X188738557Y-103209390D01*
X188698150Y-103111837D01*
X188698143Y-103111824D01*
X188610542Y-102980721D01*
X188610539Y-102980717D01*
X188499045Y-102869223D01*
X188499041Y-102869220D01*
X188367938Y-102781619D01*
X188367925Y-102781612D01*
X188222254Y-102721274D01*
X188222242Y-102721271D01*
X188067598Y-102690510D01*
X188067595Y-102690510D01*
X187909911Y-102690510D01*
X187909908Y-102690510D01*
X187755263Y-102721271D01*
X187755251Y-102721274D01*
X187609580Y-102781612D01*
X187609567Y-102781619D01*
X187478464Y-102869220D01*
X187478462Y-102869221D01*
X187474931Y-102872753D01*
X187413605Y-102906234D01*
X187343914Y-102901245D01*
X187287983Y-102859370D01*
X187272694Y-102832518D01*
X187227594Y-102723635D01*
X187227587Y-102723622D01*
X187139986Y-102592519D01*
X187139983Y-102592515D01*
X187028489Y-102481021D01*
X187028485Y-102481018D01*
X186897382Y-102393417D01*
X186897369Y-102393410D01*
X186751698Y-102333072D01*
X186751686Y-102333069D01*
X186597042Y-102302308D01*
X186597039Y-102302308D01*
X186439355Y-102302308D01*
X186439352Y-102302308D01*
X186284707Y-102333069D01*
X186284695Y-102333072D01*
X186139024Y-102393410D01*
X186139011Y-102393417D01*
X186007908Y-102481018D01*
X186007904Y-102481021D01*
X185896410Y-102592515D01*
X185896407Y-102592519D01*
X185808806Y-102723622D01*
X185808799Y-102723635D01*
X185748461Y-102869306D01*
X185748458Y-102869318D01*
X185717697Y-103023961D01*
X171614260Y-103023961D01*
X171655048Y-102967820D01*
X171655047Y-102967820D01*
X171655051Y-102967816D01*
X171751557Y-102778412D01*
X171817246Y-102576243D01*
X171850500Y-102366287D01*
X171850500Y-102153713D01*
X171832672Y-102041153D01*
X175199500Y-102041153D01*
X175199500Y-102198846D01*
X175230261Y-102353489D01*
X175230264Y-102353501D01*
X175290602Y-102499172D01*
X175290609Y-102499185D01*
X175378210Y-102630288D01*
X175378213Y-102630292D01*
X175489707Y-102741786D01*
X175489711Y-102741789D01*
X175620814Y-102829390D01*
X175620827Y-102829397D01*
X175741028Y-102879185D01*
X175766503Y-102889737D01*
X175921153Y-102920499D01*
X175921156Y-102920500D01*
X175921158Y-102920500D01*
X176078844Y-102920500D01*
X176078845Y-102920499D01*
X176150562Y-102906234D01*
X176200716Y-102896258D01*
X176200721Y-102896257D01*
X176222882Y-102891848D01*
X176233497Y-102889737D01*
X176379179Y-102829394D01*
X176510289Y-102741789D01*
X176621789Y-102630289D01*
X176709394Y-102499179D01*
X176716917Y-102481018D01*
X176741713Y-102421153D01*
X176769737Y-102353497D01*
X176800500Y-102198842D01*
X176800500Y-102041158D01*
X176800500Y-102041155D01*
X176800499Y-102041153D01*
X176781126Y-101943760D01*
X176769737Y-101886503D01*
X176730017Y-101790609D01*
X176709397Y-101740827D01*
X176709390Y-101740814D01*
X176621789Y-101609711D01*
X176621786Y-101609707D01*
X176510292Y-101498213D01*
X176510288Y-101498210D01*
X176379185Y-101410609D01*
X176379172Y-101410602D01*
X176233501Y-101350264D01*
X176233489Y-101350261D01*
X176078845Y-101319500D01*
X176078842Y-101319500D01*
X175921158Y-101319500D01*
X175921155Y-101319500D01*
X175766510Y-101350261D01*
X175766498Y-101350264D01*
X175620827Y-101410602D01*
X175620814Y-101410609D01*
X175489711Y-101498210D01*
X175489707Y-101498213D01*
X175378213Y-101609707D01*
X175378210Y-101609711D01*
X175290609Y-101740814D01*
X175290602Y-101740827D01*
X175230264Y-101886498D01*
X175230261Y-101886510D01*
X175199500Y-102041153D01*
X171832672Y-102041153D01*
X171827973Y-102011488D01*
X171817247Y-101943761D01*
X171817246Y-101943760D01*
X171817246Y-101943757D01*
X171751557Y-101741588D01*
X171655051Y-101552184D01*
X171655049Y-101552181D01*
X171655048Y-101552179D01*
X171530109Y-101380213D01*
X171379790Y-101229894D01*
X171379785Y-101229890D01*
X171225466Y-101117771D01*
X171225451Y-101117761D01*
X171207816Y-101104949D01*
X171193977Y-101097897D01*
X171189167Y-101094862D01*
X171169684Y-101072746D01*
X171148259Y-101052512D01*
X171146851Y-101046828D01*
X171142981Y-101042435D01*
X171139743Y-101021153D01*
X182199500Y-101021153D01*
X182199500Y-101178846D01*
X182230261Y-101333489D01*
X182230264Y-101333501D01*
X182290602Y-101479172D01*
X182290609Y-101479185D01*
X182378210Y-101610288D01*
X182378213Y-101610292D01*
X182489707Y-101721786D01*
X182489711Y-101721789D01*
X182620814Y-101809390D01*
X182620827Y-101809397D01*
X182695225Y-101840213D01*
X182766503Y-101869737D01*
X182921153Y-101900499D01*
X182921156Y-101900500D01*
X182921158Y-101900500D01*
X183078844Y-101900500D01*
X183078845Y-101900499D01*
X183233497Y-101869737D01*
X183379179Y-101809394D01*
X183510289Y-101721789D01*
X183621789Y-101610289D01*
X183709394Y-101479179D01*
X183769737Y-101333497D01*
X183800500Y-101178842D01*
X183800500Y-101021158D01*
X183800500Y-101021155D01*
X183800499Y-101021153D01*
X183779549Y-100915833D01*
X183769737Y-100866503D01*
X183742398Y-100800500D01*
X183709397Y-100720827D01*
X183709395Y-100720823D01*
X183709394Y-100720821D01*
X183695815Y-100700499D01*
X183672957Y-100666289D01*
X183630993Y-100603485D01*
X192117168Y-100603485D01*
X192117168Y-100761178D01*
X192147929Y-100915821D01*
X192147932Y-100915833D01*
X192208270Y-101061504D01*
X192208277Y-101061517D01*
X192295878Y-101192620D01*
X192295881Y-101192624D01*
X192407375Y-101304118D01*
X192407379Y-101304121D01*
X192538482Y-101391722D01*
X192538495Y-101391729D01*
X192665678Y-101444409D01*
X192684171Y-101452069D01*
X192838821Y-101482831D01*
X192838824Y-101482832D01*
X192838826Y-101482832D01*
X192996512Y-101482832D01*
X192996513Y-101482831D01*
X193151165Y-101452069D01*
X193296847Y-101391726D01*
X193427957Y-101304121D01*
X193539457Y-101192621D01*
X193627062Y-101061511D01*
X193630790Y-101052512D01*
X193654482Y-100995312D01*
X193687405Y-100915829D01*
X193694177Y-100881779D01*
X193726562Y-100819869D01*
X193787278Y-100785295D01*
X193839987Y-100784354D01*
X193921155Y-100800500D01*
X193921158Y-100800500D01*
X194078844Y-100800500D01*
X194078845Y-100800499D01*
X194233497Y-100769737D01*
X194351606Y-100720815D01*
X194379172Y-100709397D01*
X194379172Y-100709396D01*
X194379179Y-100709394D01*
X194510289Y-100621789D01*
X194621789Y-100510289D01*
X194709394Y-100379179D01*
X194769737Y-100233497D01*
X194800500Y-100078842D01*
X194800500Y-99921158D01*
X194800500Y-99921155D01*
X194800499Y-99921153D01*
X194795702Y-99897037D01*
X194769737Y-99766503D01*
X194728314Y-99666498D01*
X194709397Y-99620827D01*
X194709390Y-99620814D01*
X194621789Y-99489711D01*
X194621786Y-99489707D01*
X194510292Y-99378213D01*
X194510288Y-99378210D01*
X194379185Y-99290609D01*
X194379172Y-99290602D01*
X194233501Y-99230264D01*
X194233489Y-99230261D01*
X194078845Y-99199500D01*
X194078842Y-99199500D01*
X193921158Y-99199500D01*
X193921155Y-99199500D01*
X193766510Y-99230261D01*
X193766498Y-99230264D01*
X193620827Y-99290602D01*
X193620814Y-99290609D01*
X193489711Y-99378210D01*
X193489707Y-99378213D01*
X193378213Y-99489707D01*
X193378210Y-99489711D01*
X193290609Y-99620814D01*
X193290602Y-99620827D01*
X193230264Y-99766498D01*
X193230262Y-99766505D01*
X193223489Y-99800554D01*
X193191102Y-99862464D01*
X193130386Y-99897037D01*
X193077681Y-99897977D01*
X192996514Y-99881832D01*
X192996510Y-99881832D01*
X192838826Y-99881832D01*
X192838823Y-99881832D01*
X192684178Y-99912593D01*
X192684166Y-99912596D01*
X192538495Y-99972934D01*
X192538482Y-99972941D01*
X192407379Y-100060542D01*
X192407375Y-100060545D01*
X192295881Y-100172039D01*
X192295878Y-100172043D01*
X192208277Y-100303146D01*
X192208270Y-100303159D01*
X192147932Y-100448830D01*
X192147929Y-100448842D01*
X192117168Y-100603485D01*
X183630993Y-100603485D01*
X183621789Y-100589710D01*
X183510292Y-100478213D01*
X183510288Y-100478210D01*
X183379185Y-100390609D01*
X183379172Y-100390602D01*
X183233501Y-100330264D01*
X183233489Y-100330261D01*
X183078845Y-100299500D01*
X183078842Y-100299500D01*
X182921158Y-100299500D01*
X182921155Y-100299500D01*
X182766510Y-100330261D01*
X182766498Y-100330264D01*
X182620827Y-100390602D01*
X182620814Y-100390609D01*
X182489711Y-100478210D01*
X182489707Y-100478213D01*
X182378213Y-100589707D01*
X182378210Y-100589711D01*
X182290609Y-100720814D01*
X182290602Y-100720827D01*
X182230264Y-100866498D01*
X182230261Y-100866510D01*
X182199500Y-101021153D01*
X171139743Y-101021153D01*
X171138548Y-101013300D01*
X171131463Y-100984692D01*
X171133351Y-100979148D01*
X171132471Y-100973360D01*
X171144492Y-100946453D01*
X171153999Y-100918556D01*
X171158826Y-100914372D01*
X171160973Y-100909569D01*
X171174848Y-100900489D01*
X171199054Y-100879515D01*
X171207816Y-100875051D01*
X171283768Y-100819869D01*
X171379786Y-100750109D01*
X171379788Y-100750106D01*
X171379792Y-100750104D01*
X171530104Y-100599792D01*
X171530106Y-100599788D01*
X171530109Y-100599786D01*
X171655048Y-100427820D01*
X171655047Y-100427820D01*
X171655051Y-100427816D01*
X171751557Y-100238412D01*
X171817246Y-100036243D01*
X171850500Y-99826287D01*
X171850500Y-99821153D01*
X174699500Y-99821153D01*
X174699500Y-99978846D01*
X174730261Y-100133489D01*
X174730264Y-100133501D01*
X174790602Y-100279172D01*
X174790609Y-100279185D01*
X174878210Y-100410288D01*
X174878213Y-100410292D01*
X174989707Y-100521786D01*
X174989711Y-100521789D01*
X175120814Y-100609390D01*
X175120827Y-100609397D01*
X175266498Y-100669735D01*
X175266503Y-100669737D01*
X175409681Y-100698217D01*
X175421153Y-100700499D01*
X175421156Y-100700500D01*
X175421158Y-100700500D01*
X175578844Y-100700500D01*
X175578845Y-100700499D01*
X175733497Y-100669737D01*
X175879179Y-100609394D01*
X176010289Y-100521789D01*
X176121789Y-100410289D01*
X176209394Y-100279179D01*
X176269737Y-100133497D01*
X176300500Y-99978842D01*
X176300500Y-99821158D01*
X176300500Y-99821155D01*
X176300499Y-99821153D01*
X176289627Y-99766498D01*
X176269737Y-99666503D01*
X176247871Y-99613713D01*
X176209397Y-99520827D01*
X176209390Y-99520814D01*
X176121789Y-99389711D01*
X176121786Y-99389707D01*
X176010292Y-99278213D01*
X176010288Y-99278210D01*
X175879185Y-99190609D01*
X175879172Y-99190602D01*
X175733501Y-99130264D01*
X175733489Y-99130261D01*
X175578845Y-99099500D01*
X175578842Y-99099500D01*
X175421158Y-99099500D01*
X175421155Y-99099500D01*
X175266510Y-99130261D01*
X175266498Y-99130264D01*
X175120827Y-99190602D01*
X175120814Y-99190609D01*
X174989711Y-99278210D01*
X174989707Y-99278213D01*
X174878213Y-99389707D01*
X174878210Y-99389711D01*
X174790609Y-99520814D01*
X174790602Y-99520827D01*
X174730264Y-99666498D01*
X174730261Y-99666510D01*
X174699500Y-99821153D01*
X171850500Y-99821153D01*
X171850500Y-99613713D01*
X171817246Y-99403757D01*
X171751557Y-99201588D01*
X171655051Y-99012184D01*
X171655049Y-99012181D01*
X171655048Y-99012179D01*
X171530109Y-98840213D01*
X171379786Y-98689890D01*
X171207820Y-98564951D01*
X171207115Y-98564591D01*
X171199054Y-98560485D01*
X171148259Y-98512512D01*
X171131463Y-98444692D01*
X171153999Y-98378556D01*
X171199054Y-98339515D01*
X171207816Y-98335051D01*
X171255373Y-98300499D01*
X171379786Y-98210109D01*
X171379788Y-98210106D01*
X171379792Y-98210104D01*
X171530104Y-98059792D01*
X171530106Y-98059788D01*
X171530109Y-98059786D01*
X171655050Y-97887817D01*
X171657976Y-97882076D01*
X171658065Y-97881902D01*
X176999500Y-97881902D01*
X176999500Y-98118097D01*
X177036446Y-98351368D01*
X177109433Y-98575996D01*
X177189685Y-98733497D01*
X177216657Y-98786433D01*
X177355483Y-98977510D01*
X177522490Y-99144517D01*
X177713567Y-99283343D01*
X177747238Y-99300499D01*
X177924003Y-99390566D01*
X177924005Y-99390566D01*
X177924008Y-99390568D01*
X177964609Y-99403760D01*
X178148631Y-99463553D01*
X178381903Y-99500500D01*
X178381908Y-99500500D01*
X178618097Y-99500500D01*
X178851368Y-99463553D01*
X179075992Y-99390568D01*
X179286433Y-99283343D01*
X179477510Y-99144517D01*
X179644517Y-98977510D01*
X179783343Y-98786433D01*
X179890568Y-98575992D01*
X179963553Y-98351368D01*
X179965430Y-98339516D01*
X180000500Y-98118097D01*
X180000500Y-97881902D01*
X183499500Y-97881902D01*
X183499500Y-98118097D01*
X183536446Y-98351368D01*
X183609433Y-98575996D01*
X183689685Y-98733497D01*
X183716657Y-98786433D01*
X183855483Y-98977510D01*
X184022490Y-99144517D01*
X184213567Y-99283343D01*
X184247238Y-99300499D01*
X184424003Y-99390566D01*
X184424005Y-99390566D01*
X184424008Y-99390568D01*
X184464609Y-99403760D01*
X184648631Y-99463553D01*
X184881903Y-99500500D01*
X184881908Y-99500500D01*
X185118097Y-99500500D01*
X185351368Y-99463553D01*
X185575992Y-99390568D01*
X185786433Y-99283343D01*
X185977510Y-99144517D01*
X186144517Y-98977510D01*
X186283343Y-98786433D01*
X186390568Y-98575992D01*
X186440878Y-98421153D01*
X188019500Y-98421153D01*
X188019500Y-98578846D01*
X188050261Y-98733489D01*
X188050264Y-98733501D01*
X188110602Y-98879172D01*
X188110609Y-98879185D01*
X188198210Y-99010288D01*
X188198213Y-99010292D01*
X188309707Y-99121786D01*
X188309711Y-99121789D01*
X188440814Y-99209390D01*
X188440827Y-99209397D01*
X188586498Y-99269735D01*
X188586503Y-99269737D01*
X188741153Y-99300499D01*
X188741156Y-99300500D01*
X188741158Y-99300500D01*
X188898844Y-99300500D01*
X188898845Y-99300499D01*
X189053497Y-99269737D01*
X189199179Y-99209394D01*
X189330289Y-99121789D01*
X189332312Y-99119766D01*
X189333634Y-99119043D01*
X189334999Y-99117924D01*
X189335211Y-99118182D01*
X189393632Y-99086276D01*
X189463324Y-99091255D01*
X189504939Y-99117999D01*
X189505001Y-99117924D01*
X189505648Y-99118454D01*
X189507688Y-99119766D01*
X189509711Y-99121789D01*
X189640814Y-99209390D01*
X189640827Y-99209397D01*
X189786498Y-99269735D01*
X189786503Y-99269737D01*
X189941153Y-99300499D01*
X189941156Y-99300500D01*
X189941158Y-99300500D01*
X190098844Y-99300500D01*
X190098845Y-99300499D01*
X190253497Y-99269737D01*
X190399179Y-99209394D01*
X190530289Y-99121789D01*
X190641789Y-99010289D01*
X190729394Y-98879179D01*
X190789737Y-98733497D01*
X190820500Y-98578842D01*
X190820500Y-98421158D01*
X190820500Y-98421155D01*
X190820499Y-98421153D01*
X190803372Y-98335050D01*
X190789737Y-98266503D01*
X190766080Y-98209390D01*
X190729397Y-98120827D01*
X190729390Y-98120814D01*
X190641789Y-97989711D01*
X190641786Y-97989707D01*
X190530292Y-97878213D01*
X190530288Y-97878210D01*
X190399185Y-97790609D01*
X190399172Y-97790602D01*
X190253501Y-97730264D01*
X190253489Y-97730261D01*
X190098845Y-97699500D01*
X190098842Y-97699500D01*
X189941158Y-97699500D01*
X189941155Y-97699500D01*
X189786510Y-97730261D01*
X189786498Y-97730264D01*
X189640827Y-97790602D01*
X189640814Y-97790609D01*
X189509711Y-97878210D01*
X189509707Y-97878213D01*
X189507681Y-97880240D01*
X189506357Y-97880962D01*
X189505001Y-97882076D01*
X189504789Y-97881818D01*
X189446358Y-97913725D01*
X189376666Y-97908741D01*
X189335060Y-97882001D01*
X189334999Y-97882076D01*
X189334360Y-97881552D01*
X189332319Y-97880240D01*
X189330292Y-97878213D01*
X189330288Y-97878210D01*
X189199185Y-97790609D01*
X189199172Y-97790602D01*
X189053501Y-97730264D01*
X189053489Y-97730261D01*
X188898845Y-97699500D01*
X188898842Y-97699500D01*
X188741158Y-97699500D01*
X188741155Y-97699500D01*
X188586510Y-97730261D01*
X188586498Y-97730264D01*
X188440827Y-97790602D01*
X188440814Y-97790609D01*
X188309711Y-97878210D01*
X188309707Y-97878213D01*
X188198213Y-97989707D01*
X188198210Y-97989711D01*
X188110609Y-98120814D01*
X188110602Y-98120827D01*
X188050264Y-98266498D01*
X188050261Y-98266510D01*
X188019500Y-98421153D01*
X186440878Y-98421153D01*
X186463553Y-98351368D01*
X186465430Y-98339516D01*
X186500500Y-98118097D01*
X186500500Y-97881902D01*
X186476482Y-97730261D01*
X186463553Y-97648632D01*
X186463552Y-97648628D01*
X186463552Y-97648627D01*
X186426213Y-97533713D01*
X186390568Y-97424008D01*
X186389113Y-97421153D01*
X192699500Y-97421153D01*
X192699500Y-97578846D01*
X192730261Y-97733489D01*
X192730264Y-97733501D01*
X192790602Y-97879172D01*
X192790609Y-97879185D01*
X192878210Y-98010288D01*
X192878213Y-98010292D01*
X192989707Y-98121786D01*
X192989711Y-98121789D01*
X193120814Y-98209390D01*
X193120827Y-98209397D01*
X193258683Y-98266498D01*
X193266503Y-98269737D01*
X193421153Y-98300499D01*
X193421156Y-98300500D01*
X193421158Y-98300500D01*
X193578844Y-98300500D01*
X193578845Y-98300499D01*
X193733497Y-98269737D01*
X193879179Y-98209394D01*
X194010289Y-98121789D01*
X194121789Y-98010289D01*
X194209394Y-97879179D01*
X194269737Y-97733497D01*
X194300500Y-97578842D01*
X194300500Y-97421158D01*
X194300500Y-97421155D01*
X194300499Y-97421153D01*
X197199500Y-97421153D01*
X197199500Y-97578846D01*
X197230261Y-97733489D01*
X197230264Y-97733501D01*
X197290602Y-97879172D01*
X197290609Y-97879185D01*
X197378210Y-98010288D01*
X197378213Y-98010292D01*
X197489707Y-98121786D01*
X197489711Y-98121789D01*
X197620814Y-98209390D01*
X197620827Y-98209397D01*
X197758683Y-98266498D01*
X197766503Y-98269737D01*
X197921153Y-98300499D01*
X197921156Y-98300500D01*
X197921158Y-98300500D01*
X198078844Y-98300500D01*
X198078845Y-98300499D01*
X198233497Y-98269737D01*
X198379179Y-98209394D01*
X198510289Y-98121789D01*
X198621789Y-98010289D01*
X198709394Y-97879179D01*
X198769737Y-97733497D01*
X198800500Y-97578842D01*
X198800500Y-97421158D01*
X198800500Y-97421155D01*
X198800499Y-97421153D01*
X198781126Y-97323760D01*
X198769737Y-97266503D01*
X198769735Y-97266498D01*
X198709397Y-97120827D01*
X198709390Y-97120814D01*
X198621789Y-96989711D01*
X198621786Y-96989707D01*
X198510292Y-96878213D01*
X198510288Y-96878210D01*
X198379185Y-96790609D01*
X198379172Y-96790602D01*
X198233501Y-96730264D01*
X198233489Y-96730261D01*
X198078845Y-96699500D01*
X198078842Y-96699500D01*
X197921158Y-96699500D01*
X197921155Y-96699500D01*
X197766510Y-96730261D01*
X197766498Y-96730264D01*
X197620827Y-96790602D01*
X197620814Y-96790609D01*
X197489711Y-96878210D01*
X197489707Y-96878213D01*
X197378213Y-96989707D01*
X197378210Y-96989711D01*
X197290609Y-97120814D01*
X197290602Y-97120827D01*
X197230264Y-97266498D01*
X197230261Y-97266510D01*
X197199500Y-97421153D01*
X194300499Y-97421153D01*
X194281126Y-97323760D01*
X194269737Y-97266503D01*
X194269735Y-97266498D01*
X194209397Y-97120827D01*
X194209390Y-97120814D01*
X194121789Y-96989711D01*
X194121786Y-96989707D01*
X194010292Y-96878213D01*
X194010288Y-96878210D01*
X193879185Y-96790609D01*
X193879172Y-96790602D01*
X193733501Y-96730264D01*
X193733489Y-96730261D01*
X193578845Y-96699500D01*
X193578842Y-96699500D01*
X193421158Y-96699500D01*
X193421155Y-96699500D01*
X193266510Y-96730261D01*
X193266498Y-96730264D01*
X193120827Y-96790602D01*
X193120814Y-96790609D01*
X192989711Y-96878210D01*
X192989707Y-96878213D01*
X192878213Y-96989707D01*
X192878210Y-96989711D01*
X192790609Y-97120814D01*
X192790602Y-97120827D01*
X192730264Y-97266498D01*
X192730261Y-97266510D01*
X192699500Y-97421153D01*
X186389113Y-97421153D01*
X186283343Y-97213567D01*
X186144517Y-97022490D01*
X185977510Y-96855483D01*
X185786433Y-96716657D01*
X185575996Y-96609433D01*
X185351368Y-96536446D01*
X185118097Y-96499500D01*
X185118092Y-96499500D01*
X184881908Y-96499500D01*
X184881903Y-96499500D01*
X184648631Y-96536446D01*
X184424003Y-96609433D01*
X184213566Y-96716657D01*
X184153624Y-96760208D01*
X184022490Y-96855483D01*
X184022488Y-96855485D01*
X184022487Y-96855485D01*
X183855485Y-97022487D01*
X183855485Y-97022488D01*
X183855483Y-97022490D01*
X183818267Y-97073713D01*
X183716657Y-97213566D01*
X183609433Y-97424003D01*
X183536446Y-97648631D01*
X183499500Y-97881902D01*
X180000500Y-97881902D01*
X179963553Y-97648631D01*
X179914037Y-97496239D01*
X179890568Y-97424008D01*
X179890566Y-97424005D01*
X179890566Y-97424003D01*
X179810315Y-97266503D01*
X179783343Y-97213567D01*
X179644517Y-97022490D01*
X179477510Y-96855483D01*
X179286433Y-96716657D01*
X179075996Y-96609433D01*
X178851368Y-96536446D01*
X178618097Y-96499500D01*
X178618092Y-96499500D01*
X178381908Y-96499500D01*
X178381903Y-96499500D01*
X178148631Y-96536446D01*
X177924003Y-96609433D01*
X177713566Y-96716657D01*
X177653624Y-96760208D01*
X177522490Y-96855483D01*
X177522488Y-96855485D01*
X177522487Y-96855485D01*
X177355485Y-97022487D01*
X177355485Y-97022488D01*
X177355483Y-97022490D01*
X177318267Y-97073713D01*
X177216657Y-97213566D01*
X177109433Y-97424003D01*
X177036446Y-97648631D01*
X176999500Y-97881902D01*
X171658065Y-97881902D01*
X171751557Y-97698412D01*
X171817246Y-97496243D01*
X171850500Y-97286287D01*
X171850500Y-97073713D01*
X171817246Y-96863757D01*
X171751557Y-96661588D01*
X171655051Y-96472184D01*
X171655049Y-96472181D01*
X171655048Y-96472179D01*
X171530109Y-96300213D01*
X171379786Y-96149890D01*
X171207820Y-96024951D01*
X171207115Y-96024591D01*
X171199054Y-96020485D01*
X171148259Y-95972512D01*
X171131463Y-95904692D01*
X171153999Y-95838556D01*
X171199054Y-95799515D01*
X171207816Y-95795051D01*
X171229789Y-95779086D01*
X171379786Y-95670109D01*
X171379788Y-95670106D01*
X171379792Y-95670104D01*
X171530104Y-95519792D01*
X171530106Y-95519788D01*
X171530109Y-95519786D01*
X171655048Y-95347820D01*
X171655047Y-95347820D01*
X171655051Y-95347816D01*
X171751557Y-95158412D01*
X171817246Y-94956243D01*
X171850500Y-94746287D01*
X171850500Y-94533713D01*
X171817246Y-94323757D01*
X171751557Y-94121588D01*
X171659089Y-93940110D01*
X171655050Y-93932182D01*
X171647037Y-93921153D01*
X173199500Y-93921153D01*
X173199500Y-94078846D01*
X173230261Y-94233489D01*
X173230264Y-94233501D01*
X173290602Y-94379172D01*
X173290609Y-94379185D01*
X173378210Y-94510288D01*
X173378213Y-94510292D01*
X173489707Y-94621786D01*
X173489711Y-94621789D01*
X173620814Y-94709390D01*
X173620827Y-94709397D01*
X173709889Y-94746287D01*
X173766503Y-94769737D01*
X173921153Y-94800499D01*
X173921156Y-94800500D01*
X173921158Y-94800500D01*
X174078844Y-94800500D01*
X174078845Y-94800499D01*
X174233497Y-94769737D01*
X174379179Y-94709394D01*
X174510289Y-94621789D01*
X174510292Y-94621786D01*
X174544361Y-94587718D01*
X174621786Y-94510292D01*
X174621789Y-94510289D01*
X174709394Y-94379179D01*
X174769737Y-94233497D01*
X174800500Y-94078842D01*
X174800500Y-93921158D01*
X174800500Y-93921155D01*
X174800499Y-93921153D01*
X174787100Y-93853793D01*
X174769737Y-93766503D01*
X174769735Y-93766498D01*
X174709397Y-93620827D01*
X174709390Y-93620814D01*
X174621789Y-93489711D01*
X174621786Y-93489707D01*
X174514026Y-93381947D01*
X177000000Y-93381947D01*
X177000000Y-93618052D01*
X177036934Y-93851247D01*
X177109897Y-94075802D01*
X177217087Y-94286174D01*
X177277338Y-94369104D01*
X177277340Y-94369105D01*
X177976212Y-93670233D01*
X177987482Y-93712292D01*
X178059890Y-93837708D01*
X178162292Y-93940110D01*
X178287708Y-94012518D01*
X178329765Y-94023787D01*
X177630893Y-94722658D01*
X177713828Y-94782914D01*
X177924197Y-94890102D01*
X178148752Y-94963065D01*
X178148751Y-94963065D01*
X178381948Y-95000000D01*
X178618052Y-95000000D01*
X178851247Y-94963065D01*
X179075802Y-94890102D01*
X179286163Y-94782918D01*
X179286169Y-94782914D01*
X179369104Y-94722658D01*
X179369105Y-94722658D01*
X178670233Y-94023787D01*
X178712292Y-94012518D01*
X178837708Y-93940110D01*
X178940110Y-93837708D01*
X179012518Y-93712292D01*
X179023787Y-93670233D01*
X179722658Y-94369105D01*
X179722658Y-94369104D01*
X179782914Y-94286169D01*
X179782918Y-94286163D01*
X179890102Y-94075802D01*
X179963065Y-93851247D01*
X180000000Y-93618052D01*
X180000000Y-93381947D01*
X183500000Y-93381947D01*
X183500000Y-93618052D01*
X183536934Y-93851247D01*
X183609897Y-94075802D01*
X183717087Y-94286174D01*
X183777338Y-94369104D01*
X183777340Y-94369105D01*
X184476212Y-93670233D01*
X184487482Y-93712292D01*
X184559890Y-93837708D01*
X184662292Y-93940110D01*
X184787708Y-94012518D01*
X184829765Y-94023787D01*
X184130893Y-94722658D01*
X184213828Y-94782914D01*
X184424197Y-94890102D01*
X184648752Y-94963065D01*
X184648751Y-94963065D01*
X184881948Y-95000000D01*
X185118052Y-95000000D01*
X185351247Y-94963065D01*
X185575802Y-94890102D01*
X185786163Y-94782918D01*
X185786169Y-94782914D01*
X185869104Y-94722658D01*
X185869105Y-94722658D01*
X185170233Y-94023787D01*
X185212292Y-94012518D01*
X185337708Y-93940110D01*
X185440110Y-93837708D01*
X185512518Y-93712292D01*
X185523787Y-93670234D01*
X186222658Y-94369105D01*
X186222658Y-94369104D01*
X186282914Y-94286169D01*
X186282918Y-94286163D01*
X186390102Y-94075802D01*
X186463065Y-93851247D01*
X186500000Y-93618052D01*
X186500000Y-93381947D01*
X186463065Y-93148752D01*
X186390102Y-92924197D01*
X186282914Y-92713828D01*
X186222658Y-92630894D01*
X186222658Y-92630893D01*
X185523787Y-93329765D01*
X185512518Y-93287708D01*
X185440110Y-93162292D01*
X185337708Y-93059890D01*
X185212292Y-92987482D01*
X185170234Y-92976212D01*
X185869105Y-92277340D01*
X185869104Y-92277338D01*
X185786174Y-92217087D01*
X185575802Y-92109897D01*
X185351247Y-92036934D01*
X185351248Y-92036934D01*
X185118052Y-92000000D01*
X184881948Y-92000000D01*
X184648752Y-92036934D01*
X184424197Y-92109897D01*
X184213830Y-92217084D01*
X184130894Y-92277340D01*
X184829766Y-92976212D01*
X184787708Y-92987482D01*
X184662292Y-93059890D01*
X184559890Y-93162292D01*
X184487482Y-93287708D01*
X184476212Y-93329766D01*
X183777340Y-92630894D01*
X183717084Y-92713830D01*
X183609897Y-92924197D01*
X183536934Y-93148752D01*
X183500000Y-93381947D01*
X180000000Y-93381947D01*
X179963065Y-93148752D01*
X179890102Y-92924197D01*
X179782914Y-92713828D01*
X179722658Y-92630894D01*
X179722658Y-92630893D01*
X179023787Y-93329765D01*
X179012518Y-93287708D01*
X178940110Y-93162292D01*
X178837708Y-93059890D01*
X178712292Y-92987482D01*
X178670234Y-92976212D01*
X179369105Y-92277340D01*
X179369104Y-92277339D01*
X179286174Y-92217087D01*
X179075802Y-92109897D01*
X178851247Y-92036934D01*
X178851248Y-92036934D01*
X178618052Y-92000000D01*
X178381948Y-92000000D01*
X178148752Y-92036934D01*
X177924197Y-92109897D01*
X177713830Y-92217084D01*
X177630894Y-92277340D01*
X178329766Y-92976212D01*
X178287708Y-92987482D01*
X178162292Y-93059890D01*
X178059890Y-93162292D01*
X177987482Y-93287708D01*
X177976212Y-93329766D01*
X177277340Y-92630894D01*
X177217084Y-92713830D01*
X177109897Y-92924197D01*
X177036934Y-93148752D01*
X177000000Y-93381947D01*
X174514026Y-93381947D01*
X174510292Y-93378213D01*
X174510288Y-93378210D01*
X174379185Y-93290609D01*
X174379172Y-93290602D01*
X174233501Y-93230264D01*
X174233489Y-93230261D01*
X174078845Y-93199500D01*
X174078842Y-93199500D01*
X173921158Y-93199500D01*
X173921155Y-93199500D01*
X173766510Y-93230261D01*
X173766498Y-93230264D01*
X173620827Y-93290602D01*
X173620814Y-93290609D01*
X173489711Y-93378210D01*
X173489707Y-93378213D01*
X173378213Y-93489707D01*
X173378210Y-93489711D01*
X173290609Y-93620814D01*
X173290602Y-93620827D01*
X173230264Y-93766498D01*
X173230261Y-93766510D01*
X173199500Y-93921153D01*
X171647037Y-93921153D01*
X171530109Y-93760213D01*
X171416181Y-93646285D01*
X171382696Y-93584962D01*
X171387680Y-93515270D01*
X171429552Y-93459337D01*
X171460529Y-93442422D01*
X171592086Y-93393354D01*
X171592093Y-93393350D01*
X171707187Y-93307190D01*
X171707190Y-93307187D01*
X171793350Y-93192093D01*
X171793354Y-93192086D01*
X171843596Y-93057379D01*
X171843598Y-93057372D01*
X171849999Y-92997844D01*
X171850000Y-92997827D01*
X171850000Y-92350000D01*
X170933012Y-92350000D01*
X170965925Y-92292993D01*
X171000000Y-92165826D01*
X171000000Y-92034174D01*
X170965925Y-91907007D01*
X170933012Y-91850000D01*
X171850000Y-91850000D01*
X171850000Y-91662135D01*
X199149500Y-91662135D01*
X199149500Y-93457870D01*
X199149501Y-93457876D01*
X199155908Y-93517483D01*
X199206202Y-93652328D01*
X199206206Y-93652335D01*
X199292452Y-93767544D01*
X199292455Y-93767547D01*
X199407664Y-93853793D01*
X199407671Y-93853797D01*
X199539082Y-93902810D01*
X199595016Y-93944681D01*
X199619433Y-94010145D01*
X199604582Y-94078418D01*
X199583431Y-94106673D01*
X199469889Y-94220215D01*
X199344951Y-94392179D01*
X199248444Y-94581585D01*
X199182753Y-94783760D01*
X199180102Y-94800499D01*
X199149500Y-94993713D01*
X199149500Y-95206287D01*
X199182754Y-95416243D01*
X199216399Y-95519792D01*
X199248444Y-95618414D01*
X199344951Y-95807820D01*
X199469890Y-95979786D01*
X199620213Y-96130109D01*
X199792182Y-96255050D01*
X199800946Y-96259516D01*
X199851742Y-96307491D01*
X199868536Y-96375312D01*
X199845998Y-96441447D01*
X199800946Y-96480484D01*
X199792182Y-96484949D01*
X199620213Y-96609890D01*
X199469890Y-96760213D01*
X199344951Y-96932179D01*
X199248444Y-97121585D01*
X199182753Y-97323760D01*
X199162221Y-97453396D01*
X199149500Y-97533713D01*
X199149500Y-97746287D01*
X199156520Y-97790609D01*
X199170830Y-97880962D01*
X199182754Y-97956243D01*
X199236543Y-98121789D01*
X199248444Y-98158414D01*
X199344951Y-98347820D01*
X199469890Y-98519786D01*
X199620213Y-98670109D01*
X199792179Y-98795048D01*
X199792181Y-98795049D01*
X199792184Y-98795051D01*
X199801493Y-98799794D01*
X199852290Y-98847766D01*
X199869087Y-98915587D01*
X199846552Y-98981722D01*
X199801505Y-99020760D01*
X199792446Y-99025376D01*
X199792440Y-99025380D01*
X199738282Y-99064727D01*
X199738282Y-99064728D01*
X200370591Y-99697037D01*
X200307007Y-99714075D01*
X200192993Y-99779901D01*
X200099901Y-99872993D01*
X200034075Y-99987007D01*
X200017037Y-100050591D01*
X199384728Y-99418282D01*
X199384727Y-99418282D01*
X199345380Y-99472439D01*
X199248904Y-99661782D01*
X199183242Y-99863869D01*
X199183242Y-99863872D01*
X199150000Y-100073753D01*
X199150000Y-100286246D01*
X199183242Y-100496127D01*
X199183242Y-100496130D01*
X199248904Y-100698217D01*
X199345375Y-100887550D01*
X199384728Y-100941716D01*
X200017037Y-100309408D01*
X200034075Y-100372993D01*
X200099901Y-100487007D01*
X200192993Y-100580099D01*
X200307007Y-100645925D01*
X200370590Y-100662962D01*
X199738282Y-101295269D01*
X199738282Y-101295270D01*
X199792452Y-101334626D01*
X199792451Y-101334626D01*
X199801495Y-101339234D01*
X199852292Y-101387208D01*
X199869087Y-101455029D01*
X199846550Y-101521164D01*
X199801499Y-101560202D01*
X199792182Y-101564949D01*
X199620213Y-101689890D01*
X199469890Y-101840213D01*
X199344951Y-102012179D01*
X199248444Y-102201585D01*
X199182753Y-102403760D01*
X199155435Y-102576239D01*
X199149500Y-102613713D01*
X199149500Y-102826287D01*
X199156860Y-102872753D01*
X199180809Y-103023966D01*
X199182754Y-103036243D01*
X199239015Y-103209397D01*
X199248444Y-103238414D01*
X199344951Y-103427820D01*
X199469890Y-103599786D01*
X199620213Y-103750109D01*
X199792182Y-103875050D01*
X199800946Y-103879516D01*
X199851742Y-103927491D01*
X199868536Y-103995312D01*
X199845998Y-104061447D01*
X199800946Y-104100484D01*
X199792182Y-104104949D01*
X199620213Y-104229890D01*
X199469890Y-104380213D01*
X199344951Y-104552179D01*
X199248444Y-104741585D01*
X199182753Y-104943760D01*
X199157455Y-105103489D01*
X199149500Y-105153713D01*
X199149500Y-105366287D01*
X199182754Y-105576243D01*
X199216399Y-105679792D01*
X199248444Y-105778414D01*
X199344951Y-105967820D01*
X199469890Y-106139786D01*
X199620213Y-106290109D01*
X199792182Y-106415050D01*
X199800946Y-106419516D01*
X199851742Y-106467491D01*
X199868536Y-106535312D01*
X199845998Y-106601447D01*
X199800946Y-106640484D01*
X199792182Y-106644949D01*
X199620213Y-106769890D01*
X199469890Y-106920213D01*
X199344951Y-107092179D01*
X199248444Y-107281585D01*
X199182753Y-107483760D01*
X199149500Y-107693713D01*
X199149500Y-107906286D01*
X199181047Y-108105470D01*
X199182754Y-108116243D01*
X199247308Y-108314920D01*
X199248444Y-108318414D01*
X199344951Y-108507820D01*
X199469890Y-108679786D01*
X199620213Y-108830109D01*
X199792182Y-108955050D01*
X199800946Y-108959516D01*
X199851742Y-109007491D01*
X199868536Y-109075312D01*
X199845998Y-109141447D01*
X199800946Y-109180484D01*
X199792182Y-109184949D01*
X199620213Y-109309890D01*
X199469890Y-109460213D01*
X199344951Y-109632179D01*
X199248444Y-109821585D01*
X199182753Y-110023760D01*
X199149500Y-110233713D01*
X199149500Y-110446286D01*
X199177144Y-110620827D01*
X199182754Y-110656243D01*
X199218578Y-110766498D01*
X199248444Y-110858414D01*
X199344951Y-111047820D01*
X199469890Y-111219786D01*
X199620213Y-111370109D01*
X199792182Y-111495050D01*
X199800946Y-111499516D01*
X199851742Y-111547491D01*
X199868536Y-111615312D01*
X199845998Y-111681447D01*
X199800946Y-111720484D01*
X199792182Y-111724949D01*
X199620213Y-111849890D01*
X199469890Y-112000213D01*
X199344951Y-112172179D01*
X199248444Y-112361585D01*
X199182753Y-112563760D01*
X199150643Y-112766498D01*
X199149500Y-112773713D01*
X199149500Y-112986287D01*
X199153302Y-113010289D01*
X199170961Y-113121789D01*
X199182754Y-113196243D01*
X199243262Y-113382468D01*
X199248444Y-113398414D01*
X199344951Y-113587820D01*
X199469890Y-113759786D01*
X199620213Y-113910109D01*
X199792182Y-114035050D01*
X199800946Y-114039516D01*
X199851742Y-114087491D01*
X199868536Y-114155312D01*
X199845998Y-114221447D01*
X199800946Y-114260484D01*
X199792182Y-114264949D01*
X199620213Y-114389890D01*
X199469890Y-114540213D01*
X199344951Y-114712179D01*
X199248444Y-114901585D01*
X199182753Y-115103760D01*
X199149500Y-115313713D01*
X199149500Y-115526286D01*
X199181806Y-115730261D01*
X199182754Y-115736243D01*
X199242835Y-115921153D01*
X199248444Y-115938414D01*
X199344951Y-116127820D01*
X199469890Y-116299786D01*
X199620213Y-116450109D01*
X199792182Y-116575050D01*
X199800946Y-116579516D01*
X199851742Y-116627491D01*
X199868536Y-116695312D01*
X199845998Y-116761447D01*
X199800946Y-116800484D01*
X199792182Y-116804949D01*
X199620213Y-116929890D01*
X199469890Y-117080213D01*
X199344951Y-117252179D01*
X199248444Y-117441585D01*
X199182753Y-117643760D01*
X199149500Y-117853713D01*
X199149500Y-118066286D01*
X199177082Y-118240435D01*
X199182754Y-118276243D01*
X199216399Y-118379792D01*
X199248444Y-118478414D01*
X199344951Y-118667820D01*
X199469890Y-118839786D01*
X199620213Y-118990109D01*
X199792182Y-119115050D01*
X199800946Y-119119516D01*
X199851742Y-119167491D01*
X199868536Y-119235312D01*
X199845998Y-119301447D01*
X199800946Y-119340484D01*
X199792182Y-119344949D01*
X199620213Y-119469890D01*
X199469890Y-119620213D01*
X199344951Y-119792179D01*
X199248444Y-119981585D01*
X199182753Y-120183760D01*
X199155435Y-120356239D01*
X199149500Y-120393713D01*
X199149500Y-120606287D01*
X199182754Y-120816243D01*
X199216399Y-120919792D01*
X199248444Y-121018414D01*
X199344951Y-121207820D01*
X199469890Y-121379786D01*
X199620213Y-121530109D01*
X199792182Y-121655050D01*
X199800946Y-121659516D01*
X199851742Y-121707491D01*
X199868536Y-121775312D01*
X199845998Y-121841447D01*
X199800946Y-121880484D01*
X199792182Y-121884949D01*
X199620213Y-122009890D01*
X199469890Y-122160213D01*
X199344951Y-122332179D01*
X199248444Y-122521585D01*
X199182753Y-122723760D01*
X199149500Y-122933713D01*
X199149500Y-123146286D01*
X199171874Y-123287554D01*
X199182754Y-123356243D01*
X199218594Y-123466548D01*
X199248444Y-123558414D01*
X199344951Y-123747820D01*
X199469890Y-123919786D01*
X199620213Y-124070109D01*
X199792182Y-124195050D01*
X199800946Y-124199516D01*
X199851742Y-124247491D01*
X199868536Y-124315312D01*
X199845998Y-124381447D01*
X199800946Y-124420484D01*
X199792182Y-124424949D01*
X199620213Y-124549890D01*
X199469890Y-124700213D01*
X199344951Y-124872179D01*
X199248444Y-125061585D01*
X199182753Y-125263760D01*
X199149500Y-125473713D01*
X199149500Y-125686286D01*
X199182753Y-125896239D01*
X199248444Y-126098414D01*
X199344951Y-126287820D01*
X199469890Y-126459786D01*
X199620213Y-126610109D01*
X199792179Y-126735048D01*
X199792181Y-126735049D01*
X199792184Y-126735051D01*
X199801493Y-126739794D01*
X199852290Y-126787766D01*
X199869087Y-126855587D01*
X199846552Y-126921722D01*
X199801505Y-126960760D01*
X199792446Y-126965376D01*
X199792440Y-126965380D01*
X199738282Y-127004727D01*
X199738282Y-127004728D01*
X200370591Y-127637037D01*
X200307007Y-127654075D01*
X200192993Y-127719901D01*
X200099901Y-127812993D01*
X200034075Y-127927007D01*
X200017037Y-127990591D01*
X199384728Y-127358282D01*
X199384727Y-127358282D01*
X199345380Y-127412439D01*
X199248904Y-127601782D01*
X199183242Y-127803869D01*
X199183242Y-127803872D01*
X199150000Y-128013753D01*
X199150000Y-128226246D01*
X199183242Y-128436127D01*
X199183242Y-128436130D01*
X199248904Y-128638217D01*
X199345375Y-128827550D01*
X199384728Y-128881716D01*
X200017037Y-128249408D01*
X200034075Y-128312993D01*
X200099901Y-128427007D01*
X200192993Y-128520099D01*
X200307007Y-128585925D01*
X200370590Y-128602962D01*
X199738282Y-129235269D01*
X199738282Y-129235270D01*
X199792449Y-129274624D01*
X199981782Y-129371095D01*
X200183870Y-129436757D01*
X200393754Y-129470000D01*
X200606246Y-129470000D01*
X200816127Y-129436757D01*
X200816130Y-129436757D01*
X201018217Y-129371095D01*
X201207554Y-129274622D01*
X201261716Y-129235270D01*
X201261717Y-129235270D01*
X200629408Y-128602962D01*
X200692993Y-128585925D01*
X200807007Y-128520099D01*
X200900099Y-128427007D01*
X200965925Y-128312993D01*
X200982962Y-128249408D01*
X201615270Y-128881717D01*
X201615270Y-128881716D01*
X201654622Y-128827554D01*
X201751095Y-128638217D01*
X201816757Y-128436130D01*
X201816757Y-128436127D01*
X201850000Y-128226246D01*
X201850000Y-128013753D01*
X201816757Y-127803872D01*
X201816757Y-127803869D01*
X201751095Y-127601782D01*
X201654624Y-127412449D01*
X201615270Y-127358282D01*
X201615269Y-127358282D01*
X200982962Y-127990590D01*
X200965925Y-127927007D01*
X200900099Y-127812993D01*
X200807007Y-127719901D01*
X200692993Y-127654075D01*
X200629409Y-127637037D01*
X201261716Y-127004728D01*
X201207547Y-126965373D01*
X201207547Y-126965372D01*
X201198500Y-126960763D01*
X201147706Y-126912788D01*
X201130912Y-126844966D01*
X201153451Y-126778832D01*
X201198508Y-126739793D01*
X201207816Y-126735051D01*
X201322804Y-126651508D01*
X201379786Y-126610109D01*
X201379788Y-126610106D01*
X201379792Y-126610104D01*
X201530104Y-126459792D01*
X201530106Y-126459788D01*
X201530109Y-126459786D01*
X201655048Y-126287820D01*
X201655047Y-126287820D01*
X201655051Y-126287816D01*
X201751557Y-126098412D01*
X201817246Y-125896243D01*
X201850500Y-125686287D01*
X201850500Y-125473713D01*
X201817246Y-125263757D01*
X201751557Y-125061588D01*
X201655051Y-124872184D01*
X201655049Y-124872181D01*
X201655048Y-124872179D01*
X201530109Y-124700213D01*
X201379786Y-124549890D01*
X201207820Y-124424951D01*
X201207115Y-124424591D01*
X201199054Y-124420485D01*
X201148259Y-124372512D01*
X201131463Y-124304692D01*
X201153999Y-124238556D01*
X201199054Y-124199515D01*
X201207816Y-124195051D01*
X201229789Y-124179086D01*
X201379786Y-124070109D01*
X201379788Y-124070106D01*
X201379792Y-124070104D01*
X201530104Y-123919792D01*
X201530106Y-123919788D01*
X201530109Y-123919786D01*
X201655048Y-123747820D01*
X201655047Y-123747820D01*
X201655051Y-123747816D01*
X201751557Y-123558412D01*
X201817246Y-123356243D01*
X201850500Y-123146287D01*
X201850500Y-122933713D01*
X201817246Y-122723757D01*
X201751557Y-122521588D01*
X201655051Y-122332184D01*
X201655049Y-122332181D01*
X201655048Y-122332179D01*
X201530109Y-122160213D01*
X201379786Y-122009890D01*
X201207820Y-121884951D01*
X201207115Y-121884591D01*
X201199054Y-121880485D01*
X201148259Y-121832512D01*
X201131463Y-121764692D01*
X201153999Y-121698556D01*
X201199054Y-121659515D01*
X201207816Y-121655051D01*
X201361701Y-121543248D01*
X201379786Y-121530109D01*
X201379788Y-121530106D01*
X201379792Y-121530104D01*
X201530104Y-121379792D01*
X201530106Y-121379788D01*
X201530109Y-121379786D01*
X201655048Y-121207820D01*
X201655047Y-121207820D01*
X201655051Y-121207816D01*
X201751557Y-121018412D01*
X201817246Y-120816243D01*
X201850500Y-120606287D01*
X201850500Y-120393713D01*
X201817246Y-120183757D01*
X201751557Y-119981588D01*
X201655051Y-119792184D01*
X201655049Y-119792181D01*
X201655048Y-119792179D01*
X201530109Y-119620213D01*
X201379786Y-119469890D01*
X201207820Y-119344951D01*
X201207115Y-119344591D01*
X201199054Y-119340485D01*
X201148259Y-119292512D01*
X201131463Y-119224692D01*
X201153999Y-119158556D01*
X201199054Y-119119515D01*
X201207816Y-119115051D01*
X201229789Y-119099086D01*
X201379786Y-118990109D01*
X201379788Y-118990106D01*
X201379792Y-118990104D01*
X201530104Y-118839792D01*
X201530106Y-118839788D01*
X201530109Y-118839786D01*
X201655048Y-118667820D01*
X201655047Y-118667820D01*
X201655051Y-118667816D01*
X201751557Y-118478412D01*
X201817246Y-118276243D01*
X201850500Y-118066287D01*
X201850500Y-117853713D01*
X201817246Y-117643757D01*
X201751557Y-117441588D01*
X201655051Y-117252184D01*
X201655049Y-117252181D01*
X201655048Y-117252179D01*
X201530109Y-117080213D01*
X201379786Y-116929890D01*
X201207820Y-116804951D01*
X201207115Y-116804591D01*
X201199054Y-116800485D01*
X201148259Y-116752512D01*
X201131463Y-116684692D01*
X201153999Y-116618556D01*
X201199054Y-116579515D01*
X201207816Y-116575051D01*
X201269426Y-116530289D01*
X201379786Y-116450109D01*
X201379788Y-116450106D01*
X201379792Y-116450104D01*
X201530104Y-116299792D01*
X201530106Y-116299788D01*
X201530109Y-116299786D01*
X201655048Y-116127820D01*
X201655047Y-116127820D01*
X201655051Y-116127816D01*
X201751557Y-115938412D01*
X201817246Y-115736243D01*
X201850500Y-115526287D01*
X201850500Y-115313713D01*
X201817246Y-115103757D01*
X201751557Y-114901588D01*
X201655051Y-114712184D01*
X201655049Y-114712181D01*
X201655048Y-114712179D01*
X201530109Y-114540213D01*
X201379786Y-114389890D01*
X201207820Y-114264951D01*
X201207115Y-114264591D01*
X201199054Y-114260485D01*
X201148259Y-114212512D01*
X201131463Y-114144692D01*
X201153999Y-114078556D01*
X201199054Y-114039515D01*
X201207816Y-114035051D01*
X201270227Y-113989707D01*
X201379786Y-113910109D01*
X201379788Y-113910106D01*
X201379792Y-113910104D01*
X201530104Y-113759792D01*
X201530106Y-113759788D01*
X201530109Y-113759786D01*
X201655048Y-113587820D01*
X201655047Y-113587820D01*
X201655051Y-113587816D01*
X201751557Y-113398412D01*
X201817246Y-113196243D01*
X201850500Y-112986287D01*
X201850500Y-112773713D01*
X201817246Y-112563757D01*
X201751557Y-112361588D01*
X201655051Y-112172184D01*
X201655049Y-112172181D01*
X201655048Y-112172179D01*
X201530109Y-112000213D01*
X201379786Y-111849890D01*
X201207820Y-111724951D01*
X201207115Y-111724591D01*
X201199054Y-111720485D01*
X201148259Y-111672512D01*
X201131463Y-111604692D01*
X201153999Y-111538556D01*
X201199054Y-111499515D01*
X201207816Y-111495051D01*
X201309529Y-111421153D01*
X201379786Y-111370109D01*
X201379788Y-111370106D01*
X201379792Y-111370104D01*
X201530104Y-111219792D01*
X201530106Y-111219788D01*
X201530109Y-111219786D01*
X201655048Y-111047820D01*
X201655047Y-111047820D01*
X201655051Y-111047816D01*
X201751557Y-110858412D01*
X201817246Y-110656243D01*
X201850500Y-110446287D01*
X201850500Y-110233713D01*
X201817246Y-110023757D01*
X201751557Y-109821588D01*
X201655051Y-109632184D01*
X201655049Y-109632181D01*
X201655048Y-109632179D01*
X201530109Y-109460213D01*
X201379786Y-109309890D01*
X201207820Y-109184951D01*
X201207115Y-109184591D01*
X201199054Y-109180485D01*
X201148259Y-109132512D01*
X201131463Y-109064692D01*
X201153999Y-108998556D01*
X201199054Y-108959515D01*
X201207816Y-108955051D01*
X201268410Y-108911027D01*
X201379786Y-108830109D01*
X201379788Y-108830106D01*
X201379792Y-108830104D01*
X201530104Y-108679792D01*
X201530106Y-108679788D01*
X201530109Y-108679786D01*
X201655048Y-108507820D01*
X201655047Y-108507820D01*
X201655051Y-108507816D01*
X201751557Y-108318412D01*
X201817246Y-108116243D01*
X201850500Y-107906287D01*
X201850500Y-107693713D01*
X201817246Y-107483757D01*
X201751557Y-107281588D01*
X201655051Y-107092184D01*
X201655049Y-107092181D01*
X201655048Y-107092179D01*
X201530109Y-106920213D01*
X201379786Y-106769890D01*
X201207820Y-106644951D01*
X201207115Y-106644591D01*
X201199054Y-106640485D01*
X201148259Y-106592512D01*
X201131463Y-106524692D01*
X201153999Y-106458556D01*
X201199054Y-106419515D01*
X201207816Y-106415051D01*
X201242699Y-106389707D01*
X201379786Y-106290109D01*
X201379788Y-106290106D01*
X201379792Y-106290104D01*
X201530104Y-106139792D01*
X201530106Y-106139788D01*
X201530109Y-106139786D01*
X201655048Y-105967820D01*
X201655047Y-105967820D01*
X201655051Y-105967816D01*
X201751557Y-105778412D01*
X201817246Y-105576243D01*
X201850500Y-105366287D01*
X201850500Y-105153713D01*
X201817246Y-104943757D01*
X201751557Y-104741588D01*
X201655051Y-104552184D01*
X201655049Y-104552181D01*
X201655048Y-104552179D01*
X201530109Y-104380213D01*
X201379786Y-104229890D01*
X201207820Y-104104951D01*
X201207115Y-104104591D01*
X201199054Y-104100485D01*
X201148259Y-104052512D01*
X201131463Y-103984692D01*
X201153999Y-103918556D01*
X201199054Y-103879515D01*
X201207816Y-103875051D01*
X201229789Y-103859086D01*
X201379786Y-103750109D01*
X201379788Y-103750106D01*
X201379792Y-103750104D01*
X201530104Y-103599792D01*
X201530106Y-103599788D01*
X201530109Y-103599786D01*
X201655048Y-103427820D01*
X201655047Y-103427820D01*
X201655051Y-103427816D01*
X201751557Y-103238412D01*
X201817246Y-103036243D01*
X201850500Y-102826287D01*
X201850500Y-102613713D01*
X201817246Y-102403757D01*
X201751557Y-102201588D01*
X201655051Y-102012184D01*
X201655049Y-102012181D01*
X201655048Y-102012179D01*
X201530109Y-101840213D01*
X201379786Y-101689890D01*
X201207817Y-101564949D01*
X201198504Y-101560204D01*
X201147707Y-101512230D01*
X201130912Y-101444409D01*
X201153449Y-101378274D01*
X201198507Y-101339232D01*
X201207555Y-101334622D01*
X201261716Y-101295270D01*
X201261717Y-101295270D01*
X200629408Y-100662962D01*
X200692993Y-100645925D01*
X200807007Y-100580099D01*
X200900099Y-100487007D01*
X200965925Y-100372993D01*
X200982962Y-100309408D01*
X201615270Y-100941717D01*
X201615270Y-100941716D01*
X201654622Y-100887554D01*
X201751095Y-100698217D01*
X201816757Y-100496130D01*
X201816757Y-100496127D01*
X201850000Y-100286246D01*
X201850000Y-100073753D01*
X201816757Y-99863872D01*
X201816757Y-99863869D01*
X201751095Y-99661782D01*
X201654624Y-99472449D01*
X201615270Y-99418282D01*
X201615269Y-99418282D01*
X200982962Y-100050590D01*
X200965925Y-99987007D01*
X200900099Y-99872993D01*
X200807007Y-99779901D01*
X200692993Y-99714075D01*
X200629409Y-99697037D01*
X201261716Y-99064728D01*
X201207547Y-99025373D01*
X201207547Y-99025372D01*
X201198500Y-99020763D01*
X201147706Y-98972788D01*
X201130912Y-98904966D01*
X201153451Y-98838832D01*
X201198508Y-98799793D01*
X201207816Y-98795051D01*
X201292549Y-98733489D01*
X201379786Y-98670109D01*
X201379788Y-98670106D01*
X201379792Y-98670104D01*
X201530104Y-98519792D01*
X201530106Y-98519788D01*
X201530109Y-98519786D01*
X201655048Y-98347820D01*
X201655047Y-98347820D01*
X201655051Y-98347816D01*
X201751557Y-98158412D01*
X201817246Y-97956243D01*
X201850500Y-97746287D01*
X201850500Y-97533713D01*
X201817246Y-97323757D01*
X201751557Y-97121588D01*
X201655051Y-96932184D01*
X201655049Y-96932181D01*
X201655048Y-96932179D01*
X201530109Y-96760213D01*
X201379786Y-96609890D01*
X201207820Y-96484951D01*
X201207115Y-96484591D01*
X201199054Y-96480485D01*
X201148259Y-96432512D01*
X201131463Y-96364692D01*
X201153999Y-96298556D01*
X201199054Y-96259515D01*
X201207816Y-96255051D01*
X201229789Y-96239086D01*
X201379786Y-96130109D01*
X201379788Y-96130106D01*
X201379792Y-96130104D01*
X201530104Y-95979792D01*
X201530106Y-95979788D01*
X201530109Y-95979786D01*
X201655048Y-95807820D01*
X201655047Y-95807820D01*
X201655051Y-95807816D01*
X201751557Y-95618412D01*
X201817246Y-95416243D01*
X201850500Y-95206287D01*
X201850500Y-94993713D01*
X201817246Y-94783757D01*
X201751557Y-94581588D01*
X201655051Y-94392184D01*
X201655049Y-94392181D01*
X201655048Y-94392179D01*
X201530109Y-94220213D01*
X201416569Y-94106673D01*
X201383084Y-94045350D01*
X201388068Y-93975658D01*
X201429940Y-93919725D01*
X201460915Y-93902810D01*
X201592331Y-93853796D01*
X201707546Y-93767546D01*
X201793796Y-93652331D01*
X201844091Y-93517483D01*
X201850500Y-93457873D01*
X201850499Y-91662128D01*
X201844091Y-91602517D01*
X201843152Y-91600000D01*
X201793797Y-91467671D01*
X201793793Y-91467664D01*
X201707547Y-91352455D01*
X201707544Y-91352452D01*
X201592335Y-91266206D01*
X201592328Y-91266202D01*
X201457482Y-91215908D01*
X201457483Y-91215908D01*
X201397883Y-91209501D01*
X201397881Y-91209500D01*
X201397873Y-91209500D01*
X201397864Y-91209500D01*
X199602129Y-91209500D01*
X199602123Y-91209501D01*
X199542516Y-91215908D01*
X199407671Y-91266202D01*
X199407664Y-91266206D01*
X199292455Y-91352452D01*
X199292452Y-91352455D01*
X199206206Y-91467664D01*
X199206202Y-91467671D01*
X199155908Y-91602517D01*
X199149501Y-91662116D01*
X199149501Y-91662123D01*
X199149500Y-91662135D01*
X171850000Y-91662135D01*
X171850000Y-91202172D01*
X171849999Y-91202155D01*
X171843598Y-91142627D01*
X171843596Y-91142620D01*
X171793354Y-91007913D01*
X171793350Y-91007906D01*
X171707190Y-90892812D01*
X171707187Y-90892809D01*
X171592093Y-90806649D01*
X171592086Y-90806645D01*
X171457379Y-90756403D01*
X171457372Y-90756401D01*
X171397844Y-90750000D01*
X170750000Y-90750000D01*
X170750000Y-91666988D01*
X170692993Y-91634075D01*
X170565826Y-91600000D01*
X170434174Y-91600000D01*
X170307007Y-91634075D01*
X170250000Y-91666988D01*
X170250000Y-90750000D01*
X169602155Y-90750000D01*
X169542627Y-90756401D01*
X169542620Y-90756403D01*
X169407913Y-90806645D01*
X169407906Y-90806649D01*
X169292812Y-90892809D01*
X169292809Y-90892812D01*
X169206649Y-91007906D01*
X169206645Y-91007913D01*
X169156403Y-91142620D01*
X169156401Y-91142627D01*
X169150000Y-91202155D01*
X169150000Y-91850000D01*
X170066988Y-91850000D01*
X170034075Y-91907007D01*
X170000000Y-92034174D01*
X170000000Y-92165826D01*
X170034075Y-92292993D01*
X170066988Y-92350000D01*
X169150000Y-92350000D01*
X169150000Y-92997844D01*
X169156401Y-93057372D01*
X169156403Y-93057379D01*
X169206645Y-93192086D01*
X169206649Y-93192093D01*
X169292809Y-93307187D01*
X169292812Y-93307190D01*
X169407906Y-93393350D01*
X169407913Y-93393354D01*
X169539470Y-93442422D01*
X169595404Y-93484293D01*
X169619821Y-93549758D01*
X169604969Y-93618031D01*
X169583819Y-93646285D01*
X169469889Y-93760215D01*
X169344951Y-93932179D01*
X169248444Y-94121585D01*
X169182753Y-94323760D01*
X169149500Y-94533713D01*
X165750500Y-94533713D01*
X165750500Y-89624000D01*
X165770185Y-89556961D01*
X165822989Y-89511206D01*
X165874500Y-89500000D01*
X205125500Y-89500000D01*
X205192539Y-89519685D01*
G37*
%TD.AperFunction*%
%TD*%
M02*
