M48
; DRILL file KiCad 10.0.5 date 2026-09-25T22:31:11
; FORMAT={-:-/ absolute / metric / decimal}
; #@! TF.CreationDate,2026-09-25T22:31:11+05:30
; #@! TF.GenerationSoftware,Kicad,Pcbnew,10.0.5
; #@! TF.FileFunction,Plated,1,4,PTH
FMAT,2
METRIC
; #@! TA.AperFunction,Plated,PTH,ViaDrill
T1C0.300
; #@! TA.AperFunction,Plated,PTH,ComponentDrill
T2C0.300
; #@! TA.AperFunction,Plated,PTH,ComponentDrill
T3C0.600
; #@! TA.AperFunction,Plated,PTH,ComponentDrill
T4C1.000
; #@! TA.AperFunction,Plated,PTH,ComponentDrill
T5C1.100
%
G90
G05
T1
X173.0Y-111.0
X174.0Y-94.0
X174.802Y-110.573
X175.5Y-99.9
X176.0Y-102.12
X177.826Y-105.326
X178.0Y-110.5
X180.5Y-107.5
X180.901Y-108.401
X182.0Y-120.5
X182.765Y-104.049
X183.0Y-101.1
X183.0Y-118.0
X184.5Y-117.4
X185.0Y-105.5
X185.0Y-110.5
X185.74Y-118.109
X186.0Y-117.0
X186.0Y-117.0
X186.518Y-103.103
X187.0Y-113.0
X187.989Y-103.491
X188.0Y-113.0
X188.82Y-98.5
X188.82Y-99.5
X189.0Y-113.0
X189.0Y-115.5
X189.66Y-104.87
X190.0Y-103.1
X190.02Y-98.5
X190.5Y-113.5
X191.0Y-102.5
X191.326Y-103.326
X191.5Y-106.9
X191.5Y-110.5
X191.5Y-111.5
X192.0Y-116.0
X192.481Y-114.519
X192.918Y-100.682
X193.0Y-112.5
X193.5Y-97.5
X193.5Y-107.336
X193.5Y-113.5
X194.0Y-100.0
X194.0Y-102.5
X194.436Y-107.936
X194.5Y-114.5
X195.5Y-116.5
X197.0Y-116.02
X198.0Y-97.5
X198.0Y-116.02
T2
X193.15Y-89.625
T4
X170.5Y-92.1
X170.5Y-94.64
X170.5Y-97.18
X170.5Y-99.72
X170.5Y-102.26
X170.5Y-104.8
X170.5Y-107.34
X170.5Y-109.88
X170.5Y-112.42
X170.5Y-114.96
X170.5Y-117.5
X170.5Y-120.04
X170.5Y-122.58
X170.5Y-125.12
X170.5Y-127.66
X200.5Y-92.56
X200.5Y-95.1
X200.5Y-97.64
X200.5Y-100.18
X200.5Y-102.72
X200.5Y-105.26
X200.5Y-107.8
X200.5Y-110.34
X200.5Y-112.88
X200.5Y-115.42
X200.5Y-117.96
X200.5Y-120.5
X200.5Y-123.04
X200.5Y-125.58
X200.5Y-128.12
T5
X178.5Y-93.5
X178.5Y-98.0
X185.0Y-93.5
X185.0Y-98.0
T3
G00X181.18Y-122.32
M15
G01X181.18Y-123.42
M16
G05
G00X181.18Y-126.75
M15
G01X181.18Y-127.35
M16
G05
G00X189.82Y-122.32
M15
G01X189.82Y-123.42
M16
G05
G00X189.82Y-126.75
M15
G01X189.82Y-127.35
M16
G05
M30
