%TF.GenerationSoftware,KiCad,Pcbnew,10.0.5*%
%TF.CreationDate,2026-09-25T22:31:14+05:30*%
%TF.ProjectId,esp32-devboard,65737033-322d-4646-9576-626f6172642e,rev?*%
%TF.SameCoordinates,Original*%
%TF.FileFunction,Legend,Top*%
%TF.FilePolarity,Positive*%
%FSLAX46Y46*%
G04 Gerber Fmt 4.6, Leading zero omitted, Abs format (unit mm)*
G04 Created by KiCad (PCBNEW 10.0.5) date 2026-09-25 22:31:14*
%MOMM*%
%LPD*%
G01*
G04 APERTURE LIST*
%ADD10C,0.100000*%
%ADD11C,0.150000*%
%ADD12C,0.120000*%
%ADD13C,0.000000*%
G04 APERTURE END LIST*
D10*
X168500000Y-90000000D02*
X173000000Y-90000000D01*
X173000000Y-130000000D01*
X168500000Y-130000000D01*
X168500000Y-90000000D01*
X198000000Y-90500000D02*
X203000000Y-90500000D01*
X203000000Y-130500000D01*
X198000000Y-130500000D01*
X198000000Y-90500000D01*
X204500000Y-90000000D02*
X166500000Y-90000000D01*
D11*
X194778628Y-105426190D02*
X195254819Y-105426190D01*
X194254819Y-105759523D02*
X194778628Y-105426190D01*
X194778628Y-105426190D02*
X194254819Y-105092857D01*
X195254819Y-104235714D02*
X195254819Y-104807142D01*
X195254819Y-104521428D02*
X194254819Y-104521428D01*
X194254819Y-104521428D02*
X194397676Y-104616666D01*
X194397676Y-104616666D02*
X194492914Y-104711904D01*
X194492914Y-104711904D02*
X194540533Y-104807142D01*
X189584819Y-106431904D02*
X190394342Y-106431904D01*
X190394342Y-106431904D02*
X190489580Y-106384285D01*
X190489580Y-106384285D02*
X190537200Y-106336666D01*
X190537200Y-106336666D02*
X190584819Y-106241428D01*
X190584819Y-106241428D02*
X190584819Y-106050952D01*
X190584819Y-106050952D02*
X190537200Y-105955714D01*
X190537200Y-105955714D02*
X190489580Y-105908095D01*
X190489580Y-105908095D02*
X190394342Y-105860476D01*
X190394342Y-105860476D02*
X189584819Y-105860476D01*
X190584819Y-104860476D02*
X190584819Y-105431904D01*
X190584819Y-105146190D02*
X189584819Y-105146190D01*
X189584819Y-105146190D02*
X189727676Y-105241428D01*
X189727676Y-105241428D02*
X189822914Y-105336666D01*
X189822914Y-105336666D02*
X189870533Y-105431904D01*
X185166666Y-119809819D02*
X185166666Y-120524104D01*
X185166666Y-120524104D02*
X185119047Y-120666961D01*
X185119047Y-120666961D02*
X185023809Y-120762200D01*
X185023809Y-120762200D02*
X184880952Y-120809819D01*
X184880952Y-120809819D02*
X184785714Y-120809819D01*
X186166666Y-120809819D02*
X185595238Y-120809819D01*
X185880952Y-120809819D02*
X185880952Y-119809819D01*
X185880952Y-119809819D02*
X185785714Y-119952676D01*
X185785714Y-119952676D02*
X185690476Y-120047914D01*
X185690476Y-120047914D02*
X185595238Y-120095533D01*
X180416667Y-100407200D02*
X180559524Y-100454819D01*
X180559524Y-100454819D02*
X180797619Y-100454819D01*
X180797619Y-100454819D02*
X180892857Y-100407200D01*
X180892857Y-100407200D02*
X180940476Y-100359580D01*
X180940476Y-100359580D02*
X180988095Y-100264342D01*
X180988095Y-100264342D02*
X180988095Y-100169104D01*
X180988095Y-100169104D02*
X180940476Y-100073866D01*
X180940476Y-100073866D02*
X180892857Y-100026247D01*
X180892857Y-100026247D02*
X180797619Y-99978628D01*
X180797619Y-99978628D02*
X180607143Y-99931009D01*
X180607143Y-99931009D02*
X180511905Y-99883390D01*
X180511905Y-99883390D02*
X180464286Y-99835771D01*
X180464286Y-99835771D02*
X180416667Y-99740533D01*
X180416667Y-99740533D02*
X180416667Y-99645295D01*
X180416667Y-99645295D02*
X180464286Y-99550057D01*
X180464286Y-99550057D02*
X180511905Y-99502438D01*
X180511905Y-99502438D02*
X180607143Y-99454819D01*
X180607143Y-99454819D02*
X180845238Y-99454819D01*
X180845238Y-99454819D02*
X180988095Y-99502438D01*
X181321429Y-99454819D02*
X181559524Y-100454819D01*
X181559524Y-100454819D02*
X181750000Y-99740533D01*
X181750000Y-99740533D02*
X181940476Y-100454819D01*
X181940476Y-100454819D02*
X182178572Y-99454819D01*
X183083333Y-100454819D02*
X182511905Y-100454819D01*
X182797619Y-100454819D02*
X182797619Y-99454819D01*
X182797619Y-99454819D02*
X182702381Y-99597676D01*
X182702381Y-99597676D02*
X182607143Y-99692914D01*
X182607143Y-99692914D02*
X182511905Y-99740533D01*
X174761905Y-107454819D02*
X174761905Y-106454819D01*
X174761905Y-106454819D02*
X175000000Y-106454819D01*
X175000000Y-106454819D02*
X175142857Y-106502438D01*
X175142857Y-106502438D02*
X175238095Y-106597676D01*
X175238095Y-106597676D02*
X175285714Y-106692914D01*
X175285714Y-106692914D02*
X175333333Y-106883390D01*
X175333333Y-106883390D02*
X175333333Y-107026247D01*
X175333333Y-107026247D02*
X175285714Y-107216723D01*
X175285714Y-107216723D02*
X175238095Y-107311961D01*
X175238095Y-107311961D02*
X175142857Y-107407200D01*
X175142857Y-107407200D02*
X175000000Y-107454819D01*
X175000000Y-107454819D02*
X174761905Y-107454819D01*
X175714286Y-106550057D02*
X175761905Y-106502438D01*
X175761905Y-106502438D02*
X175857143Y-106454819D01*
X175857143Y-106454819D02*
X176095238Y-106454819D01*
X176095238Y-106454819D02*
X176190476Y-106502438D01*
X176190476Y-106502438D02*
X176238095Y-106550057D01*
X176238095Y-106550057D02*
X176285714Y-106645295D01*
X176285714Y-106645295D02*
X176285714Y-106740533D01*
X176285714Y-106740533D02*
X176238095Y-106883390D01*
X176238095Y-106883390D02*
X175666667Y-107454819D01*
X175666667Y-107454819D02*
X176285714Y-107454819D01*
X190333333Y-102699580D02*
X190285714Y-102747200D01*
X190285714Y-102747200D02*
X190142857Y-102794819D01*
X190142857Y-102794819D02*
X190047619Y-102794819D01*
X190047619Y-102794819D02*
X189904762Y-102747200D01*
X189904762Y-102747200D02*
X189809524Y-102651961D01*
X189809524Y-102651961D02*
X189761905Y-102556723D01*
X189761905Y-102556723D02*
X189714286Y-102366247D01*
X189714286Y-102366247D02*
X189714286Y-102223390D01*
X189714286Y-102223390D02*
X189761905Y-102032914D01*
X189761905Y-102032914D02*
X189809524Y-101937676D01*
X189809524Y-101937676D02*
X189904762Y-101842438D01*
X189904762Y-101842438D02*
X190047619Y-101794819D01*
X190047619Y-101794819D02*
X190142857Y-101794819D01*
X190142857Y-101794819D02*
X190285714Y-101842438D01*
X190285714Y-101842438D02*
X190333333Y-101890057D01*
X191190476Y-101794819D02*
X191000000Y-101794819D01*
X191000000Y-101794819D02*
X190904762Y-101842438D01*
X190904762Y-101842438D02*
X190857143Y-101890057D01*
X190857143Y-101890057D02*
X190761905Y-102032914D01*
X190761905Y-102032914D02*
X190714286Y-102223390D01*
X190714286Y-102223390D02*
X190714286Y-102604342D01*
X190714286Y-102604342D02*
X190761905Y-102699580D01*
X190761905Y-102699580D02*
X190809524Y-102747200D01*
X190809524Y-102747200D02*
X190904762Y-102794819D01*
X190904762Y-102794819D02*
X191095238Y-102794819D01*
X191095238Y-102794819D02*
X191190476Y-102747200D01*
X191190476Y-102747200D02*
X191238095Y-102699580D01*
X191238095Y-102699580D02*
X191285714Y-102604342D01*
X191285714Y-102604342D02*
X191285714Y-102366247D01*
X191285714Y-102366247D02*
X191238095Y-102271009D01*
X191238095Y-102271009D02*
X191190476Y-102223390D01*
X191190476Y-102223390D02*
X191095238Y-102175771D01*
X191095238Y-102175771D02*
X190904762Y-102175771D01*
X190904762Y-102175771D02*
X190809524Y-102223390D01*
X190809524Y-102223390D02*
X190761905Y-102271009D01*
X190761905Y-102271009D02*
X190714286Y-102366247D01*
X167166666Y-90454819D02*
X167166666Y-91169104D01*
X167166666Y-91169104D02*
X167119047Y-91311961D01*
X167119047Y-91311961D02*
X167023809Y-91407200D01*
X167023809Y-91407200D02*
X166880952Y-91454819D01*
X166880952Y-91454819D02*
X166785714Y-91454819D01*
X167595238Y-90550057D02*
X167642857Y-90502438D01*
X167642857Y-90502438D02*
X167738095Y-90454819D01*
X167738095Y-90454819D02*
X167976190Y-90454819D01*
X167976190Y-90454819D02*
X168071428Y-90502438D01*
X168071428Y-90502438D02*
X168119047Y-90550057D01*
X168119047Y-90550057D02*
X168166666Y-90645295D01*
X168166666Y-90645295D02*
X168166666Y-90740533D01*
X168166666Y-90740533D02*
X168119047Y-90883390D01*
X168119047Y-90883390D02*
X167547619Y-91454819D01*
X167547619Y-91454819D02*
X168166666Y-91454819D01*
X178119405Y-107314819D02*
X178119405Y-106314819D01*
X178119405Y-106314819D02*
X178357500Y-106314819D01*
X178357500Y-106314819D02*
X178500357Y-106362438D01*
X178500357Y-106362438D02*
X178595595Y-106457676D01*
X178595595Y-106457676D02*
X178643214Y-106552914D01*
X178643214Y-106552914D02*
X178690833Y-106743390D01*
X178690833Y-106743390D02*
X178690833Y-106886247D01*
X178690833Y-106886247D02*
X178643214Y-107076723D01*
X178643214Y-107076723D02*
X178595595Y-107171961D01*
X178595595Y-107171961D02*
X178500357Y-107267200D01*
X178500357Y-107267200D02*
X178357500Y-107314819D01*
X178357500Y-107314819D02*
X178119405Y-107314819D01*
X179643214Y-107314819D02*
X179071786Y-107314819D01*
X179357500Y-107314819D02*
X179357500Y-106314819D01*
X179357500Y-106314819D02*
X179262262Y-106457676D01*
X179262262Y-106457676D02*
X179167024Y-106552914D01*
X179167024Y-106552914D02*
X179071786Y-106600533D01*
X185284819Y-119666666D02*
X184808628Y-119999999D01*
X185284819Y-120238094D02*
X184284819Y-120238094D01*
X184284819Y-120238094D02*
X184284819Y-119857142D01*
X184284819Y-119857142D02*
X184332438Y-119761904D01*
X184332438Y-119761904D02*
X184380057Y-119714285D01*
X184380057Y-119714285D02*
X184475295Y-119666666D01*
X184475295Y-119666666D02*
X184618152Y-119666666D01*
X184618152Y-119666666D02*
X184713390Y-119714285D01*
X184713390Y-119714285D02*
X184761009Y-119761904D01*
X184761009Y-119761904D02*
X184808628Y-119857142D01*
X184808628Y-119857142D02*
X184808628Y-120238094D01*
X184380057Y-119285713D02*
X184332438Y-119238094D01*
X184332438Y-119238094D02*
X184284819Y-119142856D01*
X184284819Y-119142856D02*
X184284819Y-118904761D01*
X184284819Y-118904761D02*
X184332438Y-118809523D01*
X184332438Y-118809523D02*
X184380057Y-118761904D01*
X184380057Y-118761904D02*
X184475295Y-118714285D01*
X184475295Y-118714285D02*
X184570533Y-118714285D01*
X184570533Y-118714285D02*
X184713390Y-118761904D01*
X184713390Y-118761904D02*
X185284819Y-119333332D01*
X185284819Y-119333332D02*
X185284819Y-118714285D01*
X192313333Y-101699580D02*
X192265714Y-101747200D01*
X192265714Y-101747200D02*
X192122857Y-101794819D01*
X192122857Y-101794819D02*
X192027619Y-101794819D01*
X192027619Y-101794819D02*
X191884762Y-101747200D01*
X191884762Y-101747200D02*
X191789524Y-101651961D01*
X191789524Y-101651961D02*
X191741905Y-101556723D01*
X191741905Y-101556723D02*
X191694286Y-101366247D01*
X191694286Y-101366247D02*
X191694286Y-101223390D01*
X191694286Y-101223390D02*
X191741905Y-101032914D01*
X191741905Y-101032914D02*
X191789524Y-100937676D01*
X191789524Y-100937676D02*
X191884762Y-100842438D01*
X191884762Y-100842438D02*
X192027619Y-100794819D01*
X192027619Y-100794819D02*
X192122857Y-100794819D01*
X192122857Y-100794819D02*
X192265714Y-100842438D01*
X192265714Y-100842438D02*
X192313333Y-100890057D01*
X192694286Y-100890057D02*
X192741905Y-100842438D01*
X192741905Y-100842438D02*
X192837143Y-100794819D01*
X192837143Y-100794819D02*
X193075238Y-100794819D01*
X193075238Y-100794819D02*
X193170476Y-100842438D01*
X193170476Y-100842438D02*
X193218095Y-100890057D01*
X193218095Y-100890057D02*
X193265714Y-100985295D01*
X193265714Y-100985295D02*
X193265714Y-101080533D01*
X193265714Y-101080533D02*
X193218095Y-101223390D01*
X193218095Y-101223390D02*
X192646667Y-101794819D01*
X192646667Y-101794819D02*
X193265714Y-101794819D01*
X179357142Y-107519580D02*
X179309523Y-107567200D01*
X179309523Y-107567200D02*
X179166666Y-107614819D01*
X179166666Y-107614819D02*
X179071428Y-107614819D01*
X179071428Y-107614819D02*
X178928571Y-107567200D01*
X178928571Y-107567200D02*
X178833333Y-107471961D01*
X178833333Y-107471961D02*
X178785714Y-107376723D01*
X178785714Y-107376723D02*
X178738095Y-107186247D01*
X178738095Y-107186247D02*
X178738095Y-107043390D01*
X178738095Y-107043390D02*
X178785714Y-106852914D01*
X178785714Y-106852914D02*
X178833333Y-106757676D01*
X178833333Y-106757676D02*
X178928571Y-106662438D01*
X178928571Y-106662438D02*
X179071428Y-106614819D01*
X179071428Y-106614819D02*
X179166666Y-106614819D01*
X179166666Y-106614819D02*
X179309523Y-106662438D01*
X179309523Y-106662438D02*
X179357142Y-106710057D01*
X180309523Y-107614819D02*
X179738095Y-107614819D01*
X180023809Y-107614819D02*
X180023809Y-106614819D01*
X180023809Y-106614819D02*
X179928571Y-106757676D01*
X179928571Y-106757676D02*
X179833333Y-106852914D01*
X179833333Y-106852914D02*
X179738095Y-106900533D01*
X180928571Y-106614819D02*
X181023809Y-106614819D01*
X181023809Y-106614819D02*
X181119047Y-106662438D01*
X181119047Y-106662438D02*
X181166666Y-106710057D01*
X181166666Y-106710057D02*
X181214285Y-106805295D01*
X181214285Y-106805295D02*
X181261904Y-106995771D01*
X181261904Y-106995771D02*
X181261904Y-107233866D01*
X181261904Y-107233866D02*
X181214285Y-107424342D01*
X181214285Y-107424342D02*
X181166666Y-107519580D01*
X181166666Y-107519580D02*
X181119047Y-107567200D01*
X181119047Y-107567200D02*
X181023809Y-107614819D01*
X181023809Y-107614819D02*
X180928571Y-107614819D01*
X180928571Y-107614819D02*
X180833333Y-107567200D01*
X180833333Y-107567200D02*
X180785714Y-107519580D01*
X180785714Y-107519580D02*
X180738095Y-107424342D01*
X180738095Y-107424342D02*
X180690476Y-107233866D01*
X180690476Y-107233866D02*
X180690476Y-106995771D01*
X180690476Y-106995771D02*
X180738095Y-106805295D01*
X180738095Y-106805295D02*
X180785714Y-106710057D01*
X180785714Y-106710057D02*
X180833333Y-106662438D01*
X180833333Y-106662438D02*
X180928571Y-106614819D01*
X185519580Y-111166666D02*
X185567200Y-111214285D01*
X185567200Y-111214285D02*
X185614819Y-111357142D01*
X185614819Y-111357142D02*
X185614819Y-111452380D01*
X185614819Y-111452380D02*
X185567200Y-111595237D01*
X185567200Y-111595237D02*
X185471961Y-111690475D01*
X185471961Y-111690475D02*
X185376723Y-111738094D01*
X185376723Y-111738094D02*
X185186247Y-111785713D01*
X185186247Y-111785713D02*
X185043390Y-111785713D01*
X185043390Y-111785713D02*
X184852914Y-111738094D01*
X184852914Y-111738094D02*
X184757676Y-111690475D01*
X184757676Y-111690475D02*
X184662438Y-111595237D01*
X184662438Y-111595237D02*
X184614819Y-111452380D01*
X184614819Y-111452380D02*
X184614819Y-111357142D01*
X184614819Y-111357142D02*
X184662438Y-111214285D01*
X184662438Y-111214285D02*
X184710057Y-111166666D01*
X184948152Y-110309523D02*
X185614819Y-110309523D01*
X184567200Y-110547618D02*
X185281485Y-110785713D01*
X185281485Y-110785713D02*
X185281485Y-110166666D01*
X179833333Y-106519580D02*
X179785714Y-106567200D01*
X179785714Y-106567200D02*
X179642857Y-106614819D01*
X179642857Y-106614819D02*
X179547619Y-106614819D01*
X179547619Y-106614819D02*
X179404762Y-106567200D01*
X179404762Y-106567200D02*
X179309524Y-106471961D01*
X179309524Y-106471961D02*
X179261905Y-106376723D01*
X179261905Y-106376723D02*
X179214286Y-106186247D01*
X179214286Y-106186247D02*
X179214286Y-106043390D01*
X179214286Y-106043390D02*
X179261905Y-105852914D01*
X179261905Y-105852914D02*
X179309524Y-105757676D01*
X179309524Y-105757676D02*
X179404762Y-105662438D01*
X179404762Y-105662438D02*
X179547619Y-105614819D01*
X179547619Y-105614819D02*
X179642857Y-105614819D01*
X179642857Y-105614819D02*
X179785714Y-105662438D01*
X179785714Y-105662438D02*
X179833333Y-105710057D01*
X180309524Y-106614819D02*
X180500000Y-106614819D01*
X180500000Y-106614819D02*
X180595238Y-106567200D01*
X180595238Y-106567200D02*
X180642857Y-106519580D01*
X180642857Y-106519580D02*
X180738095Y-106376723D01*
X180738095Y-106376723D02*
X180785714Y-106186247D01*
X180785714Y-106186247D02*
X180785714Y-105805295D01*
X180785714Y-105805295D02*
X180738095Y-105710057D01*
X180738095Y-105710057D02*
X180690476Y-105662438D01*
X180690476Y-105662438D02*
X180595238Y-105614819D01*
X180595238Y-105614819D02*
X180404762Y-105614819D01*
X180404762Y-105614819D02*
X180309524Y-105662438D01*
X180309524Y-105662438D02*
X180261905Y-105710057D01*
X180261905Y-105710057D02*
X180214286Y-105805295D01*
X180214286Y-105805295D02*
X180214286Y-106043390D01*
X180214286Y-106043390D02*
X180261905Y-106138628D01*
X180261905Y-106138628D02*
X180309524Y-106186247D01*
X180309524Y-106186247D02*
X180404762Y-106233866D01*
X180404762Y-106233866D02*
X180595238Y-106233866D01*
X180595238Y-106233866D02*
X180690476Y-106186247D01*
X180690476Y-106186247D02*
X180738095Y-106138628D01*
X180738095Y-106138628D02*
X180785714Y-106043390D01*
X186833333Y-119519580D02*
X186785714Y-119567200D01*
X186785714Y-119567200D02*
X186642857Y-119614819D01*
X186642857Y-119614819D02*
X186547619Y-119614819D01*
X186547619Y-119614819D02*
X186404762Y-119567200D01*
X186404762Y-119567200D02*
X186309524Y-119471961D01*
X186309524Y-119471961D02*
X186261905Y-119376723D01*
X186261905Y-119376723D02*
X186214286Y-119186247D01*
X186214286Y-119186247D02*
X186214286Y-119043390D01*
X186214286Y-119043390D02*
X186261905Y-118852914D01*
X186261905Y-118852914D02*
X186309524Y-118757676D01*
X186309524Y-118757676D02*
X186404762Y-118662438D01*
X186404762Y-118662438D02*
X186547619Y-118614819D01*
X186547619Y-118614819D02*
X186642857Y-118614819D01*
X186642857Y-118614819D02*
X186785714Y-118662438D01*
X186785714Y-118662438D02*
X186833333Y-118710057D01*
X187404762Y-119043390D02*
X187309524Y-118995771D01*
X187309524Y-118995771D02*
X187261905Y-118948152D01*
X187261905Y-118948152D02*
X187214286Y-118852914D01*
X187214286Y-118852914D02*
X187214286Y-118805295D01*
X187214286Y-118805295D02*
X187261905Y-118710057D01*
X187261905Y-118710057D02*
X187309524Y-118662438D01*
X187309524Y-118662438D02*
X187404762Y-118614819D01*
X187404762Y-118614819D02*
X187595238Y-118614819D01*
X187595238Y-118614819D02*
X187690476Y-118662438D01*
X187690476Y-118662438D02*
X187738095Y-118710057D01*
X187738095Y-118710057D02*
X187785714Y-118805295D01*
X187785714Y-118805295D02*
X187785714Y-118852914D01*
X187785714Y-118852914D02*
X187738095Y-118948152D01*
X187738095Y-118948152D02*
X187690476Y-118995771D01*
X187690476Y-118995771D02*
X187595238Y-119043390D01*
X187595238Y-119043390D02*
X187404762Y-119043390D01*
X187404762Y-119043390D02*
X187309524Y-119091009D01*
X187309524Y-119091009D02*
X187261905Y-119138628D01*
X187261905Y-119138628D02*
X187214286Y-119233866D01*
X187214286Y-119233866D02*
X187214286Y-119424342D01*
X187214286Y-119424342D02*
X187261905Y-119519580D01*
X187261905Y-119519580D02*
X187309524Y-119567200D01*
X187309524Y-119567200D02*
X187404762Y-119614819D01*
X187404762Y-119614819D02*
X187595238Y-119614819D01*
X187595238Y-119614819D02*
X187690476Y-119567200D01*
X187690476Y-119567200D02*
X187738095Y-119519580D01*
X187738095Y-119519580D02*
X187785714Y-119424342D01*
X187785714Y-119424342D02*
X187785714Y-119233866D01*
X187785714Y-119233866D02*
X187738095Y-119138628D01*
X187738095Y-119138628D02*
X187690476Y-119091009D01*
X187690476Y-119091009D02*
X187595238Y-119043390D01*
X195333333Y-105199580D02*
X195285714Y-105247200D01*
X195285714Y-105247200D02*
X195142857Y-105294819D01*
X195142857Y-105294819D02*
X195047619Y-105294819D01*
X195047619Y-105294819D02*
X194904762Y-105247200D01*
X194904762Y-105247200D02*
X194809524Y-105151961D01*
X194809524Y-105151961D02*
X194761905Y-105056723D01*
X194761905Y-105056723D02*
X194714286Y-104866247D01*
X194714286Y-104866247D02*
X194714286Y-104723390D01*
X194714286Y-104723390D02*
X194761905Y-104532914D01*
X194761905Y-104532914D02*
X194809524Y-104437676D01*
X194809524Y-104437676D02*
X194904762Y-104342438D01*
X194904762Y-104342438D02*
X195047619Y-104294819D01*
X195047619Y-104294819D02*
X195142857Y-104294819D01*
X195142857Y-104294819D02*
X195285714Y-104342438D01*
X195285714Y-104342438D02*
X195333333Y-104390057D01*
X196285714Y-105294819D02*
X195714286Y-105294819D01*
X196000000Y-105294819D02*
X196000000Y-104294819D01*
X196000000Y-104294819D02*
X195904762Y-104437676D01*
X195904762Y-104437676D02*
X195809524Y-104532914D01*
X195809524Y-104532914D02*
X195714286Y-104580533D01*
X183284819Y-119666666D02*
X182808628Y-119999999D01*
X183284819Y-120238094D02*
X182284819Y-120238094D01*
X182284819Y-120238094D02*
X182284819Y-119857142D01*
X182284819Y-119857142D02*
X182332438Y-119761904D01*
X182332438Y-119761904D02*
X182380057Y-119714285D01*
X182380057Y-119714285D02*
X182475295Y-119666666D01*
X182475295Y-119666666D02*
X182618152Y-119666666D01*
X182618152Y-119666666D02*
X182713390Y-119714285D01*
X182713390Y-119714285D02*
X182761009Y-119761904D01*
X182761009Y-119761904D02*
X182808628Y-119857142D01*
X182808628Y-119857142D02*
X182808628Y-120238094D01*
X182284819Y-119333332D02*
X182284819Y-118714285D01*
X182284819Y-118714285D02*
X182665771Y-119047618D01*
X182665771Y-119047618D02*
X182665771Y-118904761D01*
X182665771Y-118904761D02*
X182713390Y-118809523D01*
X182713390Y-118809523D02*
X182761009Y-118761904D01*
X182761009Y-118761904D02*
X182856247Y-118714285D01*
X182856247Y-118714285D02*
X183094342Y-118714285D01*
X183094342Y-118714285D02*
X183189580Y-118761904D01*
X183189580Y-118761904D02*
X183237200Y-118809523D01*
X183237200Y-118809523D02*
X183284819Y-118904761D01*
X183284819Y-118904761D02*
X183284819Y-119190475D01*
X183284819Y-119190475D02*
X183237200Y-119285713D01*
X183237200Y-119285713D02*
X183189580Y-119333332D01*
X173489819Y-99461666D02*
X173013628Y-99794999D01*
X173489819Y-100033094D02*
X172489819Y-100033094D01*
X172489819Y-100033094D02*
X172489819Y-99652142D01*
X172489819Y-99652142D02*
X172537438Y-99556904D01*
X172537438Y-99556904D02*
X172585057Y-99509285D01*
X172585057Y-99509285D02*
X172680295Y-99461666D01*
X172680295Y-99461666D02*
X172823152Y-99461666D01*
X172823152Y-99461666D02*
X172918390Y-99509285D01*
X172918390Y-99509285D02*
X172966009Y-99556904D01*
X172966009Y-99556904D02*
X173013628Y-99652142D01*
X173013628Y-99652142D02*
X173013628Y-100033094D01*
X172918390Y-98890237D02*
X172870771Y-98985475D01*
X172870771Y-98985475D02*
X172823152Y-99033094D01*
X172823152Y-99033094D02*
X172727914Y-99080713D01*
X172727914Y-99080713D02*
X172680295Y-99080713D01*
X172680295Y-99080713D02*
X172585057Y-99033094D01*
X172585057Y-99033094D02*
X172537438Y-98985475D01*
X172537438Y-98985475D02*
X172489819Y-98890237D01*
X172489819Y-98890237D02*
X172489819Y-98699761D01*
X172489819Y-98699761D02*
X172537438Y-98604523D01*
X172537438Y-98604523D02*
X172585057Y-98556904D01*
X172585057Y-98556904D02*
X172680295Y-98509285D01*
X172680295Y-98509285D02*
X172727914Y-98509285D01*
X172727914Y-98509285D02*
X172823152Y-98556904D01*
X172823152Y-98556904D02*
X172870771Y-98604523D01*
X172870771Y-98604523D02*
X172918390Y-98699761D01*
X172918390Y-98699761D02*
X172918390Y-98890237D01*
X172918390Y-98890237D02*
X172966009Y-98985475D01*
X172966009Y-98985475D02*
X173013628Y-99033094D01*
X173013628Y-99033094D02*
X173108866Y-99080713D01*
X173108866Y-99080713D02*
X173299342Y-99080713D01*
X173299342Y-99080713D02*
X173394580Y-99033094D01*
X173394580Y-99033094D02*
X173442200Y-98985475D01*
X173442200Y-98985475D02*
X173489819Y-98890237D01*
X173489819Y-98890237D02*
X173489819Y-98699761D01*
X173489819Y-98699761D02*
X173442200Y-98604523D01*
X173442200Y-98604523D02*
X173394580Y-98556904D01*
X173394580Y-98556904D02*
X173299342Y-98509285D01*
X173299342Y-98509285D02*
X173108866Y-98509285D01*
X173108866Y-98509285D02*
X173013628Y-98556904D01*
X173013628Y-98556904D02*
X172966009Y-98604523D01*
X172966009Y-98604523D02*
X172918390Y-98699761D01*
X174489819Y-94961666D02*
X174013628Y-95294999D01*
X174489819Y-95533094D02*
X173489819Y-95533094D01*
X173489819Y-95533094D02*
X173489819Y-95152142D01*
X173489819Y-95152142D02*
X173537438Y-95056904D01*
X173537438Y-95056904D02*
X173585057Y-95009285D01*
X173585057Y-95009285D02*
X173680295Y-94961666D01*
X173680295Y-94961666D02*
X173823152Y-94961666D01*
X173823152Y-94961666D02*
X173918390Y-95009285D01*
X173918390Y-95009285D02*
X173966009Y-95056904D01*
X173966009Y-95056904D02*
X174013628Y-95152142D01*
X174013628Y-95152142D02*
X174013628Y-95533094D01*
X173489819Y-94628332D02*
X173489819Y-93961666D01*
X173489819Y-93961666D02*
X174489819Y-94390237D01*
X187699580Y-119666666D02*
X187747200Y-119714285D01*
X187747200Y-119714285D02*
X187794819Y-119857142D01*
X187794819Y-119857142D02*
X187794819Y-119952380D01*
X187794819Y-119952380D02*
X187747200Y-120095237D01*
X187747200Y-120095237D02*
X187651961Y-120190475D01*
X187651961Y-120190475D02*
X187556723Y-120238094D01*
X187556723Y-120238094D02*
X187366247Y-120285713D01*
X187366247Y-120285713D02*
X187223390Y-120285713D01*
X187223390Y-120285713D02*
X187032914Y-120238094D01*
X187032914Y-120238094D02*
X186937676Y-120190475D01*
X186937676Y-120190475D02*
X186842438Y-120095237D01*
X186842438Y-120095237D02*
X186794819Y-119952380D01*
X186794819Y-119952380D02*
X186794819Y-119857142D01*
X186794819Y-119857142D02*
X186842438Y-119714285D01*
X186842438Y-119714285D02*
X186890057Y-119666666D01*
X186794819Y-119333332D02*
X186794819Y-118714285D01*
X186794819Y-118714285D02*
X187175771Y-119047618D01*
X187175771Y-119047618D02*
X187175771Y-118904761D01*
X187175771Y-118904761D02*
X187223390Y-118809523D01*
X187223390Y-118809523D02*
X187271009Y-118761904D01*
X187271009Y-118761904D02*
X187366247Y-118714285D01*
X187366247Y-118714285D02*
X187604342Y-118714285D01*
X187604342Y-118714285D02*
X187699580Y-118761904D01*
X187699580Y-118761904D02*
X187747200Y-118809523D01*
X187747200Y-118809523D02*
X187794819Y-118904761D01*
X187794819Y-118904761D02*
X187794819Y-119190475D01*
X187794819Y-119190475D02*
X187747200Y-119285713D01*
X187747200Y-119285713D02*
X187699580Y-119333332D01*
X189284819Y-100666666D02*
X188808628Y-100999999D01*
X189284819Y-101238094D02*
X188284819Y-101238094D01*
X188284819Y-101238094D02*
X188284819Y-100857142D01*
X188284819Y-100857142D02*
X188332438Y-100761904D01*
X188332438Y-100761904D02*
X188380057Y-100714285D01*
X188380057Y-100714285D02*
X188475295Y-100666666D01*
X188475295Y-100666666D02*
X188618152Y-100666666D01*
X188618152Y-100666666D02*
X188713390Y-100714285D01*
X188713390Y-100714285D02*
X188761009Y-100761904D01*
X188761009Y-100761904D02*
X188808628Y-100857142D01*
X188808628Y-100857142D02*
X188808628Y-101238094D01*
X188284819Y-99809523D02*
X188284819Y-99999999D01*
X188284819Y-99999999D02*
X188332438Y-100095237D01*
X188332438Y-100095237D02*
X188380057Y-100142856D01*
X188380057Y-100142856D02*
X188522914Y-100238094D01*
X188522914Y-100238094D02*
X188713390Y-100285713D01*
X188713390Y-100285713D02*
X189094342Y-100285713D01*
X189094342Y-100285713D02*
X189189580Y-100238094D01*
X189189580Y-100238094D02*
X189237200Y-100190475D01*
X189237200Y-100190475D02*
X189284819Y-100095237D01*
X189284819Y-100095237D02*
X189284819Y-99904761D01*
X189284819Y-99904761D02*
X189237200Y-99809523D01*
X189237200Y-99809523D02*
X189189580Y-99761904D01*
X189189580Y-99761904D02*
X189094342Y-99714285D01*
X189094342Y-99714285D02*
X188856247Y-99714285D01*
X188856247Y-99714285D02*
X188761009Y-99761904D01*
X188761009Y-99761904D02*
X188713390Y-99809523D01*
X188713390Y-99809523D02*
X188665771Y-99904761D01*
X188665771Y-99904761D02*
X188665771Y-100095237D01*
X188665771Y-100095237D02*
X188713390Y-100190475D01*
X188713390Y-100190475D02*
X188761009Y-100238094D01*
X188761009Y-100238094D02*
X188856247Y-100285713D01*
X186784819Y-119666666D02*
X186308628Y-119999999D01*
X186784819Y-120238094D02*
X185784819Y-120238094D01*
X185784819Y-120238094D02*
X185784819Y-119857142D01*
X185784819Y-119857142D02*
X185832438Y-119761904D01*
X185832438Y-119761904D02*
X185880057Y-119714285D01*
X185880057Y-119714285D02*
X185975295Y-119666666D01*
X185975295Y-119666666D02*
X186118152Y-119666666D01*
X186118152Y-119666666D02*
X186213390Y-119714285D01*
X186213390Y-119714285D02*
X186261009Y-119761904D01*
X186261009Y-119761904D02*
X186308628Y-119857142D01*
X186308628Y-119857142D02*
X186308628Y-120238094D01*
X186118152Y-118809523D02*
X186784819Y-118809523D01*
X185737200Y-119047618D02*
X186451485Y-119285713D01*
X186451485Y-119285713D02*
X186451485Y-118666666D01*
X191833333Y-100124819D02*
X191500000Y-99648628D01*
X191261905Y-100124819D02*
X191261905Y-99124819D01*
X191261905Y-99124819D02*
X191642857Y-99124819D01*
X191642857Y-99124819D02*
X191738095Y-99172438D01*
X191738095Y-99172438D02*
X191785714Y-99220057D01*
X191785714Y-99220057D02*
X191833333Y-99315295D01*
X191833333Y-99315295D02*
X191833333Y-99458152D01*
X191833333Y-99458152D02*
X191785714Y-99553390D01*
X191785714Y-99553390D02*
X191738095Y-99601009D01*
X191738095Y-99601009D02*
X191642857Y-99648628D01*
X191642857Y-99648628D02*
X191261905Y-99648628D01*
X192738095Y-99124819D02*
X192261905Y-99124819D01*
X192261905Y-99124819D02*
X192214286Y-99601009D01*
X192214286Y-99601009D02*
X192261905Y-99553390D01*
X192261905Y-99553390D02*
X192357143Y-99505771D01*
X192357143Y-99505771D02*
X192595238Y-99505771D01*
X192595238Y-99505771D02*
X192690476Y-99553390D01*
X192690476Y-99553390D02*
X192738095Y-99601009D01*
X192738095Y-99601009D02*
X192785714Y-99696247D01*
X192785714Y-99696247D02*
X192785714Y-99934342D01*
X192785714Y-99934342D02*
X192738095Y-100029580D01*
X192738095Y-100029580D02*
X192690476Y-100077200D01*
X192690476Y-100077200D02*
X192595238Y-100124819D01*
X192595238Y-100124819D02*
X192357143Y-100124819D01*
X192357143Y-100124819D02*
X192261905Y-100077200D01*
X192261905Y-100077200D02*
X192214286Y-100029580D01*
X185333333Y-83384104D02*
X185809523Y-83384104D01*
X185238095Y-83669819D02*
X185571428Y-82669819D01*
X185571428Y-82669819D02*
X185904761Y-83669819D01*
X186238095Y-83146009D02*
X186571428Y-83146009D01*
X186714285Y-83669819D02*
X186238095Y-83669819D01*
X186238095Y-83669819D02*
X186238095Y-82669819D01*
X186238095Y-82669819D02*
X186714285Y-82669819D01*
X187095238Y-82765057D02*
X187142857Y-82717438D01*
X187142857Y-82717438D02*
X187238095Y-82669819D01*
X187238095Y-82669819D02*
X187476190Y-82669819D01*
X187476190Y-82669819D02*
X187571428Y-82717438D01*
X187571428Y-82717438D02*
X187619047Y-82765057D01*
X187619047Y-82765057D02*
X187666666Y-82860295D01*
X187666666Y-82860295D02*
X187666666Y-82955533D01*
X187666666Y-82955533D02*
X187619047Y-83098390D01*
X187619047Y-83098390D02*
X187047619Y-83669819D01*
X187047619Y-83669819D02*
X187666666Y-83669819D01*
X187209580Y-100642857D02*
X187257200Y-100690476D01*
X187257200Y-100690476D02*
X187304819Y-100833333D01*
X187304819Y-100833333D02*
X187304819Y-100928571D01*
X187304819Y-100928571D02*
X187257200Y-101071428D01*
X187257200Y-101071428D02*
X187161961Y-101166666D01*
X187161961Y-101166666D02*
X187066723Y-101214285D01*
X187066723Y-101214285D02*
X186876247Y-101261904D01*
X186876247Y-101261904D02*
X186733390Y-101261904D01*
X186733390Y-101261904D02*
X186542914Y-101214285D01*
X186542914Y-101214285D02*
X186447676Y-101166666D01*
X186447676Y-101166666D02*
X186352438Y-101071428D01*
X186352438Y-101071428D02*
X186304819Y-100928571D01*
X186304819Y-100928571D02*
X186304819Y-100833333D01*
X186304819Y-100833333D02*
X186352438Y-100690476D01*
X186352438Y-100690476D02*
X186400057Y-100642857D01*
X187304819Y-99690476D02*
X187304819Y-100261904D01*
X187304819Y-99976190D02*
X186304819Y-99976190D01*
X186304819Y-99976190D02*
X186447676Y-100071428D01*
X186447676Y-100071428D02*
X186542914Y-100166666D01*
X186542914Y-100166666D02*
X186590533Y-100261904D01*
X186400057Y-99309523D02*
X186352438Y-99261904D01*
X186352438Y-99261904D02*
X186304819Y-99166666D01*
X186304819Y-99166666D02*
X186304819Y-98928571D01*
X186304819Y-98928571D02*
X186352438Y-98833333D01*
X186352438Y-98833333D02*
X186400057Y-98785714D01*
X186400057Y-98785714D02*
X186495295Y-98738095D01*
X186495295Y-98738095D02*
X186590533Y-98738095D01*
X186590533Y-98738095D02*
X186733390Y-98785714D01*
X186733390Y-98785714D02*
X187304819Y-99357142D01*
X187304819Y-99357142D02*
X187304819Y-98738095D01*
X184284819Y-119666666D02*
X183808628Y-119999999D01*
X184284819Y-120238094D02*
X183284819Y-120238094D01*
X183284819Y-120238094D02*
X183284819Y-119857142D01*
X183284819Y-119857142D02*
X183332438Y-119761904D01*
X183332438Y-119761904D02*
X183380057Y-119714285D01*
X183380057Y-119714285D02*
X183475295Y-119666666D01*
X183475295Y-119666666D02*
X183618152Y-119666666D01*
X183618152Y-119666666D02*
X183713390Y-119714285D01*
X183713390Y-119714285D02*
X183761009Y-119761904D01*
X183761009Y-119761904D02*
X183808628Y-119857142D01*
X183808628Y-119857142D02*
X183808628Y-120238094D01*
X184284819Y-118714285D02*
X184284819Y-119285713D01*
X184284819Y-118999999D02*
X183284819Y-118999999D01*
X183284819Y-118999999D02*
X183427676Y-119095237D01*
X183427676Y-119095237D02*
X183522914Y-119190475D01*
X183522914Y-119190475D02*
X183570533Y-119285713D01*
X189375595Y-114054819D02*
X189375595Y-114864342D01*
X189375595Y-114864342D02*
X189423214Y-114959580D01*
X189423214Y-114959580D02*
X189470833Y-115007200D01*
X189470833Y-115007200D02*
X189566071Y-115054819D01*
X189566071Y-115054819D02*
X189756547Y-115054819D01*
X189756547Y-115054819D02*
X189851785Y-115007200D01*
X189851785Y-115007200D02*
X189899404Y-114959580D01*
X189899404Y-114959580D02*
X189947023Y-114864342D01*
X189947023Y-114864342D02*
X189947023Y-114054819D01*
X190375595Y-114150057D02*
X190423214Y-114102438D01*
X190423214Y-114102438D02*
X190518452Y-114054819D01*
X190518452Y-114054819D02*
X190756547Y-114054819D01*
X190756547Y-114054819D02*
X190851785Y-114102438D01*
X190851785Y-114102438D02*
X190899404Y-114150057D01*
X190899404Y-114150057D02*
X190947023Y-114245295D01*
X190947023Y-114245295D02*
X190947023Y-114340533D01*
X190947023Y-114340533D02*
X190899404Y-114483390D01*
X190899404Y-114483390D02*
X190327976Y-115054819D01*
X190327976Y-115054819D02*
X190947023Y-115054819D01*
X203666666Y-90954819D02*
X203666666Y-91669104D01*
X203666666Y-91669104D02*
X203619047Y-91811961D01*
X203619047Y-91811961D02*
X203523809Y-91907200D01*
X203523809Y-91907200D02*
X203380952Y-91954819D01*
X203380952Y-91954819D02*
X203285714Y-91954819D01*
X204047619Y-90954819D02*
X204666666Y-90954819D01*
X204666666Y-90954819D02*
X204333333Y-91335771D01*
X204333333Y-91335771D02*
X204476190Y-91335771D01*
X204476190Y-91335771D02*
X204571428Y-91383390D01*
X204571428Y-91383390D02*
X204619047Y-91431009D01*
X204619047Y-91431009D02*
X204666666Y-91526247D01*
X204666666Y-91526247D02*
X204666666Y-91764342D01*
X204666666Y-91764342D02*
X204619047Y-91859580D01*
X204619047Y-91859580D02*
X204571428Y-91907200D01*
X204571428Y-91907200D02*
X204476190Y-91954819D01*
X204476190Y-91954819D02*
X204190476Y-91954819D01*
X204190476Y-91954819D02*
X204095238Y-91907200D01*
X204095238Y-91907200D02*
X204047619Y-91859580D01*
X184499580Y-111166666D02*
X184547200Y-111214285D01*
X184547200Y-111214285D02*
X184594819Y-111357142D01*
X184594819Y-111357142D02*
X184594819Y-111452380D01*
X184594819Y-111452380D02*
X184547200Y-111595237D01*
X184547200Y-111595237D02*
X184451961Y-111690475D01*
X184451961Y-111690475D02*
X184356723Y-111738094D01*
X184356723Y-111738094D02*
X184166247Y-111785713D01*
X184166247Y-111785713D02*
X184023390Y-111785713D01*
X184023390Y-111785713D02*
X183832914Y-111738094D01*
X183832914Y-111738094D02*
X183737676Y-111690475D01*
X183737676Y-111690475D02*
X183642438Y-111595237D01*
X183642438Y-111595237D02*
X183594819Y-111452380D01*
X183594819Y-111452380D02*
X183594819Y-111357142D01*
X183594819Y-111357142D02*
X183642438Y-111214285D01*
X183642438Y-111214285D02*
X183690057Y-111166666D01*
X183594819Y-110833332D02*
X183594819Y-110166666D01*
X183594819Y-110166666D02*
X184594819Y-110595237D01*
X192333333Y-100699580D02*
X192285714Y-100747200D01*
X192285714Y-100747200D02*
X192142857Y-100794819D01*
X192142857Y-100794819D02*
X192047619Y-100794819D01*
X192047619Y-100794819D02*
X191904762Y-100747200D01*
X191904762Y-100747200D02*
X191809524Y-100651961D01*
X191809524Y-100651961D02*
X191761905Y-100556723D01*
X191761905Y-100556723D02*
X191714286Y-100366247D01*
X191714286Y-100366247D02*
X191714286Y-100223390D01*
X191714286Y-100223390D02*
X191761905Y-100032914D01*
X191761905Y-100032914D02*
X191809524Y-99937676D01*
X191809524Y-99937676D02*
X191904762Y-99842438D01*
X191904762Y-99842438D02*
X192047619Y-99794819D01*
X192047619Y-99794819D02*
X192142857Y-99794819D01*
X192142857Y-99794819D02*
X192285714Y-99842438D01*
X192285714Y-99842438D02*
X192333333Y-99890057D01*
X193238095Y-99794819D02*
X192761905Y-99794819D01*
X192761905Y-99794819D02*
X192714286Y-100271009D01*
X192714286Y-100271009D02*
X192761905Y-100223390D01*
X192761905Y-100223390D02*
X192857143Y-100175771D01*
X192857143Y-100175771D02*
X193095238Y-100175771D01*
X193095238Y-100175771D02*
X193190476Y-100223390D01*
X193190476Y-100223390D02*
X193238095Y-100271009D01*
X193238095Y-100271009D02*
X193285714Y-100366247D01*
X193285714Y-100366247D02*
X193285714Y-100604342D01*
X193285714Y-100604342D02*
X193238095Y-100699580D01*
X193238095Y-100699580D02*
X193190476Y-100747200D01*
X193190476Y-100747200D02*
X193095238Y-100794819D01*
X193095238Y-100794819D02*
X192857143Y-100794819D01*
X192857143Y-100794819D02*
X192761905Y-100747200D01*
X192761905Y-100747200D02*
X192714286Y-100699580D01*
X186199580Y-100642857D02*
X186247200Y-100690476D01*
X186247200Y-100690476D02*
X186294819Y-100833333D01*
X186294819Y-100833333D02*
X186294819Y-100928571D01*
X186294819Y-100928571D02*
X186247200Y-101071428D01*
X186247200Y-101071428D02*
X186151961Y-101166666D01*
X186151961Y-101166666D02*
X186056723Y-101214285D01*
X186056723Y-101214285D02*
X185866247Y-101261904D01*
X185866247Y-101261904D02*
X185723390Y-101261904D01*
X185723390Y-101261904D02*
X185532914Y-101214285D01*
X185532914Y-101214285D02*
X185437676Y-101166666D01*
X185437676Y-101166666D02*
X185342438Y-101071428D01*
X185342438Y-101071428D02*
X185294819Y-100928571D01*
X185294819Y-100928571D02*
X185294819Y-100833333D01*
X185294819Y-100833333D02*
X185342438Y-100690476D01*
X185342438Y-100690476D02*
X185390057Y-100642857D01*
X186294819Y-99690476D02*
X186294819Y-100261904D01*
X186294819Y-99976190D02*
X185294819Y-99976190D01*
X185294819Y-99976190D02*
X185437676Y-100071428D01*
X185437676Y-100071428D02*
X185532914Y-100166666D01*
X185532914Y-100166666D02*
X185580533Y-100261904D01*
X186294819Y-98738095D02*
X186294819Y-99309523D01*
X186294819Y-99023809D02*
X185294819Y-99023809D01*
X185294819Y-99023809D02*
X185437676Y-99119047D01*
X185437676Y-99119047D02*
X185532914Y-99214285D01*
X185532914Y-99214285D02*
X185580533Y-99309523D01*
%TO.C,Y1*%
D12*
X194010000Y-103540000D02*
X191590000Y-103540000D01*
X191590000Y-103540000D02*
X191590000Y-106360000D01*
%TO.C,U1*%
X187930000Y-101560000D02*
X187690000Y-101230000D01*
X188170000Y-101230000D01*
X187930000Y-101560000D01*
G36*
X187930000Y-101560000D02*
G01*
X187690000Y-101230000D01*
X188170000Y-101230000D01*
X187930000Y-101560000D01*
G37*
X188940000Y-109280000D02*
X188290000Y-109280000D01*
X188940000Y-108630000D02*
X188940000Y-109280000D01*
X188940000Y-102060000D02*
X188940000Y-102710000D01*
X188290000Y-102060000D02*
X188940000Y-102060000D01*
X182370000Y-109280000D02*
X181720000Y-109280000D01*
X181720000Y-109280000D02*
X181720000Y-108630000D01*
X181720000Y-102710000D02*
X181720000Y-102060000D01*
X181720000Y-102060000D02*
X182370000Y-102060000D01*
%TO.C,J1*%
X190200000Y-128000000D02*
X190200000Y-129900000D01*
X190200000Y-124100000D02*
X190200000Y-126100000D01*
X180800000Y-129900000D02*
X190200000Y-129900000D01*
X180800000Y-128000000D02*
X180800000Y-129900000D01*
X180800000Y-124100000D02*
X180800000Y-126100000D01*
D13*
%TO.C,G\u002A\u002A\u002A*%
G36*
X175024814Y-127981292D02*
G01*
X175050399Y-128000011D01*
X175079332Y-128041173D01*
X175101919Y-128098377D01*
X175114670Y-128158227D01*
X175114097Y-128207325D01*
X175108390Y-128222623D01*
X175083866Y-128234254D01*
X175036990Y-128239536D01*
X174980295Y-128238572D01*
X174926313Y-128231463D01*
X174892352Y-128220874D01*
X174850015Y-128183744D01*
X174823734Y-128128479D01*
X174815850Y-128067244D01*
X174828702Y-128012203D01*
X174847381Y-127987176D01*
X174899367Y-127961770D01*
X174963110Y-127960099D01*
X175024814Y-127981292D01*
G37*
G36*
X176651329Y-127983519D02*
G01*
X176691044Y-128006302D01*
X176712068Y-128040145D01*
X176721622Y-128081416D01*
X176723767Y-128141357D01*
X176703876Y-128188528D01*
X176657275Y-128229996D01*
X176602697Y-128261245D01*
X176523893Y-128289599D01*
X176456549Y-128290147D01*
X176405808Y-128262927D01*
X176402804Y-128259755D01*
X176381642Y-128223023D01*
X176378587Y-128172308D01*
X176380864Y-128151587D01*
X176406413Y-128074052D01*
X176455365Y-128014862D01*
X176520455Y-127978531D01*
X176594422Y-127969571D01*
X176651329Y-127983519D01*
G37*
G36*
X175771954Y-128220463D02*
G01*
X175797166Y-128255131D01*
X175798267Y-128257223D01*
X175831420Y-128300217D01*
X175878813Y-128339923D01*
X175887410Y-128345312D01*
X175935829Y-128386326D01*
X175950031Y-128434077D01*
X175931778Y-128491110D01*
X175899199Y-128519464D01*
X175851684Y-128521000D01*
X175797504Y-128495731D01*
X175790951Y-128490901D01*
X175756943Y-128468958D01*
X175729489Y-128469617D01*
X175700207Y-128484847D01*
X175645833Y-128502780D01*
X175587376Y-128501201D01*
X175537283Y-128482429D01*
X175508101Y-128449056D01*
X175499915Y-128401082D01*
X175520893Y-128371134D01*
X175560594Y-128356764D01*
X175601005Y-128337981D01*
X175622241Y-128311800D01*
X175644984Y-128275520D01*
X175683831Y-128238581D01*
X175725361Y-128212246D01*
X175748096Y-128206145D01*
X175771954Y-128220463D01*
G37*
G36*
X176516155Y-124857513D02*
G01*
X176582736Y-124875943D01*
X176639920Y-124911521D01*
X176699659Y-124963295D01*
X176748407Y-125018684D01*
X176765304Y-125045495D01*
X176775713Y-125084618D01*
X176781633Y-125144787D01*
X176782021Y-125200836D01*
X176781631Y-125267757D01*
X176788134Y-125310919D01*
X176804053Y-125341770D01*
X176816234Y-125356052D01*
X176869938Y-125392000D01*
X176956765Y-125420422D01*
X177077394Y-125441511D01*
X177138547Y-125448253D01*
X177279447Y-125472763D01*
X177433445Y-125518392D01*
X177589189Y-125580554D01*
X177735325Y-125654664D01*
X177860503Y-125736138D01*
X177870709Y-125743953D01*
X177955455Y-125809854D01*
X178019476Y-125766408D01*
X178121554Y-125714030D01*
X178239243Y-125686771D01*
X178346873Y-125681815D01*
X178481713Y-125700535D01*
X178602469Y-125749645D01*
X178705436Y-125825611D01*
X178786907Y-125924899D01*
X178843180Y-126043976D01*
X178870547Y-126179308D01*
X178870714Y-126181377D01*
X178874153Y-126247117D01*
X178869862Y-126296306D01*
X178854584Y-126344116D01*
X178825061Y-126405718D01*
X178820758Y-126414077D01*
X178780637Y-126483904D01*
X178742447Y-126529798D01*
X178697591Y-126561702D01*
X178689315Y-126566124D01*
X178617107Y-126603466D01*
X178650712Y-126699743D01*
X178696527Y-126845981D01*
X178737964Y-127006769D01*
X178773171Y-127172482D01*
X178800294Y-127333494D01*
X178817481Y-127480179D01*
X178822924Y-127594204D01*
X178814350Y-127739911D01*
X178790443Y-127894901D01*
X178753806Y-128048717D01*
X178707043Y-128190901D01*
X178652758Y-128310998D01*
X178637980Y-128336905D01*
X178539512Y-128478880D01*
X178424961Y-128602486D01*
X178291769Y-128708985D01*
X178137379Y-128799643D01*
X177959235Y-128875725D01*
X177754780Y-128938494D01*
X177521457Y-128989214D01*
X177256710Y-129029151D01*
X177232067Y-129032162D01*
X177115371Y-129045427D01*
X177004920Y-129056601D01*
X176907647Y-129065088D01*
X176830485Y-129070292D01*
X176780365Y-129071620D01*
X176774930Y-129071411D01*
X176727874Y-129069165D01*
X176653224Y-129066082D01*
X176558845Y-129062467D01*
X176452598Y-129058623D01*
X176366969Y-129055675D01*
X176056833Y-129035647D01*
X175771771Y-128997463D01*
X175512976Y-128941461D01*
X175281644Y-128867980D01*
X175078968Y-128777357D01*
X174906144Y-128669932D01*
X174849881Y-128625891D01*
X174717605Y-128496852D01*
X174610380Y-128349887D01*
X174524759Y-128179733D01*
X174482310Y-128064280D01*
X174464356Y-128003516D01*
X174451294Y-127942951D01*
X174442035Y-127874057D01*
X174435488Y-127788309D01*
X174430562Y-127677179D01*
X174429748Y-127653345D01*
X174429555Y-127642629D01*
X174607777Y-127642629D01*
X174608460Y-127656285D01*
X174622748Y-127818776D01*
X174648070Y-127957227D01*
X174687052Y-128082057D01*
X174742316Y-128203690D01*
X174749899Y-128218064D01*
X174840898Y-128358609D01*
X174954210Y-128479558D01*
X175092163Y-128582451D01*
X175257088Y-128668822D01*
X175451313Y-128740209D01*
X175604260Y-128781683D01*
X175936536Y-128845603D01*
X176286033Y-128883663D01*
X176645354Y-128895551D01*
X177007104Y-128880952D01*
X177274144Y-128852623D01*
X177471261Y-128823319D01*
X177637968Y-128792257D01*
X177779327Y-128757786D01*
X177900402Y-128718254D01*
X178006257Y-128672011D01*
X178101955Y-128617406D01*
X178191826Y-128553359D01*
X178310298Y-128450258D01*
X178403999Y-128342623D01*
X178478213Y-128222282D01*
X178538219Y-128081063D01*
X178576721Y-127957821D01*
X178591988Y-127899230D01*
X178603046Y-127845131D01*
X178610541Y-127788044D01*
X178615119Y-127720489D01*
X178617426Y-127634987D01*
X178618108Y-127524058D01*
X178618084Y-127478910D01*
X178617730Y-127362953D01*
X178616449Y-127274680D01*
X178613303Y-127206302D01*
X178607353Y-127150029D01*
X178597660Y-127098071D01*
X178583286Y-127042639D01*
X178563290Y-126975942D01*
X178553752Y-126945150D01*
X178487436Y-126753740D01*
X178413701Y-126588406D01*
X178327080Y-126439805D01*
X178222105Y-126298592D01*
X178093308Y-126155422D01*
X178089128Y-126151111D01*
X177923707Y-125995556D01*
X177821390Y-125918464D01*
X178149581Y-125918464D01*
X178160941Y-125938987D01*
X178191212Y-125977887D01*
X178234686Y-126028003D01*
X178252141Y-126047060D01*
X178312331Y-126117353D01*
X178373169Y-126197287D01*
X178421885Y-126270044D01*
X178423519Y-126272765D01*
X178468370Y-126346746D01*
X178501091Y-126394237D01*
X178527563Y-126419316D01*
X178553662Y-126426057D01*
X178585269Y-126418537D01*
X178615844Y-126406109D01*
X178650791Y-126376165D01*
X178680833Y-126325805D01*
X178697916Y-126269950D01*
X178699342Y-126251474D01*
X178682467Y-126152509D01*
X178633856Y-126049353D01*
X178592323Y-125990203D01*
X178530352Y-125920756D01*
X178469553Y-125876652D01*
X178397117Y-125850627D01*
X178324319Y-125838209D01*
X178264330Y-125832602D01*
X178226972Y-125836075D01*
X178200078Y-125850822D01*
X178186872Y-125862988D01*
X178160021Y-125895437D01*
X178149581Y-125918464D01*
X177821390Y-125918464D01*
X177755564Y-125868867D01*
X177575593Y-125765010D01*
X177375067Y-125678099D01*
X177294560Y-125651056D01*
X177199497Y-125624095D01*
X177099865Y-125599534D01*
X177005652Y-125579692D01*
X176926846Y-125566889D01*
X176880500Y-125563268D01*
X176824489Y-125576524D01*
X176781431Y-125617536D01*
X176750300Y-125688171D01*
X176730070Y-125790295D01*
X176724201Y-125847631D01*
X176709624Y-125947479D01*
X176684517Y-126032876D01*
X176651548Y-126097551D01*
X176613386Y-126135232D01*
X176599432Y-126140848D01*
X176570843Y-126146785D01*
X176549196Y-126146117D01*
X176534355Y-126135302D01*
X176526188Y-126110800D01*
X176524561Y-126069068D01*
X176529338Y-126006564D01*
X176540386Y-125919746D01*
X176557572Y-125805072D01*
X176580760Y-125659001D01*
X176581106Y-125656842D01*
X176605294Y-125496369D01*
X176620841Y-125366676D01*
X176627477Y-125264072D01*
X176624929Y-125184865D01*
X176612926Y-125125362D01*
X176591196Y-125081872D01*
X176559467Y-125050701D01*
X176535475Y-125036353D01*
X176465740Y-125019653D01*
X176386054Y-125029835D01*
X176305546Y-125063881D01*
X176233346Y-125118767D01*
X176210426Y-125143922D01*
X176133341Y-125261666D01*
X176068256Y-125411060D01*
X176015826Y-125590139D01*
X175976707Y-125796940D01*
X175966502Y-125873673D01*
X175953216Y-125976078D01*
X175940812Y-126047921D01*
X175927551Y-126094015D01*
X175911692Y-126119175D01*
X175891496Y-126128216D01*
X175874727Y-126127661D01*
X175857353Y-126122894D01*
X175844846Y-126110294D01*
X175835425Y-126083721D01*
X175827308Y-126037034D01*
X175818715Y-125964093D01*
X175813904Y-125918017D01*
X175794080Y-125769108D01*
X175766148Y-125621563D01*
X175732245Y-125484168D01*
X175694506Y-125365707D01*
X175659708Y-125283882D01*
X175601512Y-125196575D01*
X175534900Y-125142016D01*
X175463997Y-125119771D01*
X175392930Y-125129404D01*
X175325824Y-125170479D01*
X175266806Y-125242562D01*
X175225415Y-125329701D01*
X175197982Y-125443499D01*
X175187310Y-125588191D01*
X175193398Y-125763409D01*
X175216241Y-125968784D01*
X175231628Y-126068785D01*
X175250830Y-126186945D01*
X175264087Y-126274887D01*
X175271770Y-126337302D01*
X175274253Y-126378879D01*
X175271908Y-126404308D01*
X175265106Y-126418279D01*
X175259709Y-126422712D01*
X175226543Y-126424726D01*
X175186340Y-126403557D01*
X175149815Y-126366736D01*
X175130822Y-126332135D01*
X175109405Y-126272907D01*
X175057868Y-126321614D01*
X174992611Y-126395273D01*
X174922305Y-126495302D01*
X174851437Y-126613901D01*
X174784493Y-126743270D01*
X174725961Y-126875609D01*
X174700176Y-126943461D01*
X174656066Y-127098719D01*
X174624903Y-127275233D01*
X174608277Y-127460653D01*
X174607777Y-127642629D01*
X174429555Y-127642629D01*
X174427277Y-127515969D01*
X174429212Y-127395274D01*
X174435351Y-127298389D01*
X174441035Y-127254253D01*
X174497731Y-127008377D01*
X174582338Y-126768901D01*
X174691723Y-126542559D01*
X174822753Y-126336086D01*
X174931073Y-126200874D01*
X174985447Y-126133221D01*
X175017228Y-126072619D01*
X175031459Y-126005103D01*
X175033219Y-125918017D01*
X175029251Y-125758566D01*
X175026942Y-125630064D01*
X175026547Y-125528013D01*
X175028319Y-125447914D01*
X175032510Y-125385271D01*
X175039374Y-125335584D01*
X175049164Y-125294356D01*
X175062134Y-125257089D01*
X175071707Y-125234395D01*
X175115974Y-125146661D01*
X175163367Y-125083635D01*
X175223094Y-125035076D01*
X175279962Y-125002783D01*
X175349238Y-124974784D01*
X175423963Y-124962068D01*
X175480268Y-124960195D01*
X175544002Y-124961411D01*
X175586759Y-124968759D01*
X175622473Y-124987787D01*
X175665073Y-125024045D01*
X175683422Y-125041116D01*
X175733672Y-125093788D01*
X175773599Y-125151328D01*
X175810568Y-125225401D01*
X175831797Y-125276137D01*
X175860649Y-125346790D01*
X175879621Y-125388244D01*
X175891581Y-125404409D01*
X175899395Y-125399192D01*
X175905811Y-125377025D01*
X175920206Y-125317826D01*
X175934745Y-125272612D01*
X175954909Y-125227776D01*
X175986179Y-125169706D01*
X175997269Y-125149936D01*
X176055227Y-125056113D01*
X176111505Y-124987665D01*
X176174467Y-124935945D01*
X176240863Y-124897986D01*
X176327568Y-124867508D01*
X176423905Y-124853723D01*
X176516155Y-124857513D01*
G37*
%TO.C,SW1*%
D12*
X178250000Y-95000000D02*
X178250000Y-96500000D01*
X179500000Y-99000000D02*
X184000000Y-99000000D01*
X184000000Y-92500000D02*
X179500000Y-92500000D01*
X185250000Y-96500000D02*
X185250000Y-95000000D01*
%TO.C,D2*%
X173900000Y-110150000D02*
X173900000Y-108150000D01*
X173900000Y-110150000D02*
X177100000Y-110150000D01*
X174200000Y-107850000D02*
X173900000Y-108150000D01*
X174200000Y-107850000D02*
X177100000Y-107850000D01*
X177100000Y-107850000D02*
X177100000Y-110150000D01*
%TO.C,C6*%
X190392164Y-103140000D02*
X190607836Y-103140000D01*
X190392164Y-103860000D02*
X190607836Y-103860000D01*
%TO.C,J2*%
X169120000Y-90720000D02*
X170500000Y-90720000D01*
X169120000Y-92100000D02*
X169120000Y-90720000D01*
X169120000Y-93370000D02*
X169120000Y-129040000D01*
X169120000Y-93370000D02*
X171880000Y-93370000D01*
X169120000Y-129040000D02*
X171880000Y-129040000D01*
X171880000Y-93370000D02*
X171880000Y-129040000D01*
%TO.C,D1*%
X177257500Y-110010000D02*
X177257500Y-108010000D01*
X177257500Y-110010000D02*
X180457500Y-110010000D01*
X177557500Y-107710000D02*
X177257500Y-108010000D01*
X177557500Y-107710000D02*
X180457500Y-107710000D01*
X180457500Y-107710000D02*
X180457500Y-110010000D01*
%TO.C,R2*%
X185620000Y-119653641D02*
X185620000Y-119346359D01*
X186380000Y-119653641D02*
X186380000Y-119346359D01*
%TO.C,C2*%
X192372164Y-102140000D02*
X192587836Y-102140000D01*
X192372164Y-102860000D02*
X192587836Y-102860000D01*
%TO.C,C10*%
X180107836Y-105640000D02*
X179892164Y-105640000D01*
X180107836Y-106360000D02*
X179892164Y-106360000D01*
%TO.C,C4*%
X183640000Y-110892164D02*
X183640000Y-111107836D01*
X184360000Y-110892164D02*
X184360000Y-111107836D01*
D13*
%TO.C,G\u002A\u002A\u002A*%
G36*
X193524814Y-127481292D02*
G01*
X193550399Y-127500011D01*
X193579332Y-127541173D01*
X193601919Y-127598377D01*
X193614670Y-127658227D01*
X193614097Y-127707325D01*
X193608390Y-127722623D01*
X193583866Y-127734254D01*
X193536990Y-127739536D01*
X193480295Y-127738572D01*
X193426313Y-127731463D01*
X193392352Y-127720874D01*
X193350015Y-127683744D01*
X193323734Y-127628479D01*
X193315850Y-127567244D01*
X193328702Y-127512203D01*
X193347381Y-127487176D01*
X193399367Y-127461770D01*
X193463110Y-127460099D01*
X193524814Y-127481292D01*
G37*
G36*
X195151329Y-127483519D02*
G01*
X195191044Y-127506302D01*
X195212068Y-127540145D01*
X195221622Y-127581416D01*
X195223767Y-127641357D01*
X195203876Y-127688528D01*
X195157275Y-127729996D01*
X195102697Y-127761245D01*
X195023893Y-127789599D01*
X194956549Y-127790147D01*
X194905808Y-127762927D01*
X194902804Y-127759755D01*
X194881642Y-127723023D01*
X194878587Y-127672308D01*
X194880864Y-127651587D01*
X194906413Y-127574052D01*
X194955365Y-127514862D01*
X195020455Y-127478531D01*
X195094422Y-127469571D01*
X195151329Y-127483519D01*
G37*
G36*
X194271954Y-127720463D02*
G01*
X194297166Y-127755131D01*
X194298267Y-127757223D01*
X194331420Y-127800217D01*
X194378813Y-127839923D01*
X194387410Y-127845312D01*
X194435829Y-127886326D01*
X194450031Y-127934077D01*
X194431778Y-127991110D01*
X194399199Y-128019464D01*
X194351684Y-128021000D01*
X194297504Y-127995731D01*
X194290951Y-127990901D01*
X194256943Y-127968958D01*
X194229489Y-127969617D01*
X194200207Y-127984847D01*
X194145833Y-128002780D01*
X194087376Y-128001201D01*
X194037283Y-127982429D01*
X194008101Y-127949056D01*
X193999915Y-127901082D01*
X194020893Y-127871134D01*
X194060594Y-127856764D01*
X194101005Y-127837981D01*
X194122241Y-127811800D01*
X194144984Y-127775520D01*
X194183831Y-127738581D01*
X194225361Y-127712246D01*
X194248096Y-127706145D01*
X194271954Y-127720463D01*
G37*
G36*
X195016155Y-124357513D02*
G01*
X195082736Y-124375943D01*
X195139920Y-124411521D01*
X195199659Y-124463295D01*
X195248407Y-124518684D01*
X195265304Y-124545495D01*
X195275713Y-124584618D01*
X195281633Y-124644787D01*
X195282021Y-124700836D01*
X195281631Y-124767757D01*
X195288134Y-124810919D01*
X195304053Y-124841770D01*
X195316234Y-124856052D01*
X195369938Y-124892000D01*
X195456765Y-124920422D01*
X195577394Y-124941511D01*
X195638547Y-124948253D01*
X195779447Y-124972763D01*
X195933445Y-125018392D01*
X196089189Y-125080554D01*
X196235325Y-125154664D01*
X196360503Y-125236138D01*
X196370709Y-125243953D01*
X196455455Y-125309854D01*
X196519476Y-125266408D01*
X196621554Y-125214030D01*
X196739243Y-125186771D01*
X196846873Y-125181815D01*
X196981713Y-125200535D01*
X197102469Y-125249645D01*
X197205436Y-125325611D01*
X197286907Y-125424899D01*
X197343180Y-125543976D01*
X197370547Y-125679308D01*
X197370714Y-125681377D01*
X197374153Y-125747117D01*
X197369862Y-125796306D01*
X197354584Y-125844116D01*
X197325061Y-125905718D01*
X197320758Y-125914077D01*
X197280637Y-125983904D01*
X197242447Y-126029798D01*
X197197591Y-126061702D01*
X197189315Y-126066124D01*
X197117107Y-126103466D01*
X197150712Y-126199743D01*
X197196527Y-126345981D01*
X197237964Y-126506769D01*
X197273171Y-126672482D01*
X197300294Y-126833494D01*
X197317481Y-126980179D01*
X197322924Y-127094204D01*
X197314350Y-127239911D01*
X197290443Y-127394901D01*
X197253806Y-127548717D01*
X197207043Y-127690901D01*
X197152758Y-127810998D01*
X197137980Y-127836905D01*
X197039512Y-127978880D01*
X196924961Y-128102486D01*
X196791769Y-128208985D01*
X196637379Y-128299643D01*
X196459235Y-128375725D01*
X196254780Y-128438494D01*
X196021457Y-128489214D01*
X195756710Y-128529151D01*
X195732067Y-128532162D01*
X195615371Y-128545427D01*
X195504920Y-128556601D01*
X195407647Y-128565088D01*
X195330485Y-128570292D01*
X195280365Y-128571620D01*
X195274930Y-128571411D01*
X195227874Y-128569165D01*
X195153224Y-128566082D01*
X195058845Y-128562467D01*
X194952598Y-128558623D01*
X194866969Y-128555675D01*
X194556833Y-128535647D01*
X194271771Y-128497463D01*
X194012976Y-128441461D01*
X193781644Y-128367980D01*
X193578968Y-128277357D01*
X193406144Y-128169932D01*
X193349881Y-128125891D01*
X193217605Y-127996852D01*
X193110380Y-127849887D01*
X193024759Y-127679733D01*
X192982310Y-127564280D01*
X192964356Y-127503516D01*
X192951294Y-127442951D01*
X192942035Y-127374057D01*
X192935488Y-127288309D01*
X192930562Y-127177179D01*
X192929748Y-127153345D01*
X192929555Y-127142629D01*
X193107777Y-127142629D01*
X193108460Y-127156285D01*
X193122748Y-127318776D01*
X193148070Y-127457227D01*
X193187052Y-127582057D01*
X193242316Y-127703690D01*
X193249899Y-127718064D01*
X193340898Y-127858609D01*
X193454210Y-127979558D01*
X193592163Y-128082451D01*
X193757088Y-128168822D01*
X193951313Y-128240209D01*
X194104260Y-128281683D01*
X194436536Y-128345603D01*
X194786033Y-128383663D01*
X195145354Y-128395551D01*
X195507104Y-128380952D01*
X195774144Y-128352623D01*
X195971261Y-128323319D01*
X196137968Y-128292257D01*
X196279327Y-128257786D01*
X196400402Y-128218254D01*
X196506257Y-128172011D01*
X196601955Y-128117406D01*
X196691826Y-128053359D01*
X196810298Y-127950258D01*
X196903999Y-127842623D01*
X196978213Y-127722282D01*
X197038219Y-127581063D01*
X197076721Y-127457821D01*
X197091988Y-127399230D01*
X197103046Y-127345131D01*
X197110541Y-127288044D01*
X197115119Y-127220489D01*
X197117426Y-127134987D01*
X197118108Y-127024058D01*
X197118084Y-126978910D01*
X197117730Y-126862953D01*
X197116449Y-126774680D01*
X197113303Y-126706302D01*
X197107353Y-126650029D01*
X197097660Y-126598071D01*
X197083286Y-126542639D01*
X197063290Y-126475942D01*
X197053752Y-126445150D01*
X196987436Y-126253740D01*
X196913701Y-126088406D01*
X196827080Y-125939805D01*
X196722105Y-125798592D01*
X196593308Y-125655422D01*
X196589128Y-125651111D01*
X196423707Y-125495556D01*
X196321390Y-125418464D01*
X196649581Y-125418464D01*
X196660941Y-125438987D01*
X196691212Y-125477887D01*
X196734686Y-125528003D01*
X196752141Y-125547060D01*
X196812331Y-125617353D01*
X196873169Y-125697287D01*
X196921885Y-125770044D01*
X196923519Y-125772765D01*
X196968370Y-125846746D01*
X197001091Y-125894237D01*
X197027563Y-125919316D01*
X197053662Y-125926057D01*
X197085269Y-125918537D01*
X197115844Y-125906109D01*
X197150791Y-125876165D01*
X197180833Y-125825805D01*
X197197916Y-125769950D01*
X197199342Y-125751474D01*
X197182467Y-125652509D01*
X197133856Y-125549353D01*
X197092323Y-125490203D01*
X197030352Y-125420756D01*
X196969553Y-125376652D01*
X196897117Y-125350627D01*
X196824319Y-125338209D01*
X196764330Y-125332602D01*
X196726972Y-125336075D01*
X196700078Y-125350822D01*
X196686872Y-125362988D01*
X196660021Y-125395437D01*
X196649581Y-125418464D01*
X196321390Y-125418464D01*
X196255564Y-125368867D01*
X196075593Y-125265010D01*
X195875067Y-125178099D01*
X195794560Y-125151056D01*
X195699497Y-125124095D01*
X195599865Y-125099534D01*
X195505652Y-125079692D01*
X195426846Y-125066889D01*
X195380500Y-125063268D01*
X195324489Y-125076524D01*
X195281431Y-125117536D01*
X195250300Y-125188171D01*
X195230070Y-125290295D01*
X195224201Y-125347631D01*
X195209624Y-125447479D01*
X195184517Y-125532876D01*
X195151548Y-125597551D01*
X195113386Y-125635232D01*
X195099432Y-125640848D01*
X195070843Y-125646785D01*
X195049196Y-125646117D01*
X195034355Y-125635302D01*
X195026188Y-125610800D01*
X195024561Y-125569068D01*
X195029338Y-125506564D01*
X195040386Y-125419746D01*
X195057572Y-125305072D01*
X195080760Y-125159001D01*
X195081106Y-125156842D01*
X195105294Y-124996369D01*
X195120841Y-124866676D01*
X195127477Y-124764072D01*
X195124929Y-124684865D01*
X195112926Y-124625362D01*
X195091196Y-124581872D01*
X195059467Y-124550701D01*
X195035475Y-124536353D01*
X194965740Y-124519653D01*
X194886054Y-124529835D01*
X194805546Y-124563881D01*
X194733346Y-124618767D01*
X194710426Y-124643922D01*
X194633341Y-124761666D01*
X194568256Y-124911060D01*
X194515826Y-125090139D01*
X194476707Y-125296940D01*
X194466502Y-125373673D01*
X194453216Y-125476078D01*
X194440812Y-125547921D01*
X194427551Y-125594015D01*
X194411692Y-125619175D01*
X194391496Y-125628216D01*
X194374727Y-125627661D01*
X194357353Y-125622894D01*
X194344846Y-125610294D01*
X194335425Y-125583721D01*
X194327308Y-125537034D01*
X194318715Y-125464093D01*
X194313904Y-125418017D01*
X194294080Y-125269108D01*
X194266148Y-125121563D01*
X194232245Y-124984168D01*
X194194506Y-124865707D01*
X194159708Y-124783882D01*
X194101512Y-124696575D01*
X194034900Y-124642016D01*
X193963997Y-124619771D01*
X193892930Y-124629404D01*
X193825824Y-124670479D01*
X193766806Y-124742562D01*
X193725415Y-124829701D01*
X193697982Y-124943499D01*
X193687310Y-125088191D01*
X193693398Y-125263409D01*
X193716241Y-125468784D01*
X193731628Y-125568785D01*
X193750830Y-125686945D01*
X193764087Y-125774887D01*
X193771770Y-125837302D01*
X193774253Y-125878879D01*
X193771908Y-125904308D01*
X193765106Y-125918279D01*
X193759709Y-125922712D01*
X193726543Y-125924726D01*
X193686340Y-125903557D01*
X193649815Y-125866736D01*
X193630822Y-125832135D01*
X193609405Y-125772907D01*
X193557868Y-125821614D01*
X193492611Y-125895273D01*
X193422305Y-125995302D01*
X193351437Y-126113901D01*
X193284493Y-126243270D01*
X193225961Y-126375609D01*
X193200176Y-126443461D01*
X193156066Y-126598719D01*
X193124903Y-126775233D01*
X193108277Y-126960653D01*
X193107777Y-127142629D01*
X192929555Y-127142629D01*
X192927277Y-127015969D01*
X192929212Y-126895274D01*
X192935351Y-126798389D01*
X192941035Y-126754253D01*
X192997731Y-126508377D01*
X193082338Y-126268901D01*
X193191723Y-126042559D01*
X193322753Y-125836086D01*
X193431073Y-125700874D01*
X193485447Y-125633221D01*
X193517228Y-125572619D01*
X193531459Y-125505103D01*
X193533219Y-125418017D01*
X193529251Y-125258566D01*
X193526942Y-125130064D01*
X193526547Y-125028013D01*
X193528319Y-124947914D01*
X193532510Y-124885271D01*
X193539374Y-124835584D01*
X193549164Y-124794356D01*
X193562134Y-124757089D01*
X193571707Y-124734395D01*
X193615974Y-124646661D01*
X193663367Y-124583635D01*
X193723094Y-124535076D01*
X193779962Y-124502783D01*
X193849238Y-124474784D01*
X193923963Y-124462068D01*
X193980268Y-124460195D01*
X194044002Y-124461411D01*
X194086759Y-124468759D01*
X194122473Y-124487787D01*
X194165073Y-124524045D01*
X194183422Y-124541116D01*
X194233672Y-124593788D01*
X194273599Y-124651328D01*
X194310568Y-124725401D01*
X194331797Y-124776137D01*
X194360649Y-124846790D01*
X194379621Y-124888244D01*
X194391581Y-124904409D01*
X194399395Y-124899192D01*
X194405811Y-124877025D01*
X194420206Y-124817826D01*
X194434745Y-124772612D01*
X194454909Y-124727776D01*
X194486179Y-124669706D01*
X194497269Y-124649936D01*
X194555227Y-124556113D01*
X194611505Y-124487665D01*
X194674467Y-124435945D01*
X194740863Y-124397986D01*
X194827568Y-124367508D01*
X194923905Y-124353723D01*
X195016155Y-124357513D01*
G37*
%TO.C,C9*%
D12*
X180107836Y-104640000D02*
X179892164Y-104640000D01*
X180107836Y-105360000D02*
X179892164Y-105360000D01*
%TO.C,C8*%
X187107836Y-117640000D02*
X186892164Y-117640000D01*
X187107836Y-118360000D02*
X186892164Y-118360000D01*
%TO.C,C1*%
X195392164Y-105640000D02*
X195607836Y-105640000D01*
X195392164Y-106360000D02*
X195607836Y-106360000D01*
%TO.C,R3*%
X183620000Y-119653641D02*
X183620000Y-119346359D01*
X184380000Y-119653641D02*
X184380000Y-119346359D01*
D13*
%TO.C,G\u002A\u002A\u002A*%
G36*
X191612927Y-95259457D02*
G01*
X191608209Y-95264175D01*
X191603491Y-95259457D01*
X191608209Y-95254739D01*
X191612927Y-95259457D01*
G37*
G36*
X194056686Y-93296901D02*
G01*
X194051968Y-93301619D01*
X194047251Y-93296901D01*
X194051968Y-93292184D01*
X194056686Y-93296901D01*
G37*
G36*
X194377488Y-91164509D02*
G01*
X194372771Y-91169227D01*
X194368053Y-91164509D01*
X194372771Y-91159791D01*
X194377488Y-91164509D01*
G37*
G36*
X195283283Y-94278179D02*
G01*
X195278566Y-94282897D01*
X195273848Y-94278179D01*
X195278566Y-94273462D01*
X195283283Y-94278179D01*
G37*
G36*
X191855101Y-95691911D02*
G01*
X191853806Y-95697521D01*
X191848811Y-95698202D01*
X191841044Y-95694749D01*
X191842520Y-95691911D01*
X191853718Y-95690782D01*
X191855101Y-95691911D01*
G37*
G36*
X194978206Y-91568657D02*
G01*
X194976911Y-91574267D01*
X194971916Y-91574948D01*
X194964150Y-91571495D01*
X194965626Y-91568657D01*
X194976824Y-91567528D01*
X194978206Y-91568657D01*
G37*
G36*
X190779654Y-97015812D02*
G01*
X190777897Y-97019153D01*
X190769007Y-97028163D01*
X190767348Y-97028588D01*
X190766704Y-97022493D01*
X190768462Y-97019153D01*
X190777352Y-97010142D01*
X190779011Y-97009717D01*
X190779654Y-97015812D01*
G37*
G36*
X190859679Y-93628926D02*
G01*
X190867533Y-93636575D01*
X190873195Y-93647961D01*
X190869843Y-93650728D01*
X190856516Y-93644223D01*
X190848662Y-93636575D01*
X190843000Y-93625188D01*
X190846352Y-93622422D01*
X190859679Y-93628926D01*
G37*
G36*
X191593057Y-93828215D02*
G01*
X191594056Y-93834717D01*
X191588261Y-93847730D01*
X191575234Y-93845398D01*
X191572297Y-93842837D01*
X191570388Y-93831075D01*
X191579952Y-93821538D01*
X191585177Y-93820564D01*
X191593057Y-93828215D01*
G37*
G36*
X194149270Y-87478467D02*
G01*
X194151040Y-87489435D01*
X194147088Y-87504767D01*
X194141604Y-87508306D01*
X194133938Y-87500403D01*
X194132169Y-87489435D01*
X194136120Y-87474103D01*
X194141604Y-87470564D01*
X194149270Y-87478467D01*
G37*
G36*
X195413782Y-95637249D02*
G01*
X195415378Y-95641589D01*
X195407736Y-95649960D01*
X195401225Y-95651025D01*
X195388669Y-95645930D01*
X195387072Y-95641589D01*
X195394714Y-95633219D01*
X195401225Y-95632154D01*
X195413782Y-95637249D01*
G37*
G36*
X195043027Y-92514364D02*
G01*
X195057464Y-92534293D01*
X195061966Y-92555613D01*
X195053381Y-92572600D01*
X195047188Y-92579110D01*
X195029228Y-92601348D01*
X195012449Y-92628930D01*
X195011409Y-92631002D01*
X194996205Y-92655161D01*
X194979747Y-92672090D01*
X194977595Y-92673461D01*
X194965255Y-92683196D01*
X194942127Y-92703914D01*
X194910754Y-92733244D01*
X194873678Y-92768813D01*
X194839721Y-92802042D01*
X194719757Y-92920481D01*
X194723432Y-92995467D01*
X194726698Y-93039560D01*
X194731766Y-93083841D01*
X194737556Y-93118913D01*
X194737716Y-93119660D01*
X194743236Y-93151991D01*
X194742350Y-93171919D01*
X194736648Y-93182935D01*
X194729676Y-93199098D01*
X194731111Y-93206937D01*
X194733572Y-93223337D01*
X194731288Y-93235656D01*
X194718646Y-93250235D01*
X194698807Y-93254477D01*
X194680204Y-93248054D01*
X194672742Y-93237930D01*
X194663109Y-93219380D01*
X194647625Y-93195907D01*
X194645571Y-93193112D01*
X194631043Y-93167859D01*
X194616436Y-93133492D01*
X194608825Y-93110553D01*
X194597476Y-93076453D01*
X194587479Y-93059968D01*
X194577440Y-93060042D01*
X194565968Y-93075620D01*
X194565029Y-93077350D01*
X194548853Y-93099285D01*
X194531673Y-93115776D01*
X194515723Y-93132441D01*
X194509583Y-93146441D01*
X194501317Y-93158365D01*
X194481109Y-93166671D01*
X194455844Y-93169012D01*
X194446641Y-93167904D01*
X194432402Y-93157047D01*
X194425761Y-93136971D01*
X194428746Y-93116487D01*
X194433302Y-93109937D01*
X194441534Y-93092858D01*
X194443536Y-93078001D01*
X194446645Y-93061187D01*
X194451948Y-93056300D01*
X194460255Y-93048303D01*
X194466281Y-93032711D01*
X194473490Y-93015050D01*
X194480394Y-93009123D01*
X194489600Y-93002243D01*
X194507277Y-92983845D01*
X194530290Y-92957289D01*
X194541400Y-92943757D01*
X194567240Y-92913622D01*
X194590839Y-92889345D01*
X194608360Y-92874755D01*
X194612746Y-92872509D01*
X194630567Y-92860384D01*
X194636519Y-92850598D01*
X194647422Y-92835515D01*
X194668061Y-92817825D01*
X194674743Y-92813252D01*
X194695416Y-92796864D01*
X194706896Y-92781882D01*
X194707726Y-92778312D01*
X194715501Y-92765585D01*
X194734597Y-92752044D01*
X194738419Y-92750124D01*
X194769251Y-92730779D01*
X194805732Y-92700868D01*
X194842588Y-92665210D01*
X194874541Y-92628623D01*
X194881402Y-92619543D01*
X194919379Y-92573043D01*
X194956301Y-92538417D01*
X194990397Y-92516524D01*
X195019896Y-92508220D01*
X195043027Y-92514364D01*
G37*
G36*
X194461810Y-93239141D02*
G01*
X194484722Y-93250459D01*
X194496467Y-93273123D01*
X194500110Y-93310396D01*
X194500148Y-93316323D01*
X194498941Y-93351671D01*
X194495713Y-93394468D01*
X194491052Y-93439801D01*
X194485544Y-93482757D01*
X194479779Y-93518424D01*
X194474344Y-93541886D01*
X194472628Y-93546308D01*
X194459059Y-93561787D01*
X194447623Y-93569686D01*
X194415926Y-93587230D01*
X194398227Y-93598765D01*
X194391726Y-93606874D01*
X194393621Y-93614143D01*
X194396028Y-93617305D01*
X194396336Y-93630579D01*
X194382331Y-93648070D01*
X194357326Y-93667253D01*
X194324636Y-93685604D01*
X194287571Y-93700598D01*
X194286079Y-93701081D01*
X194248768Y-93711656D01*
X194220747Y-93715141D01*
X194194056Y-93712086D01*
X194179346Y-93708450D01*
X194157544Y-93695648D01*
X194146443Y-93681084D01*
X194134309Y-93664896D01*
X194123751Y-93660163D01*
X194116308Y-93662913D01*
X194122562Y-93673506D01*
X194126396Y-93677868D01*
X194136967Y-93691447D01*
X194134213Y-93698263D01*
X194127007Y-93701487D01*
X194107552Y-93703387D01*
X194097116Y-93694294D01*
X194097906Y-93683578D01*
X194094973Y-93669976D01*
X194088972Y-93665903D01*
X194074711Y-93653693D01*
X194065840Y-93639175D01*
X194053909Y-93616097D01*
X194038162Y-93590094D01*
X194037703Y-93589398D01*
X194021419Y-93561740D01*
X194008614Y-93535144D01*
X193998893Y-93516666D01*
X193990474Y-93509197D01*
X193983035Y-93500786D01*
X193973425Y-93478867D01*
X193963299Y-93448410D01*
X193954307Y-93414387D01*
X193948112Y-93381820D01*
X193946708Y-93345520D01*
X193952001Y-93313801D01*
X193962663Y-93291773D01*
X193973334Y-93284699D01*
X193991319Y-93288101D01*
X194015506Y-93300511D01*
X194039978Y-93317772D01*
X194058820Y-93335725D01*
X194066121Y-93349915D01*
X194070869Y-93367274D01*
X194075557Y-93372384D01*
X194082426Y-93385175D01*
X194084992Y-93405241D01*
X194091209Y-93431018D01*
X194106561Y-93457804D01*
X194108580Y-93460300D01*
X194123817Y-93480690D01*
X194131816Y-93495849D01*
X194132169Y-93497918D01*
X194136988Y-93510948D01*
X194149205Y-93533048D01*
X194156884Y-93545253D01*
X194181509Y-93574352D01*
X194209471Y-93588664D01*
X194243918Y-93588711D01*
X194287996Y-93575018D01*
X194301453Y-93569258D01*
X194330438Y-93555329D01*
X194351007Y-93543542D01*
X194358618Y-93536584D01*
X194364545Y-93524682D01*
X194371816Y-93516217D01*
X194380074Y-93499594D01*
X194385869Y-93471916D01*
X194389124Y-93438090D01*
X194389760Y-93403020D01*
X194387697Y-93371610D01*
X194382856Y-93348764D01*
X194375160Y-93339388D01*
X194374658Y-93339361D01*
X194354862Y-93333511D01*
X194349314Y-93315774D01*
X194357955Y-93285864D01*
X194361974Y-93277170D01*
X194375227Y-93252253D01*
X194387599Y-93240076D01*
X194405906Y-93236151D01*
X194424665Y-93235901D01*
X194461810Y-93239141D01*
G37*
G36*
X193160295Y-92579914D02*
G01*
X193181662Y-92592454D01*
X193205086Y-92607397D01*
X193234915Y-92625831D01*
X193261545Y-92640234D01*
X193275636Y-92646221D01*
X193296258Y-92657388D01*
X193319079Y-92676384D01*
X193322554Y-92679968D01*
X193348466Y-92700162D01*
X193372386Y-92707191D01*
X193392693Y-92712085D01*
X193402234Y-92721344D01*
X193413373Y-92733871D01*
X193419480Y-92735497D01*
X193432659Y-92741253D01*
X193454354Y-92756117D01*
X193472724Y-92770880D01*
X193502584Y-92794472D01*
X193532987Y-92815564D01*
X193547176Y-92824030D01*
X193570901Y-92838112D01*
X193587662Y-92850386D01*
X193589635Y-92852336D01*
X193605211Y-92866697D01*
X193627622Y-92884175D01*
X193651105Y-92900659D01*
X193669899Y-92912040D01*
X193677179Y-92914769D01*
X193689323Y-92921099D01*
X193702860Y-92933640D01*
X193722302Y-92947995D01*
X193738229Y-92952511D01*
X193755405Y-92960040D01*
X193760936Y-92969394D01*
X193772561Y-92986678D01*
X193785135Y-92995341D01*
X193802902Y-93009690D01*
X193819719Y-93032525D01*
X193821053Y-93034965D01*
X193835429Y-93059890D01*
X193848628Y-93079285D01*
X193849484Y-93080342D01*
X193855270Y-93091790D01*
X193850455Y-93104551D01*
X193833029Y-93123910D01*
X193832862Y-93124078D01*
X193803942Y-93152997D01*
X193749683Y-93116982D01*
X193721584Y-93096335D01*
X193700413Y-93077054D01*
X193690864Y-93063530D01*
X193682557Y-93050829D01*
X193675711Y-93049841D01*
X193658992Y-93049838D01*
X193645089Y-93046199D01*
X193628353Y-93044372D01*
X193616891Y-93057066D01*
X193614424Y-93062151D01*
X193606125Y-93088543D01*
X193603788Y-93107222D01*
X193598036Y-93129253D01*
X193583524Y-93155812D01*
X193564375Y-93181357D01*
X193544709Y-93200346D01*
X193529402Y-93207265D01*
X193508455Y-93200414D01*
X193500342Y-93193526D01*
X193492771Y-93178599D01*
X193493289Y-93172296D01*
X193493978Y-93158223D01*
X193490943Y-93146367D01*
X193490928Y-93145936D01*
X193537741Y-93145936D01*
X193542459Y-93150653D01*
X193547176Y-93145936D01*
X193542459Y-93141218D01*
X193537741Y-93145936D01*
X193490928Y-93145936D01*
X193490159Y-93124200D01*
X193496783Y-93103908D01*
X193506552Y-93070485D01*
X193508683Y-93027593D01*
X193503292Y-92982967D01*
X193497070Y-92961946D01*
X193613224Y-92961946D01*
X193620404Y-92971107D01*
X193622659Y-92971381D01*
X193631820Y-92964201D01*
X193632095Y-92961946D01*
X193624914Y-92952785D01*
X193622659Y-92952511D01*
X193613498Y-92959691D01*
X193613224Y-92961946D01*
X193497070Y-92961946D01*
X193494549Y-92953430D01*
X193476159Y-92920876D01*
X193450635Y-92903206D01*
X193420523Y-92897078D01*
X193404944Y-92890568D01*
X193383589Y-92875997D01*
X193379060Y-92872310D01*
X193358152Y-92857021D01*
X193341908Y-92849050D01*
X193339623Y-92848722D01*
X193327229Y-92842790D01*
X193305856Y-92827265D01*
X193280993Y-92806263D01*
X193255184Y-92784653D01*
X193233533Y-92769362D01*
X193221105Y-92763803D01*
X193205215Y-92756664D01*
X193200895Y-92751539D01*
X193188838Y-92740108D01*
X193166141Y-92724140D01*
X193150148Y-92714371D01*
X193211595Y-92714371D01*
X193220870Y-92715882D01*
X193233108Y-92714147D01*
X193233254Y-92710926D01*
X193220626Y-92708674D01*
X193215169Y-92710181D01*
X193211595Y-92714371D01*
X193150148Y-92714371D01*
X193149161Y-92713768D01*
X193104971Y-92688262D01*
X193124080Y-92631679D01*
X193134891Y-92602425D01*
X193144225Y-92581984D01*
X193149614Y-92575096D01*
X193160295Y-92579914D01*
G37*
G36*
X193605610Y-91026912D02*
G01*
X193650751Y-91027643D01*
X193690706Y-91028147D01*
X193720618Y-91028371D01*
X193734218Y-91028310D01*
X193755710Y-91033566D01*
X193781288Y-91047231D01*
X193786900Y-91051255D01*
X193814966Y-91068364D01*
X193843819Y-91079818D01*
X193847733Y-91080731D01*
X193869834Y-91086953D01*
X193882128Y-91093774D01*
X193882337Y-91094077D01*
X193893940Y-91098095D01*
X193904665Y-91096754D01*
X193921963Y-91097838D01*
X193930973Y-91107536D01*
X193927378Y-91119823D01*
X193923441Y-91122960D01*
X193916851Y-91130197D01*
X193919873Y-91131883D01*
X193986503Y-91137625D01*
X194039161Y-91144063D01*
X194076397Y-91150962D01*
X194096761Y-91158090D01*
X194099765Y-91160795D01*
X194110670Y-91164257D01*
X194118253Y-91159595D01*
X194133916Y-91154129D01*
X194152795Y-91161150D01*
X194175376Y-91168853D01*
X194206911Y-91174189D01*
X194220890Y-91175250D01*
X194269881Y-91184502D01*
X194295728Y-91198376D01*
X194328817Y-91214715D01*
X194370521Y-91223826D01*
X194372126Y-91223983D01*
X194400344Y-91227591D01*
X194419833Y-91231880D01*
X194424665Y-91234228D01*
X194438308Y-91245907D01*
X194461097Y-91261635D01*
X194485545Y-91276548D01*
X194503791Y-91285644D01*
X194515828Y-91291969D01*
X194513338Y-91300941D01*
X194506129Y-91309361D01*
X194495892Y-91326246D01*
X194500774Y-91333558D01*
X194518159Y-91328172D01*
X194520651Y-91326714D01*
X194535709Y-91321094D01*
X194548861Y-91328249D01*
X194557830Y-91338312D01*
X194581060Y-91356395D01*
X194608683Y-91364228D01*
X194633254Y-91360118D01*
X194638468Y-91356683D01*
X194655233Y-91351680D01*
X194667642Y-91361649D01*
X194669985Y-91372644D01*
X194674464Y-91384850D01*
X194677973Y-91386240D01*
X194688826Y-91392312D01*
X194707661Y-91407800D01*
X194719964Y-91419264D01*
X194742317Y-91438449D01*
X194761199Y-91450361D01*
X194767841Y-91452288D01*
X194781839Y-91458541D01*
X194803131Y-91474633D01*
X194819206Y-91489407D01*
X194845719Y-91512537D01*
X194865566Y-91521800D01*
X194876565Y-91521330D01*
X194892046Y-91521110D01*
X194896420Y-91534642D01*
X194896433Y-91536106D01*
X194902735Y-91552782D01*
X194914219Y-91556077D01*
X194931900Y-91563423D01*
X194947460Y-91579665D01*
X194964790Y-91596773D01*
X194982452Y-91603254D01*
X195001104Y-91611477D01*
X195007132Y-91622922D01*
X195012724Y-91635564D01*
X195019778Y-91630740D01*
X195020258Y-91629998D01*
X195027001Y-91623089D01*
X195028384Y-91628905D01*
X195035338Y-91636112D01*
X195042681Y-91634972D01*
X195054121Y-91636416D01*
X195056835Y-91649421D01*
X195052968Y-91665291D01*
X195047157Y-91669301D01*
X195044294Y-91676450D01*
X195050573Y-91694521D01*
X195052117Y-91697607D01*
X195068240Y-91718413D01*
X195085051Y-91725913D01*
X195103137Y-91733555D01*
X195114612Y-91747143D01*
X195130583Y-91769057D01*
X195143250Y-91780702D01*
X195157189Y-91796107D01*
X195160624Y-91806649D01*
X195167952Y-91818821D01*
X195173880Y-91820267D01*
X195185912Y-91828103D01*
X195202117Y-91848257D01*
X195219242Y-91875704D01*
X195234030Y-91905414D01*
X195240941Y-91923857D01*
X195253034Y-91949727D01*
X195271503Y-91975991D01*
X195291839Y-91997329D01*
X195309529Y-92008424D01*
X195313119Y-92008974D01*
X195324193Y-92017225D01*
X195333011Y-92037264D01*
X195337990Y-92062020D01*
X195337544Y-92084422D01*
X195332524Y-92095603D01*
X195331673Y-92108178D01*
X195339866Y-92128748D01*
X195353450Y-92151340D01*
X195368777Y-92169985D01*
X195382195Y-92178713D01*
X195383395Y-92178811D01*
X195395746Y-92186588D01*
X195400150Y-92195323D01*
X195415808Y-92256854D01*
X195429746Y-92328094D01*
X195440272Y-92399878D01*
X195443508Y-92430604D01*
X195447768Y-92470224D01*
X195452644Y-92503322D01*
X195457345Y-92524919D01*
X195459267Y-92529675D01*
X195462962Y-92544403D01*
X195465754Y-92572686D01*
X195467181Y-92609212D01*
X195467273Y-92621362D01*
X195467320Y-92660830D01*
X195469678Y-92685405D01*
X195477671Y-92699036D01*
X195494627Y-92705673D01*
X195523869Y-92709266D01*
X195542756Y-92711022D01*
X195630451Y-92720082D01*
X195702993Y-92729470D01*
X195764084Y-92740330D01*
X195817423Y-92753805D01*
X195866713Y-92771038D01*
X195915653Y-92793173D01*
X195967945Y-92821352D01*
X196027289Y-92856719D01*
X196040237Y-92864698D01*
X196083414Y-92892837D01*
X196112986Y-92915999D01*
X196132438Y-92937208D01*
X196142239Y-92953172D01*
X196156217Y-92975739D01*
X196169128Y-92988883D01*
X196173014Y-92990252D01*
X196186829Y-92996194D01*
X196207325Y-93011102D01*
X196215282Y-93018026D01*
X196237511Y-93043979D01*
X196245573Y-93070767D01*
X196245807Y-93076997D01*
X196249307Y-93100181D01*
X196262698Y-93117729D01*
X196279691Y-93130074D01*
X196301225Y-93146341D01*
X196309055Y-93160604D01*
X196307690Y-93174934D01*
X196309175Y-93203844D01*
X196317767Y-93222095D01*
X196329232Y-93252812D01*
X196334300Y-93299128D01*
X196334469Y-93306464D01*
X196335812Y-93340177D01*
X196339481Y-93359472D01*
X196346745Y-93368769D01*
X196353084Y-93371319D01*
X196366103Y-93380855D01*
X196365655Y-93395825D01*
X196364427Y-93419428D01*
X196368450Y-93443498D01*
X196371741Y-93466044D01*
X196363642Y-93480136D01*
X196359717Y-93483189D01*
X196344965Y-93501098D01*
X196336805Y-93520991D01*
X196329612Y-93551457D01*
X196324625Y-93572886D01*
X196313263Y-93603950D01*
X196295704Y-93619370D01*
X196277227Y-93622422D01*
X196261374Y-93624422D01*
X196260991Y-93633950D01*
X196265031Y-93642171D01*
X196271526Y-93662018D01*
X196268462Y-93683193D01*
X196254426Y-93708701D01*
X196228003Y-93741545D01*
X196207763Y-93763732D01*
X196150524Y-93824842D01*
X196063653Y-93826301D01*
X196009782Y-93825471D01*
X195971235Y-93821056D01*
X195953194Y-93815348D01*
X195926017Y-93803688D01*
X195906017Y-93797587D01*
X195884541Y-93786016D01*
X195861802Y-93763859D01*
X195850364Y-93748226D01*
X195899727Y-93748226D01*
X195901022Y-93753836D01*
X195906017Y-93754517D01*
X195913784Y-93751064D01*
X195912308Y-93748226D01*
X195901110Y-93747097D01*
X195899727Y-93748226D01*
X195850364Y-93748226D01*
X195841946Y-93736720D01*
X195829121Y-93710199D01*
X195827129Y-93691037D01*
X195828347Y-93676479D01*
X195817604Y-93674896D01*
X195811979Y-93676217D01*
X195794072Y-93675309D01*
X195774432Y-93661190D01*
X195763610Y-93649631D01*
X195744080Y-93624865D01*
X195729385Y-93601950D01*
X195726720Y-93596474D01*
X195712944Y-93579983D01*
X195699358Y-93575245D01*
X195680184Y-93568311D01*
X195663741Y-93553959D01*
X195643328Y-93532538D01*
X195616933Y-93509765D01*
X195589640Y-93489476D01*
X195566537Y-93475506D01*
X195554347Y-93471456D01*
X195536903Y-93464757D01*
X195528603Y-93457303D01*
X195510963Y-93447539D01*
X195482904Y-93443195D01*
X195479635Y-93443150D01*
X195455993Y-93441962D01*
X195446907Y-93436772D01*
X195448129Y-93425141D01*
X195448150Y-93425073D01*
X195449607Y-93406790D01*
X195440072Y-93401505D01*
X195422269Y-93409256D01*
X195404306Y-93424464D01*
X195379193Y-93444842D01*
X195357673Y-93450542D01*
X195351846Y-93449855D01*
X195337380Y-93450420D01*
X195320713Y-93459239D01*
X195298385Y-93478676D01*
X195275537Y-93501965D01*
X195234922Y-93544924D01*
X195205231Y-93576923D01*
X195184283Y-93600580D01*
X195169896Y-93618512D01*
X195159889Y-93633337D01*
X195152079Y-93647673D01*
X195149247Y-93653511D01*
X195130591Y-93683296D01*
X195110850Y-93699087D01*
X195092663Y-93699264D01*
X195084976Y-93692988D01*
X195070331Y-93680345D01*
X195062465Y-93683100D01*
X195063359Y-93697229D01*
X195061565Y-93715314D01*
X195051760Y-93742645D01*
X195041246Y-93763843D01*
X195014375Y-93812262D01*
X194971916Y-93806797D01*
X194947295Y-93804069D01*
X194939058Y-93804984D01*
X194944952Y-93810233D01*
X194950274Y-93813418D01*
X194964061Y-93826230D01*
X194960057Y-93839158D01*
X194937831Y-93853195D01*
X194931816Y-93855937D01*
X194913354Y-93867463D01*
X194905869Y-93878755D01*
X194912529Y-93890337D01*
X194929716Y-93909812D01*
X194953238Y-93933264D01*
X194978903Y-93956775D01*
X195002521Y-93976430D01*
X195019900Y-93988310D01*
X195025025Y-93990113D01*
X195035328Y-93998207D01*
X195046602Y-94017664D01*
X195048038Y-94021066D01*
X195060628Y-94044990D01*
X195080282Y-94074992D01*
X195102782Y-94105353D01*
X195123908Y-94130352D01*
X195138469Y-94143676D01*
X195149016Y-94155382D01*
X195164394Y-94177865D01*
X195175074Y-94195571D01*
X195196544Y-94229410D01*
X195223016Y-94266385D01*
X195237770Y-94285113D01*
X195259780Y-94314817D01*
X195277508Y-94344236D01*
X195284782Y-94360596D01*
X195295233Y-94388771D01*
X195309267Y-94422132D01*
X195314085Y-94432737D01*
X195333337Y-94474070D01*
X195310669Y-94491871D01*
X195288001Y-94509671D01*
X195314933Y-94531878D01*
X195332141Y-94548189D01*
X195336098Y-94561076D01*
X195330571Y-94575187D01*
X195324236Y-94595395D01*
X195329586Y-94606599D01*
X195339345Y-94626844D01*
X195330466Y-94648920D01*
X195325068Y-94654920D01*
X195316706Y-94666307D01*
X195318613Y-94669747D01*
X195322182Y-94678554D01*
X195324338Y-94702589D01*
X195325209Y-94738270D01*
X195324924Y-94782019D01*
X195323613Y-94830254D01*
X195321403Y-94879396D01*
X195318424Y-94925864D01*
X195314804Y-94966079D01*
X195310672Y-94996459D01*
X195306256Y-95013228D01*
X195296560Y-95038458D01*
X195292719Y-95059069D01*
X195296252Y-95072017D01*
X195310268Y-95072973D01*
X195315815Y-95071716D01*
X195340218Y-95071894D01*
X195374242Y-95080300D01*
X195388448Y-95085445D01*
X195427355Y-95098820D01*
X195468948Y-95110251D01*
X195485652Y-95113843D01*
X195515363Y-95121522D01*
X195539384Y-95134391D01*
X195564588Y-95156654D01*
X195577216Y-95169856D01*
X195600698Y-95193599D01*
X195620070Y-95210535D01*
X195631139Y-95216998D01*
X195631141Y-95216998D01*
X195646599Y-95223281D01*
X195666408Y-95238725D01*
X195685508Y-95258218D01*
X195698836Y-95276651D01*
X195701676Y-95288220D01*
X195704447Y-95302478D01*
X195711631Y-95307571D01*
X195728152Y-95320556D01*
X195747598Y-95344787D01*
X195765944Y-95373965D01*
X195779161Y-95401791D01*
X195783358Y-95419775D01*
X195786459Y-95439251D01*
X195791651Y-95447459D01*
X195796187Y-95459796D01*
X195796299Y-95483895D01*
X195792762Y-95513380D01*
X195786351Y-95541870D01*
X195777838Y-95562989D01*
X195777575Y-95563416D01*
X195767181Y-95589542D01*
X195764487Y-95608503D01*
X195760286Y-95629642D01*
X195749382Y-95659947D01*
X195737150Y-95686676D01*
X195720189Y-95717485D01*
X195704997Y-95735907D01*
X195686304Y-95747062D01*
X195668743Y-95753160D01*
X195638473Y-95765189D01*
X195613011Y-95779968D01*
X195607596Y-95784388D01*
X195579495Y-95799453D01*
X195534757Y-95808280D01*
X195532113Y-95808550D01*
X195499989Y-95813080D01*
X195474723Y-95819123D01*
X195464412Y-95823712D01*
X195447218Y-95831406D01*
X195416945Y-95839739D01*
X195379284Y-95847372D01*
X195339924Y-95852968D01*
X195339895Y-95852972D01*
X195315581Y-95857511D01*
X195301957Y-95861956D01*
X195282958Y-95866268D01*
X195251594Y-95869289D01*
X195213325Y-95870957D01*
X195173614Y-95871207D01*
X195137923Y-95869977D01*
X195111714Y-95867202D01*
X195101888Y-95864279D01*
X195083937Y-95859712D01*
X195074054Y-95865916D01*
X195053899Y-95876360D01*
X195032876Y-95874234D01*
X195021921Y-95864697D01*
X195013410Y-95856141D01*
X194997417Y-95849176D01*
X194971386Y-95843293D01*
X194932758Y-95837981D01*
X194878976Y-95832729D01*
X194849257Y-95830259D01*
X194776844Y-95824448D01*
X194721020Y-95819760D01*
X194679572Y-95815727D01*
X194650285Y-95811882D01*
X194630945Y-95807756D01*
X194619338Y-95802883D01*
X194613250Y-95796794D01*
X194610466Y-95789023D01*
X194608837Y-95779484D01*
X194605327Y-95758542D01*
X194599525Y-95723997D01*
X194592274Y-95680855D01*
X194585299Y-95639381D01*
X194578425Y-95594836D01*
X194573637Y-95556356D01*
X194571386Y-95528165D01*
X194572023Y-95514724D01*
X194572429Y-95498646D01*
X194568367Y-95469622D01*
X194561031Y-95432706D01*
X194551615Y-95392953D01*
X194541315Y-95355416D01*
X194531324Y-95325150D01*
X194523046Y-95307503D01*
X194512440Y-95286454D01*
X194509583Y-95272978D01*
X194503754Y-95256153D01*
X194489390Y-95234353D01*
X194486007Y-95230260D01*
X194470253Y-95205629D01*
X194462566Y-95181220D01*
X194462418Y-95178313D01*
X194456919Y-95156866D01*
X194442869Y-95128907D01*
X194442550Y-95128425D01*
X194569439Y-95128425D01*
X194570913Y-95132080D01*
X194579392Y-95141081D01*
X194580905Y-95141515D01*
X194584958Y-95134215D01*
X194585066Y-95132080D01*
X194577813Y-95123007D01*
X194575074Y-95122644D01*
X194569439Y-95128425D01*
X194442550Y-95128425D01*
X194431839Y-95112266D01*
X194412596Y-95085099D01*
X194397047Y-95061346D01*
X194391572Y-95051879D01*
X194375093Y-95032729D01*
X194361425Y-95023960D01*
X194340934Y-95008074D01*
X194331668Y-94994477D01*
X194318953Y-94979744D01*
X194294334Y-94970468D01*
X194276799Y-94967260D01*
X194239019Y-94959173D01*
X194217133Y-94947577D01*
X194208235Y-94930614D01*
X194207652Y-94923014D01*
X194204874Y-94910659D01*
X194193260Y-94912755D01*
X194189401Y-94914734D01*
X194156284Y-94924009D01*
X194125223Y-94917981D01*
X194108580Y-94905631D01*
X194086325Y-94891090D01*
X194066546Y-94886760D01*
X194043714Y-94882975D01*
X194030946Y-94876117D01*
X194001305Y-94856428D01*
X193962422Y-94843090D01*
X193923594Y-94838928D01*
X193912343Y-94840057D01*
X193886403Y-94842282D01*
X193870949Y-94836246D01*
X193863727Y-94827950D01*
X193848489Y-94814417D01*
X193822929Y-94804432D01*
X193784802Y-94797551D01*
X193731863Y-94793331D01*
X193679808Y-94791620D01*
X193637476Y-94789992D01*
X193601708Y-94787134D01*
X193577019Y-94783493D01*
X193568606Y-94780613D01*
X193550232Y-94776772D01*
X193517045Y-94781238D01*
X193509317Y-94782999D01*
X193478366Y-94788766D01*
X193452724Y-94790691D01*
X193443867Y-94789798D01*
X193421630Y-94788017D01*
X193386790Y-94789510D01*
X193345188Y-94793552D01*
X193302664Y-94799421D01*
X193265059Y-94806393D01*
X193238212Y-94813746D01*
X193233203Y-94815881D01*
X193205129Y-94824414D01*
X193181952Y-94824095D01*
X193155195Y-94825538D01*
X193130013Y-94839575D01*
X193100472Y-94855593D01*
X193068454Y-94865170D01*
X193067083Y-94865364D01*
X193043664Y-94870887D01*
X193030036Y-94878680D01*
X193029196Y-94880135D01*
X193020355Y-94893455D01*
X193003984Y-94911855D01*
X193002686Y-94913164D01*
X192981257Y-94929066D01*
X192959342Y-94930722D01*
X192954544Y-94929692D01*
X192921651Y-94922652D01*
X192902349Y-94922859D01*
X192892194Y-94931999D01*
X192886743Y-94951758D01*
X192886069Y-94955668D01*
X192874398Y-94988233D01*
X192848748Y-95020501D01*
X192840928Y-95028054D01*
X192819546Y-95049387D01*
X192805328Y-95066243D01*
X192801783Y-95073085D01*
X192795482Y-95084667D01*
X192780041Y-95101871D01*
X192777298Y-95104488D01*
X192754120Y-95130273D01*
X192736684Y-95160839D01*
X192722708Y-95201135D01*
X192711928Y-95246341D01*
X192704868Y-95282495D01*
X192702379Y-95305704D01*
X192704473Y-95321331D01*
X192711161Y-95334741D01*
X192712113Y-95336214D01*
X192722015Y-95364481D01*
X192720568Y-95395768D01*
X192719453Y-95428600D01*
X192729197Y-95460570D01*
X192735230Y-95472902D01*
X192748841Y-95507030D01*
X192748459Y-95535643D01*
X192733287Y-95565167D01*
X192721966Y-95579804D01*
X192706402Y-95597339D01*
X192696121Y-95601740D01*
X192684676Y-95594654D01*
X192680024Y-95590510D01*
X192665096Y-95579130D01*
X192654360Y-95580954D01*
X192645320Y-95589126D01*
X192624586Y-95600985D01*
X192609523Y-95602964D01*
X192584361Y-95604838D01*
X192572243Y-95608453D01*
X192550740Y-95608614D01*
X192540573Y-95601437D01*
X192528696Y-95592605D01*
X192515457Y-95593916D01*
X192498377Y-95602505D01*
X192478805Y-95612179D01*
X192467760Y-95611684D01*
X192458242Y-95601489D01*
X192443450Y-95588291D01*
X192430115Y-95585539D01*
X192424368Y-95594413D01*
X192416117Y-95600849D01*
X192396022Y-95603870D01*
X192393703Y-95603901D01*
X192363216Y-95606617D01*
X192329959Y-95613165D01*
X192327012Y-95613957D01*
X192298141Y-95619242D01*
X192280398Y-95614964D01*
X192278079Y-95613250D01*
X192262220Y-95607403D01*
X192244226Y-95613749D01*
X192227211Y-95619628D01*
X192214236Y-95612227D01*
X192207091Y-95603498D01*
X192185368Y-95586457D01*
X192159627Y-95582926D01*
X192129275Y-95577361D01*
X192107327Y-95559347D01*
X192086302Y-95534880D01*
X192063264Y-95561663D01*
X192040226Y-95588446D01*
X192023686Y-95563203D01*
X192013202Y-95549769D01*
X192001022Y-95543130D01*
X191982826Y-95543067D01*
X191954298Y-95549363D01*
X191923431Y-95558154D01*
X191894606Y-95563278D01*
X191869586Y-95557422D01*
X191859458Y-95552580D01*
X191838270Y-95543030D01*
X191825520Y-95543175D01*
X191814828Y-95551564D01*
X191796214Y-95563856D01*
X191780490Y-95564382D01*
X191773358Y-95553089D01*
X191773328Y-95551953D01*
X191770217Y-95541330D01*
X191757997Y-95536493D01*
X191732338Y-95536052D01*
X191724879Y-95536386D01*
X191701765Y-95532356D01*
X191688397Y-95523632D01*
X191672277Y-95512445D01*
X191646332Y-95501718D01*
X191637775Y-95499175D01*
X191608186Y-95485186D01*
X191574918Y-95460427D01*
X191542968Y-95429735D01*
X191517333Y-95397949D01*
X191503011Y-95369906D01*
X191502585Y-95368303D01*
X191494252Y-95343578D01*
X191481673Y-95314741D01*
X191479990Y-95311352D01*
X191470054Y-95282932D01*
X191460869Y-95241286D01*
X191453153Y-95192057D01*
X191447624Y-95140889D01*
X191445000Y-95093426D01*
X191446000Y-95055311D01*
X191446678Y-95049449D01*
X191455391Y-95013895D01*
X191469630Y-94979726D01*
X191474081Y-94972054D01*
X191490296Y-94945945D01*
X191503454Y-94923478D01*
X191505467Y-94919784D01*
X191520157Y-94901667D01*
X191542282Y-94883213D01*
X191544018Y-94882043D01*
X191565790Y-94864054D01*
X191580306Y-94845716D01*
X191580948Y-94844383D01*
X191588846Y-94833905D01*
X191603800Y-94825370D01*
X191628307Y-94818179D01*
X191664867Y-94811734D01*
X191715977Y-94805436D01*
X191763286Y-94800645D01*
X191815465Y-94794401D01*
X191828420Y-94791850D01*
X191905423Y-94791850D01*
X191912272Y-94801458D01*
X191914858Y-94801842D01*
X191924048Y-94798623D01*
X191924294Y-94797681D01*
X191917682Y-94789626D01*
X191914858Y-94787689D01*
X191906164Y-94788437D01*
X191905423Y-94791850D01*
X191828420Y-94791850D01*
X191851562Y-94787293D01*
X191870305Y-94779587D01*
X191871793Y-94778085D01*
X191887661Y-94765340D01*
X191908828Y-94754926D01*
X191924914Y-94747693D01*
X191931791Y-94737878D01*
X191931695Y-94719424D01*
X191928999Y-94700247D01*
X191924370Y-94663730D01*
X191920311Y-94621356D01*
X191918871Y-94601381D01*
X191915611Y-94568553D01*
X191910735Y-94541684D01*
X191907096Y-94530616D01*
X191903787Y-94512545D01*
X191903624Y-94482507D01*
X191906043Y-94447039D01*
X191910478Y-94412675D01*
X191916366Y-94385951D01*
X191920439Y-94376177D01*
X191927563Y-94356719D01*
X191930242Y-94339509D01*
X191942225Y-94279608D01*
X191949120Y-94267171D01*
X192097275Y-94267171D01*
X192098571Y-94272781D01*
X192103566Y-94273462D01*
X192111332Y-94270009D01*
X192109856Y-94267171D01*
X192098658Y-94266042D01*
X192097275Y-94267171D01*
X191949120Y-94267171D01*
X191969610Y-94230209D01*
X191984119Y-94214213D01*
X192015217Y-94188081D01*
X192052262Y-94162919D01*
X192090092Y-94141658D01*
X192123545Y-94127226D01*
X192145755Y-94122496D01*
X192164160Y-94117815D01*
X192177855Y-94100808D01*
X192183640Y-94088320D01*
X192193001Y-94055781D01*
X192197411Y-94018817D01*
X192196866Y-93983437D01*
X192191359Y-93955646D01*
X192183766Y-93943224D01*
X192174431Y-93926237D01*
X192170065Y-93893791D01*
X192169613Y-93873573D01*
X192168558Y-93839818D01*
X192164397Y-93819555D01*
X192155636Y-93807474D01*
X192149854Y-93803328D01*
X192136381Y-93792725D01*
X192138377Y-93782421D01*
X192145213Y-93774284D01*
X192154589Y-93761080D01*
X192152052Y-93749231D01*
X192141383Y-93735734D01*
X192127364Y-93710730D01*
X192122436Y-93687025D01*
X192120118Y-93667776D01*
X192114817Y-93660163D01*
X192106731Y-93652335D01*
X192095332Y-93632625D01*
X192090546Y-93622422D01*
X192078431Y-93599440D01*
X192067557Y-93586065D01*
X192064402Y-93584680D01*
X192052990Y-93578445D01*
X192033643Y-93562386D01*
X192017979Y-93547380D01*
X191987258Y-93522581D01*
X191954518Y-93506062D01*
X191924916Y-93499818D01*
X191906035Y-93504101D01*
X191899185Y-93516952D01*
X191896014Y-93539889D01*
X191895988Y-93542221D01*
X191892698Y-93569722D01*
X191882833Y-93579539D01*
X191866400Y-93571666D01*
X191858080Y-93563660D01*
X191837917Y-93542221D01*
X191817062Y-93568168D01*
X191801166Y-93585495D01*
X191789543Y-93593952D01*
X191788552Y-93594115D01*
X191774845Y-93597857D01*
X191751314Y-93607078D01*
X191724991Y-93618770D01*
X191702909Y-93629925D01*
X191697845Y-93632916D01*
X191675930Y-93644097D01*
X191668052Y-93647156D01*
X191652432Y-93660101D01*
X191647932Y-93669608D01*
X191638057Y-93684703D01*
X191617748Y-93704441D01*
X191603001Y-93716045D01*
X191575850Y-93738703D01*
X191553092Y-93762768D01*
X191545854Y-93772805D01*
X191532044Y-93790398D01*
X191511702Y-93805780D01*
X191480877Y-93821363D01*
X191437871Y-93838704D01*
X191410151Y-93853246D01*
X191384030Y-93872834D01*
X191363526Y-93888405D01*
X191346337Y-93895922D01*
X191344721Y-93896047D01*
X191328163Y-93900206D01*
X191302925Y-93910708D01*
X191290975Y-93916621D01*
X191266417Y-93928493D01*
X191248466Y-93932314D01*
X191228247Y-93928582D01*
X191206858Y-93921339D01*
X191177065Y-93911987D01*
X191152242Y-93906292D01*
X191144334Y-93905482D01*
X191125258Y-93898328D01*
X191112671Y-93886359D01*
X191094771Y-93872240D01*
X191074632Y-93872564D01*
X191049057Y-93871005D01*
X191032975Y-93858663D01*
X191016274Y-93844352D01*
X191004346Y-93839435D01*
X190987705Y-93831766D01*
X190971553Y-93813886D01*
X190962346Y-93793486D01*
X190961887Y-93788860D01*
X190954640Y-93772071D01*
X190947733Y-93767364D01*
X190935064Y-93756772D01*
X190933318Y-93751148D01*
X190927835Y-93737740D01*
X190914227Y-93716014D01*
X190905633Y-93704133D01*
X190890480Y-93680223D01*
X190883139Y-93660651D01*
X190883345Y-93654525D01*
X190882322Y-93637469D01*
X190873506Y-93618295D01*
X190861705Y-93593515D01*
X190853818Y-93564379D01*
X190850850Y-93537236D01*
X190853806Y-93518438D01*
X190857081Y-93514543D01*
X190866106Y-93499832D01*
X190866337Y-93479089D01*
X190858459Y-93462095D01*
X190853148Y-93458519D01*
X190842930Y-93445780D01*
X190843956Y-93431563D01*
X190844525Y-93428592D01*
X190967236Y-93428592D01*
X190967292Y-93477971D01*
X190968499Y-93512674D01*
X190971443Y-93536890D01*
X190976712Y-93554805D01*
X190984892Y-93570606D01*
X190987798Y-93575245D01*
X191002717Y-93603609D01*
X191008709Y-93626381D01*
X191005058Y-93639555D01*
X190999628Y-93641292D01*
X190990555Y-93648546D01*
X190990193Y-93651284D01*
X190995861Y-93657153D01*
X190998860Y-93655920D01*
X191006788Y-93659873D01*
X191013460Y-93676593D01*
X191025530Y-93708841D01*
X191047662Y-93733497D01*
X191073984Y-93750708D01*
X191100615Y-93765768D01*
X191123473Y-93778796D01*
X191125510Y-93779967D01*
X191145959Y-93786236D01*
X191157302Y-93781171D01*
X191167281Y-93776831D01*
X191169465Y-93785802D01*
X191173656Y-93795046D01*
X191189028Y-93798147D01*
X191209565Y-93797233D01*
X191258029Y-93791028D01*
X191295889Y-93781701D01*
X191318072Y-93770966D01*
X191329250Y-93753775D01*
X191323131Y-93737818D01*
X191310284Y-93730703D01*
X191296789Y-93724044D01*
X191295478Y-93719712D01*
X191305896Y-93720769D01*
X191325094Y-93729651D01*
X191327976Y-93731313D01*
X191344603Y-93740177D01*
X191357661Y-93741738D01*
X191373500Y-93734824D01*
X191398395Y-93718314D01*
X191419475Y-93701728D01*
X191450500Y-93674623D01*
X191488220Y-93639966D01*
X191529382Y-93600726D01*
X191558066Y-93572555D01*
X191605116Y-93527090D01*
X191648002Y-93488228D01*
X191684151Y-93458182D01*
X191710988Y-93439164D01*
X191717185Y-93435771D01*
X191781786Y-93411486D01*
X191853684Y-93396143D01*
X191927539Y-93390072D01*
X191998014Y-93393603D01*
X192059768Y-93407066D01*
X192076816Y-93413526D01*
X192098487Y-93424643D01*
X192116177Y-93439373D01*
X192133663Y-93461894D01*
X192154720Y-93496386D01*
X192159942Y-93505529D01*
X192179923Y-93539944D01*
X192197430Y-93568648D01*
X192209720Y-93587201D01*
X192212724Y-93590959D01*
X192219152Y-93605065D01*
X192226640Y-93632497D01*
X192233772Y-93667871D01*
X192235103Y-93675878D01*
X192248666Y-93752389D01*
X192262811Y-93813987D01*
X192278626Y-93864618D01*
X192297201Y-93908234D01*
X192301629Y-93917016D01*
X192316449Y-93949189D01*
X192326119Y-93980997D01*
X192332284Y-94019292D01*
X192335820Y-94059547D01*
X192338202Y-94107077D01*
X192337344Y-94137650D01*
X192333168Y-94152912D01*
X192331311Y-94154718D01*
X192323388Y-94168198D01*
X192320579Y-94187580D01*
X192314462Y-94213189D01*
X192298951Y-94239628D01*
X192278305Y-94262087D01*
X192256783Y-94275755D01*
X192241402Y-94277007D01*
X192220287Y-94265418D01*
X192211114Y-94256403D01*
X192198643Y-94248735D01*
X192183538Y-94248539D01*
X192173263Y-94254471D01*
X192173773Y-94263123D01*
X192168991Y-94269844D01*
X192150589Y-94276317D01*
X192141511Y-94278145D01*
X192107722Y-94290837D01*
X192079087Y-94313881D01*
X192060606Y-94342314D01*
X192056389Y-94362622D01*
X192052630Y-94383715D01*
X192043062Y-94413159D01*
X192036357Y-94429573D01*
X192024325Y-94462746D01*
X192019774Y-94495283D01*
X192021125Y-94534653D01*
X192025331Y-94568159D01*
X192031435Y-94595082D01*
X192037055Y-94607859D01*
X192042980Y-94624380D01*
X192046377Y-94652794D01*
X192046724Y-94676174D01*
X192051090Y-94744898D01*
X192066820Y-94808793D01*
X192080247Y-94840106D01*
X192093090Y-94880705D01*
X192087625Y-94917198D01*
X192079442Y-94931838D01*
X192067102Y-94943566D01*
X192048099Y-94950488D01*
X192019652Y-94952772D01*
X191978979Y-94950581D01*
X191923299Y-94944083D01*
X191908315Y-94942029D01*
X191858570Y-94937607D01*
X191809385Y-94937645D01*
X191764281Y-94941625D01*
X191726783Y-94949027D01*
X191700412Y-94959333D01*
X191688692Y-94972023D01*
X191688410Y-94974440D01*
X191680504Y-94991287D01*
X191670411Y-94997023D01*
X191653059Y-95009333D01*
X191647706Y-95019728D01*
X191635308Y-95034798D01*
X191623245Y-95037726D01*
X191606683Y-95044124D01*
X191603491Y-95054710D01*
X191597236Y-95075945D01*
X191591697Y-95083487D01*
X191585087Y-95100533D01*
X191580999Y-95135407D01*
X191579549Y-95184446D01*
X191579883Y-95227178D01*
X191581670Y-95254568D01*
X191585473Y-95270124D01*
X191591852Y-95277351D01*
X191594621Y-95278507D01*
X191607025Y-95290071D01*
X191618568Y-95312667D01*
X191620864Y-95319506D01*
X191627974Y-95337963D01*
X191638824Y-95352489D01*
X191656657Y-95365133D01*
X191684718Y-95377942D01*
X191726251Y-95392963D01*
X191749739Y-95400838D01*
X191790646Y-95413908D01*
X191817972Y-95420871D01*
X191835860Y-95422106D01*
X191848452Y-95417991D01*
X191857901Y-95410736D01*
X191876077Y-95401755D01*
X191896454Y-95400790D01*
X191911502Y-95407261D01*
X191914858Y-95415118D01*
X191922701Y-95418296D01*
X191941934Y-95415439D01*
X191945461Y-95414482D01*
X191976336Y-95408596D01*
X192011767Y-95406105D01*
X192045540Y-95406939D01*
X192071443Y-95411029D01*
X192081795Y-95416015D01*
X192096420Y-95421465D01*
X192111411Y-95415992D01*
X192129937Y-95412234D01*
X192161038Y-95411992D01*
X192200072Y-95414646D01*
X192242395Y-95419578D01*
X192283363Y-95426168D01*
X192318332Y-95433799D01*
X192342659Y-95441851D01*
X192351215Y-95447945D01*
X192364319Y-95461186D01*
X192377318Y-95455979D01*
X192386297Y-95439596D01*
X192394523Y-95424596D01*
X192407573Y-95420964D01*
X192426164Y-95424355D01*
X192452619Y-95431485D01*
X192472847Y-95438240D01*
X192473051Y-95438324D01*
X192487727Y-95437739D01*
X192494917Y-95425258D01*
X192506994Y-95408235D01*
X192524498Y-95408496D01*
X192534796Y-95416118D01*
X192550771Y-95421424D01*
X192562335Y-95416947D01*
X192573472Y-95405625D01*
X192577182Y-95385091D01*
X192576539Y-95366434D01*
X192573135Y-95339054D01*
X192568114Y-95319577D01*
X192566240Y-95316069D01*
X192561991Y-95302505D01*
X192557760Y-95275708D01*
X192554420Y-95241296D01*
X192554248Y-95238831D01*
X192552647Y-95199778D01*
X192554833Y-95173422D01*
X192561617Y-95153827D01*
X192567139Y-95144477D01*
X192579379Y-95121222D01*
X192584700Y-95101824D01*
X192584707Y-95101415D01*
X192589212Y-95087411D01*
X192594204Y-95084903D01*
X192602820Y-95077373D01*
X192603640Y-95072212D01*
X192609746Y-95062384D01*
X192626571Y-95041324D01*
X192651877Y-95011519D01*
X192683424Y-94975457D01*
X192718974Y-94935625D01*
X192756288Y-94894508D01*
X192776502Y-94872607D01*
X192943313Y-94872607D01*
X192948031Y-94877325D01*
X192952748Y-94872607D01*
X192948031Y-94867890D01*
X192943313Y-94872607D01*
X192776502Y-94872607D01*
X192793128Y-94854594D01*
X192827253Y-94818370D01*
X192856426Y-94788323D01*
X192878408Y-94766940D01*
X192878721Y-94766652D01*
X192894576Y-94755222D01*
X192933878Y-94755222D01*
X192941074Y-94763846D01*
X192943313Y-94764101D01*
X192951594Y-94756421D01*
X192952748Y-94749391D01*
X192952272Y-94748375D01*
X193380485Y-94748375D01*
X193381780Y-94753984D01*
X193386775Y-94754665D01*
X193394541Y-94751213D01*
X193393065Y-94748375D01*
X193381868Y-94747246D01*
X193380485Y-94748375D01*
X192952272Y-94748375D01*
X192948174Y-94739625D01*
X192943313Y-94740512D01*
X192934238Y-94752575D01*
X192933878Y-94755222D01*
X192894576Y-94755222D01*
X192900292Y-94751101D01*
X192933676Y-94731593D01*
X192952771Y-94721641D01*
X193518870Y-94721641D01*
X193523588Y-94726359D01*
X193528306Y-94721641D01*
X193523588Y-94716924D01*
X193518870Y-94721641D01*
X192952771Y-94721641D01*
X192973112Y-94711040D01*
X193012835Y-94692351D01*
X193047084Y-94678436D01*
X193063366Y-94673406D01*
X193086028Y-94666258D01*
X193099228Y-94659621D01*
X193125658Y-94646178D01*
X193125724Y-94646159D01*
X193367904Y-94646159D01*
X193372622Y-94650876D01*
X193377340Y-94646159D01*
X193372622Y-94641441D01*
X193367904Y-94646159D01*
X193125724Y-94646159D01*
X193163915Y-94635179D01*
X193206976Y-94628178D01*
X193247820Y-94626729D01*
X193247843Y-94626731D01*
X193278107Y-94626870D01*
X193300000Y-94624442D01*
X193307435Y-94621178D01*
X193319716Y-94614978D01*
X193337860Y-94612768D01*
X193394542Y-94612730D01*
X193452508Y-94613245D01*
X193507077Y-94614224D01*
X193553567Y-94615576D01*
X193587301Y-94617209D01*
X193594353Y-94617751D01*
X193623275Y-94620154D01*
X193663886Y-94623317D01*
X193709048Y-94626690D01*
X193726118Y-94627926D01*
X193788152Y-94635394D01*
X193835359Y-94648558D01*
X193871269Y-94668756D01*
X193895055Y-94691854D01*
X193909310Y-94701877D01*
X193926761Y-94696892D01*
X193950717Y-94691688D01*
X193968229Y-94697090D01*
X193995380Y-94709706D01*
X194013662Y-94718216D01*
X194039597Y-94724084D01*
X194066908Y-94722899D01*
X194096202Y-94722169D01*
X194111387Y-94728684D01*
X194130165Y-94736721D01*
X194156845Y-94740475D01*
X194159572Y-94740512D01*
X194182616Y-94742497D01*
X194191561Y-94750036D01*
X194192080Y-94757673D01*
X194195713Y-94770122D01*
X194204231Y-94769626D01*
X194218756Y-94771875D01*
X194222815Y-94777483D01*
X194235369Y-94790650D01*
X194245932Y-94795282D01*
X194262612Y-94807093D01*
X194273352Y-94824517D01*
X194285316Y-94844369D01*
X194298041Y-94847551D01*
X194308367Y-94833985D01*
X194314336Y-94829029D01*
X194324710Y-94838063D01*
X194340515Y-94861331D01*
X194365342Y-94893189D01*
X194397650Y-94917248D01*
X194419786Y-94928734D01*
X194453757Y-94947999D01*
X194476965Y-94967638D01*
X194483150Y-94976738D01*
X194499396Y-94999870D01*
X194515649Y-95014153D01*
X194533759Y-95031728D01*
X194554338Y-95059836D01*
X194573738Y-95092336D01*
X194588307Y-95123087D01*
X194594397Y-95145947D01*
X194594413Y-95146705D01*
X194598167Y-95166921D01*
X194602637Y-95175011D01*
X194611109Y-95192137D01*
X194619843Y-95221919D01*
X194627630Y-95258201D01*
X194633263Y-95294824D01*
X194635534Y-95325632D01*
X194634773Y-95338804D01*
X194632618Y-95359893D01*
X194636776Y-95366752D01*
X194646300Y-95364589D01*
X194667455Y-95364319D01*
X194681858Y-95377216D01*
X194683621Y-95397855D01*
X194683358Y-95398726D01*
X194682520Y-95422089D01*
X194687007Y-95437495D01*
X194700546Y-95468620D01*
X194708191Y-95495811D01*
X194711773Y-95527523D01*
X194712839Y-95556671D01*
X194714557Y-95592113D01*
X194717662Y-95622446D01*
X194720845Y-95638647D01*
X194727498Y-95659292D01*
X194761146Y-95639439D01*
X194783685Y-95627334D01*
X194799267Y-95624844D01*
X194816818Y-95631392D01*
X194824385Y-95635342D01*
X194860351Y-95646668D01*
X194899608Y-95648974D01*
X194930114Y-95649395D01*
X194947383Y-95655191D01*
X194954561Y-95663504D01*
X194969653Y-95675478D01*
X194982714Y-95674181D01*
X194999003Y-95674210D01*
X195006801Y-95688297D01*
X195011967Y-95702033D01*
X195020294Y-95700449D01*
X195029450Y-95692650D01*
X195042596Y-95684644D01*
X195062941Y-95680029D01*
X195094663Y-95678209D01*
X195129681Y-95678341D01*
X195171309Y-95679606D01*
X195209112Y-95681712D01*
X195236561Y-95684266D01*
X195241865Y-95685073D01*
X195265142Y-95686012D01*
X195276352Y-95676845D01*
X195276952Y-95675416D01*
X195287098Y-95664334D01*
X195301152Y-95660379D01*
X195310794Y-95665123D01*
X195311589Y-95668873D01*
X195319586Y-95677179D01*
X195335178Y-95683205D01*
X195352849Y-95690782D01*
X195358766Y-95698381D01*
X195365493Y-95708160D01*
X195382960Y-95707984D01*
X195407098Y-95699595D01*
X195433838Y-95684734D01*
X195459109Y-95665141D01*
X195474161Y-95649018D01*
X195486944Y-95634708D01*
X195495547Y-95634660D01*
X195503890Y-95644053D01*
X195515249Y-95655084D01*
X195524913Y-95650555D01*
X195528063Y-95646957D01*
X195545169Y-95636257D01*
X195568947Y-95630341D01*
X195596960Y-95619252D01*
X195619039Y-95591644D01*
X195635651Y-95546815D01*
X195641613Y-95520058D01*
X195645259Y-95473934D01*
X195640011Y-95429029D01*
X195627094Y-95391067D01*
X195608825Y-95366646D01*
X195590848Y-95350858D01*
X195566817Y-95328475D01*
X195555018Y-95317110D01*
X195532523Y-95297579D01*
X195513569Y-95285256D01*
X195506491Y-95283046D01*
X195491504Y-95275426D01*
X195487449Y-95268893D01*
X195479142Y-95257668D01*
X195464798Y-95256803D01*
X195441655Y-95266970D01*
X195407865Y-95288223D01*
X195358144Y-95321707D01*
X195330406Y-95300018D01*
X195309952Y-95279034D01*
X195297075Y-95256796D01*
X195296455Y-95254739D01*
X195278721Y-95218284D01*
X195262998Y-95206013D01*
X195353092Y-95206013D01*
X195353225Y-95206230D01*
X195364152Y-95213361D01*
X195368202Y-95212280D01*
X195379723Y-95213854D01*
X195382259Y-95216844D01*
X195395915Y-95226047D01*
X195409827Y-95218263D01*
X195410661Y-95216998D01*
X195408996Y-95208469D01*
X195404141Y-95207434D01*
X195385694Y-95204997D01*
X195369085Y-95201230D01*
X195353380Y-95199153D01*
X195353092Y-95206013D01*
X195262998Y-95206013D01*
X195249668Y-95195610D01*
X195215923Y-95188692D01*
X195186173Y-95182854D01*
X195167704Y-95167492D01*
X195163805Y-95145832D01*
X195165653Y-95139387D01*
X195162752Y-95124834D01*
X195149100Y-95106331D01*
X195146749Y-95104035D01*
X195127862Y-95077782D01*
X195123962Y-95051363D01*
X195135649Y-95029502D01*
X195137130Y-95028212D01*
X195147549Y-95012954D01*
X195158649Y-94987074D01*
X195168446Y-94956961D01*
X195174955Y-94929007D01*
X195176192Y-94909602D01*
X195175053Y-94906079D01*
X195175522Y-94892741D01*
X195183417Y-94870022D01*
X195188337Y-94859616D01*
X195211909Y-94801282D01*
X195219315Y-94750742D01*
X195211605Y-94711477D01*
X195202643Y-94671363D01*
X195204174Y-94628357D01*
X195205984Y-94588271D01*
X195199650Y-94557628D01*
X195194830Y-94546624D01*
X195184524Y-94522494D01*
X195179571Y-94504079D01*
X195179494Y-94502592D01*
X195174508Y-94473082D01*
X195161779Y-94436297D01*
X195144652Y-94400046D01*
X195126474Y-94372136D01*
X195121137Y-94366389D01*
X195103788Y-94346026D01*
X195094887Y-94327714D01*
X195094576Y-94324908D01*
X195088553Y-94309596D01*
X195072887Y-94286310D01*
X195054476Y-94264102D01*
X195027741Y-94233544D01*
X194996308Y-94196177D01*
X194967199Y-94160358D01*
X194932951Y-94118449D01*
X194904845Y-94087937D01*
X194878196Y-94064765D01*
X194848316Y-94044875D01*
X194810517Y-94024211D01*
X194809027Y-94023441D01*
X194757793Y-94000901D01*
X194716347Y-93990859D01*
X194707482Y-93990401D01*
X194681972Y-93988318D01*
X194671120Y-93981019D01*
X194669985Y-93975092D01*
X194667109Y-93965151D01*
X194656991Y-93970567D01*
X194638095Y-93976647D01*
X194604932Y-93977292D01*
X194591610Y-93976263D01*
X194559326Y-93974894D01*
X194538354Y-93977616D01*
X194533281Y-93980788D01*
X194520488Y-93987619D01*
X194498594Y-93990401D01*
X194468370Y-93997763D01*
X194440480Y-94015113D01*
X194421414Y-94029197D01*
X194403082Y-94035744D01*
X194378060Y-94036498D01*
X194356418Y-94034866D01*
X194324290Y-94032918D01*
X194305690Y-94035064D01*
X194295543Y-94042249D01*
X194292732Y-94046710D01*
X194284384Y-94056060D01*
X194269083Y-94060586D01*
X194242031Y-94061265D01*
X194224662Y-94060572D01*
X194193412Y-94057563D01*
X194170763Y-94052653D01*
X194162244Y-94047603D01*
X194151777Y-94038267D01*
X194137180Y-94041031D01*
X194129079Y-94050892D01*
X194121365Y-94058305D01*
X194103270Y-94060965D01*
X194070899Y-94059386D01*
X194067322Y-94059070D01*
X194017975Y-94058400D01*
X193977840Y-94067170D01*
X193972662Y-94069143D01*
X193957829Y-94074509D01*
X193942966Y-94077799D01*
X193924844Y-94078878D01*
X193900233Y-94077612D01*
X193865904Y-94073866D01*
X193818626Y-94067506D01*
X193771578Y-94060774D01*
X193717152Y-94052501D01*
X193668397Y-94044333D01*
X193628746Y-94036906D01*
X193601635Y-94030853D01*
X193591311Y-94027445D01*
X193564271Y-94022665D01*
X193544135Y-94026668D01*
X193496360Y-94034087D01*
X193456247Y-94024884D01*
X193430918Y-94007642D01*
X193409697Y-93991445D01*
X193392618Y-93987826D01*
X193380139Y-93991130D01*
X193341215Y-93999266D01*
X193304879Y-93995256D01*
X193287444Y-93987115D01*
X193265069Y-93976406D01*
X193236915Y-93968227D01*
X193236263Y-93968099D01*
X193206812Y-93957631D01*
X193183547Y-93942438D01*
X193783060Y-93942438D01*
X193790633Y-93952942D01*
X193806014Y-93957349D01*
X193813879Y-93955452D01*
X193816959Y-93945345D01*
X193815681Y-93942572D01*
X193804042Y-93934968D01*
X193789847Y-93934963D01*
X193783060Y-93942438D01*
X193183547Y-93942438D01*
X193182010Y-93941434D01*
X193167365Y-93930370D01*
X193160416Y-93930419D01*
X193160326Y-93931260D01*
X193152855Y-93937419D01*
X193141456Y-93936522D01*
X193126170Y-93929489D01*
X193122585Y-93924277D01*
X193114788Y-93916264D01*
X193095295Y-93905090D01*
X193087202Y-93901316D01*
X193054883Y-93884448D01*
X193313874Y-93884448D01*
X193322510Y-93891589D01*
X193330390Y-93894964D01*
X193358815Y-93902547D01*
X193379606Y-93904884D01*
X193397324Y-93904294D01*
X193398569Y-93898302D01*
X193389303Y-93886612D01*
X193364274Y-93870303D01*
X193334976Y-93870443D01*
X193320955Y-93876836D01*
X193313874Y-93884448D01*
X193054883Y-93884448D01*
X193031860Y-93872432D01*
X192990328Y-93841389D01*
X192964101Y-93809662D01*
X192954675Y-93778728D01*
X192955156Y-93771028D01*
X192955141Y-93752344D01*
X192950073Y-93745081D01*
X192937162Y-93740233D01*
X192915582Y-93728056D01*
X192890697Y-93712105D01*
X192867870Y-93695932D01*
X192852462Y-93683090D01*
X192848959Y-93678080D01*
X192841124Y-93670056D01*
X192827730Y-93664257D01*
X192803438Y-93652144D01*
X192772260Y-93630576D01*
X192740028Y-93604039D01*
X192712574Y-93577019D01*
X192708959Y-93572886D01*
X192690350Y-93555513D01*
X192673811Y-93547088D01*
X192672098Y-93546939D01*
X192649916Y-93539445D01*
X192623663Y-93519982D01*
X192598431Y-93493076D01*
X192590479Y-93480891D01*
X192641381Y-93480891D01*
X192644834Y-93488657D01*
X192647672Y-93487181D01*
X192648801Y-93475984D01*
X192647672Y-93474601D01*
X192642062Y-93475896D01*
X192641381Y-93480891D01*
X192590479Y-93480891D01*
X192580405Y-93465456D01*
X192567579Y-93440977D01*
X192548706Y-93405891D01*
X192526953Y-93366063D01*
X192516137Y-93346474D01*
X192494913Y-93305699D01*
X192481508Y-93274504D01*
X192476989Y-93255510D01*
X192477768Y-93252121D01*
X192485990Y-93232426D01*
X192486110Y-93230854D01*
X192547028Y-93230854D01*
X192551745Y-93235572D01*
X192556463Y-93230854D01*
X192551745Y-93226136D01*
X192547028Y-93230854D01*
X192486110Y-93230854D01*
X192487319Y-93215049D01*
X192481244Y-93207274D01*
X192480921Y-93207265D01*
X192472675Y-93212609D01*
X192472662Y-93214342D01*
X192472277Y-93229155D01*
X192465168Y-93229616D01*
X192453204Y-93218172D01*
X192438255Y-93197270D01*
X192422193Y-93169358D01*
X192406888Y-93136883D01*
X192399887Y-93119111D01*
X192387130Y-93084090D01*
X192373369Y-93046109D01*
X192370265Y-93037506D01*
X192349232Y-92987156D01*
X192326683Y-92951620D01*
X192299564Y-92926906D01*
X192275365Y-92913514D01*
X192247344Y-92899346D01*
X192225358Y-92885771D01*
X192219076Y-92880662D01*
X192204443Y-92872094D01*
X192197159Y-92872780D01*
X192189530Y-92870435D01*
X192188484Y-92864704D01*
X192180246Y-92839951D01*
X192159731Y-92817650D01*
X192133241Y-92803571D01*
X192119393Y-92801416D01*
X192079578Y-92798279D01*
X192057495Y-92789321D01*
X192053219Y-92774784D01*
X192053058Y-92766875D01*
X192045172Y-92762233D01*
X192026079Y-92760107D01*
X191992295Y-92759747D01*
X191983716Y-92759818D01*
X191939235Y-92761759D01*
X191893903Y-92766135D01*
X191858246Y-92771863D01*
X191819522Y-92777691D01*
X191773853Y-92780898D01*
X191742725Y-92781036D01*
X191706279Y-92780841D01*
X191683875Y-92783867D01*
X191670832Y-92790992D01*
X191667193Y-92795179D01*
X191652678Y-92805748D01*
X191626079Y-92811389D01*
X191600138Y-92812913D01*
X191565078Y-92815855D01*
X191544447Y-92822080D01*
X191540429Y-92826244D01*
X191529221Y-92833945D01*
X191505282Y-92841042D01*
X191485064Y-92844473D01*
X191445333Y-92853061D01*
X191415913Y-92869222D01*
X191405736Y-92878077D01*
X191380277Y-92896582D01*
X191355747Y-92905184D01*
X191352866Y-92905334D01*
X191328586Y-92910641D01*
X191314365Y-92919487D01*
X191294280Y-92931322D01*
X191282015Y-92933640D01*
X191266697Y-92940665D01*
X191263818Y-92952268D01*
X191255473Y-92970497D01*
X191236365Y-92985094D01*
X191216483Y-92997038D01*
X191205868Y-93006557D01*
X191205700Y-93006906D01*
X191196538Y-93016719D01*
X191177625Y-93031864D01*
X191170756Y-93036814D01*
X191146327Y-93059618D01*
X191127726Y-93086538D01*
X191125905Y-93090501D01*
X191108730Y-93116528D01*
X191085335Y-93136082D01*
X191084514Y-93136517D01*
X191065236Y-93150038D01*
X191056314Y-93163296D01*
X191056240Y-93164284D01*
X191052056Y-93179970D01*
X191042009Y-93203854D01*
X191029857Y-93227904D01*
X191019355Y-93244082D01*
X191018499Y-93245000D01*
X191010551Y-93255062D01*
X190996352Y-93274545D01*
X190990824Y-93282344D01*
X190981007Y-93297736D01*
X190974428Y-93313550D01*
X190970415Y-93333944D01*
X190968300Y-93363073D01*
X190967411Y-93405097D01*
X190967236Y-93428592D01*
X190844525Y-93428592D01*
X190848483Y-93407933D01*
X190852896Y-93377562D01*
X190853519Y-93372384D01*
X190861807Y-93311028D01*
X190871405Y-93263536D01*
X190878815Y-93240289D01*
X190914710Y-93240289D01*
X190919427Y-93245007D01*
X190924145Y-93240289D01*
X190919427Y-93235572D01*
X190914710Y-93240289D01*
X190878815Y-93240289D01*
X190883720Y-93224902D01*
X190900159Y-93190120D01*
X190909030Y-93174797D01*
X190926444Y-93142239D01*
X190938700Y-93112000D01*
X190943016Y-93091769D01*
X190950991Y-93052849D01*
X190975636Y-93014373D01*
X191010344Y-92980817D01*
X191041682Y-92953498D01*
X191075082Y-92922601D01*
X191088005Y-92910052D01*
X191110016Y-92889235D01*
X191127020Y-92875028D01*
X191133589Y-92871131D01*
X191149604Y-92868772D01*
X191160374Y-92862107D01*
X191180156Y-92845877D01*
X191202420Y-92825681D01*
X191229987Y-92802572D01*
X191256574Y-92785070D01*
X191273197Y-92777969D01*
X191299272Y-92766987D01*
X191316317Y-92753700D01*
X191322361Y-92749507D01*
X192126266Y-92749507D01*
X192127154Y-92754368D01*
X192139217Y-92763443D01*
X192141864Y-92763803D01*
X192150488Y-92756607D01*
X192150742Y-92754368D01*
X192143062Y-92746087D01*
X192136032Y-92744933D01*
X192126266Y-92749507D01*
X191322361Y-92749507D01*
X191333994Y-92741436D01*
X191347961Y-92739964D01*
X191364018Y-92736839D01*
X191385929Y-92722723D01*
X191392908Y-92716627D01*
X191631797Y-92716627D01*
X191635017Y-92725817D01*
X191635958Y-92726062D01*
X191644014Y-92719450D01*
X191645950Y-92716627D01*
X191645202Y-92707932D01*
X191641790Y-92707191D01*
X191632181Y-92714040D01*
X191631797Y-92716627D01*
X191392908Y-92716627D01*
X191393043Y-92716509D01*
X191413025Y-92699282D01*
X191427598Y-92689311D01*
X191428395Y-92689048D01*
X191831778Y-92689048D01*
X191845905Y-92703075D01*
X191846452Y-92703492D01*
X191869628Y-92715351D01*
X191881178Y-92711909D01*
X191962035Y-92711909D01*
X191966753Y-92716627D01*
X191971470Y-92711909D01*
X191966753Y-92707191D01*
X191962035Y-92711909D01*
X191881178Y-92711909D01*
X191885356Y-92710664D01*
X191889610Y-92703396D01*
X191890716Y-92687991D01*
X191877375Y-92680404D01*
X191856674Y-92678885D01*
X191835245Y-92681279D01*
X191831778Y-92689048D01*
X191428395Y-92689048D01*
X191430602Y-92688320D01*
X191443646Y-92684921D01*
X191472714Y-92674615D01*
X191518238Y-92657243D01*
X191580646Y-92632645D01*
X191588019Y-92629707D01*
X191617530Y-92620093D01*
X191649594Y-92614947D01*
X191690495Y-92613526D01*
X191720114Y-92614097D01*
X191764885Y-92616841D01*
X191801027Y-92621675D01*
X191823881Y-92627936D01*
X191826402Y-92629272D01*
X191846963Y-92636684D01*
X191874808Y-92635119D01*
X191887131Y-92632629D01*
X191910089Y-92628601D01*
X191930109Y-92629150D01*
X191952234Y-92635626D01*
X191981510Y-92649377D01*
X192013089Y-92666314D01*
X192036500Y-92675536D01*
X192062004Y-92675718D01*
X192081495Y-92672001D01*
X192107905Y-92667248D01*
X192120221Y-92669007D01*
X192122436Y-92674391D01*
X192130608Y-92688889D01*
X192151301Y-92704469D01*
X192178786Y-92717427D01*
X192196977Y-92722571D01*
X192225569Y-92721554D01*
X192242582Y-92710533D01*
X192263939Y-92692725D01*
X192278948Y-92682528D01*
X192287626Y-92675360D01*
X192292775Y-92663565D01*
X192295077Y-92643056D01*
X192295215Y-92609746D01*
X192294718Y-92588174D01*
X192294637Y-92585691D01*
X192391272Y-92585691D01*
X192396131Y-92605312D01*
X192402033Y-92639841D01*
X192408451Y-92685379D01*
X192414858Y-92738030D01*
X192420724Y-92793897D01*
X192423323Y-92822208D01*
X192429679Y-92876915D01*
X192438287Y-92916668D01*
X192450012Y-92945330D01*
X192451408Y-92947766D01*
X192464104Y-92972199D01*
X192471082Y-92991293D01*
X192471545Y-92994835D01*
X192477734Y-93011826D01*
X192485264Y-93021494D01*
X192495166Y-93035800D01*
X192510243Y-93062678D01*
X192527960Y-93097480D01*
X192536998Y-93116362D01*
X192565519Y-93172396D01*
X192590349Y-93210979D01*
X192611240Y-93231766D01*
X192622511Y-93235572D01*
X192630126Y-93243491D01*
X192631946Y-93254824D01*
X192637986Y-93276045D01*
X192653788Y-93304784D01*
X192675876Y-93335115D01*
X192685510Y-93346167D01*
X192696151Y-93362063D01*
X192709241Y-93387155D01*
X192713273Y-93395957D01*
X192725780Y-93418977D01*
X192737594Y-93432349D01*
X192741193Y-93433714D01*
X192751911Y-93441492D01*
X192765073Y-93460942D01*
X192769235Y-93469074D01*
X192788430Y-93500172D01*
X192815826Y-93533259D01*
X192846863Y-93563841D01*
X192876982Y-93587426D01*
X192901615Y-93599520D01*
X192926653Y-93608222D01*
X192943313Y-93617767D01*
X192960865Y-93629217D01*
X192986508Y-93642859D01*
X192992849Y-93645881D01*
X193014893Y-93657946D01*
X193027261Y-93668260D01*
X193028231Y-93670646D01*
X193034740Y-93683800D01*
X193051316Y-93704439D01*
X193073531Y-93727964D01*
X193096961Y-93749775D01*
X193117179Y-93765271D01*
X193121876Y-93767961D01*
X193145552Y-93776175D01*
X193178390Y-93783297D01*
X193196068Y-93785819D01*
X193232949Y-93792954D01*
X193268503Y-93804476D01*
X193280986Y-93810237D01*
X193305376Y-93820907D01*
X193342069Y-93834115D01*
X193385070Y-93847781D01*
X193409606Y-93854840D01*
X193451216Y-93866713D01*
X193476718Y-93875232D01*
X193488349Y-93881466D01*
X193488345Y-93886484D01*
X193482730Y-93889796D01*
X193466883Y-93899419D01*
X193462258Y-93905853D01*
X193470643Y-93912524D01*
X193491693Y-93917335D01*
X193519250Y-93919769D01*
X193547157Y-93919314D01*
X193569256Y-93915456D01*
X193570770Y-93914916D01*
X193595552Y-93909644D01*
X193607212Y-93914567D01*
X193622389Y-93922528D01*
X193639612Y-93923734D01*
X193650308Y-93918059D01*
X193650965Y-93915214D01*
X193657781Y-93909785D01*
X193663901Y-93911038D01*
X193677747Y-93908131D01*
X193682475Y-93901307D01*
X193694473Y-93888073D01*
X193710372Y-93889835D01*
X193724352Y-93905417D01*
X193726448Y-93910200D01*
X193737425Y-93926353D01*
X193751216Y-93933728D01*
X193761831Y-93930454D01*
X193764193Y-93921994D01*
X193772521Y-93913120D01*
X193794131Y-93908619D01*
X193823969Y-93908393D01*
X193856982Y-93912349D01*
X193888117Y-93920392D01*
X193898456Y-93924523D01*
X193927246Y-93937050D01*
X193943675Y-93942118D01*
X193952293Y-93940646D01*
X193956155Y-93936147D01*
X193967237Y-93932678D01*
X193991669Y-93930606D01*
X194023988Y-93929877D01*
X194058728Y-93930438D01*
X194090424Y-93932236D01*
X194113613Y-93935218D01*
X194121519Y-93937755D01*
X194137190Y-93937578D01*
X194138201Y-93936934D01*
X194644824Y-93936934D01*
X194646119Y-93942543D01*
X194651114Y-93943224D01*
X194658880Y-93939772D01*
X194658222Y-93938506D01*
X194726597Y-93938506D01*
X194731314Y-93943224D01*
X194736032Y-93938506D01*
X194731314Y-93933789D01*
X194726597Y-93938506D01*
X194658222Y-93938506D01*
X194657404Y-93936934D01*
X194646207Y-93935804D01*
X194644824Y-93936934D01*
X194138201Y-93936934D01*
X194152208Y-93928013D01*
X194180757Y-93914460D01*
X194208242Y-93912436D01*
X194234000Y-93911390D01*
X194249108Y-93902871D01*
X194259804Y-93886112D01*
X194273948Y-93867143D01*
X194288720Y-93858683D01*
X194299433Y-93862249D01*
X194302005Y-93872459D01*
X194309558Y-93884968D01*
X194316158Y-93886612D01*
X194328597Y-93879035D01*
X194330311Y-93872163D01*
X194337692Y-93856432D01*
X194356346Y-93851178D01*
X194381047Y-93857726D01*
X194383100Y-93858784D01*
X194401269Y-93865994D01*
X194410767Y-93861451D01*
X194871272Y-93861451D01*
X194872568Y-93867060D01*
X194877563Y-93867741D01*
X194885329Y-93864289D01*
X194883853Y-93861451D01*
X194872655Y-93860321D01*
X194871272Y-93861451D01*
X194410767Y-93861451D01*
X194413263Y-93860257D01*
X194419646Y-93852015D01*
X194824096Y-93852015D01*
X194825391Y-93857625D01*
X194830386Y-93858306D01*
X194838152Y-93854853D01*
X194836676Y-93852015D01*
X194825478Y-93850886D01*
X194824096Y-93852015D01*
X194419646Y-93852015D01*
X194420740Y-93850602D01*
X194443572Y-93833215D01*
X194461479Y-93830000D01*
X194487048Y-93823802D01*
X194503795Y-93812312D01*
X194523879Y-93799644D01*
X194553527Y-93791034D01*
X194560668Y-93790018D01*
X194590284Y-93783693D01*
X194628454Y-93771568D01*
X194666424Y-93756472D01*
X194707406Y-93739881D01*
X194750402Y-93725108D01*
X194783209Y-93716066D01*
X194812423Y-93708843D01*
X194833276Y-93702255D01*
X194839821Y-93698893D01*
X194850534Y-93691382D01*
X194871620Y-93679502D01*
X194879921Y-93675189D01*
X194901915Y-93661187D01*
X194914302Y-93647842D01*
X194915304Y-93644288D01*
X194923466Y-93633467D01*
X194942538Y-93625938D01*
X194962396Y-93615971D01*
X194992310Y-93592870D01*
X195030591Y-93558272D01*
X195075554Y-93513817D01*
X195125511Y-93461141D01*
X195178776Y-93401884D01*
X195207800Y-93368334D01*
X195234364Y-93333806D01*
X195252375Y-93303385D01*
X195260473Y-93280049D01*
X195257299Y-93266775D01*
X195254810Y-93265450D01*
X195245549Y-93254902D01*
X195248984Y-93238081D01*
X195254904Y-93230854D01*
X195401541Y-93230854D01*
X195401763Y-93253205D01*
X195408423Y-93273230D01*
X195421415Y-93289358D01*
X195443228Y-93298921D01*
X195466143Y-93303255D01*
X195504822Y-93311960D01*
X195554380Y-93327770D01*
X195609165Y-93348681D01*
X195663529Y-93372689D01*
X195667950Y-93374809D01*
X195705123Y-93398918D01*
X195744883Y-93434628D01*
X195781907Y-93476406D01*
X195810872Y-93518720D01*
X195816410Y-93529096D01*
X195839486Y-93565913D01*
X195872379Y-93606158D01*
X195899761Y-93633985D01*
X195932273Y-93662661D01*
X195957500Y-93680250D01*
X195980624Y-93689832D01*
X196000329Y-93693698D01*
X196028090Y-93697822D01*
X196048089Y-93701525D01*
X196052265Y-93702619D01*
X196067587Y-93705885D01*
X196086872Y-93704627D01*
X196116866Y-93698467D01*
X196154055Y-93684203D01*
X196182709Y-93659065D01*
X196205553Y-93620043D01*
X196218390Y-93586376D01*
X196228111Y-93547344D01*
X196228170Y-93546939D01*
X196264561Y-93546939D01*
X196271741Y-93556100D01*
X196273996Y-93556374D01*
X196283158Y-93549194D01*
X196283432Y-93546939D01*
X196276252Y-93537777D01*
X196273996Y-93537503D01*
X196264835Y-93544683D01*
X196264561Y-93546939D01*
X196228170Y-93546939D01*
X196234871Y-93500647D01*
X196238457Y-93451535D01*
X196238654Y-93405261D01*
X196235249Y-93367076D01*
X196228299Y-93342726D01*
X196218972Y-93323746D01*
X196206160Y-93295884D01*
X196200096Y-93282218D01*
X196186024Y-93254322D01*
X196171896Y-93232786D01*
X196166405Y-93226896D01*
X196156414Y-93213582D01*
X196156478Y-93206580D01*
X196156557Y-93192692D01*
X196152226Y-93181702D01*
X196143193Y-93159363D01*
X196137641Y-93139126D01*
X196128323Y-93115419D01*
X196117336Y-93101384D01*
X196103173Y-93088436D01*
X196081172Y-93066762D01*
X196059432Y-93044505D01*
X196035538Y-93021489D01*
X196015295Y-93005319D01*
X196003763Y-92999687D01*
X195989279Y-92992444D01*
X195979310Y-92980817D01*
X195959241Y-92965180D01*
X195940618Y-92961946D01*
X195913594Y-92956036D01*
X195889721Y-92943075D01*
X195865686Y-92929531D01*
X195843415Y-92924205D01*
X195826295Y-92921201D01*
X195821099Y-92915870D01*
X195813246Y-92907062D01*
X195802215Y-92902597D01*
X195789136Y-92902041D01*
X195789610Y-92907817D01*
X195789074Y-92913632D01*
X195777829Y-92910342D01*
X195756068Y-92904451D01*
X195727723Y-92900502D01*
X195725729Y-92900353D01*
X195696614Y-92895733D01*
X195672571Y-92887752D01*
X195671620Y-92887259D01*
X195649379Y-92879539D01*
X195619203Y-92873775D01*
X195611306Y-92872908D01*
X195577781Y-92868959D01*
X195569464Y-92867592D01*
X195726745Y-92867592D01*
X195729965Y-92876782D01*
X195730906Y-92877028D01*
X195738962Y-92870416D01*
X195740898Y-92867592D01*
X195740150Y-92858898D01*
X195736738Y-92858157D01*
X195727129Y-92865006D01*
X195726745Y-92867592D01*
X195569464Y-92867592D01*
X195546674Y-92863846D01*
X195541936Y-92862856D01*
X195509941Y-92862962D01*
X195484204Y-92879341D01*
X195464153Y-92912652D01*
X195449217Y-92963553D01*
X195447627Y-92971464D01*
X195441031Y-93010988D01*
X195436592Y-93047844D01*
X195435229Y-93074328D01*
X195435256Y-93075170D01*
X195433280Y-93103405D01*
X195426880Y-93139301D01*
X195421647Y-93160089D01*
X195412455Y-93192310D01*
X195404747Y-93219467D01*
X195401541Y-93230854D01*
X195254904Y-93230854D01*
X195263228Y-93220691D01*
X195271544Y-93214845D01*
X195292783Y-93192338D01*
X195310837Y-93152628D01*
X195325377Y-93097165D01*
X195336077Y-93027399D01*
X195342607Y-92944782D01*
X195344329Y-92892998D01*
X195346128Y-92839173D01*
X195349316Y-92785392D01*
X195353440Y-92737992D01*
X195357902Y-92704104D01*
X195363824Y-92659056D01*
X195363081Y-92626272D01*
X195359106Y-92609149D01*
X195353914Y-92583179D01*
X195350795Y-92547207D01*
X195350356Y-92517331D01*
X195347490Y-92464163D01*
X195336429Y-92426551D01*
X195336355Y-92426407D01*
X195325508Y-92396905D01*
X195321025Y-92367859D01*
X195318207Y-92341398D01*
X195312265Y-92322572D01*
X195303340Y-92304621D01*
X195290437Y-92277293D01*
X195283143Y-92261423D01*
X195269985Y-92234949D01*
X195258643Y-92216286D01*
X195254136Y-92211315D01*
X195244403Y-92199288D01*
X195232505Y-92177075D01*
X195221235Y-92151161D01*
X195213385Y-92128032D01*
X195211747Y-92114175D01*
X195212042Y-92113533D01*
X195210096Y-92101695D01*
X195203585Y-92094310D01*
X195191949Y-92077392D01*
X195183817Y-92054354D01*
X195174085Y-92032142D01*
X195160421Y-92021091D01*
X195145066Y-92009241D01*
X195137684Y-91994049D01*
X195125691Y-91972180D01*
X195108579Y-91956114D01*
X195091618Y-91939976D01*
X195085141Y-91924629D01*
X195078729Y-91909484D01*
X195062224Y-91887605D01*
X195046984Y-91871461D01*
X195022724Y-91845728D01*
X195021223Y-91843855D01*
X195141753Y-91843855D01*
X195146470Y-91848573D01*
X195151188Y-91843855D01*
X195146470Y-91839138D01*
X195141753Y-91843855D01*
X195021223Y-91843855D01*
X195002598Y-91820611D01*
X194995130Y-91809019D01*
X194981655Y-91792055D01*
X194957168Y-91768115D01*
X194925962Y-91741259D01*
X194912187Y-91730351D01*
X194975878Y-91730351D01*
X194976634Y-91735349D01*
X194984705Y-91744340D01*
X194986069Y-91744784D01*
X194993571Y-91738203D01*
X194995505Y-91735349D01*
X194993264Y-91727355D01*
X194986069Y-91725913D01*
X194975878Y-91730351D01*
X194912187Y-91730351D01*
X194910627Y-91729116D01*
X194879929Y-91704412D01*
X194855943Y-91683063D01*
X194849496Y-91676164D01*
X194977241Y-91676164D01*
X194982049Y-91684294D01*
X194993696Y-91696277D01*
X194996326Y-91691841D01*
X194993549Y-91678843D01*
X194986151Y-91666072D01*
X194979821Y-91665530D01*
X194977241Y-91676164D01*
X194849496Y-91676164D01*
X194842001Y-91668144D01*
X194839821Y-91663810D01*
X194831908Y-91654511D01*
X194811271Y-91640962D01*
X194785568Y-91627652D01*
X194747070Y-91607380D01*
X194705128Y-91581901D01*
X194679420Y-91564329D01*
X194645570Y-91539939D01*
X194611309Y-91515849D01*
X194608045Y-91513618D01*
X194679420Y-91513618D01*
X194684138Y-91518335D01*
X194688855Y-91513618D01*
X194684138Y-91508900D01*
X194679420Y-91513618D01*
X194608045Y-91513618D01*
X194589784Y-91501135D01*
X194564554Y-91483568D01*
X194544726Y-91468537D01*
X194539574Y-91464099D01*
X194519727Y-91453891D01*
X194508909Y-91452288D01*
X194488916Y-91445907D01*
X194471842Y-91433417D01*
X194449846Y-91419176D01*
X194430538Y-91414546D01*
X194408184Y-91409134D01*
X194396785Y-91400907D01*
X194381632Y-91391306D01*
X194354861Y-91381284D01*
X194334189Y-91375792D01*
X194303777Y-91367224D01*
X194280551Y-91357500D01*
X194272432Y-91351690D01*
X194255808Y-91342320D01*
X194235263Y-91339063D01*
X194211275Y-91336671D01*
X194177954Y-91330516D01*
X194154235Y-91324910D01*
X194117922Y-91316953D01*
X194083322Y-91311792D01*
X194066498Y-91310699D01*
X194034779Y-91306481D01*
X194006168Y-91296596D01*
X193985205Y-91288280D01*
X193971403Y-91287418D01*
X193971063Y-91287605D01*
X193957895Y-91287123D01*
X193945131Y-91282297D01*
X194278512Y-91282297D01*
X194280562Y-91290503D01*
X194287295Y-91291887D01*
X194300235Y-91289698D01*
X194302005Y-91287726D01*
X194295091Y-91278919D01*
X194282651Y-91278722D01*
X194278512Y-91282297D01*
X193945131Y-91282297D01*
X193936831Y-91279159D01*
X193934772Y-91278119D01*
X193905812Y-91268261D01*
X193872726Y-91263631D01*
X193869548Y-91263580D01*
X193843557Y-91261269D01*
X193840004Y-91258911D01*
X194368053Y-91258911D01*
X194375514Y-91273573D01*
X194379847Y-91276202D01*
X194401014Y-91281237D01*
X194418439Y-91280030D01*
X194424665Y-91274025D01*
X194416446Y-91263568D01*
X194396079Y-91253437D01*
X194379847Y-91248837D01*
X194369180Y-91253816D01*
X194368053Y-91258911D01*
X193840004Y-91258911D01*
X193830787Y-91252794D01*
X193827616Y-91245141D01*
X193820879Y-91232959D01*
X193805834Y-91230100D01*
X193790416Y-91231956D01*
X193758972Y-91231668D01*
X193744602Y-91223938D01*
X193728316Y-91217578D01*
X193698071Y-91213760D01*
X193658607Y-91212472D01*
X193614664Y-91213703D01*
X193570980Y-91217442D01*
X193532295Y-91223679D01*
X193528908Y-91224434D01*
X193493724Y-91229190D01*
X193470513Y-91225207D01*
X193470509Y-91225205D01*
X193454454Y-91221420D01*
X193448803Y-91224710D01*
X193437668Y-91229826D01*
X193412542Y-91236140D01*
X193378161Y-91242525D01*
X193365671Y-91244445D01*
X193328603Y-91250535D01*
X193298551Y-91256730D01*
X193280584Y-91261943D01*
X193278268Y-91263184D01*
X193264359Y-91269292D01*
X193238545Y-91277219D01*
X193216989Y-91282711D01*
X193179356Y-91293129D01*
X193142336Y-91305850D01*
X193127353Y-91312045D01*
X193095831Y-91323136D01*
X193065073Y-91329104D01*
X193058961Y-91329421D01*
X193034845Y-91332648D01*
X193006302Y-91340577D01*
X192979205Y-91350985D01*
X192959430Y-91361652D01*
X192952748Y-91369595D01*
X192945385Y-91376478D01*
X192942272Y-91376805D01*
X192926982Y-91381944D01*
X192903965Y-91394884D01*
X192878555Y-91411914D01*
X192856082Y-91429320D01*
X192841879Y-91443388D01*
X192839524Y-91448359D01*
X192832982Y-91461496D01*
X192816603Y-91480205D01*
X192809496Y-91486871D01*
X192772491Y-91521493D01*
X192739263Y-91555629D01*
X192712803Y-91585949D01*
X192696105Y-91609121D01*
X192692223Y-91617407D01*
X192682050Y-91633671D01*
X192661792Y-91655152D01*
X192645517Y-91669301D01*
X192621143Y-91692049D01*
X192603305Y-91714620D01*
X192597860Y-91725913D01*
X192587580Y-91751173D01*
X192573958Y-91774547D01*
X192561608Y-91796446D01*
X192556463Y-91813959D01*
X192556463Y-91813973D01*
X192550408Y-91833040D01*
X192544669Y-91841047D01*
X192532244Y-91859655D01*
X192529087Y-91867668D01*
X192510729Y-91927797D01*
X192491190Y-91978899D01*
X192480496Y-92001408D01*
X192468746Y-92027865D01*
X192462447Y-92050148D01*
X192462109Y-92054199D01*
X192455463Y-92074247D01*
X192444669Y-92087881D01*
X192434028Y-92103027D01*
X192428411Y-92127244D01*
X192426642Y-92162467D01*
X192426045Y-92206734D01*
X192424911Y-92236098D01*
X192422630Y-92254529D01*
X192418597Y-92265994D01*
X192412204Y-92274462D01*
X192409010Y-92277739D01*
X192398808Y-92295412D01*
X192402951Y-92313796D01*
X192406578Y-92343282D01*
X192402323Y-92356423D01*
X192397512Y-92381138D01*
X192403137Y-92395552D01*
X192408751Y-92413255D01*
X192413300Y-92443431D01*
X192415831Y-92479680D01*
X192415877Y-92481181D01*
X192416052Y-92519213D01*
X192413346Y-92542881D01*
X192407002Y-92556573D01*
X192402087Y-92561154D01*
X192391342Y-92575977D01*
X192391272Y-92585691D01*
X192294637Y-92585691D01*
X192292384Y-92516900D01*
X192289643Y-92458871D01*
X192286596Y-92415629D01*
X192283344Y-92388715D01*
X192281173Y-92380719D01*
X192278339Y-92365363D01*
X192277168Y-92336020D01*
X192277440Y-92296717D01*
X192278936Y-92251483D01*
X192281436Y-92204344D01*
X192284720Y-92159328D01*
X192288568Y-92120461D01*
X192292762Y-92091771D01*
X192297080Y-92077286D01*
X192297763Y-92076559D01*
X192314206Y-92056017D01*
X192328231Y-92022546D01*
X192335348Y-91993624D01*
X192343999Y-91959716D01*
X192355841Y-91930418D01*
X192368495Y-91910707D01*
X192377613Y-91905185D01*
X192382693Y-91897452D01*
X192381088Y-91881685D01*
X192380496Y-91861185D01*
X192390343Y-91852369D01*
X192402236Y-91839391D01*
X192405497Y-91824532D01*
X192409129Y-91804955D01*
X192414933Y-91796679D01*
X192421877Y-91783851D01*
X192424368Y-91764560D01*
X192431035Y-91738517D01*
X192443239Y-91721196D01*
X192457672Y-91700610D01*
X192462109Y-91683077D01*
X192469932Y-91662012D01*
X192485698Y-91646580D01*
X192502594Y-91632181D01*
X192509286Y-91620175D01*
X192515478Y-91608176D01*
X192531620Y-91587764D01*
X192551557Y-91566139D01*
X192600847Y-91515212D01*
X192643301Y-91469985D01*
X192677450Y-91432110D01*
X192701826Y-91403238D01*
X192714961Y-91385020D01*
X192716864Y-91380214D01*
X192724446Y-91367816D01*
X192731442Y-91363794D01*
X192741624Y-91352301D01*
X192743508Y-91326937D01*
X192743236Y-91323018D01*
X192743388Y-91298494D01*
X192750328Y-91286981D01*
X192757677Y-91284315D01*
X192776940Y-91288235D01*
X192786232Y-91296289D01*
X192802423Y-91306612D01*
X192819440Y-91301929D01*
X192830805Y-91284632D01*
X192831896Y-91279422D01*
X192839993Y-91263586D01*
X192861366Y-91254819D01*
X192867830Y-91253600D01*
X192899392Y-91244764D01*
X192931007Y-91230838D01*
X192932707Y-91229885D01*
X192960290Y-91214256D01*
X192985005Y-91200453D01*
X192986960Y-91199377D01*
X193003640Y-91185865D01*
X193005608Y-91181807D01*
X194040960Y-91181807D01*
X194042256Y-91187417D01*
X194047251Y-91188098D01*
X194055017Y-91184645D01*
X194053541Y-91181807D01*
X194042343Y-91180678D01*
X194040960Y-91181807D01*
X193005608Y-91181807D01*
X193009361Y-91174066D01*
X193017268Y-91161393D01*
X193034925Y-91153317D01*
X193053234Y-91153504D01*
X193056520Y-91155063D01*
X193067377Y-91153075D01*
X193071766Y-91146236D01*
X193084507Y-91134301D01*
X193103289Y-91132134D01*
X193117866Y-91140920D01*
X193117867Y-91140921D01*
X193129956Y-91150033D01*
X193139827Y-91144259D01*
X193141456Y-91136203D01*
X193148881Y-91125569D01*
X193172306Y-91122054D01*
X193173379Y-91122050D01*
X193197600Y-91118767D01*
X193208943Y-91107174D01*
X193210237Y-91103179D01*
X193221935Y-91087879D01*
X193242613Y-91086239D01*
X193267928Y-91098550D01*
X193268833Y-91099229D01*
X193282781Y-91107858D01*
X193289257Y-91102223D01*
X193292421Y-91088519D01*
X193300105Y-91070593D01*
X193318257Y-91056763D01*
X193341065Y-91046843D01*
X193372394Y-91037628D01*
X193393831Y-91036721D01*
X193397677Y-91038238D01*
X193418416Y-91044651D01*
X193446403Y-91046075D01*
X193472839Y-91042749D01*
X193488139Y-91035782D01*
X193503859Y-91030440D01*
X193537602Y-91027391D01*
X193588654Y-91026687D01*
X193605610Y-91026912D01*
G37*
%TO.C,R8*%
D12*
X173825000Y-99448641D02*
X173825000Y-99141359D01*
X174585000Y-99448641D02*
X174585000Y-99141359D01*
%TO.C,R7*%
X174825000Y-94948641D02*
X174825000Y-94641359D01*
X175585000Y-94948641D02*
X175585000Y-94641359D01*
%TO.C,C3*%
X188140000Y-119607836D02*
X188140000Y-119392164D01*
X188860000Y-119607836D02*
X188860000Y-119392164D01*
%TO.C,R6*%
X189620000Y-100653641D02*
X189620000Y-100346359D01*
X190380000Y-100653641D02*
X190380000Y-100346359D01*
D13*
%TO.C,G\u002A\u002A\u002A*%
G36*
X175485987Y-91131942D02*
G01*
X175520386Y-91135343D01*
X175545907Y-91139404D01*
X175552427Y-91141091D01*
X175575969Y-91148213D01*
X175606951Y-91157040D01*
X175625694Y-91162168D01*
X175679247Y-91184795D01*
X175730563Y-91222621D01*
X175778165Y-91274198D01*
X175820580Y-91338076D01*
X175837490Y-91370260D01*
X175865248Y-91444162D01*
X175877170Y-91518021D01*
X175873541Y-91590198D01*
X175854649Y-91659058D01*
X175820782Y-91722964D01*
X175772225Y-91780278D01*
X175764321Y-91787637D01*
X175700032Y-91838942D01*
X175636076Y-91875607D01*
X175583333Y-91895515D01*
X175551058Y-91906437D01*
X175519906Y-91919065D01*
X175506682Y-91925410D01*
X175472528Y-91936667D01*
X175430314Y-91940980D01*
X175387280Y-91938014D01*
X175362500Y-91932089D01*
X175319837Y-91915476D01*
X175275055Y-91893839D01*
X175232532Y-91869684D01*
X175196643Y-91845515D01*
X175171767Y-91823840D01*
X175170080Y-91821937D01*
X175130492Y-91764506D01*
X175099717Y-91696257D01*
X175079552Y-91621487D01*
X175075457Y-91595544D01*
X175070849Y-91560146D01*
X175066833Y-91529710D01*
X175064042Y-91509010D01*
X175063383Y-91504342D01*
X175063989Y-91478934D01*
X175070358Y-91443840D01*
X175081040Y-91404397D01*
X175094587Y-91365945D01*
X175109552Y-91333822D01*
X175109713Y-91333535D01*
X175131421Y-91297572D01*
X175154536Y-91263698D01*
X175176280Y-91235660D01*
X175193876Y-91217203D01*
X175198632Y-91213643D01*
X175213973Y-91201950D01*
X175223994Y-91192809D01*
X175264147Y-91162477D01*
X175313948Y-91142151D01*
X175374915Y-91131405D01*
X175448261Y-91129801D01*
X175485987Y-91131942D01*
G37*
G36*
X175521085Y-90947711D02*
G01*
X175603283Y-90977034D01*
X175646457Y-90998086D01*
X175735115Y-91054323D01*
X175815525Y-91124623D01*
X175886742Y-91208066D01*
X175931553Y-91275362D01*
X175950488Y-91312445D01*
X175970282Y-91360288D01*
X175988969Y-91413225D01*
X176004583Y-91465589D01*
X176015156Y-91511714D01*
X176016603Y-91520415D01*
X176020880Y-91602770D01*
X176009320Y-91684251D01*
X175982732Y-91763206D01*
X175941928Y-91837983D01*
X175887719Y-91906931D01*
X175820914Y-91968398D01*
X175783333Y-91995617D01*
X175747879Y-92018568D01*
X175716305Y-92036780D01*
X175685672Y-92051112D01*
X175653039Y-92062428D01*
X175615467Y-92071588D01*
X175570016Y-92079453D01*
X175513747Y-92086886D01*
X175445833Y-92094520D01*
X175428896Y-92094546D01*
X175401901Y-92092789D01*
X175376807Y-92090298D01*
X175339601Y-92083307D01*
X175301026Y-92071914D01*
X175280974Y-92063839D01*
X175249805Y-92049518D01*
X175218819Y-92035804D01*
X175205214Y-92030023D01*
X175161222Y-92006808D01*
X175113504Y-91973306D01*
X175067034Y-91933449D01*
X175026785Y-91891166D01*
X175021729Y-91885027D01*
X174965442Y-91803855D01*
X174925436Y-91719884D01*
X174901444Y-91632322D01*
X174893200Y-91540375D01*
X174894134Y-91504263D01*
X174894494Y-91500000D01*
X174953553Y-91500000D01*
X174954694Y-91565635D01*
X174966979Y-91636171D01*
X174988798Y-91706802D01*
X175018545Y-91772723D01*
X175054612Y-91829129D01*
X175069710Y-91847146D01*
X175108446Y-91881777D01*
X175157930Y-91914666D01*
X175212313Y-91942543D01*
X175265745Y-91962142D01*
X175283333Y-91966482D01*
X175316503Y-91973375D01*
X175349137Y-91980094D01*
X175362500Y-91982820D01*
X175420734Y-91989516D01*
X175493815Y-91989018D01*
X175560278Y-91983712D01*
X175615824Y-91974481D01*
X175666753Y-91958091D01*
X175715946Y-91932924D01*
X175766287Y-91897365D01*
X175820660Y-91849795D01*
X175850000Y-91821261D01*
X175865750Y-91802778D01*
X175880248Y-91779021D01*
X175894875Y-91747069D01*
X175911011Y-91704006D01*
X175924795Y-91663081D01*
X175933435Y-91618876D01*
X175933601Y-91563952D01*
X175925270Y-91496705D01*
X175921918Y-91478106D01*
X175897892Y-91386200D01*
X175862462Y-91300389D01*
X175817194Y-91224017D01*
X175782308Y-91179981D01*
X175760540Y-91157909D01*
X175733039Y-91133194D01*
X175703098Y-91108416D01*
X175674009Y-91086154D01*
X175649067Y-91068987D01*
X175631563Y-91059494D01*
X175627083Y-91058413D01*
X175617388Y-91054064D01*
X175616666Y-91051603D01*
X175609142Y-91044122D01*
X175588463Y-91033279D01*
X175557467Y-91020398D01*
X175525000Y-91008795D01*
X175463225Y-90995744D01*
X175395722Y-90994512D01*
X175328049Y-91004651D01*
X175265763Y-91025716D01*
X175255975Y-91030420D01*
X175209293Y-91057953D01*
X175161171Y-91092994D01*
X175117580Y-91130856D01*
X175088473Y-91161855D01*
X175040290Y-91231897D01*
X175000672Y-91312254D01*
X174971615Y-91397925D01*
X174955114Y-91483909D01*
X174953553Y-91500000D01*
X174894494Y-91500000D01*
X174897676Y-91462345D01*
X174903204Y-91420893D01*
X174909763Y-91386529D01*
X174912770Y-91375224D01*
X174926500Y-91336025D01*
X174944574Y-91292147D01*
X174964710Y-91248490D01*
X174984625Y-91209953D01*
X175002037Y-91181438D01*
X175004812Y-91177639D01*
X175017680Y-91158921D01*
X175024612Y-91145317D01*
X175025000Y-91143282D01*
X175031318Y-91131595D01*
X175048364Y-91112707D01*
X175073273Y-91089064D01*
X175103182Y-91063112D01*
X175135226Y-91037296D01*
X175166542Y-91014061D01*
X175194266Y-90995855D01*
X175204166Y-90990287D01*
X175284263Y-90955709D01*
X175362899Y-90937072D01*
X175441398Y-90934398D01*
X175521085Y-90947711D01*
G37*
G36*
X175001585Y-90185431D02*
G01*
X175130551Y-90198651D01*
X175269222Y-90224191D01*
X175395833Y-90255548D01*
X175527432Y-90296989D01*
X175651190Y-90346909D01*
X175765299Y-90404335D01*
X175867951Y-90468296D01*
X175957338Y-90537821D01*
X176004729Y-90582704D01*
X176054722Y-90638951D01*
X176104250Y-90703537D01*
X176150816Y-90772546D01*
X176191926Y-90842063D01*
X176225082Y-90908171D01*
X176245930Y-90961118D01*
X176255345Y-90989278D01*
X176267033Y-91023482D01*
X176273911Y-91043298D01*
X176294394Y-91113541D01*
X176311691Y-91196327D01*
X176325342Y-91287758D01*
X176334890Y-91383934D01*
X176339876Y-91480958D01*
X176339840Y-91574930D01*
X176339026Y-91596772D01*
X176328790Y-91699185D01*
X176307011Y-91794504D01*
X176272583Y-91885637D01*
X176224399Y-91975488D01*
X176161353Y-92066964D01*
X176158733Y-92070402D01*
X176138414Y-92096603D01*
X176120574Y-92118955D01*
X176108856Y-92132897D01*
X176108333Y-92133469D01*
X176097009Y-92145685D01*
X176077911Y-92166274D01*
X176054604Y-92191394D01*
X176047318Y-92199247D01*
X176021013Y-92229473D01*
X176006847Y-92250651D01*
X176003939Y-92264134D01*
X176004323Y-92265346D01*
X176006893Y-92278872D01*
X176009689Y-92305130D01*
X176012357Y-92340198D01*
X176014349Y-92375935D01*
X176015991Y-92420498D01*
X176015767Y-92453460D01*
X176013216Y-92479827D01*
X176007878Y-92504606D01*
X176000175Y-92530101D01*
X175990773Y-92559449D01*
X175983563Y-92582804D01*
X175980004Y-92595435D01*
X175979922Y-92595833D01*
X175974473Y-92617476D01*
X175966086Y-92643471D01*
X175956577Y-92669016D01*
X175947759Y-92689315D01*
X175941450Y-92699567D01*
X175940525Y-92700000D01*
X175934058Y-92706726D01*
X175933333Y-92711932D01*
X175925926Y-92726253D01*
X175906245Y-92742313D01*
X175878102Y-92757483D01*
X175854166Y-92766558D01*
X175829182Y-92775109D01*
X175809053Y-92783153D01*
X175805821Y-92784694D01*
X175780916Y-92789444D01*
X175745835Y-92785079D01*
X175703884Y-92772281D01*
X175666666Y-92755967D01*
X175639595Y-92741645D01*
X175620141Y-92727976D01*
X175604038Y-92710731D01*
X175587021Y-92685680D01*
X175573934Y-92664027D01*
X175535369Y-92599014D01*
X175529934Y-92626590D01*
X175526042Y-92650704D01*
X175524320Y-92669923D01*
X175516317Y-92702431D01*
X175494187Y-92737963D01*
X175459712Y-92774577D01*
X175414676Y-92810333D01*
X175369588Y-92838505D01*
X175339278Y-92854348D01*
X175315538Y-92862844D01*
X175291067Y-92865887D01*
X175265051Y-92865633D01*
X175232557Y-92863704D01*
X175203091Y-92860734D01*
X175187500Y-92858238D01*
X175137815Y-92839265D01*
X175095397Y-92807072D01*
X175062908Y-92764458D01*
X175043013Y-92714222D01*
X175040898Y-92704166D01*
X175031492Y-92651736D01*
X175024925Y-92613296D01*
X175020872Y-92586474D01*
X175019009Y-92568896D01*
X175019011Y-92558191D01*
X175020180Y-92552864D01*
X175022493Y-92542838D01*
X175021717Y-92541666D01*
X175012107Y-92540022D01*
X174989997Y-92535625D01*
X174959171Y-92529276D01*
X174923415Y-92521776D01*
X174886511Y-92513927D01*
X174852244Y-92506530D01*
X174824397Y-92500387D01*
X174806755Y-92496298D01*
X174803576Y-92495468D01*
X174791534Y-92494878D01*
X174783320Y-92504167D01*
X174776664Y-92522732D01*
X174759367Y-92562514D01*
X174732074Y-92605117D01*
X174698551Y-92645994D01*
X174662563Y-92680599D01*
X174627877Y-92704386D01*
X174625000Y-92705816D01*
X174599581Y-92714515D01*
X174559722Y-92723572D01*
X174507630Y-92732528D01*
X174472276Y-92737549D01*
X174421557Y-92736608D01*
X174374058Y-92721303D01*
X174333794Y-92693184D01*
X174321018Y-92679200D01*
X174296599Y-92645130D01*
X174276504Y-92608184D01*
X174259867Y-92565676D01*
X174245826Y-92514921D01*
X174233517Y-92453230D01*
X174222078Y-92377920D01*
X174220567Y-92366666D01*
X174215439Y-92338600D01*
X174207062Y-92303044D01*
X174200041Y-92277585D01*
X174300000Y-92277585D01*
X174301702Y-92304417D01*
X174306286Y-92342544D01*
X174312963Y-92387004D01*
X174320946Y-92432835D01*
X174329450Y-92475074D01*
X174335183Y-92499431D01*
X174345980Y-92537517D01*
X174356939Y-92564679D01*
X174370796Y-92586460D01*
X174387662Y-92605681D01*
X174409765Y-92625835D01*
X174431740Y-92637723D01*
X174457505Y-92641974D01*
X174490978Y-92639217D01*
X174536077Y-92630082D01*
X174537500Y-92629751D01*
X174566948Y-92621458D01*
X174588898Y-92610391D01*
X174609809Y-92592556D01*
X174626691Y-92574565D01*
X174647586Y-92547932D01*
X174665828Y-92518588D01*
X174679655Y-92490277D01*
X174687302Y-92466745D01*
X174687008Y-92451737D01*
X174685462Y-92449735D01*
X174675331Y-92444693D01*
X174653298Y-92435559D01*
X174623151Y-92423866D01*
X174604166Y-92416784D01*
X174529997Y-92387628D01*
X174459267Y-92356292D01*
X174396286Y-92324799D01*
X174346876Y-92296140D01*
X174319385Y-92280078D01*
X174303716Y-92274547D01*
X174300000Y-92277585D01*
X174200041Y-92277585D01*
X174198619Y-92272429D01*
X174190719Y-92241463D01*
X174186293Y-92214705D01*
X174186291Y-92197920D01*
X174186306Y-92197865D01*
X174185516Y-92183726D01*
X174175230Y-92165295D01*
X174153755Y-92139611D01*
X174151734Y-92137405D01*
X174113571Y-92094964D01*
X174084049Y-92059158D01*
X174059778Y-92025089D01*
X174037369Y-91987858D01*
X174013433Y-91942567D01*
X174004223Y-91924217D01*
X173981778Y-91875535D01*
X173959312Y-91820576D01*
X173938829Y-91764764D01*
X173922332Y-91713521D01*
X173912720Y-91676583D01*
X173901728Y-91652070D01*
X173888183Y-91641926D01*
X173872915Y-91631812D01*
X173851462Y-91612480D01*
X173827672Y-91588021D01*
X173805392Y-91562527D01*
X173788469Y-91540088D01*
X173782258Y-91529290D01*
X173772479Y-91510543D01*
X173759170Y-91488333D01*
X173758635Y-91487500D01*
X173734196Y-91436952D01*
X173728961Y-91417628D01*
X173831711Y-91417628D01*
X173833251Y-91431919D01*
X173843424Y-91451276D01*
X173855900Y-91470448D01*
X173869784Y-91489565D01*
X173881386Y-91503762D01*
X173886708Y-91508326D01*
X173887028Y-91500484D01*
X173887369Y-91478941D01*
X173887697Y-91446661D01*
X173887753Y-91438630D01*
X173950859Y-91438630D01*
X173954059Y-91519227D01*
X173961511Y-91591139D01*
X173966582Y-91620849D01*
X173976641Y-91671492D01*
X173984297Y-91708301D01*
X173990623Y-91733744D01*
X173996697Y-91750285D01*
X174003593Y-91760391D01*
X174012386Y-91766528D01*
X174024152Y-91771162D01*
X174033542Y-91774409D01*
X174063676Y-91786473D01*
X174097611Y-91802019D01*
X174112500Y-91809526D01*
X174128559Y-91816469D01*
X174158118Y-91827794D01*
X174198836Y-91842695D01*
X174248375Y-91860371D01*
X174304394Y-91880017D01*
X174364552Y-91900830D01*
X174426511Y-91922006D01*
X174487929Y-91942741D01*
X174546468Y-91962233D01*
X174599787Y-91979678D01*
X174645545Y-91994271D01*
X174681404Y-92005211D01*
X174687500Y-92006980D01*
X174712905Y-92013911D01*
X174751633Y-92024024D01*
X174800801Y-92036604D01*
X174857528Y-92050934D01*
X174918932Y-92066298D01*
X174982131Y-92081979D01*
X175044244Y-92097261D01*
X175102388Y-92111427D01*
X175153682Y-92123762D01*
X175195244Y-92133548D01*
X175212500Y-92137493D01*
X175275237Y-92152066D01*
X175327226Y-92165349D01*
X175374141Y-92178896D01*
X175421655Y-92194263D01*
X175430388Y-92197232D01*
X175460691Y-92213350D01*
X175477384Y-92235000D01*
X175479407Y-92259851D01*
X175468780Y-92281780D01*
X175457388Y-92294282D01*
X175444823Y-92300411D01*
X175427970Y-92299854D01*
X175403716Y-92292301D01*
X175368946Y-92277436D01*
X175353104Y-92270166D01*
X175320526Y-92255122D01*
X175295562Y-92243938D01*
X175273953Y-92234995D01*
X175251439Y-92226674D01*
X175223758Y-92217357D01*
X175186652Y-92205424D01*
X175162500Y-92197738D01*
X175085394Y-92174478D01*
X174995747Y-92149630D01*
X174897476Y-92124240D01*
X174795833Y-92099669D01*
X174763059Y-92091308D01*
X174718688Y-92078991D01*
X174666959Y-92063946D01*
X174612114Y-92047402D01*
X174566666Y-92033224D01*
X174518808Y-92018402D01*
X174464750Y-92002273D01*
X174406678Y-91985429D01*
X174346777Y-91968461D01*
X174287235Y-91951960D01*
X174230236Y-91936517D01*
X174177968Y-91922724D01*
X174132616Y-91911171D01*
X174096367Y-91902450D01*
X174071406Y-91897153D01*
X174059920Y-91895870D01*
X174059492Y-91896062D01*
X174061548Y-91904430D01*
X174070814Y-91921689D01*
X174077947Y-91932985D01*
X174090927Y-91953882D01*
X174098853Y-91969113D01*
X174100000Y-91972958D01*
X174105304Y-91983753D01*
X174119446Y-92003460D01*
X174139766Y-92028922D01*
X174163604Y-92056984D01*
X174188301Y-92084490D01*
X174211197Y-92108285D01*
X174225000Y-92121282D01*
X174269635Y-92159556D01*
X174310328Y-92191755D01*
X174350050Y-92219586D01*
X174391777Y-92244757D01*
X174438483Y-92268973D01*
X174493141Y-92293941D01*
X174558725Y-92321368D01*
X174608083Y-92341109D01*
X174656959Y-92360380D01*
X174694080Y-92374599D01*
X174723209Y-92384800D01*
X174748107Y-92392017D01*
X174772536Y-92397284D01*
X174800257Y-92401635D01*
X174835031Y-92406104D01*
X174852193Y-92408209D01*
X174887597Y-92413079D01*
X174918461Y-92418274D01*
X174939666Y-92422900D01*
X174943859Y-92424219D01*
X174961315Y-92428556D01*
X174989405Y-92433226D01*
X175022150Y-92437240D01*
X175023195Y-92437345D01*
X175062344Y-92442908D01*
X175087626Y-92451602D01*
X175101809Y-92465535D01*
X175107662Y-92486814D01*
X175108333Y-92502176D01*
X175110634Y-92538146D01*
X175117130Y-92585992D01*
X175127213Y-92641633D01*
X175133910Y-92673379D01*
X175150387Y-92716003D01*
X175177356Y-92746456D01*
X175213332Y-92764155D01*
X175256829Y-92768520D01*
X175306362Y-92758966D01*
X175329849Y-92750134D01*
X175377485Y-92721684D01*
X175412573Y-92682525D01*
X175435351Y-92632310D01*
X175445154Y-92581250D01*
X175449024Y-92544110D01*
X175453295Y-92504738D01*
X175454287Y-92495897D01*
X175601700Y-92495897D01*
X175603896Y-92503752D01*
X175611878Y-92522365D01*
X175623708Y-92547726D01*
X175637447Y-92575825D01*
X175651157Y-92602652D01*
X175662899Y-92624198D01*
X175667212Y-92631401D01*
X175687700Y-92651736D01*
X175718583Y-92669055D01*
X175753595Y-92680439D01*
X175778718Y-92683326D01*
X175818600Y-92675136D01*
X175842066Y-92662222D01*
X175860821Y-92646574D01*
X175873593Y-92627554D01*
X175883932Y-92599371D01*
X175886804Y-92589306D01*
X175895716Y-92557388D01*
X175904089Y-92528106D01*
X175908873Y-92511908D01*
X175915547Y-92472627D01*
X175915322Y-92420429D01*
X175911295Y-92377322D01*
X175906068Y-92333811D01*
X175881095Y-92352322D01*
X175824585Y-92392416D01*
X175774637Y-92423407D01*
X175726152Y-92448102D01*
X175674031Y-92469306D01*
X175658333Y-92474916D01*
X175630961Y-92484627D01*
X175610676Y-92492136D01*
X175601749Y-92495860D01*
X175601700Y-92495897D01*
X175454287Y-92495897D01*
X175455108Y-92488583D01*
X175460217Y-92443833D01*
X175536358Y-92425431D01*
X175576573Y-92414648D01*
X175616648Y-92402134D01*
X175649584Y-92390123D01*
X175657257Y-92386847D01*
X175682489Y-92375977D01*
X175701650Y-92368651D01*
X175709111Y-92366666D01*
X175722094Y-92361584D01*
X175745065Y-92347671D01*
X175775346Y-92326926D01*
X175810256Y-92301349D01*
X175847115Y-92272938D01*
X175883245Y-92243693D01*
X175915965Y-92215612D01*
X175934856Y-92198244D01*
X176012951Y-92120017D01*
X176077845Y-92046468D01*
X176131338Y-91975009D01*
X176175231Y-91903051D01*
X176211322Y-91828005D01*
X176234865Y-91766666D01*
X176244225Y-91739336D01*
X176251199Y-91716644D01*
X176256159Y-91695401D01*
X176259480Y-91672418D01*
X176261536Y-91644506D01*
X176262700Y-91608475D01*
X176263345Y-91561137D01*
X176263680Y-91520833D01*
X176263273Y-91430675D01*
X176260299Y-91353365D01*
X176254398Y-91285230D01*
X176245210Y-91222599D01*
X176232374Y-91161799D01*
X176225962Y-91136504D01*
X176217088Y-91102734D01*
X176209352Y-91072867D01*
X176204190Y-91052450D01*
X176203595Y-91050000D01*
X176196182Y-91025235D01*
X176189856Y-91008333D01*
X176180594Y-90985671D01*
X176174783Y-90970833D01*
X176124181Y-90857466D01*
X176061970Y-90752476D01*
X175989553Y-90657785D01*
X175908330Y-90575312D01*
X175854166Y-90531160D01*
X175773115Y-90477578D01*
X175680171Y-90427758D01*
X175577993Y-90382397D01*
X175469239Y-90342191D01*
X175356567Y-90307837D01*
X175242637Y-90280033D01*
X175130105Y-90259475D01*
X175021631Y-90246861D01*
X174919872Y-90242887D01*
X174827487Y-90248250D01*
X174793819Y-90253154D01*
X174676726Y-90281895D01*
X174566202Y-90325806D01*
X174462561Y-90384610D01*
X174366115Y-90458031D01*
X174277178Y-90545790D01*
X174196062Y-90647610D01*
X174123080Y-90763216D01*
X174058545Y-90892328D01*
X174049759Y-90912500D01*
X174032514Y-90954917D01*
X174015615Y-91000125D01*
X174000873Y-91042971D01*
X173990099Y-91078306D01*
X173986740Y-91091666D01*
X173981866Y-91113469D01*
X173978462Y-91128206D01*
X173978227Y-91129166D01*
X173965597Y-91194615D01*
X173956746Y-91271335D01*
X173951794Y-91354336D01*
X173950859Y-91438630D01*
X173887753Y-91438630D01*
X173887977Y-91406610D01*
X173888063Y-91390318D01*
X173888626Y-91272318D01*
X173869434Y-91325742D01*
X173857679Y-91356890D01*
X173846199Y-91384739D01*
X173838471Y-91401276D01*
X173831711Y-91417628D01*
X173728961Y-91417628D01*
X173717089Y-91373803D01*
X173707684Y-91300597D01*
X173706356Y-91219879D01*
X173710543Y-91159180D01*
X173716024Y-91119316D01*
X173723898Y-91078573D01*
X173733085Y-91041332D01*
X173742507Y-91011973D01*
X173750933Y-90995066D01*
X173754823Y-90984092D01*
X173753559Y-90981337D01*
X173753303Y-90969994D01*
X173761999Y-90947945D01*
X173778173Y-90917486D01*
X173800350Y-90880912D01*
X173827058Y-90840520D01*
X173856820Y-90798605D01*
X173888163Y-90757463D01*
X173919612Y-90719391D01*
X173927575Y-90710334D01*
X173944554Y-90693123D01*
X174061803Y-90693123D01*
X174062018Y-90699332D01*
X174065913Y-90700000D01*
X174070689Y-90706288D01*
X174069244Y-90714583D01*
X174066849Y-90724593D01*
X174071765Y-90721471D01*
X174084468Y-90704756D01*
X174095192Y-90689236D01*
X174116340Y-90658074D01*
X174092031Y-90670644D01*
X174072628Y-90682639D01*
X174061803Y-90693123D01*
X173944554Y-90693123D01*
X173963030Y-90674394D01*
X174005012Y-90637847D01*
X174050388Y-90602868D01*
X174096023Y-90571630D01*
X174138783Y-90546309D01*
X174175535Y-90529079D01*
X174198097Y-90522642D01*
X174210876Y-90516006D01*
X174232286Y-90500020D01*
X174259221Y-90477164D01*
X174285406Y-90452970D01*
X174374819Y-90374909D01*
X174466843Y-90310429D01*
X174562490Y-90259349D01*
X174662775Y-90221489D01*
X174768710Y-90196670D01*
X174881309Y-90184710D01*
X175001585Y-90185431D01*
G37*
%TO.C,R4*%
D12*
X187120000Y-119653641D02*
X187120000Y-119346359D01*
X187880000Y-119653641D02*
X187880000Y-119346359D01*
%TO.C,R5*%
X192153641Y-98120000D02*
X191846359Y-98120000D01*
X192153641Y-98880000D02*
X191846359Y-98880000D01*
%TO.C,C12*%
X187650000Y-100107836D02*
X187650000Y-99892164D01*
X188370000Y-100107836D02*
X188370000Y-99892164D01*
%TO.C,R1*%
X184620000Y-119653641D02*
X184620000Y-119346359D01*
X185380000Y-119653641D02*
X185380000Y-119346359D01*
%TO.C,U2*%
X189227500Y-115440000D02*
X191047500Y-115440000D01*
X189227500Y-115490000D02*
X189227500Y-115440000D01*
X189227500Y-117390000D02*
X189227500Y-116610000D01*
X189227500Y-118560000D02*
X189227500Y-118510000D01*
X191047500Y-115440000D02*
X191047500Y-116440000D01*
X191047500Y-117560000D02*
X191047500Y-118560000D01*
X191047500Y-118560000D02*
X189227500Y-118560000D01*
X188687500Y-116620000D02*
X188927500Y-116950000D01*
X188447500Y-116950000D01*
X188687500Y-116620000D01*
G36*
X188927500Y-116950000D02*
G01*
X188447500Y-116950000D01*
X188687500Y-116620000D01*
X188927500Y-116950000D01*
G37*
%TO.C,J3*%
X199120000Y-91180000D02*
X200500000Y-91180000D01*
X199120000Y-92560000D02*
X199120000Y-91180000D01*
X199120000Y-93830000D02*
X199120000Y-129500000D01*
X199120000Y-93830000D02*
X201880000Y-93830000D01*
X199120000Y-129500000D02*
X201880000Y-129500000D01*
X201880000Y-93830000D02*
X201880000Y-129500000D01*
%TO.C,C7*%
X182620000Y-110892164D02*
X182620000Y-111107836D01*
X183340000Y-110892164D02*
X183340000Y-111107836D01*
%TO.C,C5*%
X192392164Y-101140000D02*
X192607836Y-101140000D01*
X192392164Y-101860000D02*
X192607836Y-101860000D01*
%TO.C,C11*%
X186640000Y-100107836D02*
X186640000Y-99892164D01*
X187360000Y-100107836D02*
X187360000Y-99892164D01*
%TD*%
M02*
